<?xml version="1.0" encoding="UTF-8" standalone="no"?>
<!-- Created with Inkscape (http://www.inkscape.org/) -->

<svg
   width="152.30777mm"
   height="65.374847mm"
   viewBox="0 0 152.30777 65.374847"
   version="1.1"
   id="svg1"
   xmlns="http://www.w3.org/2000/svg"
   xmlns:svg="http://www.w3.org/2000/svg">
  <defs
     id="defs1" />
  <g
     id="layer1">
    <g
       id="text1"
       style="font-size:35.2778px;line-height:1;fill:#ffffff;fill-rule:evenodd;stroke:#ffffff;stroke-width:0;stroke-linecap:round;stroke-linejoin:round"
       aria-label="1st MEETUP&#10;@SEOUL">
      <path
         style="font-family:Chewy;-inkscape-font-specification:Chewy"
         d="m 7.0624505,9.474019 q 0,1.06798 -0.034451,2.135961 -0.034451,1.06798 -0.068902,2.13596 -0.068902,1.757 -0.068902,3.514 0,1.722549 -0.1033529,3.479549 -0.034451,0.585666 -0.068902,1.584745 -0.034451,0.964627 -0.2756078,1.929255 -0.2067058,0.930176 -0.6890195,1.653646 -0.4823137,0.68902 -1.3435882,0.68902 -0.8268235,0 -1.3435881,-0.551216 Q 2.5493724,25.459273 2.2393136,24.597998 1.9637058,23.702273 1.8603528,22.634293 1.7569999,21.531861 1.7225489,20.498332 q 0,-1.06798 0.034451,-1.963706 0.034451,-0.895725 0.034451,-1.378039 0,-2.342666 0,-4.685333 0.034451,-2.342666 0.068902,-4.685333 Q 1.1713333,7.2002544 0.75792155,6.3734309 0.37896079,5.5121565 0.37896079,4.6164311 q 0,-1.4124901 0.82682351,-2.4115685 0.8612744,-0.9990784 2.3426665,-0.9990784 1.2746862,0 1.9981567,0.9646274 0.7234705,0.9646274 1.0335293,2.3082155 0.3445098,1.3435882 0.4134118,2.7560783 0.068902,1.3780391 0.068902,2.2393136 z M 20.119371,7.5103132 q 0,0.9990784 -0.68902,1.4813921 -0.654568,0.4823137 -1.481392,0.9301764 -0.826823,0.4134113 -1.515843,0.9990783 -0.654568,0.585667 -0.654568,1.757 0,0.620118 0.275607,1.06798 0.310059,0.447863 0.723471,0.826824 0.447863,0.344509 0.964627,0.72347 0.516765,0.378961 0.930177,0.861275 0.447862,0.482313 0.72347,1.171333 0.310059,0.68902 0.310059,1.688098 0,1.446941 -0.757921,2.859431 -0.723471,1.378039 -1.894804,2.48047 -1.136882,1.067981 -2.583824,1.722549 -1.446941,0.654569 -2.859431,0.654569 -0.585666,0 -1.171333,-0.103353 Q 9.8529794,26.561704 9.3706657,26.320547 8.922803,26.07939 8.6127442,25.665979 8.3026854,25.218116 8.3026854,24.529096 q 0,-0.964627 0.3789607,-1.481392 0.3789608,-0.551215 0.9646274,-0.861274 0.5856665,-0.310059 1.2402355,-0.482314 0.689019,-0.172255 1.274686,-0.413412 0.585667,-0.275607 0.964627,-0.689019 0.378961,-0.413412 0.378961,-1.171333 0,-0.723471 -0.585667,-1.481392 -0.551215,-0.792373 -1.240235,-1.653647 -0.689019,-0.895726 -1.274686,-1.894804 -0.5512156,-0.999079 -0.5512156,-2.204863 0,-1.481392 0.5856666,-2.721627 0.620118,-1.2746862 1.619196,-2.2048626 1.033529,-0.9301764 2.342666,-1.4469411 1.309138,-0.5512157 2.756079,-0.5512157 0.551215,0 1.06798,0.103353 0.551216,0.1033529 0.964627,0.3789607 0.413412,0.2411569 0.654569,0.6890196 0.275608,0.4134117 0.275608,1.0679803 z m 9.405116,20.1882728 q -2.44602,0 -3.824059,-0.654568 -1.343588,-0.620118 -2.032607,-1.791451 -0.654569,-1.171333 -0.792373,-2.82498 -0.137804,-1.653647 -0.137804,-3.686255 0,-1.619196 0.103353,-3.238392 0.103353,-1.653647 0.310059,-3.514 -0.482314,0 -0.757922,0.03445 -0.275607,0 -0.447862,0 -1.102432,0 -1.894804,-0.482313 -0.826824,-0.482314 -0.826824,-1.481392 0,-0.620118 0.482314,-1.1024317 0.447863,-0.4823137 1.171333,-0.8268235 0.723471,-0.3445098 1.550294,-0.5512156 0.861275,-0.2067059 1.619196,-0.2756079 0,-0.9646273 0.137804,-2.1359606 0.137804,-1.1713332 0.482314,-2.1704116 0.378961,-1.0335294 0.999078,-1.7225489 0.620118,-0.68901957 1.584745,-0.68901957 0.551216,0 0.964628,0.34450978 0.447862,0.31005879 0.72347,0.82682349 0.275608,0.4823137 0.413412,1.1024313 0.137804,0.6201176 0.137804,1.2057842 0,0.6890196 -0.103353,1.4124901 -0.103353,0.7234705 -0.378961,1.7914509 0.585667,-0.068902 0.792373,-0.068902 0.206706,-0.034451 0.37896,-0.034451 0.585667,0 1.205785,0.103353 0.654568,0.1033529 1.171333,0.3445097 0.551216,0.2411569 0.895725,0.6545686 0.34451,0.3789608 0.34451,0.9301764 0,0.6201176 -0.516765,1.1024309 -0.482313,0.482314 -1.240235,0.826824 -0.757921,0.34451 -1.619196,0.551216 -0.861274,0.172254 -1.619196,0.241156 -0.206706,1.412491 -0.310059,2.618275 -0.0689,1.171333 -0.172254,2.377117 -0.0689,0.585667 -0.137804,1.205784 -0.03445,0.585667 -0.03445,1.205785 0,0.447862 0.03445,1.06798 0.03445,0.585667 0.241157,1.136882 0.206705,0.551216 0.654568,0.964628 0.447863,0.37896 1.240235,0.37896 0.482314,0 0.999079,-0.0689 0.516764,-0.103352 1.033529,-0.103352 0.895725,0 1.274686,0.620117 0.413412,0.620118 0.413412,1.584745 0,0.723471 -0.447863,1.274686 -0.413412,0.516765 -1.06798,0.826824 -0.654569,0.34451 -1.481392,0.516764 -0.792373,0.172255 -1.515843,0.172255 z m 37.069251,-4.995391 q -0.103353,0.895725 -0.310059,1.756999 -0.172254,0.861275 -0.447862,1.550294 -0.275608,0.654569 -0.723471,1.03353 -0.413412,0.413411 -0.964627,0.413411 -0.551216,0 -0.999079,-0.861274 -0.447862,-0.826823 -0.861274,-2.204863 -0.378961,-1.41249 -0.723471,-3.16949 -0.310058,-1.756999 -0.585666,-3.54845 -0.241157,-1.825902 -0.413412,-3.548451 -0.172255,-1.722549 -0.275608,-2.997235 -0.206706,1.309137 -0.482313,2.928333 -0.275608,1.619196 -0.654569,3.307294 -0.378961,1.653647 -0.826823,3.272843 -0.447863,1.584745 -0.964628,2.859431 -0.516765,1.240235 -1.102431,1.998157 -0.585667,0.757921 -1.240235,0.757921 -0.585667,0 -1.171334,-0.792372 -0.585666,-0.792373 -1.136882,-2.067059 -0.551216,-1.309137 -1.033529,-2.893882 -0.482314,-1.584745 -0.895726,-3.16949 -0.413411,-1.619196 -0.72347,-3.031686 -0.310059,-1.446941 -0.482314,-2.411569 0,0.723471 -0.03445,1.619196 0,0.861275 0,1.240236 0,0.172254 -0.03445,1.136882 0,0.964627 -0.103353,2.308215 -0.103353,1.343589 -0.310059,2.893883 -0.206705,1.515843 -0.620117,2.82498 -0.378961,1.309137 -0.964628,2.204862 -0.585666,0.895726 -1.446941,0.964628 -0.689019,-0.310059 -1.171333,-1.03353 -0.447863,-0.757921 -0.757921,-1.756999 -0.310059,-0.999079 -0.482314,-2.135961 -0.172255,-1.136882 -0.275608,-2.204863 -0.103353,-1.102431 -0.137804,-2.032607 0,-0.930177 0,-1.515843 0,-1.03353 0.103353,-2.583824 0.137804,-1.584745 0.413412,-3.307294 0.275608,-1.7225486 0.72347,-3.4450975 0.447863,-1.7225489 1.067981,-3.066137 0.654568,-1.3780392 1.481392,-2.2393136 0.861274,-0.86127447 1.963705,-0.86127447 0.516765,0 1.102432,0.58566667 0.585666,0.5856666 1.171333,1.550294 0.585667,0.9301764 1.136882,2.1015096 0.551216,1.1713333 1.03353,2.3771175 0.516764,1.1713333 0.895725,2.2737646 0.378961,1.0679802 0.620118,1.8259022 0.275608,-0.826824 0.689019,-1.9292552 0.413412,-1.1024313 0.895726,-2.2737645 0.516764,-1.2057843 1.102431,-2.3426665 0.620118,-1.1713333 1.274686,-2.0670587 0.654569,-0.9301764 1.309137,-1.4813921 0.68902,-0.58566659 1.378039,-0.58566659 1.205785,0 2.067059,0.89572539 0.861275,0.8957255 1.446941,2.3426665 0.585667,1.4124901 0.930177,3.203941 0.344509,1.7569999 0.516764,3.5139997 0.206706,1.722549 0.241157,3.238392 0.0689,1.515843 0.0689,2.446019 0,0.378961 0,1.03353 0,0.654568 -0.03445,1.481392 0,0.826823 -0.0689,1.757 -0.0689,0.930176 -0.172255,1.860353 z M 84.33599,21.049548 q 0,0.654568 -0.344509,1.274686 -0.34451,0.585666 -1.619196,1.378039 -1.274687,0.792372 -2.824981,1.515843 -1.550294,0.689019 -2.997235,1.205784 -1.446941,0.482314 -2.13596,0.482314 -0.482314,0 -1.136883,-0.241157 -0.654568,-0.206706 -1.309137,-0.551216 -0.654568,-0.344509 -1.205784,-0.792372 -0.516765,-0.447863 -0.757921,-0.861275 -0.137804,-0.241156 -0.275608,-0.964627 -0.103353,-0.723471 -0.206706,-1.688098 -0.0689,-0.964627 -0.137804,-2.032608 -0.0689,-1.102431 -0.137804,-2.067058 -0.03445,-0.999079 -0.0689,-1.757 0,-0.757922 0,-1.102431 0,-1.274687 0.0689,-2.928334 0.103353,-1.653647 0.34451,-3.3072935 0.241157,-1.6880979 0.689019,-3.2039409 0.482314,-1.5502941 1.274687,-2.6182744 0.241156,-0.3100588 0.964627,-0.6545686 0.72347,-0.3445097 1.688098,-0.6545685 0.999078,-0.3100588 2.13596,-0.58566667 Q 77.480246,0.6201176 78.513775,0.44786271 79.581755,0.24115685 80.44303,0.13780391 81.304304,0 81.752167,0 q 0.516765,0 0.964627,0.24115685 0.482314,0.20670586 0.792373,0.58566662 0.34451,0.37896073 0.516765,0.86127443 0.206705,0.4478627 0.206705,0.9646274 0,0.4478627 -0.137803,0.7579215 -0.103353,0.3100588 -0.34451,0.6890196 -0.34451,0.4478627 -1.446941,1.0679803 -1.102432,0.6201176 -2.411569,1.2402352 -1.274686,0.5856666 -2.48047,1.0679803 -1.171333,0.4823137 -1.653647,0.6890196 -0.137804,0.7923725 -0.310059,1.619196 -0.137804,0.7923722 -0.206706,1.6191962 1.06798,-0.551216 2.411569,-1.03353 1.343588,-0.4823133 2.549372,-0.4823133 2.446019,0 2.446019,2.4115683 0,0.585667 -0.241156,1.03353 -0.206706,0.447862 -0.585667,0.792372 -0.34451,0.34451 -0.826824,0.620118 -0.447862,0.241156 -0.895725,0.482313 -1.102431,0.585667 -2.308215,1.03353 -1.205785,0.413411 -2.411569,0.826823 -0.0689,0.275608 -0.137804,0.620118 -0.0689,0.310059 -0.0689,0.620117 0,0.482314 0.0689,0.964628 0.0689,0.482313 0.137804,0.964627 0.413412,-0.137804 1.309137,-0.447863 0.930177,-0.310058 1.929255,-0.620117 0.999078,-0.310059 1.929255,-0.516765 0.930176,-0.241157 1.378039,-0.241157 0.516765,0 0.964627,0.241157 0.447863,0.206706 0.757922,0.585667 0.310059,0.34451 0.482314,0.826823 0.206705,0.482314 0.206705,0.964628 z m 16.57092,0 q 0,0.654568 -0.34451,1.274686 -0.34451,0.585666 -1.619193,1.378039 -1.274686,0.792372 -2.82498,1.515843 -1.550294,0.689019 -2.997235,1.205784 -1.446941,0.482314 -2.13596,0.482314 -0.482314,0 -1.136883,-0.241157 -0.654568,-0.206706 -1.309137,-0.551216 -0.654568,-0.344509 -1.205784,-0.792372 -0.516765,-0.447863 -0.757922,-0.861275 -0.137804,-0.241156 -0.275607,-0.964627 -0.103353,-0.723471 -0.206706,-1.688098 -0.0689,-0.964627 -0.137804,-2.032608 -0.0689,-1.102431 -0.137804,-2.067058 -0.03445,-0.999079 -0.0689,-1.757 0,-0.757922 0,-1.102431 0,-1.274687 0.0689,-2.928334 0.103353,-1.653647 0.34451,-3.3072935 0.241156,-1.6880979 0.689019,-3.2039409 0.482314,-1.5502941 1.274686,-2.6182744 0.241157,-0.3100588 0.964628,-0.6545686 0.72347,-0.3445097 1.688098,-0.6545685 0.999078,-0.3100588 2.13596,-0.58566667 1.136883,-0.27560783 2.170412,-0.44786272 1.06798,-0.20670586 1.929255,-0.3100588 Q 97.875227,0 98.32309,0 q 0.516765,0 0.964627,0.24115685 0.482314,0.20670586 0.792373,0.58566662 0.34451,0.37896073 0.51676,0.86127443 0.20671,0.4478627 0.20671,0.9646274 0,0.4478627 -0.1378,0.7579215 -0.10336,0.3100588 -0.34451,0.6890196 -0.344513,0.4478627 -1.446944,1.0679803 -1.102432,0.6201176 -2.411569,1.2402352 -1.274686,0.5856666 -2.48047,1.0679803 -1.171334,0.4823137 -1.653647,0.6890196 -0.137804,0.7923725 -0.310059,1.619196 -0.137804,0.7923722 -0.206706,1.6191962 1.06798,-0.551216 2.411568,-1.03353 1.343589,-0.4823133 2.549373,-0.4823133 2.446019,0 2.446019,2.4115683 0,0.585667 -0.241157,1.03353 -0.206705,0.447862 -0.585666,0.792372 -0.34451,0.34451 -0.826824,0.620118 -0.447862,0.241156 -0.895725,0.482313 -1.102431,0.585667 -2.308216,1.03353 -1.205784,0.413411 -2.411568,0.826823 -0.0689,0.275608 -0.137804,0.620118 -0.0689,0.310059 -0.0689,0.620117 0,0.482314 0.0689,0.964628 0.0689,0.482313 0.137804,0.964627 0.413412,-0.137804 1.309137,-0.447863 0.930177,-0.310058 1.929255,-0.620117 0.999078,-0.310059 1.929255,-0.516765 0.930176,-0.241157 1.378039,-0.241157 0.516764,0 0.964627,0.241157 0.447863,0.206706 0.757918,0.585667 0.31006,0.34451 0.48232,0.826823 0.2067,0.482314 0.2067,0.964628 z M 117.37448,2.9283331 q 0,0.8612745 -0.68902,1.584745 -0.65457,0.6890196 -1.61919,1.2402352 -0.93018,0.5167647 -1.92926,0.8612745 -0.99908,0.3445098 -1.65364,0.4823137 -0.27561,2.6527253 -0.44787,5.3054505 -0.1378,2.618274 -0.1378,5.271 0,1.41249 0.0689,2.790529 0.0689,1.378039 0.0689,2.756078 0,0.620118 -0.1378,1.378039 -0.10335,0.723471 -0.41341,1.378039 -0.27561,0.654569 -0.79237,1.102432 -0.51677,0.447862 -1.27469,0.447862 -0.89573,0 -1.44694,-0.516764 -0.51677,-0.482314 -0.82683,-1.205784 -0.2756,-0.723471 -0.37896,-1.515843 -0.10335,-0.826824 -0.10335,-1.481393 -0.0689,-2.067058 -0.10335,-4.134117 -0.0345,-2.10151 -0.0345,-4.203019 0,-1.757 0,-3.445098 0.0345,-1.688098 0.0345,-3.4450978 -0.48232,0.068902 -0.99908,0.1033529 -0.48231,0.034451 -0.99908,0.034451 -0.41341,0 -1.10243,-0.068902 -0.65457,-0.1033529 -1.27469,-0.3100588 -0.62011,-0.2411568 -1.06798,-0.6201176 -0.44786,-0.4134117 -0.44786,-1.0335293 0,-1.0335294 0.82682,-1.7914509 0.79238,-0.7923725 2.03261,-1.3435881 1.27469,-0.5856667 2.79053,-0.9646274 1.55029,-0.4134117 3.03169,-0.62011761 1.51584,-0.24115685 2.75608,-0.34450979 1.27468,-0.10335293 1.9637,-0.10335293 0.65457,0 1.37804,0.068902 0.75792,0.034451 1.41249,0.27560782 0.65457,0.24115681 1.06798,0.72347051 0.44786,0.4823137 0.44786,1.3435881 z m 16.67428,11.4377249 q 0,1.41249 -0.13781,2.928333 -0.1378,1.481392 -0.48231,2.893882 -0.34451,1.41249 -0.96463,2.687176 -0.58566,1.240236 -1.51584,2.204863 -0.93018,0.930176 -2.23931,1.481392 -1.30914,0.551216 -3.06614,0.551216 -2.58382,0 -4.51308,-1.205785 -1.8948,-1.205784 -3.16949,-3.066137 -1.27469,-1.894803 -1.8948,-4.203019 -0.62012,-2.342666 -0.62012,-4.616431 0,-0.241157 0,-0.447863 0,-0.206706 0.0345,-0.37896 0.0344,-0.723471 0.10335,-1.963706 0.10336,-1.2402354 0.31006,-2.6527255 0.20671,-1.4124901 0.51677,-2.8938821 0.34451,-1.4813921 0.86127,-2.6527253 0.55122,-1.1713333 1.30914,-1.9292548 0.75792,-0.75792152 1.79145,-0.75792152 0.75792,0 1.27469,0.44786271 0.51676,0.44786271 0.82682,1.13688231 0.34451,0.6545686 0.48231,1.4124901 0.13781,0.7234705 0.13781,1.3435881 0,0.9301764 -0.20671,1.8948038 -0.17225,0.9301764 -0.34451,1.8603528 -0.27561,1.4813921 -0.44786,2.9627844 -0.17226,1.481392 -0.17226,3.031686 0,0.792372 0.0689,1.929255 0.10335,1.136882 0.44786,2.204862 0.34451,1.03353 0.96463,1.791451 0.65456,0.723471 1.757,0.723471 1.06798,0 1.68809,-0.723471 0.65457,-0.723471 0.96463,-1.722549 0.31006,-0.999078 0.37896,-2.10151 0.10335,-1.102431 0.10335,-1.894803 0,-2.273765 -0.37896,-4.478627 -0.37896,-2.2393141 -0.99907,-4.4441766 -0.17226,-0.5856667 -0.31006,-1.1713333 -0.10336,-0.5856666 -0.10336,-1.1713333 0,-0.9646273 0.55122,-1.6880979 0.58567,-0.72347051 1.6192,-0.72347051 0.86127,0 1.58474,0.68901951 0.75792,0.6545686 1.34359,1.7569999 0.58567,1.0679803 0.99908,2.4115685 0.44786,1.3435881 0.75792,2.6871763 0.31006,1.3091371 0.44786,2.5149214 0.17226,1.205784 0.20671,1.963706 0.0344,0.34451 0.0344,0.689019 0,0.310059 0,0.68902 z m 18.25901,-6.3734311 q 0,1.8603528 -0.82682,3.6518041 -0.79237,1.79145 -2.13596,3.238392 -1.34359,1.41249 -3.06614,2.342666 -1.72255,0.895725 -3.54845,0.999078 -0.0344,0.620118 -0.0689,1.584745 0,0.930177 -0.10335,1.963706 -0.10336,1.033529 -0.31006,2.067059 -0.17226,1.033529 -0.55122,1.860353 -0.34451,0.826823 -0.93017,1.343588 -0.55122,0.516764 -1.37804,0.516764 -0.96463,0 -1.5503,-0.654568 -0.55121,-0.620118 -0.86127,-1.515843 -0.27561,-0.895726 -0.37896,-1.860353 -0.10335,-0.999078 -0.13781,-1.688098 -0.0689,-0.999078 -0.10335,-1.963706 0,-0.964627 0,-1.963705 0,-0.447863 0,-1.653647 0,-1.240236 0,-2.79053 0.0345,-1.584745 0.0689,-3.272842 0.0344,-1.7225494 0.10336,-3.1694905 0.0689,-1.481392 0.1378,-2.5149214 0.10335,-1.0335293 0.24116,-1.2057842 0.0345,-0.034451 0.2067,-0.1378039 0.17226,-0.1378039 0.37896,-0.2411569 0.20671,-0.1378039 0.37896,-0.2411568 0.17226,-0.1033529 0.24116,-0.1378039 1.58475,-0.8957255 3.47955,-1.55029404 1.8948,-0.65456858 3.75516,-0.65456858 1.58474,0 2.85943,0.65456858 1.30913,0.62011764 2.20486,1.68809794 0.93018,1.0335293 1.41249,2.4460194 0.48231,1.3780391 0.48231,2.8594312 z m -5.96002,0.7923725 q 0,-0.6890196 -0.3445,-1.2057842 -0.31006,-0.5167647 -1.06799,-0.5167647 -0.65456,0 -1.30913,0.2756078 -0.65457,0.2411569 -1.20579,0.5167647 0.10336,1.2057842 0.17226,2.342667 0.10335,1.136882 0.0344,2.342666 0.55121,-0.275608 1.20578,-0.620118 0.65457,-0.37896 1.20579,-0.826823 0.55121,-0.447863 0.93017,-0.999078 0.37896,-0.5856671 0.37896,-1.3091376 z"
         id="path1" />
      <path
         style="font-family:Chewy;-inkscape-font-specification:Chewy"
         d="m 23.908979,49.665198 q 0,1.515843 -0.413412,3.100588 -0.413412,1.550294 -1.240235,2.82498 -0.826824,1.240235 -2.10151,2.067059 -1.274686,0.792372 -2.997235,0.792372 -1.309137,0 -2.273764,-0.930176 -0.930177,-0.930176 -1.102432,-2.204863 -0.03445,0.68902 -0.378961,1.205785 -0.310058,0.516764 -0.826823,0.861274 -0.482314,0.310059 -1.102431,0.482314 -0.620118,0.172255 -1.240235,0.172255 -1.1024318,0 -1.9981572,-0.482314 Q 7.3725093,57.072158 6.7523917,56.279786 6.1322741,55.487413 5.7877643,54.488335 5.4432546,53.489257 5.4432546,52.490178 q 0,-1.584745 0.6201176,-3.031686 0.6201176,-1.446941 1.6536469,-2.549372 1.0679803,-1.136883 2.4804709,-1.791451 1.41249,-0.68902 3.031686,-0.68902 0.72347,0 1.584745,0.172255 0.895725,0.137804 1.515843,0.447863 0.482313,0.241157 0.551215,0.861274 0.103353,0.585667 0.103353,0.999079 0,0.999078 -0.172255,2.032607 -0.172255,1.03353 -0.37896,2.032608 -0.172255,0.723471 -0.34451,1.446941 -0.137804,0.68902 -0.137804,1.41249 0,0.585667 0.206706,1.067981 0.206706,0.447862 0.895725,0.447862 0.861275,0 1.515843,-0.689019 0.654569,-0.723471 1.067981,-1.722549 0.447862,-0.999078 0.654568,-2.067059 0.206706,-1.06798 0.206706,-1.791451 0,-1.722549 -0.654569,-2.997235 -0.654568,-1.309137 -1.756999,-2.13596 -1.102432,-0.861275 -2.583824,-1.274687 -1.446941,-0.447862 -3.100588,-0.447862 -2.067059,0 -3.7207055,0.757921 -1.619196,0.723471 -2.7560782,1.998157 -1.1368823,1.274686 -1.7569999,3.031686 -0.6201176,1.722549 -0.6201176,3.686255 0,2.032607 0.6201176,3.720705 0.6201176,1.688098 1.7569999,2.928333 1.1713332,1.205785 2.8249802,1.894804 1.6536465,0.68902 3.7207055,0.68902 1.06798,0 2.032608,-0.206706 0.999078,-0.206706 1.894804,-0.447863 0.930176,-0.275608 1.756999,-0.482313 0.861275,-0.206706 1.688098,-0.206706 0.447863,0 0.999079,0.206706 0.585666,0.206705 0.585666,0.792372 0,0.654569 -0.585666,1.171333 -0.585667,0.516765 -1.481392,0.930177 -0.895726,0.37896 -1.998157,0.654568 -1.102431,0.241157 -2.170412,0.413412 -1.06798,0.172255 -1.929254,0.275608 -0.861275,0.0689 -1.309138,0.0689 -1.033529,0 -2.2393132,-0.103353 Q 8.5438426,63.859001 7.5447642,63.48004 5.6155095,62.75657 4.2030194,61.550785 2.7905293,60.31055 1.8603528,58.760256 0.93017644,57.175511 0.44786274,55.315158 2.9802322e-8,53.454806 2.9802322e-8,51.456649 q 0,-2.618274 0.930176410197678,-4.960941 0.96462736,-2.342666 2.65272526,-4.099666 1.688098,-1.791451 3.9963135,-2.824981 2.3082155,-1.033529 5.0298428,-1.033529 2.48047,0 4.547529,0.792373 2.067059,0.792372 3.548451,2.273764 1.515843,1.446941 2.342666,3.514 0.861275,2.032608 0.861275,4.547529 z m -9.680725,-1.963706 q -0.172255,-0.03445 -0.378961,-0.03445 -0.172255,0 -0.34451,0 -0.620117,0 -1.274686,0.137804 -0.654568,0.137804 -1.240235,0.413412 -0.585667,0.275608 -1.0679803,0.689019 -0.4823137,0.413412 -0.7579215,0.964628 -0.3100588,0.620117 -0.5167647,1.274686 -0.2067059,0.654569 -0.2067059,1.309137 0,0.413412 0.137804,0.895726 0.1378039,0.447862 0.3789607,0.826823 0.2756078,0.378961 0.6201176,0.620118 0.3789608,0.241157 0.8612741,0.241157 0.413412,0 0.895726,-0.275608 0.482313,-0.275608 0.895725,-0.654569 0.447863,-0.378961 0.757922,-0.826823 0.310059,-0.447863 0.378961,-0.792373 0.275607,-1.205784 0.447862,-2.377117 0.206706,-1.205785 0.413412,-2.411569 z m 22.496489,-7.854823 q 0,0.792373 -0.516764,1.378039 -0.482314,0.585667 -1.171334,0.964628 -0.620117,0.378961 -1.274686,0.826823 -0.654568,0.413412 -1.205784,0.964628 -0.551216,0.516764 -0.895726,1.171333 -0.344509,0.654568 -0.344509,1.481392 0,0.72347 0.344509,1.309137 0.34451,0.585667 0.826824,1.171333 0.516765,0.551216 1.102431,1.171334 0.620118,0.585666 1.102432,1.343588 0.516764,0.72347 0.861274,1.653647 0.34451,0.930176 0.34451,2.170411 0,0.861275 -0.378961,1.963706 -0.34451,1.06798 -0.964627,2.170412 -0.620118,1.102431 -1.481392,2.13596 -0.826824,1.03353 -1.791451,1.860353 -0.930177,0.792373 -1.963706,1.274686 -1.033529,0.516765 -1.998157,0.516765 -1.06798,0 -1.894804,-0.585667 -0.826823,-0.585666 -0.826823,-1.757 0,-0.792372 0.378961,-1.446941 0.37896,-0.689019 0.930176,-1.309137 0.551216,-0.620117 1.205784,-1.205784 0.68902,-0.585667 1.240236,-1.171333 0.551215,-0.585667 0.930176,-1.205784 0.378961,-0.654569 0.378961,-1.37804 0,-0.999078 -0.723471,-2.032607 -0.689019,-1.067981 -1.550294,-2.170412 -0.861274,-1.136882 -1.584745,-2.308215 -0.689019,-1.171334 -0.689019,-2.377118 0,-1.481392 0.792372,-3.100588 0.792373,-1.653647 2.032608,-2.997235 1.240235,-1.378039 2.790529,-2.273765 1.550294,-0.895725 3.066137,-0.895725 1.205784,0 2.067059,0.723471 0.861274,0.72347 0.861274,1.963705 z m 16.226413,18.775783 q 0,0.654569 -0.34451,1.274686 -0.344509,0.585667 -1.619196,1.37804 -1.274686,0.792372 -2.82498,1.515843 -1.550294,0.689019 -2.997235,1.205784 -1.446941,0.482314 -2.135961,0.482314 -0.482313,0 -1.136882,-0.241157 -0.654568,-0.206706 -1.309137,-0.551216 -0.654569,-0.34451 -1.205784,-0.792372 -0.516765,-0.447863 -0.757922,-0.861275 -0.137804,-0.241157 -0.275608,-0.964627 -0.103353,-0.723471 -0.206705,-1.688098 -0.0689,-0.964628 -0.137804,-2.032608 -0.0689,-1.102431 -0.137804,-2.067059 -0.03445,-0.999078 -0.0689,-1.756999 0,-0.757922 0,-1.102432 0,-1.274686 0.0689,-2.928333 0.103353,-1.653647 0.344509,-3.307294 0.241157,-1.688098 0.68902,-3.203941 0.482314,-1.550294 1.274686,-2.618274 0.241157,-0.310059 0.964628,-0.654569 0.72347,-0.344509 1.688098,-0.654568 0.999078,-0.310059 2.13596,-0.585667 1.136882,-0.275608 2.170412,-0.447863 1.06798,-0.206705 1.929255,-0.310058 0.861274,-0.137804 1.309137,-0.137804 0.516764,0 0.964627,0.241157 0.482314,0.206705 0.792373,0.585666 0.344509,0.378961 0.516764,0.861275 0.206706,0.447862 0.206706,0.964627 0,0.447863 -0.137804,0.757922 -0.103353,0.310058 -0.34451,0.689019 -0.344509,0.447863 -1.446941,1.06798 -1.102431,0.620118 -2.411568,1.240236 -1.274686,0.585666 -2.480471,1.06798 -1.171333,0.482314 -1.653646,0.689019 -0.137804,0.792373 -0.310059,1.619196 -0.137804,0.792373 -0.206706,1.619196 1.06798,-0.551215 2.411568,-1.033529 1.343588,-0.482314 2.549373,-0.482314 2.446019,0 2.446019,2.411569 0,0.585666 -0.241157,1.033529 -0.206706,0.447863 -0.585666,0.792373 -0.34451,0.344509 -0.826824,0.620117 -0.447863,0.241157 -0.895725,0.482314 -1.102432,0.585667 -2.308216,1.033529 -1.205784,0.413412 -2.411568,0.826824 -0.0689,0.275608 -0.137804,0.620117 -0.0689,0.310059 -0.0689,0.620118 0,0.482314 0.0689,0.964627 0.0689,0.482314 0.137804,0.964628 0.413412,-0.137804 1.309137,-0.447863 0.930176,-0.310059 1.929255,-0.620118 0.999078,-0.310058 1.929254,-0.516764 0.930177,-0.241157 1.37804,-0.241157 0.516764,0 0.964627,0.241157 0.447863,0.206706 0.757922,0.585666 0.310058,0.34451 0.482313,0.826824 0.206706,0.482314 0.206706,0.964627 z m 9.095058,6.545686 q -2.10151,0 -3.651804,-1.06798 -1.550294,-1.03353 -2.583823,-2.790529 -0.999079,-1.791451 -1.515844,-4.134118 -0.482313,-2.342666 -0.482313,-4.92649 0,-2.411568 0.516764,-4.892039 0.551216,-2.48047 1.653647,-4.478627 1.102432,-1.998156 2.79053,-3.272843 1.688098,-1.274686 4.030764,-1.274686 2.273765,0 3.789608,1.240235 1.550294,1.205785 2.446019,3.16949 0.930176,1.929255 1.309137,4.340824 0.413412,2.411568 0.413412,4.823137 0,2.687176 -0.551216,5.098744 -0.516764,2.377118 -1.619196,4.20302 -1.06798,1.825901 -2.721627,2.893882 -1.619196,1.06798 -3.824058,1.06798 z m 0.413411,-19.223646 q -0.654568,0 -1.136882,0.516765 -0.447863,0.516765 -0.757922,1.378039 -0.310058,0.826824 -0.447862,1.894804 -0.137804,1.033529 -0.137804,2.10151 0,1.205784 0.137804,2.411568 0.172255,1.205784 0.482313,2.170412 0.310059,0.964627 0.757922,1.550294 0.482314,0.585666 1.136882,0.585666 0.757922,0 1.205784,-0.757921 0.447863,-0.757922 0.68902,-1.825902 0.275608,-1.06798 0.34451,-2.204863 0.103353,-1.136882 0.103353,-1.894803 0,-0.930177 -0.137804,-1.963706 -0.103353,-1.03353 -0.378961,-1.894804 -0.275608,-0.895725 -0.72347,-1.481392 -0.447863,-0.585667 -1.136883,-0.585667 z m 28.697669,5.994471 q 0,1.41249 -0.137804,2.928333 -0.137804,1.481392 -0.482314,2.893882 -0.34451,1.41249 -0.964627,2.687176 -0.585667,1.240235 -1.515843,2.204863 -0.930177,0.930176 -2.239314,1.481392 -1.309137,0.551215 -3.066137,0.551215 -2.583823,0 -4.513078,-1.205784 -1.894804,-1.205784 -3.16949,-3.066137 -1.274686,-1.894804 -1.894804,-4.203019 -0.620118,-2.342667 -0.620118,-4.616431 0,-0.241157 0,-0.447863 0,-0.206706 0.03445,-0.378961 0.03445,-0.72347 0.103353,-1.963705 0.103353,-1.240236 0.310059,-2.652726 0.206706,-1.41249 0.516765,-2.893882 0.34451,-1.481392 0.861274,-2.652725 0.551216,-1.171333 1.309137,-1.929255 0.757922,-0.757922 1.791451,-0.757922 0.757922,0 1.274687,0.447863 0.516764,0.447863 0.826823,1.136882 0.34451,0.654569 0.482314,1.412491 0.137804,0.72347 0.137804,1.343588 0,0.930176 -0.206706,1.894804 -0.172255,0.930176 -0.34451,1.860352 -0.275608,1.481392 -0.447863,2.962784 -0.172255,1.481392 -0.172255,3.031687 0,0.792372 0.0689,1.929254 0.103353,1.136883 0.447863,2.204863 0.34451,1.033529 0.964627,1.791451 0.654569,0.72347 1.757,0.72347 1.067981,0 1.688098,-0.72347 0.654569,-0.723471 0.964628,-1.722549 0.310058,-0.999079 0.37896,-2.10151 0.103353,-1.102431 0.103353,-1.894804 0,-2.273764 -0.37896,-4.478627 -0.378961,-2.239313 -0.999079,-4.444176 -0.172255,-0.585667 -0.310059,-1.171333 -0.103353,-0.585667 -0.103353,-1.171333 0,-0.964628 0.551216,-1.688098 0.585667,-0.723471 1.619196,-0.723471 0.861274,0 1.584745,0.68902 0.757922,0.654568 1.343588,1.757 0.585667,1.06798 0.999079,2.411568 0.447862,1.343588 0.757921,2.687176 0.310059,1.309137 0.447863,2.514922 0.172255,1.205784 0.206706,1.963705 0.03445,0.34451 0.03445,0.68902 0,0.310059 0,0.68902 z m 18.706876,7.338058 q 0,0.861274 -0.72347,1.619196 -0.68902,0.757921 -1.8259,1.378039 -1.10243,0.620118 -2.48047,1.102431 -1.37804,0.447863 -2.72163,0.757922 -1.34359,0.34451 -2.54937,0.516764 -1.171333,0.172255 -1.860353,0.172255 -0.654568,0 -1.41249,-0.137804 -0.72347,-0.103353 -1.205784,-0.516764 -0.275608,-0.206706 -0.482314,-0.930177 -0.206706,-0.72347 -0.413411,-1.722549 -0.172255,-0.999078 -0.310059,-2.13596 -0.137804,-1.171333 -0.241157,-2.273765 -0.0689,-1.102431 -0.137804,-2.032607 -0.03445,-0.930177 -0.03445,-1.446942 0,-0.861274 0.03445,-2.067058 0.0689,-1.240235 0.172255,-2.618275 0.103353,-1.41249 0.275608,-2.859431 0.172255,-1.446941 0.378961,-2.721627 0.241156,-1.309137 0.551215,-2.342666 0.34451,-1.03353 0.723471,-1.619196 0.654568,-0.930177 1.653647,-0.930177 0.689019,0 1.171333,0.482314 0.482314,0.447863 0.757921,1.205784 0.310059,0.723471 0.447863,1.653647 0.172255,0.895725 0.241157,1.791451 0.0689,0.895725 0.0689,1.653647 0,0.757921 0,1.205784 0,2.687176 -0.137804,5.339902 -0.103353,2.618274 -0.103353,5.30545 v 1.343588 q 1.550298,-0.482313 3.376198,-0.895725 1.8259,-0.447863 3.47955,-0.447863 0.58567,0 1.17133,0.0689 0.62012,0.0689 1.06798,0.310059 0.48232,0.206706 0.75792,0.654569 0.31006,0.413411 0.31006,1.136882 z"
         id="path2" />
    </g>
  </g>
</svg>
