<svg
   viewBox="0 0 2303.9997 1995.3225"
   xmlns="http://www.w3.org/2000/svg">
   <polygon
      fill="#ffffff"
      points="512.0,1884.47131 704.0,1551.91756 528.0,1247.07662 656.0,1025.374113 1216.0,1995.32257 960.0,1995.32257 832.0,1773.62006 704.0,1995.32257 576.0,1995.32257"
   />
   <polygon
      fill="#ffffff"
      points="64.0,886.81005 448.0,886.81005 624.0,581.96911 880.0,581.96911 320.0,1551.91756 192.0,1330.21506 320.0,1108.51255 64.0,1108.51255 0.0,997.6613"
   />
   <polygon
      fill="#ffffff"
      points="704.0,3e-05 896.0,332.55379 1248.0,332.55379 1376.0,554.25629 256.0,554.25629 384.0,332.55379 640.0,332.55379 512.0,110.85129 576.0,3e-05"
   />
   <polygon
      fill="#ffffff"
      points="1792.0,110.85129 1600.0,443.40504 1776.0,748.24598 1648.0,969.948487 1088.0,3e-05 1344.0,3e-05 1472.0,221.70254 1600.0,3e-05 1728.0,3e-05"
   />
   <polygon
      fill="#ffffff"
      points="2240.0,1108.51255 1856.0,1108.51255 1680.0,1413.35349 1424.0,1413.35349 1984.0,443.40504 2112.0,665.10754 1984.0,886.81005 2240.0,886.81005 2304.0,997.6613"
   />
   <polygon
      fill="#ffffff"
      points="1600.0,1995.32257 1408.0,1662.76881 1056.0,1662.76881 928.0,1441.06631 2048.0,1441.06631 1920.0,1662.76881 1664.0,1662.76881 1792.0,1884.47131 1728.0,1995.32257"
   />
</svg>
