<?xml version="1.0" encoding="UTF-8" standalone="no"?>
<!-- Created with Inkscape (http://www.inkscape.org/) -->

<svg
   width="1040.9397mm"
   height="79.268982mm"
   viewBox="0 0 1040.9397 79.268982"
   version="1.1"
   id="svg1"
   xmlns="http://www.w3.org/2000/svg"
   xmlns:svg="http://www.w3.org/2000/svg">
  <defs
     id="defs1" />
  <g
     id="layer1"
     transform="translate(3.4760942e-5,-166.00002)">
    <g
       id="text9"
       style="font-weight:bold;font-size:35.2777px;font-family:NanumGothic;-inkscape-font-specification:'NanumGothic Bold';text-align:end;text-anchor:end;display:inline;fill:#ffffff;fill-rule:evenodd;stroke:#ffffff;stroke-width:0;stroke-linecap:round;stroke-linejoin:round"
       aria-label="폰트는 어떻게 만들어지는가 - NeoDGM 사례로 살펴보는 개발 후일담&#10;(@dalgona@hackers.pub)">
      <path
         d="m 27.51657,178.94692 q 0,0.21167 -0.176388,0.38806 -0.141111,0.14111 -0.352777,0.14111 h -9.101647 v 3.73943 h 13.299693 q 0.176388,0 0.352777,0.17639 0.176388,0.14111 0.176388,0.3175 v 2.36361 q 0,0.17638 -0.176388,0.35277 -0.176389,0.17639 -0.352777,0.17639 H 0.49385302 q -0.21166619,0 -0.35277699,-0.14111 -0.141110790945,-0.17639 -0.141110790945,-0.38805 v -2.36361 q 0,-0.49389 0.493887780945,-0.49389 H 13.828823 v -3.73943 H 4.7271768 q -0.1763885,0 -0.3880546,-0.17639 -0.2116662,-0.17639 -0.2116662,-0.38806 v -2.0461 q 0,-0.17639 0.2116662,-0.35278 0.2116661,-0.21167 0.3880546,-0.21167 h 3.9511023 v -6.03248 H 5.3621754 q -0.1763885,0 -0.3880547,-0.17639 -0.1763885,-0.17639 -0.1763885,-0.38806 v -2.0461 q 0,-0.21167 0.1763885,-0.38806 0.2116662,-0.17639 0.3880547,-0.17639 H 26.352406 q 0.211666,0 0.352777,0.17639 0.176389,0.14111 0.176389,0.38806 v 2.08138 q 0,0.21167 -0.176389,0.38806 -0.141111,0.14111 -0.352777,0.14111 h -3.316104 v 6.03248 h 3.951103 q 0.211666,0 0.352777,0.17639 0.176388,0.14111 0.176388,0.38806 z m 0.211666,19.33218 q 0,0.21167 -0.176388,0.3175 -0.176389,0.10583 -0.352777,0.10583 H 7.7963366 q -1.6227741,0 -2.1872173,-0.59972 -0.5291655,-0.56444 -0.5291655,-1.94027 v -6.73804 q 0,-0.17639 0.1411108,-0.35278 0.1763885,-0.17639 0.352777,-0.17639 h 3.0338821 q 0.2116662,0 0.352777,0.17639 0.1763885,0.14111 0.1763885,0.35278 v 5.32693 q 0,0.35278 0.1411107,0.45861 0.1411108,0.10583 0.5291655,0.10583 H 27.199071 q 0.176388,0 0.352777,0.14111 0.176388,0.10584 0.176388,0.28223 z M 12.594104,170.26861 v 6.03248 h 6.526374 v -6.03248 z m 47.836579,14.21691 q 0,0.28222 -0.141111,0.42333 -0.105833,0.10583 -0.282222,0.10583 H 40.322395 q -1.411108,0 -1.975552,-0.63499 -0.564443,-0.635 -0.564443,-1.86972 v -12.20609 q 0,-1.34055 0.599721,-1.79916 0.599721,-0.49389 1.940274,-0.49389 h 19.367456 q 0.493888,0 0.493888,0.45861 v 2.36361 q 0,0.49389 -0.493888,0.49389 H 42.474334 q -0.634998,0 -0.634998,0.59972 v 2.92805 h 17.391905 q 0.176388,0 0.317499,0.14111 0.176389,0.14111 0.176389,0.3175 v 2.29305 q 0,0.21166 -0.176389,0.35278 -0.141111,0.14111 -0.317499,0.14111 H 41.839336 v 2.9986 q 0,0.38806 0.105833,0.52917 0.14111,0.10583 0.529165,0.10583 H 59.86624 q 0.282221,0 0.423332,0.0705 0.141111,0.0706 0.141111,0.35278 z m 3.951102,5.75026 q 0.176388,0 0.352777,0.17639 0.176388,0.17639 0.176388,0.38806 v 2.22249 q 0,0.17639 -0.176388,0.35278 -0.176389,0.17639 -0.352777,0.17639 H 33.65491 q -0.211667,0 -0.352777,-0.17639 -0.141111,-0.17639 -0.141111,-0.35278 v -2.22249 q 0,-0.56445 0.493888,-0.56445 z m 29.703842,8.04332 q 0,0.21167 -0.176388,0.3175 -0.176389,0.10583 -0.352777,0.10583 H 74.153727 q -1.622774,0 -2.187217,-0.56444 -0.529165,-0.56444 -0.529165,-1.94027 v -7.65527 q 0,-0.17638 0.14111,-0.31749 0.176389,-0.17639 0.352777,-0.17639 h 3.033882 q 0.211667,0 0.352777,0.17639 0.176389,0.14111 0.176389,0.31749 v 6.20888 q 0,0.35278 0.141111,0.45861 0.14111,0.10583 0.529165,0.10583 h 17.391906 q 0.176388,0 0.352777,0.14111 0.176388,0.10584 0.176388,0.28223 z m -0.423332,-20.17884 q 0,0.24694 -0.176389,0.35277 -0.141111,0.10584 -0.317499,0.10584 H 74.25956 q -1.622774,0 -2.187217,-0.56445 -0.529165,-0.59972 -0.529165,-1.97555 v -8.8547 q 0,-0.17639 0.14111,-0.3175 0.176389,-0.17639 0.352777,-0.17639 h 3.06916 q 0.211666,0 0.352777,0.17639 0.176389,0.14111 0.176389,0.3175 v 7.44359 q 0,0.35278 0.14111,0.45861 0.141111,0.10584 0.529166,0.10584 h 16.86274 q 0.176388,0 0.317499,0.14111 0.176389,0.10583 0.176389,0.28222 z m 4.374434,6.91442 q 0,0.17639 -0.176388,0.38806 -0.176389,0.17639 -0.352777,0.17639 H 66.815966 q -0.211666,0 -0.352777,-0.17639 -0.141111,-0.17639 -0.141111,-0.38806 v -2.32832 q 0,-0.49389 0.493888,-0.49389 h 30.691598 q 0.176388,0 0.352777,0.17639 0.176388,0.14111 0.176388,0.3175 z m 22.013321,6.42055 q -2.01082,0 -3.6336,-0.84667 -1.58749,-0.88194 -2.71638,-2.39888 -1.09361,-1.55222 -1.69333,-3.70416 -0.59972,-2.15194 -0.59972,-4.72721 0,-2.64583 0.59972,-4.79777 0.59972,-2.15194 1.69333,-3.66888 1.12889,-1.51694 2.71638,-2.32833 1.62278,-0.84666 3.6336,-0.84666 1.86972,0 3.38666,0.70555 1.51694,0.70556 2.61055,2.01083 1.12889,1.27 1.79917,3.10444 0.67027,1.83444 0.84666,4.09221 h 5.25638 v -11.53581 q 0,-0.45861 0.45861,-0.45861 h 3.13971 q 0.45861,0 0.45861,0.45861 v 32.56132 q 0,0.45861 -0.45861,0.45861 h -3.13971 q -0.45861,0 -0.45861,-0.45861 v -17.63885 h -5.25638 q -0.17639,2.29305 -0.84666,4.16277 -0.67028,1.83444 -1.79917,3.13971 -1.09361,1.30528 -2.61055,2.01083 -1.51694,0.70556 -3.38666,0.70556 z m 4.72722,-11.67692 q 0,-1.62278 -0.3175,-3.06916 -0.3175,-1.48167 -0.91722,-2.57527 -0.59972,-1.09361 -1.48167,-1.72861 -0.88194,-0.67028 -2.01083,-0.67028 -1.0936,0 -1.97555,0.67028 -0.84666,0.635 -1.44638,1.72861 -0.59972,1.0936 -0.91722,2.57527 -0.3175,1.44638 -0.3175,3.06916 0,1.58749 0.3175,3.06916 0.3175,1.44638 0.91722,2.57527 0.59972,1.09361 1.44638,1.76388 0.88195,0.67028 1.97555,0.67028 1.12889,0 2.01083,-0.67028 0.88195,-0.67027 1.48167,-1.76388 0.59972,-1.12889 0.91722,-2.57527 0.3175,-1.48167 0.3175,-3.06916 z m 35.48938,20.67273 q -1.79916,0 -3.28083,-0.3175 -1.48166,-0.3175 -2.57527,-0.91722 -1.05833,-0.56444 -1.65805,-1.41111 -0.59972,-0.81139 -0.59972,-1.83444 0,-0.98777 0.59972,-1.79916 0.59972,-0.84667 1.65805,-1.41111 1.09361,-0.56444 2.57527,-0.88194 1.51695,-0.3175 3.28083,-0.3175 1.79916,0 3.28083,0.3175 1.51694,0.3175 2.57527,0.88194 1.05833,0.56444 1.65805,1.41111 0.59972,0.81139 0.59972,1.79916 0,1.02305 -0.59972,1.83444 -0.59972,0.84667 -1.65805,1.41111 -1.05833,0.59972 -2.57527,0.91722 -1.48167,0.3175 -3.28083,0.3175 z m 0,-6.1736 q -1.5875,0 -2.75166,0.45861 -1.16416,0.45861 -1.16416,1.23472 0,0.81139 1.16416,1.23472 1.16416,0.45861 2.75166,0.45861 0.77611,0 1.48166,-0.14111 0.70556,-0.10583 1.23472,-0.3175 0.52917,-0.21167 0.84667,-0.52916 0.3175,-0.3175 0.3175,-0.70556 0,-0.38805 -0.3175,-0.70555 -0.3175,-0.3175 -0.84667,-0.52917 -0.52916,-0.21166 -1.23472,-0.3175 -0.70555,-0.14111 -1.48166,-0.14111 z m 11.11248,-4.33916 q 0,0.21167 -0.17639,0.38806 -0.14111,0.14111 -0.35278,0.14111 h -21.30773 q -0.17639,0 -0.35278,-0.17639 -0.17639,-0.17639 -0.17639,-0.38805 v -1.76389 q 0,-0.17639 0.17639,-0.35277 0.21167,-0.21167 0.38806,-0.21167 h 21.27245 q 0.21167,0 0.35278,0.17639 0.17639,0.17639 0.17639,0.38805 z m -6.06777,-4.33915 q 0,0.21166 -0.17639,0.42333 -0.14111,0.17639 -0.38805,0.17639 h -9.38387 q -0.17639,0 -0.38805,-0.14111 -0.17639,-0.14111 -0.17639,-0.42333 v -1.86972 q 0,-0.24695 0.17639,-0.38806 0.21166,-0.14111 0.38805,-0.14111 h 9.38387 q 0.21166,0 0.38805,0.17639 0.17639,0.17639 0.17639,0.38806 z m 5.96193,-2.15194 q 0,0.45861 -0.45861,0.45861 h -2.96332 q -0.45861,0 -0.45861,-0.45861 v -8.00804 h -5.67971 q -0.17639,0 -0.35278,-0.14111 -0.14111,-0.14111 -0.14111,-0.3175 v -2.08138 q 0,-0.17639 0.14111,-0.28223 0.17639,-0.14111 0.35278,-0.14111 h 5.67971 v -5.96193 q 0,-0.17639 0.14111,-0.3175 0.14111,-0.17638 0.3175,-0.17638 h 2.96332 q 0.17639,0 0.3175,0.17638 0.14111,0.14111 0.14111,0.3175 z m -6.17359,-3.38666 q 0.0705,0.3175 -0.0706,0.49389 -0.14111,0.14111 -0.3175,0.21166 -0.70555,0.17639 -1.79916,0.3175 -1.05833,0.14111 -2.2225,0.24695 -1.12888,0.0705 -2.22249,0.10583 -1.09361,0.0353 -1.86972,-0.0353 -1.09361,-0.0705 -1.72861,-0.635 -0.635,-0.56444 -0.635,-1.79916 v -9.84248 q 0,-1.23472 0.49389,-1.7286 0.52917,-0.49389 1.86972,-0.49389 h 6.13832 q 0.49389,0 0.49389,0.45861 v 2.18722 q 0,0.49388 -0.49389,0.49388 h -4.02166 q -0.635,0 -0.635,0.59972 v 6.94971 q 0,0.42333 0.14111,0.56444 0.14112,0.10584 0.635,0.14111 0.45861,0 1.12889,0 0.67028,-0.0353 1.37583,-0.0705 0.70555,-0.0706 1.41111,-0.14111 0.70555,-0.10583 1.26999,-0.21167 0.28223,-0.0705 0.45861,0.0353 0.21167,0.0706 0.28223,0.35278 z m -11.57109,0.24694 q 0.0706,0.3175 -0.14111,0.45861 -0.21167,0.14111 -0.38806,0.21167 -0.49388,0.14111 -1.30527,0.24694 -0.81139,0.0706 -1.69333,0.14111 -0.88194,0.0353 -1.69333,0.0706 -0.81139,0 -1.30527,-0.0706 -0.9525,-0.10583 -1.69333,-0.63499 -0.70556,-0.56445 -0.70556,-1.48167 v -10.1247 q 0,-1.23472 0.49389,-1.7286 0.52917,-0.49389 1.86972,-0.49389 h 5.71499 q 0.49388,0 0.49388,0.45861 v 2.18722 q 0,0.49388 -0.49388,0.49388 h -3.59833 q -0.635,0 -0.635,0.59972 v 7.02027 q 0,0.3175 0.0706,0.45861 0.10583,0.14111 0.52916,0.21166 0.24695,0.0353 0.70556,0.0353 0.49388,-0.0353 0.98777,-0.0353 0.52917,-0.0353 1.02306,-0.0705 0.52916,-0.0706 0.84666,-0.14111 0.24694,-0.0706 0.42333,0.0353 0.17639,0.0706 0.21167,0.35278 z m 25.64691,11.11248 q -0.28222,0.17639 -0.56445,0.21166 -0.28222,0.0353 -0.45861,-0.21166 l -1.4111,-1.94028 q -0.21167,-0.31749 -0.10584,-0.56444 0.14111,-0.28222 0.3175,-0.42333 2.39889,-1.48166 4.30388,-3.35138 1.94027,-1.905 3.28083,-3.91583 1.37583,-2.0461 2.11666,-4.09221 0.74083,-2.04611 0.81139,-3.80999 0.0353,-0.74083 -0.14111,-0.98778 -0.17639,-0.28222 -0.91722,-0.28222 h -7.79638 q -0.49388,0 -0.49388,-0.45861 V 169.175 q 0,-0.17639 0.14111,-0.3175 0.17639,-0.14111 0.35277,-0.14111 h 10.26581 q 1.51695,0 2.08139,0.59972 0.56444,0.56444 0.52916,1.94027 -0.0353,1.5875 -0.28222,3.10444 -0.24694,1.48166 -0.70555,2.96333 h 4.40971 v -10.23054 q 0,-0.45861 0.49389,-0.45861 h 2.89277 q 0.45861,0 0.45861,0.45861 v 30.79743 q 0,0.49389 -0.45861,0.49389 h -2.89277 q -0.49389,0 -0.49389,-0.49389 v -17.18023 h -5.78554 q -1.5875,3.17499 -4.12749,5.89137 -2.50472,2.68111 -5.82082,4.79777 z m 26.42299,7.72581 q 0,0.45861 -0.45861,0.45861 h -3.06916 q -0.45861,0 -0.45861,-0.45861 v -32.63187 q 0,-0.45861 0.49389,-0.45861 h 3.03388 q 0.45861,0 0.45861,0.45861 z m 31.32664,-17.28607 q 0,1.34055 -0.56444,1.86972 -0.52917,0.52917 -1.86972,0.52917 h -10.58331 q -1.23472,0 -1.83444,-0.52917 -0.59972,-0.52917 -0.59972,-1.86972 v -11.64164 q 0,-1.34055 0.52916,-1.83444 0.56445,-0.52916 1.905,-0.52916 h 10.58331 q 1.34055,0 1.86972,0.52916 0.56444,0.52917 0.56444,1.86972 z m -4.02166,-10.23053 q 0,-0.28222 -0.10583,-0.35278 -0.0706,-0.10583 -0.35278,-0.10583 h -6.49109 q -0.28222,0 -0.38806,0.0705 -0.0705,0.0706 -0.0705,0.35278 v 8.88998 q 0,0.3175 0.0705,0.38806 0.10584,0.0705 0.38806,0.0705 h 6.49109 q 0.28222,0 0.35278,-0.0705 0.10583,-0.0706 0.10583,-0.38806 z m 14.11108,26.88161 q 0,0.21166 -0.17639,0.31749 -0.14111,0.10584 -0.3175,0.10584 h -18.6619 q -1.58749,0 -2.15194,-0.56445 -0.52916,-0.56444 -0.52916,-1.94027 v -7.76109 q 0,-0.17639 0.14111,-0.3175 0.17639,-0.17639 0.35278,-0.17639 h 3.03388 q 0.21166,0 0.35277,0.17639 0.17639,0.14111 0.17639,0.3175 v 6.31471 q 0,0.35277 0.14111,0.45861 0.14111,0.10583 0.49389,0.10583 h 16.65107 q 0.17639,0 0.3175,0.14111 0.17639,0.14111 0.17639,0.3175 z m 3.91583,-18.90885 q 0,0.17639 -0.17639,0.3175 -0.14111,0.14111 -0.3175,0.14111 h -4.79777 v 9.31331 q 0,0.45861 -0.45861,0.45861 h -3.13971 q -0.45861,0 -0.45861,-0.45861 v -22.85995 q 0,-0.45861 0.45861,-0.45861 h 3.13971 q 0.45861,0 0.45861,0.45861 v 10.15998 h 4.79777 q 0.17639,0 0.3175,0.14111 0.17639,0.10583 0.17639,0.28222 z m 32.66717,2.46944 q 0,0.17639 -0.17639,0.35278 -0.17639,0.17638 -0.35278,0.17638 h -30.6916 q -0.21166,0 -0.35277,-0.14111 -0.14111,-0.17639 -0.14111,-0.38805 v -2.18722 q 0,-0.52916 0.49388,-0.52916 h 30.6916 q 0.17639,0 0.35278,0.14111 0.17639,0.10583 0.17639,0.28222 z m -4.69194,-5.78554 q 0,0.28222 -0.14111,0.42333 -0.10583,0.10583 -0.28222,0.10583 h -19.04996 q -1.41111,0 -1.97555,-0.635 -0.56444,-0.67027 -0.56444,-1.90499 v -5.96193 q 0,-1.34056 0.59972,-1.79917 0.59972,-0.49388 1.94027,-0.49388 h 18.73246 q 0.49389,0 0.49389,0.45861 v 2.32832 q 0,0.49389 -0.49389,0.49389 H 261.549 q -0.67027,0 -0.67027,0.59972 v 3.03388 q 0,0.28223 0.14111,0.45861 0.14111,0.14112 0.52916,0.14112 h 16.79219 q 0.28222,0 0.42333,0.0705 0.14111,0.0706 0.14111,0.35278 z m 0.635,22.33078 q 0,0.17639 -0.17639,0.3175 -0.17639,0.17639 -0.3175,0.17639 h -19.72023 q -1.37583,0 -1.86972,-0.49389 -0.49389,-0.49389 -0.49389,-1.62278 v -4.33915 q 0,-1.12889 0.45861,-1.62278 0.49389,-0.52916 1.86972,-0.52916 h 15.0283 q 0.28222,0 0.35278,-0.0353 0.0706,-0.0705 0.0706,-0.38805 v -1.27 q 0,-0.38806 -0.0706,-0.45861 -0.0706,-0.0706 -0.38806,-0.0706 h -16.89801 q -0.17639,0 -0.35278,-0.10583 -0.14111,-0.14111 -0.14111,-0.3175 v -2.36361 q 0,-0.17638 0.14111,-0.31749 0.17639,-0.17639 0.35278,-0.17639 h 18.90884 q 1.44639,0 1.905,0.45861 0.49389,0.45861 0.49389,1.65805 v 4.30388 q 0,1.23472 -0.49389,1.65805 -0.45861,0.42333 -1.905,0.42333 h -14.92246 q -0.28223,0 -0.35278,0.10584 -0.0706,0.0706 -0.0706,0.35277 v 1.44639 q 0,0.3175 0.0706,0.35278 0.0706,0.0705 0.38805,0.0705 h 17.60358 q 0.17638,0 0.35277,0.10583 0.17639,0.14111 0.17639,0.38806 z m 16.19248,-7.16137 q -2.01082,0 -3.6336,-0.84667 -1.5875,-0.88194 -2.71638,-2.39888 -1.09361,-1.55222 -1.69333,-3.70416 -0.59972,-2.15194 -0.59972,-4.72721 0,-2.64583 0.59972,-4.79777 0.59972,-2.15194 1.69333,-3.66888 1.12888,-1.51694 2.71638,-2.32833 1.62278,-0.84666 3.6336,-0.84666 1.86972,0 3.38666,0.70555 1.51694,0.70556 2.61055,2.01083 1.12889,1.27 1.79917,3.10444 0.67027,1.83444 0.84666,4.09221 h 5.25638 v -11.53581 q 0,-0.45861 0.45861,-0.45861 h 3.13971 q 0.45861,0 0.45861,0.45861 v 32.56132 q 0,0.45861 -0.45861,0.45861 h -3.13971 q -0.45861,0 -0.45861,-0.45861 v -17.63885 h -5.25638 q -0.17639,2.29305 -0.84666,4.16277 -0.67028,1.83444 -1.79917,3.13971 -1.09361,1.30528 -2.61055,2.01083 -1.51694,0.70556 -3.38666,0.70556 z m 4.72722,-11.67692 q 0,-1.62278 -0.3175,-3.06916 -0.3175,-1.48167 -0.91722,-2.57527 -0.59972,-1.09361 -1.48167,-1.72861 -0.88194,-0.67028 -2.01083,-0.67028 -1.0936,0 -1.97555,0.67028 -0.84666,0.635 -1.44638,1.72861 -0.59972,1.0936 -0.91722,2.57527 -0.3175,1.44638 -0.3175,3.06916 0,1.58749 0.3175,3.06916 0.3175,1.44638 0.91722,2.57527 0.59972,1.09361 1.44638,1.76388 0.88195,0.67028 1.97555,0.67028 1.12889,0 2.01083,-0.67028 0.88195,-0.67027 1.48167,-1.76388 0.59972,-1.12889 0.91722,-2.57527 0.3175,-1.48167 0.3175,-3.06916 z m 21.02554,11.25358 q -0.28222,0.17639 -0.59972,0.14111 -0.3175,-0.0353 -0.49389,-0.31749 l -1.37583,-1.83445 q -0.24694,-0.31749 -0.10583,-0.59972 0.17639,-0.28222 0.42333,-0.42333 2.22249,-1.37583 4.23332,-3.17499 2.01083,-1.79916 3.59833,-3.77472 1.62277,-1.97555 2.75166,-4.02165 1.12889,-2.08139 1.62277,-3.98638 0.14111,-0.59972 0.0353,-0.77611 -0.10583,-0.17639 -0.70555,-0.17639 h -9.10165 q -0.21167,0 -0.35278,-0.14111 -0.10583,-0.17639 -0.10583,-0.38806 v -2.3636 q 0,-0.49389 0.49389,-0.49389 h 11.50053 q 1.37583,0 2.15194,0.52917 0.77611,0.52916 0.77611,1.37583 0,0.45861 -0.0706,0.95249 -0.0705,0.45861 -0.17639,0.84667 -0.49388,1.86972 -1.34055,3.77471 -0.81139,1.86972 -2.01083,3.77472 0.67028,0.91722 1.55222,1.94027 0.88194,0.98778 1.83444,1.94027 0.9525,0.9525 1.86972,1.79917 0.91722,0.81138 1.65805,1.34055 0.24694,0.17639 0.3175,0.45861 0.10583,0.28222 -0.10583,0.56444 l -1.51694,1.72861 q -0.45861,0.49389 -1.16417,0.0706 -0.635,-0.42333 -1.51694,-1.16416 -0.84666,-0.77611 -1.76388,-1.69333 -0.91722,-0.91722 -1.79917,-1.94027 -0.88194,-1.02306 -1.58749,-1.94028 -1.79917,2.2225 -4.02166,4.26861 -2.2225,2.01082 -4.9036,3.70415 z m 25.153,8.04332 q 0,0.45861 -0.49389,0.45861 h -3.10444 q -0.17639,0 -0.35277,-0.14111 -0.14111,-0.10583 -0.14111,-0.3175 v -32.56132 q 0,-0.17639 0.14111,-0.3175 0.17638,-0.14111 0.35277,-0.14111 h 3.10444 q 0.49389,0 0.49389,0.45861 z m 32.49076,-0.77611 q 0,0.21167 -0.17639,0.3175 -0.17638,0.10583 -0.35277,0.10583 h -19.40274 q -1.62277,0 -2.18721,-0.56444 -0.52917,-0.56444 -0.52917,-1.94027 v -7.65527 q 0,-0.17638 0.14111,-0.31749 0.17639,-0.17639 0.35278,-0.17639 h 3.03388 q 0.21167,0 0.35278,0.17639 0.17639,0.14111 0.17639,0.31749 v 6.20888 q 0,0.35278 0.14111,0.45861 0.14111,0.10583 0.52916,0.10583 h 17.39191 q 0.17639,0 0.35277,0.14111 0.17639,0.10584 0.17639,0.28223 z m -0.42333,-20.17884 q 0,0.24694 -0.17639,0.35277 -0.14111,0.10584 -0.3175,0.10584 h -18.90884 q -1.62278,0 -2.18722,-0.56445 -0.52917,-0.59972 -0.52917,-1.97555 v -8.8547 q 0,-0.17639 0.14111,-0.3175 0.17639,-0.17639 0.35278,-0.17639 h 3.06916 q 0.21167,0 0.35278,0.17639 0.17639,0.14111 0.17639,0.3175 v 7.44359 q 0,0.35278 0.14111,0.45861 0.14111,0.10584 0.52916,0.10584 h 16.86274 q 0.17639,0 0.3175,0.14111 0.17639,0.10583 0.17639,0.28222 z m 4.37444,6.91442 q 0,0.17639 -0.17639,0.38806 -0.17639,0.17639 -0.35278,0.17639 h -30.6916 q -0.21166,0 -0.35277,-0.17639 -0.14112,-0.17639 -0.14112,-0.38806 v -2.32832 q 0,-0.49389 0.49389,-0.49389 h 30.6916 q 0.17639,0 0.35278,0.17639 0.17639,0.14111 0.17639,0.3175 z m 19.40276,-13.68774 q -0.24694,3.21027 -1.30527,6.20887 -1.05833,2.96333 -2.92805,5.60916 -1.83444,2.64582 -4.44499,4.93887 -2.61055,2.29306 -5.89137,4.09222 -0.28223,0.14111 -0.59973,0.14111 -0.28222,-0.0353 -0.45861,-0.3175 l -1.4111,-1.97555 q -0.17639,-0.28222 -0.10584,-0.56445 0.0706,-0.28222 0.3175,-0.45861 5.25638,-2.78693 8.50193,-6.87915 3.24555,-4.09221 3.9511,-8.88998 0.10583,-0.70555 -0.10583,-0.91722 -0.17639,-0.24694 -0.81139,-0.24694 h -9.94831 q -0.45861,0 -0.45861,-0.49389 v -2.46944 q 0,-0.42333 0.45861,-0.42333 h 12.73525 q 1.58749,0 2.08138,0.67028 0.52917,0.635 0.42333,1.97555 z m 14.28747,10.47747 q 0,0.21167 -0.17639,0.35278 -0.14111,0.14111 -0.35277,0.14111 h -4.76249 v 16.75691 q 0,0.45861 -0.45861,0.45861 h -3.13972 q -0.45861,0 -0.45861,-0.45861 v -32.56132 q 0,-0.45861 0.45861,-0.45861 h 3.13972 q 0.45861,0 0.45861,0.45861 v 12.41775 h 4.76249 q 0.21166,0 0.35277,0.14111 0.17639,0.10584 0.17639,0.28223 z m 12.45306,1.97556 q -0.17639,0 -0.3175,-0.10584 -0.14111,-0.14111 -0.14111,-0.3175 v -2.82221 q 0,-0.17639 0.14111,-0.28222 0.14111,-0.14112 0.3175,-0.14112 h 8.5372 q 0.21167,0 0.3175,0.14112 0.14111,0.10583 0.14111,0.28222 v 2.82221 q 0,0.17639 -0.14111,0.3175 -0.10583,0.10584 -0.3175,0.10584 z m 39.26414,11.92386 q -0.28222,0 -0.42333,-0.10584 -0.14111,-0.10583 -0.35278,-0.45861 l -11.0772,-19.04995 v 19.04995 q 0,0.35278 -0.10583,0.45861 -0.10583,0.10584 -0.45861,0.10584 h -2.92805 q -0.28222,0 -0.42333,-0.10584 -0.14111,-0.10583 -0.14111,-0.45861 v -25.43522 q 0,-0.42333 0.14111,-0.52916 0.14111,-0.14111 0.52916,-0.14111 h 3.24555 q 0.28222,0 0.42333,0.10583 0.14111,0.0706 0.35278,0.45861 l 11.0772,19.01468 v -19.01468 q 0,-0.35278 0.10583,-0.45861 0.10583,-0.10583 0.45861,-0.10583 h 2.92805 q 0.35278,0 0.42333,0.10583 0.10584,0.10583 0.10584,0.45861 v 25.43522 q 0,0.42333 -0.14111,0.56444 -0.10584,0.10584 -0.49389,0.10584 z m 24.55324,-8.88998 q 0,0.28222 -0.17639,0.42333 -0.14111,0.14111 -0.3175,0.14111 h -11.60636 q 0.17639,2.36361 1.48166,3.88055 1.30528,1.48166 3.56305,1.48166 1.16417,0 2.64583,-0.28222 1.48166,-0.3175 2.71638,-1.05833 0.24695,-0.14111 0.3175,0.0353 0.0706,0.17638 0.0706,0.45861 v 2.43416 q 0,0.3175 -0.10584,0.49389 -0.10583,0.17638 -0.42333,0.35277 -1.05833,0.56445 -2.50472,0.81139 -1.4111,0.24694 -2.89277,0.24694 -4.37443,0 -6.6322,-2.61055 -2.2225,-2.64582 -2.2225,-7.72581 0,-1.905 0.49389,-3.73944 0.49389,-1.83444 1.48166,-3.28082 1.02305,-1.44639 2.57527,-2.32833 1.55222,-0.88195 3.66888,-0.88195 2.15194,0 3.63361,0.81139 1.51694,0.81139 2.46944,2.18722 0.95249,1.37583 1.37583,3.21027 0.42333,1.83444 0.42333,3.91582 0,0.24695 -0.0353,0.56445 0,0.3175 0,0.45861 z m -7.72581,-7.7611 q -0.9525,0 -1.69333,0.42334 -0.74084,0.42333 -1.27,1.0936 -0.52917,0.67028 -0.88194,1.55222 -0.3175,0.88195 -0.45861,1.76389 h 8.07859 q 0,-0.70556 -0.24695,-1.55222 -0.21166,-0.84666 -0.67027,-1.55222 -0.45861,-0.74083 -1.16417,-1.23472 -0.70555,-0.49389 -1.69332,-0.49389 z m 26.98744,13.93469 q -1.27,1.5875 -3.03388,2.43417 -1.76389,0.81138 -3.98638,0.81138 -2.25778,0 -3.98638,-0.81138 -1.72861,-0.81139 -2.89278,-2.2225 -1.16416,-1.41111 -1.76388,-3.28083 -0.56444,-1.86971 -0.56444,-3.98637 0,-2.11667 0.56444,-3.98638 0.59972,-1.86972 1.76388,-3.24555 1.16417,-1.41111 2.8575,-2.2225 1.72861,-0.81139 4.02166,-0.81139 2.25777,0 3.98638,0.81139 1.7286,0.81139 2.89277,2.2225 1.16416,1.37583 1.7286,3.24555 0.59972,1.86971 0.59972,3.98638 0,2.08138 -0.56444,3.91582 -0.56444,1.79916 -1.62277,3.13971 z m -7.02026,-13.86413 q -1.37583,0 -2.39889,0.59972 -0.98777,0.59972 -1.62277,1.5875 -0.635,0.95249 -0.9525,2.18721 -0.3175,1.19945 -0.3175,2.43417 0,1.23471 0.3175,2.46943 0.3175,1.19945 0.9525,2.18722 0.635,0.98778 1.62277,1.5875 1.02306,0.59972 2.39889,0.59972 1.37583,0 2.3636,-0.59972 1.02305,-0.59972 1.65805,-1.5875 0.635,-0.98777 0.9525,-2.18722 0.3175,-1.23472 0.3175,-2.46943 0,-1.19945 -0.3175,-2.39889 -0.3175,-1.23472 -0.9525,-2.18722 -0.635,-0.98777 -1.65805,-1.58749 -0.98777,-0.635 -2.3636,-0.635 z m 29.35108,13.54664 q -0.9525,0.7761 -2.15194,1.34055 -1.19944,0.56444 -2.57527,0.9525 -1.37583,0.35277 -2.85749,0.56444 -1.48167,0.17639 -2.92805,0.17639 h -4.30388 q -0.59972,0 -0.74083,-0.14111 -0.10584,-0.14111 -0.10584,-0.67028 v -24.87078 q 0,-0.67027 0.10584,-0.77611 0.14111,-0.14111 0.81138,-0.14111 h 5.99721 q 6.87915,0 10.23054,3.88055 1.48166,1.69333 2.18721,3.9511 0.74083,2.2225 0.74083,5.39749 0,3.28083 -1.16416,5.96193 -1.12889,2.68111 -3.24555,4.37444 z m -1.55222,-17.03913 q -2.25777,-2.78694 -7.2672,-2.78694 h -2.75166 v 19.08523 h 1.58749 q 2.04611,0 3.84527,-0.49388 1.79917,-0.52917 3.175,-1.65806 1.58749,-1.19944 2.43416,-3.06916 0.88194,-1.90499 0.88194,-4.51554 0,-2.11666 -0.45861,-3.73944 -0.45861,-1.65805 -1.44639,-2.82221 z m 32.31434,19.26162 q -0.635,0.3175 -1.55222,0.56444 -0.91722,0.21167 -2.01083,0.38806 -1.05833,0.17639 -2.18722,0.24694 -1.0936,0.10584 -2.08138,0.10584 -2.92805,0 -5.43277,-0.91722 -2.46943,-0.91723 -4.2686,-2.68111 -1.79916,-1.76388 -2.82221,-4.33916 -1.02306,-2.57527 -1.02306,-5.85609 0,-2.99861 0.9525,-5.50333 0.9525,-2.53999 2.71638,-4.37443 1.76389,-1.83444 4.26861,-2.85749 2.50471,-1.02306 5.64443,-1.02306 2.11666,0 3.77471,0.24695 1.65805,0.21166 3.13972,0.67027 0.38805,0.10584 0.45861,0.24695 0.0705,0.10583 0.0353,0.24694 l -0.42333,2.99861 q -0.0353,0.24694 -0.17639,0.35277 -0.14111,0.10584 -0.52916,-0.0353 -1.65805,-0.52916 -3.13972,-0.74083 -1.48166,-0.24694 -3.17499,-0.24694 -2.11666,0 -3.84527,0.74083 -1.72861,0.70555 -2.96333,2.04611 -1.23472,1.30527 -1.94027,3.13971 -0.67028,1.83444 -0.67028,4.09222 0,2.43416 0.67028,4.33915 0.70555,1.86972 1.94027,3.17499 1.27,1.27 2.99861,1.94028 1.72861,0.635 3.80999,0.635 1.5875,0 2.75166,-0.14111 1.16416,-0.14111 1.72861,-0.42334 v -7.09081 h -5.82082 q -0.21167,0 -0.35278,-0.10584 -0.10583,-0.14111 -0.10583,-0.3175 v -2.82221 q 0,-0.21167 0.14111,-0.35278 0.17639,-0.14111 0.35277,-0.14111 h 9.0311 q 0.52916,0 0.67027,0.17639 0.14111,0.17639 0.14111,0.70555 v 11.64164 q 0,0.52917 -0.21166,0.81139 -0.21167,0.28222 -0.49389,0.45861 z m 31.25611,0.81139 q -0.28222,0 -0.35278,-0.0706 -0.0706,-0.10583 -0.0706,-0.3175 v -19.15579 l -7.65526,19.08524 q -0.0706,0.17639 -0.17639,0.21166 -0.0706,0.0353 -0.42334,0.0353 h -2.82221 q -0.35278,0 -0.45861,-0.0353 -0.0706,-0.0353 -0.14111,-0.21166 l -7.65526,-19.08524 v 19.15579 q 0,0.21167 -0.0706,0.3175 -0.0706,0.0706 -0.35278,0.0706 h -3.28082 q -0.42333,0 -0.42333,-0.38806 v -25.4705 q 0,-0.49388 0.10583,-0.59972 0.10583,-0.14111 0.67028,-0.14111 h 4.19804 q 0.24695,0 0.28222,0.10584 0.0706,0.0705 0.17639,0.3175 l 8.36082,20.74328 8.36081,-20.74328 q 0.10583,-0.24695 0.14111,-0.3175 0.0706,-0.10584 0.3175,-0.10584 h 4.19805 q 0.56444,0 0.67027,0.14111 0.10584,0.10584 0.10584,0.59972 v 25.4705 q 0,0.38806 -0.42334,0.38806 z m 49.91792,-13.89942 q 0,0.21167 -0.17638,0.35278 -0.14111,0.14111 -0.3175,0.14111 h -4.79777 v 16.75691 q 0,0.45861 -0.45861,0.45861 h -3.13972 q -0.45861,0 -0.45861,-0.45861 v -32.56132 q 0,-0.45861 0.45861,-0.45861 h 3.13972 q 0.45861,0 0.45861,0.45861 v 12.41775 h 4.79777 q 0.17639,0 0.3175,0.14111 0.17638,0.10584 0.17638,0.28223 z m -28.89243,9.91304 q -0.67028,0.52916 -1.23472,-0.0353 l -1.65805,-1.55222 q -0.49389,-0.49389 0.10583,-1.09361 2.29305,-2.08138 3.91583,-4.62138 1.62277,-2.53999 2.61055,-5.43276 0.42333,-1.27 0.70555,-2.50472 0.3175,-1.27 0.49389,-2.53999 0.17639,-1.30528 0.24694,-2.68111 0.0706,-1.41111 0.0353,-2.96332 0,-0.21167 0.14111,-0.35278 0.17639,-0.17639 0.35278,-0.17639 l 3.13971,0.10583 q 0.17639,0 0.3175,0.17639 0.14111,0.14111 0.14111,0.35278 0,2.15194 -0.14111,4.02166 -0.14111,1.83444 -0.45861,3.56304 0.35278,1.65806 1.09361,3.31611 0.74083,1.65805 1.72861,3.21027 0.98777,1.51694 2.11666,2.82221 1.16416,1.27 2.29305,2.18722 0.56444,0.42333 0.0706,1.09361 l -1.48166,1.79916 q -0.17639,0.24695 -0.49389,0.28222 -0.28222,0.0353 -0.635,-0.21166 -0.84666,-0.67028 -1.79916,-1.65805 -0.9525,-0.98778 -1.83444,-2.11667 -0.84666,-1.16416 -1.58749,-2.3636 -0.74084,-1.23472 -1.19945,-2.36361 -0.63499,1.48167 -1.44638,2.89277 -0.81139,1.41111 -1.72861,2.68111 -0.91722,1.23472 -1.90499,2.32833 -0.9525,1.05833 -1.905,1.83444 z m 47.02521,-2.54 q 0.0705,0.21167 -0.10584,0.38806 -0.14111,0.17639 -0.42333,0.24694 -1.19944,0.3175 -2.85749,0.59972 -1.62278,0.24695 -3.38666,0.42334 -1.72861,0.14111 -3.35138,0.24694 -1.62278,0.0705 -2.78694,0 -1.62277,-0.0706 -2.18722,-0.635 -0.56444,-0.56444 -0.56444,-1.905 v -8.14914 q 0,-1.27 0.59972,-1.79917 0.635,-0.56444 1.86972,-0.56444 h 5.29165 q 0.3175,0 0.42333,-0.0705 0.10584,-0.10584 0.10584,-0.45861 v -4.86833 q 0,-0.28222 -0.0706,-0.38805 -0.0706,-0.10584 -0.45861,-0.10584 h -7.12609 q -0.17639,0 -0.35278,-0.14111 -0.14111,-0.14111 -0.14111,-0.3175 v -2.32832 q 0,-0.17639 0.14111,-0.3175 0.17639,-0.14111 0.35278,-0.14111 h 9.13692 q 1.51694,0 1.94027,0.56444 0.45861,0.56444 0.45861,1.86972 v 7.61998 q 0,1.34055 -0.56444,1.83444 -0.52916,0.45861 -1.94027,0.45861 h -5.2211 q -0.52917,0 -0.52917,0.49389 v 5.32693 q 0,0.38806 0.14111,0.52917 0.14111,0.10583 0.52917,0.10583 1.05833,0.0353 2.36361,-0.0353 1.34055,-0.0705 2.71638,-0.21166 1.37583,-0.17639 2.64583,-0.35278 1.30527,-0.21167 2.29305,-0.42333 0.56444,-0.10584 0.67027,0.49388 z m 2.11666,-22.08384 q 0,-0.45861 0.49389,-0.45861 h 2.89277 q 0.45861,0 0.45861,0.45861 v 30.79743 q 0,0.49389 -0.45861,0.49389 h -2.89277 q -0.49389,0 -0.49389,-0.49389 v -12.77052 h -3.52777 q -0.17639,0 -0.35278,-0.14111 -0.14111,-0.14111 -0.14111,-0.3175 v -2.25777 q 0,-0.17639 0.14111,-0.28223 0.17639,-0.14111 0.35278,-0.14111 h 3.52777 v -3.28082 h -3.52777 q -0.17639,0 -0.35278,-0.14111 -0.14111,-0.14111 -0.14111,-0.35278 v -2.29305 q 0,-0.17639 0.14111,-0.28222 0.17639,-0.14111 0.35278,-0.14111 h 3.52777 z m 10.58331,32.03215 q 0,0.45861 -0.45861,0.45861 h -3.06916 q -0.45861,0 -0.45861,-0.45861 v -32.63187 q 0,-0.45861 0.49389,-0.45861 h 3.03388 q 0.45861,0 0.45861,0.45861 z m 34.99551,-5.85609 q 0,0.17638 -0.17639,0.35277 -0.17639,0.17639 -0.35278,0.17639 h -30.72687 q -0.21167,0 -0.35278,-0.17639 -0.14111,-0.17639 -0.14111,-0.35277 v -2.2225 q 0,-0.21166 0.14111,-0.38805 0.14111,-0.17639 0.35278,-0.17639 h 13.37025 v -5.25638 h -6.31471 q -0.77611,0 -1.27,-0.10583 -0.49389,-0.10584 -0.77611,-0.38806 -0.28222,-0.28222 -0.38805,-0.70555 -0.10584,-0.45861 -0.10584,-1.16416 v -5.67971 q 0,-0.70556 0.10584,-1.12889 0.10583,-0.45861 0.38805,-0.70555 0.28222,-0.28223 0.77611,-0.35278 0.49389,-0.10583 1.27,-0.10583 h 14.67552 q 0.35278,0 0.42333,-0.0706 0.10584,-0.10583 0.10584,-0.49389 v -2.75166 q 0,-0.38805 -0.10584,-0.42333 -0.0705,-0.0706 -0.42333,-0.0706 H 686.2575 q -0.17639,0 -0.3175,-0.14111 -0.14111,-0.17639 -0.14111,-0.35277 v -2.36361 q 0,-0.17639 0.14111,-0.3175 0.14111,-0.14111 0.3175,-0.14111 h 18.55607 q 1.48166,0 2.01082,0.49389 0.52917,0.45861 0.52917,1.83444 v 5.71499 q 0,1.37583 -0.52917,1.86971 -0.52916,0.45861 -2.01082,0.45861 h -14.71081 q -0.35277,0 -0.42333,0.0706 -0.0706,0.0705 -0.0706,0.42333 v 2.78694 q 0,0.38805 0.0706,0.49389 0.10584,0.0705 0.45861,0.0705 h 17.49774 q 0.17639,0 0.3175,0.14111 0.14111,0.10584 0.14111,0.28223 v 2.3636 q 0,0.17639 -0.17639,0.3175 -0.14111,0.14111 -0.28222,0.14111 h -9.06637 v 5.25638 h 13.29969 q 0.17639,0 0.35278,0.21166 0.17639,0.17639 0.17639,0.35278 z m 39.12299,5.67971 q 0,0.17638 -0.17638,0.3175 -0.14112,0.17638 -0.28223,0.17638 h -18.80301 q -1.37583,0 -1.90499,-0.52916 -0.49389,-0.52917 -0.49389,-1.65805 v -4.23333 q 0,-1.12888 0.49389,-1.62277 0.49388,-0.49389 1.86971,-0.49389 h 14.04053 q 0.28222,0 0.35277,-0.10583 0.0706,-0.10584 0.0706,-0.42333 v -1.19945 q 0,-0.38805 -0.0706,-0.45861 -0.0706,-0.10583 -0.38805,-0.10583 h -15.91024 q -0.17639,0 -0.35278,-0.10583 -0.17639,-0.14111 -0.17639,-0.3175 v -2.32833 q 0,-0.17639 0.17639,-0.3175 0.17639,-0.17639 0.35278,-0.17639 h 17.92107 q 1.44638,0 1.90499,0.49389 0.49389,0.49389 0.49389,1.69333 v 4.19805 q 0,1.23471 -0.49389,1.69332 -0.45861,0.45861 -1.90499,0.45861 h -13.93469 q -0.28222,0 -0.35278,0.10584 -0.0706,0.0705 -0.0706,0.35277 v 1.41111 q 0,0.3175 0.0706,0.35278 0.0706,0.0706 0.38806,0.0706 h 16.68635 q 0.17638,0 0.3175,0.14111 0.17638,0.14111 0.17638,0.35277 z m -24.8355,-15.69858 q -0.7761,0.38805 -1.12888,-0.0353 l -1.41111,-1.7286 q -0.21167,-0.28223 -0.21167,-0.52917 0.0353,-0.28222 0.38806,-0.45861 2.08138,-1.16416 3.56305,-2.50472 1.51694,-1.37583 2.46944,-2.9986 0.98777,-1.65805 1.44638,-3.6336 0.45861,-2.01083 0.45861,-4.44499 0,-0.24695 0.17639,-0.38806 0.21167,-0.14111 0.38805,-0.14111 l 3.03389,0.14111 q 0.45861,0 0.45861,0.52917 0,2.61055 -0.52917,4.83304 0.56444,1.27 1.44639,2.39888 0.91722,1.09361 1.94027,2.04611 1.02305,0.91722 2.11666,1.65805 1.09361,0.70556 2.08139,1.12889 0.59972,0.24694 0.21166,0.84666 l -1.19944,1.94028 q -0.35278,0.52916 -0.91722,0.28222 -2.15194,-0.91722 -4.05694,-2.50472 -1.86971,-1.62277 -3.21027,-3.6336 -1.23472,2.32833 -3.13971,4.12749 -1.905,1.76389 -4.37444,3.06916 z m 29.24522,-7.1261 q 0,0.17639 -0.17639,0.35278 -0.14111,0.14111 -0.3175,0.14111 h -4.79777 v 6.66749 q 0,0.17639 -0.14111,0.35277 -0.14111,0.14112 -0.3175,0.14112 H 747.041 q -0.17639,0 -0.3175,-0.14112 -0.14111,-0.17638 -0.14111,-0.38805 v -16.75691 q 0,-0.45861 0.45861,-0.45861 h 3.13971 q 0.45861,0 0.45861,0.45861 v 6.73804 h 4.79777 q 0.17639,0 0.3175,0.14111 0.17639,0.10584 0.17639,0.28223 z m 1.55225,11.00665 q 0,-0.49389 0.49389,-0.49389 0.88194,0.0353 1.69333,0.0353 0.84666,0 1.65805,0 v -14.60497 h -2.82222 q -0.17638,0 -0.38805,-0.17639 -0.21167,-0.17639 -0.21167,-0.38805 v -2.18722 q 0,-0.21167 0.21167,-0.38806 0.21167,-0.17638 0.38805,-0.17638 h 17.67413 q 0.21167,0 0.35278,0.17638 0.17639,0.14112 0.17639,0.38806 v 2.22249 q 0,0.21167 -0.17639,0.38806 -0.14111,0.14111 -0.35278,0.14111 h -2.75166 v 14.18163 q 1.97555,-0.14111 3.98638,-0.42333 0.17639,-0.0353 0.38805,0.0706 0.21167,0.0706 0.24695,0.24694 l 0.3175,2.2225 q 0.0706,0.28222 -0.10584,0.42333 -0.14111,0.14111 -0.31749,0.17639 -4.26861,0.635 -9.45443,0.88194 -5.18582,0.21167 -10.51275,0.0705 -0.21167,0 -0.35278,-0.14111 -0.14111,-0.17638 -0.14111,-0.38805 z m 23.95356,-9.84248 h -4.76249 q -0.14111,0 -0.35278,-0.14111 -0.17639,-0.14111 -0.17639,-0.38806 v -2.18721 q 0,-0.24695 0.17639,-0.38806 0.21167,-0.14111 0.35278,-0.14111 h 4.76249 v -7.54943 q 0,-0.45861 0.45861,-0.45861 h 3.13971 q 0.45861,0 0.45861,0.45861 v 32.56132 q 0,0.45861 -0.45861,0.45861 h -3.13971 q -0.45861,0 -0.45861,-0.45861 v -15.20469 h -4.76249 q -0.14111,0 -0.35278,-0.14111 -0.17639,-0.17639 -0.17639,-0.42333 v -2.15194 q 0,-0.24695 0.17639,-0.38806 0.21167,-0.14111 0.35278,-0.14111 h 4.76249 z m -16.15719,9.34859 q 1.09361,-0.0353 2.15194,-0.0353 1.05833,-0.0353 2.11666,-0.10583 v -14.42858 h -4.2686 z m 56.47963,6.63221 q 0,0.17638 -0.17639,0.35277 -0.17638,0.17639 -0.35277,0.17639 h -30.72688 q -0.21166,0 -0.35278,-0.17639 -0.14111,-0.17639 -0.14111,-0.35277 v -2.29305 q 0,-0.21167 0.14111,-0.38806 0.14112,-0.17639 0.35278,-0.17639 h 13.33497 v -6.45582 h -6.45582 q -1.55222,0 -2.11666,-0.52916 -0.56444,-0.52917 -0.56444,-1.97555 v -13.47608 q 0,-0.17639 0.14111,-0.28223 0.14111,-0.14111 0.3175,-0.14111 h 3.10444 q 0.17638,0 0.31749,0.14111 0.17639,0.10584 0.17639,0.28223 v 4.97415 h 14.18164 v -5.00943 q 0,-0.17639 0.14111,-0.3175 0.14111,-0.14111 0.3175,-0.14111 h 3.13971 q 0.17639,0 0.3175,0.14111 0.14111,0.14111 0.14111,0.3175 v 13.65247 q 0,1.16416 -0.56444,1.76388 -0.56444,0.59972 -2.08138,0.59972 h -6.45582 v 6.45582 h 13.33497 q 0.17639,0 0.35277,0.21167 0.17639,0.17639 0.17639,0.35278 z m -8.81942,-17.03913 h -14.18164 v 3.80999 q 0,0.59972 0.635,0.59972 h 12.91164 q 0.635,0 0.635,-0.59972 z m 37.99405,22.04856 q 0,0.21167 -0.17639,0.3175 -0.17638,0.10583 -0.35277,0.10583 h -19.40274 q -1.62277,0 -2.18721,-0.56444 -0.52917,-0.56444 -0.52917,-1.94027 v -7.65527 q 0,-0.17638 0.14111,-0.31749 0.17639,-0.17639 0.35278,-0.17639 h 3.03388 q 0.21167,0 0.35278,0.17639 0.17639,0.14111 0.17639,0.31749 v 6.20888 q 0,0.35278 0.14111,0.45861 0.14111,0.10583 0.52916,0.10583 h 17.39191 q 0.17639,0 0.35277,0.14111 0.17639,0.10584 0.17639,0.28223 z m -0.42333,-20.17884 q 0,0.24694 -0.17639,0.35277 -0.14111,0.10584 -0.3175,0.10584 H 831.1078 q -1.62278,0 -2.18722,-0.56445 -0.52917,-0.59972 -0.52917,-1.97555 v -8.8547 q 0,-0.17639 0.14111,-0.3175 0.17639,-0.17639 0.35278,-0.17639 h 3.06916 q 0.21167,0 0.35278,0.17639 0.17639,0.14111 0.17639,0.3175 v 7.44359 q 0,0.35278 0.14111,0.45861 0.14111,0.10584 0.52916,0.10584 h 16.86274 q 0.17639,0 0.3175,0.14111 0.17639,0.10583 0.17639,0.28222 z m 4.37444,6.91442 q 0,0.17639 -0.17639,0.38806 -0.17639,0.17639 -0.35278,0.17639 h -30.6916 q -0.21166,0 -0.35277,-0.17639 -0.14112,-0.17639 -0.14112,-0.38806 v -2.32832 q 0,-0.49389 0.49389,-0.49389 h 30.6916 q 0.17639,0 0.35278,0.17639 0.17639,0.14111 0.17639,0.3175 z m 37.28861,-18.52079 q 0,-0.45861 0.49389,-0.45861 h 3.03388 q 0.45861,0 0.45861,0.45861 v 32.56132 q 0,0.45861 -0.45861,0.45861 h -3.06916 q -0.45861,0 -0.45861,-0.45861 v -16.68635 h -3.28083 v 15.3458 q 0,0.49388 -0.45861,0.49388 h -2.89277 q -0.49389,0 -0.49389,-0.49388 v -30.58577 q 0,-0.45861 0.49389,-0.45861 h 2.89277 q 0.45861,0 0.45861,0.45861 v 11.85331 h 3.28083 z m -22.47189,24.90606 q -0.28223,0.17639 -0.56445,0.21166 -0.28222,0.0353 -0.45861,-0.21166 l -1.41111,-1.94028 q -0.21166,-0.31749 -0.10583,-0.56444 0.14111,-0.28222 0.3175,-0.42333 2.39888,-1.48166 4.30388,-3.35138 1.94027,-1.86972 3.28083,-3.88055 1.37583,-2.04611 2.11666,-4.05693 0.74083,-2.04611 0.81139,-3.81 0.0353,-0.74083 -0.14112,-0.98777 -0.17638,-0.28222 -0.91722,-0.28222 h -7.79637 q -0.49389,0 -0.49389,-0.45861 v -2.39889 q 0,-0.17638 0.14112,-0.3175 0.17638,-0.14111 0.35277,-0.14111 h 10.26581 q 1.51694,0 2.08139,0.59972 0.56444,0.56445 0.52916,1.94028 -0.0706,3.06916 -0.9525,5.92665 -0.88194,2.85749 -2.46943,5.39749 -1.5875,2.53999 -3.84527,4.76249 -2.25778,2.18722 -5.04471,3.98638 z m 61.87705,-15.38108 q 0,0.17639 -0.17639,0.35278 -0.14111,0.14111 -0.31749,0.14111 h -4.79777 v 6.87915 q 0,0.49389 -0.45861,0.49389 h -3.13972 q -0.45861,0 -0.45861,-0.52917 v -16.86274 q 0,-0.45861 0.45861,-0.45861 h 3.13972 q 0.45861,0 0.45861,0.45861 v 6.63221 h 4.79777 q 0.17638,0 0.31749,0.14111 0.17639,0.10583 0.17639,0.28222 z m -4.37443,22.93051 q 0,0.17638 -0.17639,0.3175 -0.14111,0.17638 -0.28222,0.17638 h -18.83829 q -1.37583,0 -1.86972,-0.52916 -0.49389,-0.52917 -0.49389,-1.65805 V 193.058 q 0,-1.12889 0.45861,-1.62277 0.49389,-0.49389 1.86972,-0.49389 h 14.04052 q 0.28223,0 0.35278,-0.0706 0.0706,-0.10583 0.0706,-0.45861 v -1.12888 q 0,-0.38806 -0.0706,-0.45861 -0.0706,-0.10584 -0.38805,-0.10584 h -15.91025 q -0.17638,0 -0.35277,-0.10583 -0.14111,-0.14111 -0.14111,-0.3175 v -2.32833 q 0,-0.17639 0.14111,-0.3175 0.17639,-0.14111 0.35277,-0.14111 h 17.92107 q 1.44639,0 1.905,0.49389 0.49389,0.45861 0.49389,1.65805 v 4.12749 q 0,1.23472 -0.49389,1.69333 -0.45861,0.45861 -1.905,0.45861 h -13.93469 q -0.28222,0 -0.35277,0.10584 -0.0706,0.0705 -0.0706,0.35277 v 1.37583 q 0,0.3175 0.0706,0.35278 0.0706,0.0706 0.38805,0.0706 h 16.68635 q 0.21167,0 0.35278,0.14111 0.17639,0.14111 0.17639,0.35277 z m -13.68775,-24.09467 h -7.47887 v 3.42193 q 0,0.59973 0.635,0.59973 h 6.20887 q 0.635,0 0.635,-0.59973 z m 4.02166,4.93888 q 0,1.19944 -0.56444,1.79916 -0.56445,0.59972 -2.08139,0.59972 h -10.19525 q -1.55222,0 -2.11666,-0.52917 -0.56445,-0.56444 -0.56445,-1.97555 V 166.9525 q 0,-0.17639 0.14111,-0.28222 0.14111,-0.14111 0.3175,-0.14111 h 3.06916 q 0.17639,0 0.3175,0.14111 0.17639,0.10583 0.17639,0.28222 v 4.62138 h 7.47887 v -4.65665 q 0,-0.17639 0.14111,-0.3175 0.14111,-0.14111 0.3175,-0.14111 h 3.10444 q 0.17639,0 0.3175,0.14111 0.14111,0.14111 0.14111,0.3175 z m 40.71055,5.89137 q -2.11666,0 -3.88055,-0.38805 -1.7286,-0.42334 -2.9986,-1.12889 -1.23472,-0.74083 -1.94027,-1.72861 -0.70556,-1.02305 -0.70556,-2.18721 0,-1.19945 0.70556,-2.18722 0.70555,-0.98778 1.97555,-1.69333 1.26999,-0.70556 2.9986,-1.09361 1.76389,-0.42333 3.84527,-0.42333 2.11666,0 3.84527,0.42333 1.76388,0.38805 3.03388,1.09361 1.27,0.70555 1.94028,1.69333 0.70555,0.98777 0.70555,2.18722 0,1.16416 -0.70555,2.18721 -0.67028,0.98778 -1.94028,1.72861 -1.27,0.70555 -3.03388,1.12889 -1.72861,0.38805 -3.84527,0.38805 z m 0,-7.93748 q -1.12889,0 -2.11666,0.21167 -0.98778,0.17638 -1.72861,0.52916 -0.74083,0.3175 -1.16416,0.77611 -0.42334,0.45861 -0.42334,0.98778 0,0.52916 0.42334,0.98777 0.42333,0.45861 1.16416,0.77611 0.74083,0.3175 1.72861,0.52917 0.98777,0.17638 2.11666,0.17638 1.09361,0 2.08138,-0.17638 0.98778,-0.21167 1.72861,-0.52917 0.74083,-0.3175 1.16417,-0.77611 0.42333,-0.45861 0.42333,-0.98777 0,-0.52917 -0.42333,-0.98778 -0.42334,-0.45861 -1.16417,-0.77611 -0.74083,-0.35278 -1.72861,-0.52916 -0.98777,-0.21167 -2.08138,-0.21167 z m 12.98219,-4.65666 q 0,0.21167 -0.17638,0.38806 -0.14112,0.14111 -0.35278,0.14111 h -24.90606 q -0.17639,0 -0.35277,-0.17639 -0.17639,-0.17639 -0.17639,-0.38805 v -2.01083 q 0,-0.17639 0.17639,-0.35278 0.21166,-0.17639 0.38805,-0.17639 h 24.87078 q 0.21166,0 0.35278,0.17639 0.17638,0.14111 0.17638,0.35278 z m -7.23192,-4.51554 q 0,0.21166 -0.17639,0.38805 -0.14111,0.17639 -0.38806,0.17639 h -10.37164 q -0.14111,0 -0.35278,-0.14111 -0.17639,-0.14111 -0.17639,-0.38805 v -2.08139 q 0,-0.24694 0.17639,-0.38805 0.21167,-0.14111 0.35278,-0.14111 h 10.37164 q 0.21167,0 0.38806,0.17638 0.17639,0.17639 0.17639,0.38806 z m 10.15997,21.27245 q 0,0.17639 -0.17639,0.35278 -0.17638,0.17639 -0.35277,0.17639 h -13.33497 v 8.67831 q 0,0.49389 -0.49389,0.49389 h -3.06916 q -0.49389,0 -0.49389,-0.49389 v -8.67831 h -13.33497 q -0.21166,0 -0.35278,-0.17639 -0.14111,-0.17639 -0.14111,-0.35278 v -2.15194 q 0,-0.21167 0.14111,-0.38805 0.14112,-0.17639 0.35278,-0.17639 h 30.72688 q 0.17639,0 0.35277,0.21166 0.17639,0.17639 0.17639,0.35278 z m 20.35521,-15.16941 q 0,1.65805 -0.59972,3.06916 -0.59972,1.37583 -1.72861,2.39888 -1.09361,1.02306 -2.6811,1.62278 -1.55222,0.56444 -3.45722,0.56444 -1.97555,0 -3.52777,-0.56444 -1.55222,-0.59972 -2.64583,-1.62278 -1.05833,-1.02305 -1.62277,-2.39888 -0.56444,-1.41111 -0.56444,-3.06916 0,-1.65805 0.56444,-3.10444 0.56444,-1.44638 1.62277,-2.50471 1.09361,-1.05834 2.64583,-1.65806 1.55222,-0.59972 3.52777,-0.59972 1.905,0 3.45722,0.59972 1.58749,0.59972 2.6811,1.65806 1.12889,1.05833 1.72861,2.50471 0.59972,1.44639 0.59972,3.10444 z m -3.59833,0.0353 q 0,-2.04611 -1.34055,-3.35138 -1.30527,-1.30528 -3.52777,-1.30528 -2.15194,0 -3.45721,1.30528 -1.30528,1.30527 -1.30528,3.35138 0,1.94027 1.30528,3.24555 1.30527,1.26999 3.45721,1.26999 1.09361,0 1.97555,-0.3175 0.91722,-0.35277 1.55222,-0.95249 0.635,-0.635 0.98778,-1.44639 0.35277,-0.84667 0.35277,-1.79916 z m 13.61721,24.23578 q 0,0.17638 -0.1764,0.3175 -0.1411,0.17638 -0.2822,0.17638 h -18.69721 q -1.37583,0 -1.90499,-0.52916 -0.49389,-0.52917 -0.49389,-1.65805 v -4.30388 q 0,-1.12889 0.49389,-1.62278 0.49389,-0.52916 1.86972,-0.52916 h 13.93469 q 0.28222,0 0.35278,-0.0706 0.0705,-0.10583 0.0705,-0.42333 v -1.30528 q 0,-0.38805 -0.0705,-0.45861 -0.0706,-0.0705 -0.38806,-0.0705 h -15.80441 q -0.17639,0 -0.35278,-0.10583 -0.17638,-0.14111 -0.17638,-0.3175 v -2.32833 q 0,-0.17639 0.17638,-0.3175 0.17639,-0.17639 0.35278,-0.17639 h 17.81528 q 1.4463,0 1.905,0.49389 0.4938,0.49389 0.4938,1.69333 v 4.2686 q 0,1.23472 -0.4938,1.69333 -0.4587,0.45861 -1.905,0.45861 h -13.8289 q -0.28222,0 -0.35278,0.10583 -0.0705,0.0706 -0.0705,0.35278 v 1.48166 q 0,0.3175 0.0705,0.35278 0.0706,0.0706 0.38806,0.0706 h 16.58052 q 0.1764,0 0.3175,0.14111 0.1764,0.14111 0.1764,0.35277 z m -0.882,-15.80441 q 0,0.45861 -0.4586,0.45861 h -3.1397 q -0.45859,0 -0.45859,-0.49389 v -16.6158 q 0,-0.45861 0.45859,-0.45861 h 3.1397 q 0.4586,0 0.4586,0.45861 z m 37.2886,-5.78555 q 0,0.17639 -0.1764,0.3175 -0.1411,0.14111 -0.3175,0.14111 h -4.7977 v 6.84388 q 0,0.45861 -0.4587,0.45861 h -3.1397 q -0.4586,0 -0.4586,-0.49389 v -18.13274 q 0,-0.45861 0.4586,-0.45861 h 3.1397 q 0.4587,0 0.4587,0.45861 v 7.97276 h 4.7977 q 0.1764,0 0.3175,0.14111 0.1764,0.10584 0.1764,0.28223 z m -9.278,13.26442 q 0,-0.3175 -0.1059,-0.38806 -0.071,-0.10583 -0.3527,-0.10583 h -11.7828 q -0.2822,0 -0.388,0.0706 -0.071,0.0705 -0.071,0.35277 v 4.72722 q 0,0.31749 0.071,0.38805 0.1058,0.0706 0.388,0.0706 h 11.7828 q 0.2822,0 0.3527,-0.0706 0.1059,-0.0706 0.1059,-0.38805 z m 4.0216,5.89137 q 0,1.34056 -0.5997,1.905 -0.5644,0.56444 -1.905,0.56444 h -15.5575 q -1.5874,0 -2.1519,-0.56444 -0.5292,-0.56444 -0.5292,-1.94027 v -7.05554 q 0,-1.34056 0.5645,-1.94028 0.5997,-0.59972 1.9403,-0.59972 h 15.5574 q 1.5875,0 2.1167,0.59972 0.5644,0.56445 0.5644,1.97555 z m -5.8561,-15.09885 q 0.071,0.38805 -0.1411,0.56444 -0.1764,0.14111 -0.3528,0.17639 -1.3758,0.35278 -3.3161,0.635 -1.9402,0.24694 -4.0569,0.42333 -2.0814,0.14111 -4.1628,0.17639 -2.0813,0.0353 -3.81,-0.0353 -1.1641,-0.0705 -1.8697,-0.59972 -0.6703,-0.52916 -0.6703,-1.76388 V 169.81 q 0,-1.23472 0.4939,-1.72861 0.5292,-0.49389 1.8698,-0.49389 h 12.4177 q 0.4939,0 0.4939,0.45861 v 2.43416 q 0,0.17639 -0.1411,0.35278 -0.1411,0.14111 -0.3528,0.14111 h -10.0894 q -0.635,0 -0.635,0.59972 v 7.40832 q 0,0.56444 0.1764,0.77611 0.2116,0.17639 0.8819,0.21166 1.1289,0.0706 2.6106,0.0353 1.4816,-0.0353 3.1044,-0.14111 1.6581,-0.10583 3.2808,-0.3175 1.6581,-0.21166 3.1045,-0.49389 0.2822,-0.0705 0.4939,0 0.2116,0.0706 0.2822,0.35278 z"
         id="path5" />
      <path
         style="font-weight:normal;-inkscape-font-specification:NanumGothic"
         d="m 634.6814,244.52816 q -0.24694,0 -0.3175,-0.0353 -0.0353,0 -0.17639,-0.17638 -3.21027,-4.02166 -4.76248,-8.14915 -1.55222,-4.12749 -1.55222,-8.53721 0,-4.37443 1.55222,-8.50192 1.55221,-4.12749 4.76248,-8.18443 0.14112,-0.17639 0.17639,-0.17639 0.0706,-0.0353 0.24695,-0.0353 h 0.98777 q 0.21167,0 0.21167,0.0353 0,0.0353 -0.10583,0.21167 -5.5386,8.67831 -5.5386,16.65107 0,4.05694 1.41111,8.18443 1.4111,4.12749 4.16276,8.46665 0.17639,0.24694 -0.17638,0.24694 z m 21.13137,-19.89662 q 0,-1.65805 -0.95249,-2.6811 v 0.0353 q -0.88195,-0.70555 -2.08139,-0.70555 -2.01083,0 -3.84527,2.11666 -2.0461,2.43416 -2.01083,5.57388 0.0353,1.69333 0.74084,2.64582 0.74083,0.9525 1.97555,0.9525 1.23472,0 2.39888,-0.74083 1.16416,-0.74083 2.08138,-2.04611 0.81139,-1.23472 1.23472,-2.53999 0.45861,-1.34055 0.45861,-2.61055 z m 9.56026,-0.14111 q 0,4.40971 -3.10444,7.54943 -2.61055,2.75166 -5.39748,2.75166 -2.64583,0 -2.96333,-2.36361 -0.98778,1.12889 -2.18722,1.76389 -1.19944,0.59972 -2.57527,0.59972 -2.18722,0 -3.6336,-1.62278 -1.44639,-1.65805 -1.44639,-3.98638 0,-3.91582 2.43416,-6.87915 2.50472,-3.24555 6.27943,-3.24555 2.82222,0 4.16277,2.92805 0.17639,-0.52916 0.38806,-1.12888 0.24694,-0.635 0.42333,-1.16417 h 2.39888 l -3.28082,10.15998 q -0.35278,1.05833 -0.35278,1.76388 0,0.9525 0.84666,0.9525 2.18722,0 3.77472,-2.39888 1.7286,-2.39888 1.7286,-5.67971 0,-4.09221 -3.28082,-6.66749 -3.17499,-2.3636 -7.58471,-2.3636 -4.76249,0 -8.00803,3.17499 -3.13972,3.21027 -3.13972,8.04332 0,4.97415 3.13972,8.18442 3.24554,3.175 8.00803,3.175 6.4911,0 9.94831,-4.16277 h 2.29305 q -1.83444,3.03388 -5.04471,4.72721 -3.17499,1.65805 -7.19665,1.65805 -3.10443,0 -5.67971,-1.09361 -2.57527,-1.12888 -4.48026,-3.17499 -1.69333,-1.905 -2.57528,-4.2686 -0.88194,-2.36361 -0.88194,-4.97416 0,-5.43276 3.45722,-9.31331 3.77471,-4.19805 10.15997,-4.19805 2.64583,0 4.93888,0.74084 2.32833,0.70555 4.19805,2.15193 2.01083,1.55222 3.10443,3.70416 1.12889,2.11667 1.12889,4.65666 z m 6.77331,5.75026 q 0,1.65806 0.24694,3.03389 0.28222,1.34055 0.84667,2.3636 0.77611,1.27 1.86972,1.94028 1.12888,0.67027 2.6811,0.67027 1.41111,0 2.46944,-0.74083 1.09361,-0.74083 1.79916,-1.86972 0.74083,-1.16416 1.09361,-2.57527 0.35278,-1.44639 0.35278,-2.82222 0,-1.69333 -0.38806,-3.13971 -0.35277,-1.44639 -1.09361,-2.50472 -0.70555,-1.05833 -1.76388,-1.65805 -1.05833,-0.59972 -2.46944,-0.59972 -2.9986,0 -4.55082,2.57527 -0.56445,1.02306 -0.84667,2.39889 -0.24694,1.34055 -0.24694,2.92804 z m 13.72302,9.06637 q 0,0.49389 -0.49388,0.49389 h -1.37583 q -0.49389,0 -0.49389,-0.49389 v -2.64582 q -1.905,3.59832 -6.13832,3.59832 -3.77472,0 -5.89138,-2.89277 -1.94027,-2.68111 -1.94027,-7.1261 0,-9.91303 7.83165,-9.91303 2.11666,0 3.73943,0.84667 1.65806,0.84666 2.39889,2.18721 v -11.11247 q 0,-0.49389 0.49389,-0.49389 h 1.37583 q 0.49388,0 0.49388,0.49389 z m 16.96861,-9.45442 h -0.67028 q -1.97555,-0.0706 -3.52777,0.17639 -1.51694,0.21166 -2.53999,0.59972 -1.48166,0.52916 -2.2225,1.5875 -0.74083,1.02305 -0.74083,2.46943 0,0.88195 0.28222,1.65806 0.28223,0.74083 0.88195,1.16416 1.05833,0.84667 2.82221,0.84667 1.23472,0 2.25778,-0.49389 1.05833,-0.49389 1.83444,-1.41111 0.77611,-0.91722 1.19944,-2.25777 0.42333,-1.37583 0.42333,-3.13972 z m -10.05414,-6.1736 q -0.17639,0.10584 -0.35278,0.0706 -0.14111,-0.0706 -0.14111,-0.24695 v -1.34055 q 0,-0.49389 0.49389,-0.74083 1.23472,-0.67028 2.61055,-0.91722 1.4111,-0.28222 3.06916,-0.28222 3.52777,0 5.15054,1.69333 1.62277,1.65805 1.62277,5.04471 v 8.8547 q 0,1.05833 0.0353,1.905 0.0353,0.81138 0.10583,1.58749 0,0.49389 -0.49388,0.49389 h -1.27 q -0.49389,0 -0.49389,-0.49389 v -2.71638 q -0.74083,1.79916 -2.50472,2.78694 -1.7286,0.98777 -3.77471,0.98777 -3.56305,0 -5.2211,-2.08138 -0.56444,-0.70555 -0.84666,-1.62277 -0.28222,-0.9525 -0.28222,-1.86972 0,-2.15194 0.98777,-3.70416 1.02305,-1.55222 3.10444,-2.32833 2.53999,-0.91722 7.79637,-0.91722 h 0.45861 v -1.05833 q 0,-2.2225 -1.02305,-3.38666 -0.98778,-1.16416 -3.35138,-1.16416 -1.5875,0 -2.99861,0.35277 -1.41111,0.3175 -2.6811,1.09361 z m 20.95495,15.62802 q 0,0.49389 -0.49389,0.49389 h -1.55221 q -0.49389,0 -0.49389,-0.49389 v -27.05799 q 0,-0.49389 0.49389,-0.49389 h 1.55221 q 0.49389,0 0.49389,0.49389 z m 18.97942,-9.13692 q 0,-3.77471 -1.55221,-5.82082 -1.55222,-2.04611 -4.19805,-2.04611 -2.85749,0 -4.30388,1.905 -1.44639,1.90499 -1.44639,6.03248 0,1.51695 0.42334,2.78694 0.42333,1.27 1.16416,2.18722 0.74083,0.88194 1.76389,1.41111 1.02305,0.49389 2.22249,0.49389 1.23472,0 2.32833,-0.49389 1.09361,-0.52917 1.86972,-1.44639 0.81138,-0.9525 1.26999,-2.22249 0.45861,-1.27 0.45861,-2.78694 z m -12.13552,14.25219 q -0.42334,-0.10583 -0.35278,-0.52917 l 0.10583,-1.55222 q 0,-0.45861 0.45861,-0.21166 1.34055,0.59972 2.57527,0.84666 1.23472,0.28223 2.68111,0.28223 3.21027,0 4.79777,-1.97556 1.62277,-1.94027 1.83444,-5.32693 -0.81139,1.5875 -2.39889,2.39889 -1.58749,0.81138 -3.52777,0.81138 -1.7286,0 -3.21027,-0.635 -1.48166,-0.635 -2.57527,-1.79916 -1.09361,-1.16416 -1.72861,-2.82221 -0.63499,-1.65806 -0.63499,-3.66889 0,-2.3636 0.42333,-4.19804 0.45861,-1.86972 1.41111,-3.13972 0.95249,-1.26999 2.46943,-1.94027 1.51695,-0.67028 3.66888,-0.67028 1.86972,0 3.28083,0.635 1.44639,0.59972 2.92805,2.18722 l -0.0706,-1.905 q 0,-0.49388 0.49389,-0.49388 h 1.34055 q 0.49389,0 0.49389,0.49388 v 14.11108 q 0,2.29305 -0.59972,4.16277 -0.56444,1.83444 -1.72861,3.10444 -1.12888,1.30527 -2.82221,1.97555 -1.69333,0.70555 -3.88055,0.70555 -1.58749,0 -2.78694,-0.21166 -1.19944,-0.17639 -2.64582,-0.635 z m 34.50162,-14.14636 q 0,-1.65805 -0.45861,-3.10444 -0.42333,-1.44638 -1.19944,-2.57527 -1.83444,-2.25777 -4.76249,-2.25777 -1.48167,0 -2.68111,0.59972 -1.16416,0.56444 -2.08138,1.65805 -0.81139,1.12889 -1.27,2.57527 -0.42333,1.44639 -0.42333,3.10444 0,1.69333 0.42333,3.13972 0.45861,1.44638 1.27,2.53999 1.86972,2.29305 4.76249,2.29305 1.48166,0 2.64583,-0.59972 1.19944,-0.59972 2.11666,-1.69333 0.77611,-1.09361 1.19944,-2.53999 0.45861,-1.44639 0.45861,-3.13972 z m 2.61055,0 q 0,2.08139 -0.59972,3.88055 -0.59972,1.76388 -1.5875,3.10444 -1.23472,1.48166 -2.96333,2.29305 -1.69333,0.81138 -3.88054,0.81138 -2.18722,0 -3.91583,-0.81138 -1.7286,-0.81139 -2.96332,-2.29305 -0.98778,-1.34056 -1.5875,-3.10444 -0.56444,-1.79916 -0.56444,-3.88055 0,-4.2686 2.15194,-6.98498 2.46944,-3.06916 6.87915,-3.06916 2.22249,0 3.91582,0.77611 1.69333,0.74083 2.92805,2.29305 2.18722,2.78694 2.18722,6.98498 z m 19.89665,9.03109 q 0,0.49389 -0.49388,0.49389 h -1.41111 q -0.49389,0 -0.49389,-0.49389 v -11.11247 q 0,-3.24555 -1.16416,-4.5861 -1.16417,-1.37583 -3.28083,-1.37583 -2.85749,0 -4.37443,1.58749 -1.48167,1.5875 -1.48167,4.44499 v 11.04192 q 0,0.49389 -0.49389,0.49389 h -1.4111 q -0.49389,0 -0.49389,-0.49389 v -14.11108 q 0,-1.51694 -0.0353,-2.3636 0,-0.84667 -0.0706,-1.62278 -0.0353,-0.24694 0.10583,-0.35277 0.17639,-0.14111 0.38805,-0.14111 h 1.27 q 0.49389,0 0.49389,0.49388 v 1.94028 q 0.98777,-1.51694 2.3636,-2.2225 1.41111,-0.70555 3.84527,-0.70555 3.35138,0 5.04471,1.94027 1.69333,1.94027 1.69333,5.46804 z m 17.14499,-9.45442 h -0.67027 q -1.97556,-0.0706 -3.52777,0.17639 -1.51695,0.21166 -2.54,0.59972 -1.48166,0.52916 -2.22249,1.5875 -0.74084,1.02305 -0.74084,2.46943 0,0.88195 0.28223,1.65806 0.28222,0.74083 0.88194,1.16416 1.05833,0.84667 2.82221,0.84667 1.23472,0 2.25778,-0.49389 1.05833,-0.49389 1.83444,-1.41111 0.77611,-0.91722 1.19944,-2.25777 0.42333,-1.37583 0.42333,-3.13972 z m -10.05414,-6.1736 q -0.17639,0.10584 -0.35278,0.0706 -0.14111,-0.0706 -0.14111,-0.24695 v -1.34055 q 0,-0.49389 0.49389,-0.74083 1.23472,-0.67028 2.61055,-0.91722 1.4111,-0.28222 3.06916,-0.28222 3.52777,0 5.15054,1.69333 1.62277,1.65805 1.62277,5.04471 v 8.8547 q 0,1.05833 0.0353,1.905 0.0353,0.81138 0.10584,1.58749 0,0.49389 -0.49389,0.49389 h -1.27 q -0.49389,0 -0.49389,-0.49389 v -2.71638 q -0.74083,1.79916 -2.50471,2.78694 -1.72861,0.98777 -3.77472,0.98777 -3.56305,0 -5.2211,-2.08138 -0.56444,-0.70555 -0.84666,-1.62277 -0.28222,-0.9525 -0.28222,-1.86972 0,-2.15194 0.98777,-3.70416 1.02306,-1.55222 3.10444,-2.32833 2.53999,-0.91722 7.79637,-0.91722 h 0.45861 v -1.05833 q 0,-2.2225 -1.02305,-3.38666 -0.98778,-1.16416 -3.35138,-1.16416 -1.5875,0 -2.99861,0.35277 -1.41111,0.3175 -2.6811,1.09361 z m 34.39576,0.9525 q 0,-1.65805 -0.9525,-2.6811 v 0.0353 q -0.88194,-0.70555 -2.08139,-0.70555 -2.01082,0 -3.84526,2.11666 -2.04611,2.43416 -2.01083,5.57388 0.0353,1.69333 0.74083,2.64582 0.74083,0.9525 1.97555,0.9525 1.23472,0 2.39888,-0.74083 1.16417,-0.74083 2.08139,-2.04611 0.81138,-1.23472 1.23472,-2.53999 0.45861,-1.34055 0.45861,-2.61055 z m 9.56025,-0.14111 q 0,4.40971 -3.10443,7.54943 -2.61055,2.75166 -5.39749,2.75166 -2.64583,0 -2.96333,-2.36361 -0.98777,1.12889 -2.18722,1.76389 -1.19944,0.59972 -2.57527,0.59972 -2.18722,0 -3.6336,-1.62278 -1.44639,-1.65805 -1.44639,-3.98638 0,-3.91582 2.43416,-6.87915 2.50472,-3.24555 6.27943,-3.24555 2.82222,0 4.16277,2.92805 0.17639,-0.52916 0.38806,-1.12888 0.24694,-0.635 0.42333,-1.16417 h 2.39888 l -3.28082,10.15998 q -0.35278,1.05833 -0.35278,1.76388 0,0.9525 0.84667,0.9525 2.18721,0 3.77471,-2.39888 1.72861,-2.39888 1.72861,-5.67971 0,-4.09221 -3.28083,-6.66749 -3.17499,-2.3636 -7.5847,-2.3636 -4.76249,0 -8.00804,3.17499 -3.13972,3.21027 -3.13972,8.04332 0,4.97415 3.13972,8.18442 3.24555,3.175 8.00804,3.175 6.49109,0 9.94831,-4.16277 h 2.29305 q -1.83444,3.03388 -5.04471,4.72721 -3.175,1.65805 -7.19665,1.65805 -3.10444,0 -5.67971,-1.09361 -2.57528,-1.12888 -4.48027,-3.17499 -1.69333,-1.905 -2.57527,-4.2686 -0.88195,-2.36361 -0.88195,-4.97416 0,-5.43276 3.45722,-9.31331 3.77471,-4.19805 10.15998,-4.19805 2.64582,0 4.93887,0.74084 2.32833,0.70555 4.19805,2.15193 2.01083,1.55222 3.10444,3.70416 1.12888,2.11667 1.12888,4.65666 z m 20.31995,14.81663 q 0,0.49389 -0.49389,0.49389 h -1.41111 q -0.49388,0 -0.49388,-0.49389 v -10.86553 q 0,-1.69333 -0.3175,-2.85749 -0.28222,-1.19944 -0.84667,-1.905 -0.56444,-0.74083 -1.37583,-1.05833 -0.81138,-0.3175 -1.79916,-0.3175 -2.89277,0 -4.44499,1.37583 -1.51694,1.37583 -1.51694,3.80999 v 11.81803 q 0,0.49389 -0.49389,0.49389 h -1.41111 q -0.49388,0 -0.49388,-0.49389 v -27.09327 q 0,-0.49389 0.49388,-0.49389 h 1.41111 q 0.49389,0 0.49389,0.49389 v 10.23053 q 0.98777,-1.12888 2.43416,-1.62277 1.48166,-0.52917 3.66888,-0.52917 3.42194,0 5.00943,2.01083 1.5875,2.01083 1.5875,6.10304 z m 17.14499,-9.45442 h -0.67028 q -1.97555,-0.0706 -3.52777,0.17639 -1.51694,0.21166 -2.53999,0.59972 -1.48167,0.52916 -2.2225,1.5875 -0.74083,1.02305 -0.74083,2.46943 0,0.88195 0.28222,1.65806 0.28222,0.74083 0.88194,1.16416 1.05834,0.84667 2.82222,0.84667 1.23472,0 2.25777,-0.49389 1.05833,-0.49389 1.83444,-1.41111 0.77611,-0.91722 1.19944,-2.25777 0.42334,-1.37583 0.42334,-3.13972 z m -10.05415,-6.1736 q -0.17639,0.10584 -0.35277,0.0706 -0.14111,-0.0706 -0.14111,-0.24695 v -1.34055 q 0,-0.49389 0.49388,-0.74083 1.23472,-0.67028 2.61055,-0.91722 1.41111,-0.28222 3.06916,-0.28222 3.52777,0 5.15055,1.69333 1.62277,1.65805 1.62277,5.04471 v 8.8547 q 0,1.05833 0.0353,1.905 0.0353,0.81138 0.10583,1.58749 0,0.49389 -0.49389,0.49389 h -1.26999 q -0.49389,0 -0.49389,-0.49389 v -2.71638 q -0.74083,1.79916 -2.50472,2.78694 -1.7286,0.98777 -3.77471,0.98777 -3.56305,0 -5.2211,-2.08138 -0.56444,-0.70555 -0.84667,-1.62277 -0.28222,-0.9525 -0.28222,-1.86972 0,-2.15194 0.98778,-3.70416 1.02305,-1.55222 3.10444,-2.32833 2.53999,-0.91722 7.79637,-0.91722 h 0.45861 v -1.05833 q 0,-2.2225 -1.02306,-3.38666 -0.98777,-1.16416 -3.35138,-1.16416 -1.58749,0 -2.9986,0.35277 -1.41111,0.3175 -2.68111,1.09361 z m 30.65633,16.26302 q -1.05833,0.17639 -2.04611,0.24695 -0.98778,0.0705 -2.36361,0.0705 -2.18721,0 -3.91582,-0.77611 -1.69333,-0.77611 -2.89277,-2.11666 -1.16417,-1.34055 -1.79916,-3.17499 -0.635,-1.83444 -0.635,-3.95111 0,-2.15194 0.67027,-3.9511 0.67028,-1.83444 1.905,-3.13971 1.27,-1.34056 2.9986,-2.08139 1.76389,-0.77611 3.95111,-0.77611 1.16416,0 2.11666,0.10584 0.9525,0.0705 2.0461,0.3175 0.49389,0.14111 0.45861,0.67027 l -0.10583,1.12889 q -0.0706,0.42333 -0.52916,0.3175 -0.91722,-0.28222 -1.76389,-0.38806 -0.84666,-0.14111 -1.86972,-0.14111 -1.79916,0 -3.17499,0.59972 -1.34055,0.56445 -2.25777,1.62278 -0.91722,1.05833 -1.37583,2.53999 -0.45861,1.44639 -0.45861,3.17499 0,1.5875 0.45861,3.03389 0.49388,1.44638 1.37583,2.57527 0.91722,1.09361 2.18721,1.76388 1.30528,0.635 2.96333,0.635 1.23472,0 2.04611,-0.10583 0.81138,-0.10583 1.83444,-0.38806 0.52916,-0.14111 0.56444,0.24695 l 0.10583,1.30527 q 0.0353,0.52917 -0.49388,0.635 z m 11.11245,-10.72442 7.61998,10.08942 q 0.10584,0.17639 0.0706,0.35278 -0.0353,0.14111 -0.24694,0.14111 h -1.51694 q -0.35278,0 -0.635,-0.10583 -0.28222,-0.10584 -0.45861,-0.38806 l -6.34999,-8.39609 -2.3636,2.64583 v 5.75026 q 0,0.49389 -0.49389,0.49389 h -1.41111 q -0.49389,0 -0.49389,-0.49389 v -27.09327 q 0,-0.49389 0.49389,-0.49389 h 1.41111 q 0.49389,0 0.49389,0.49389 v 18.37968 l 8.04331,-9.38387 q 0.49389,-0.49388 1.16416,-0.49388 h 1.65806 q 0.21166,0 0.28222,0.17638 0.0706,0.14112 -0.10584,0.3175 z m 23.84774,-0.28222 q 0,-1.44639 -0.28222,-2.57527 -0.28222,-1.12889 -0.88194,-2.04611 -1.30527,-2.08138 -3.77471,-2.08138 -2.54,0 -4.12749,2.11666 -0.635,0.9525 -1.05834,2.18722 -0.42333,1.23472 -0.45861,2.39888 z m -10.58331,2.01083 q -0.0353,1.76388 0.38806,3.13971 0.45861,1.34056 1.30527,2.25778 0.84667,0.91722 2.01083,1.4111 1.19944,0.49389 2.64583,0.49389 1.41111,0 2.64583,-0.24694 1.23472,-0.28222 2.29305,-0.88194 0.45861,-0.21167 0.45861,0.24694 v 1.5875 q 0,0.3175 -0.38806,0.49388 -1.16416,0.45861 -2.43416,0.67028 -1.26999,0.24694 -2.75166,0.24694 -4.33915,0 -6.56165,-2.50471 -2.22249,-2.54 -2.22249,-7.61999 0,-4.48026 2.22249,-7.23192 2.32833,-2.78694 5.89138,-2.78694 1.97555,0 3.42193,0.70555 1.44639,0.70556 2.46944,2.11666 1.79916,2.50472 1.79916,6.70277 0,0.45861 -0.0353,0.70555 0,0.24694 -0.10584,0.35278 -0.10583,0.10583 -0.38805,0.14111 -0.24695,0 -0.74083,0 z m 26.98745,-8.07859 q -0.635,-0.21167 -1.69333,-0.21167 -2.61055,0 -3.88055,2.57527 -0.98777,2.01083 -0.98777,5.15055 v 8.92525 q 0,0.49389 -0.49389,0.49389 h -1.37583 q -0.49389,0 -0.49389,-0.49389 v -14.32274 q 0,-1.27 -0.0353,-2.04611 0,-0.81139 -0.0353,-1.72861 0,-0.49388 0.49389,-0.49388 h 1.30528 q 0.49388,0 0.49388,0.49388 v 3.45722 q 1.72861,-4.44499 5.07999,-4.44499 0.81139,0 1.62278,0.21166 0.21166,0.0706 0.35277,0.24695 0.17639,0.14111 0.17639,0.42333 v 1.48166 q 0,0.21167 -0.17639,0.28223 -0.17638,0.0705 -0.35277,0 z m 2.89278,14.60496 q 2.15194,0.88195 4.44499,0.88195 1.905,0 3.13972,-0.91723 1.23472,-0.95249 1.23472,-2.53999 0,-0.91722 -0.70556,-1.76388 -0.67027,-0.88195 -1.65805,-1.44639 -1.09361,-0.59972 -2.25777,-1.12889 -1.12889,-0.56444 -2.18722,-1.16416 -1.27,-0.70555 -1.86972,-1.72861 -0.59972,-1.05833 -0.59972,-2.18721 0,-1.30528 0.49389,-2.29306 0.49389,-0.98777 1.34055,-1.65805 0.84667,-0.67027 1.97555,-0.98777 1.12889,-0.3175 2.39889,-0.3175 1.34055,0 2.32832,0.14111 0.98778,0.14111 1.97555,0.42333 0.21167,0.0706 0.35278,0.21167 0.17639,0.14111 0.14111,0.38805 l -0.10583,1.05833 q -0.0353,0.28222 -0.21167,0.35278 -0.17639,0.0706 -0.35277,0 -0.88195,-0.3175 -1.76389,-0.42333 -0.88194,-0.14111 -2.11666,-0.14111 -4.09221,0 -4.09221,3.24555 0,0.70555 0.52916,1.34055 0.56445,0.635 1.86972,1.26999 1.12889,0.56445 2.22249,1.09361 1.09361,0.49389 2.36361,1.19945 1.09361,0.59972 1.79916,1.83444 0.74084,1.23471 0.74084,2.6811 0,1.41111 -0.56445,2.43416 -0.56444,1.02306 -1.51694,1.69333 -0.9525,0.67028 -2.18722,0.98778 -1.23472,0.35277 -2.53999,0.35277 -0.77611,0 -1.41111,-0.0353 -0.59972,-0.0353 -1.16416,-0.10584 -0.52917,-0.0705 -1.09361,-0.17639 -0.56444,-0.10583 -1.19944,-0.28222 -0.49389,-0.17639 -0.45861,-0.635 l 0.14111,-1.30527 q 0.0706,-0.56444 0.56444,-0.35278 z m 16.43943,2.2225 q 0,-0.74083 0.49389,-1.23472 0.52916,-0.52917 1.26999,-0.52917 0.74083,0 1.23472,0.52917 0.52917,0.49389 0.52917,1.23472 0,0.74083 -0.52917,1.23472 -0.49389,0.52916 -1.23472,0.52916 -0.74083,0 -1.26999,-0.52916 -0.49389,-0.49389 -0.49389,-1.23472 z m 23.35381,-9.70137 q 0,-1.44639 -0.28222,-2.78694 -0.28222,-1.37583 -0.9525,-2.43416 -0.67028,-1.05833 -1.72861,-1.69333 -1.05833,-0.67027 -2.64583,-0.67027 -1.44638,0 -2.50471,0.59972 -1.05833,0.59972 -1.76389,1.65805 -0.67027,1.02305 -1.02305,2.39888 -0.35278,1.37583 -0.35278,2.92805 0,4.09221 1.51694,6.20888 1.55222,2.08138 4.12749,2.08138 1.34056,0 2.36361,-0.56444 1.05833,-0.59972 1.76389,-1.69333 0.74083,-1.09361 1.0936,-2.61055 0.38806,-1.51694 0.38806,-3.42194 z m -13.61719,-8.78415 q 0,-0.49388 0.49389,-0.49388 h 1.34055 q 0.49389,0 0.49389,0.49388 l -0.17639,2.64583 q 0.70555,-1.55222 2.3636,-2.50472 1.69333,-0.95249 3.91583,-0.95249 2.08138,0 3.52777,0.74083 1.48166,0.74083 2.39888,2.0461 0.9525,1.27 1.37583,3.03389 0.45861,1.76388 0.45861,3.77471 0,2.18722 -0.52916,4.05694 -0.49389,1.86971 -1.48167,3.24554 -0.9525,1.37583 -2.39888,2.18722 -1.44639,0.77611 -3.35138,0.77611 -2.15194,0 -3.70416,-0.81139 -1.55222,-0.84666 -2.36361,-2.32832 v 7.5847 q 0,0.49389 -0.49388,0.49389 h -1.34056 q -0.21166,0 -0.38805,-0.14111 -0.14111,-0.14111 -0.14111,-0.35278 z m 36.97106,18.09746 q 0,0.49389 -0.4939,0.49389 h -1.27 q -0.4939,0 -0.4939,-0.49389 v -2.92805 q -0.9172,2.11667 -2.46944,3.06916 -1.51694,0.91722 -3.84526,0.91722 -6.59693,0 -6.59693,-7.37304 V 221.2096 q 0,-0.49388 0.49388,-0.49388 h 1.41111 q 0.49389,0 0.49389,0.49388 v 11.14776 q 0,5.99721 4.5861,5.99721 1.34055,0 2.39888,-0.56445 1.09361,-0.59972 1.83447,-1.58749 0.7408,-1.02306 1.1289,-2.36361 0.388,-1.34055 0.3527,-2.82222 v -9.8072 q 0,-0.49388 0.4939,-0.49388 h 1.4111 q 0.4939,0 0.4939,0.49388 v 14.18164 q 0,1.16416 0,2.08138 0.035,0.91722 0.071,1.83444 z m 19.8261,-9.1722 q 0.035,-1.48166 -0.2822,-2.89277 -0.2823,-1.41111 -0.9525,-2.53999 -0.6703,-1.12889 -1.7992,-1.79917 -1.0936,-0.70555 -2.7164,-0.70555 -1.4464,0 -2.54,0.635 -1.0583,0.59972 -1.7639,1.69333 -0.7055,1.09361 -1.0583,2.53999 -0.3528,1.44639 -0.3528,3.06916 0,1.5875 0.4234,3.06916 0.4586,1.44639 1.1994,2.54 0.7761,1.0936 1.7992,1.76388 1.0583,0.635 2.293,0.635 1.6228,0 2.7164,-0.67028 1.1289,-0.70555 1.7992,-1.83444 0.6702,-1.12888 0.9525,-2.57527 0.3175,-1.44639 0.2822,-2.92805 z m -13.8289,-18.0269 q 0,-0.49389 0.4939,-0.49389 h 1.3758 q 0.4939,0 0.4939,0.49389 v 11.25358 q 0.882,-1.44638 2.5047,-2.29305 1.6228,-0.88194 3.6337,-0.88194 7.8669,0 7.8669,9.94831 0.035,1.97555 -0.4234,3.80999 -0.4233,1.79917 -1.4111,3.175 -0.9877,1.37583 -2.5047,2.22249 -1.4816,0.81139 -3.5277,0.81139 -4.2334,0 -6.1384,-3.59833 v 2.75166 q 0,0.49389 -0.4939,0.49389 h -1.3758 q -0.4939,0 -0.4939,-0.49389 z m 19.9672,32.4202 q -0.3175,0 -0.1411,-0.24694 2.7517,-4.33916 4.1275,-8.46665 1.4111,-4.12749 1.4111,-8.18443 0,-4.02165 -1.3758,-8.14914 -1.3758,-4.16277 -4.1275,-8.50193 -0.1058,-0.17639 -0.1058,-0.21167 0,-0.0353 0.1764,-0.0353 h 0.9877 q 0.1764,0 0.2117,0.0353 0.071,0 0.247,0.17639 3.2102,4.05694 4.7272,8.18443 1.5522,4.12749 1.5522,8.50192 0,4.40972 -1.5522,8.53721 -1.517,4.12749 -4.7272,8.14915 -0.1764,0.17638 -0.247,0.17638 -0.035,0.0353 -0.2822,0.0353 z"
         id="path6" />
    </g>
  </g>
</svg>
