<?xml version="1.0" encoding="UTF-8" standalone="no"?>
<!-- Created with Inkscape (http://www.inkscape.org/) -->

<svg
   width="447.74484mm"
   height="120.40278mm"
   viewBox="0 0 447.74484 120.40278"
   version="1.1"
   id="svg1"
   sodipodi:docname="1st-meetup-session1-3lines.svg"
   inkscape:version="1.4 (e7c3feb1, 2024-10-09)"
   xmlns:inkscape="http://www.inkscape.org/namespaces/inkscape"
   xmlns:sodipodi="http://sodipodi.sourceforge.net/DTD/sodipodi-0.dtd"
   xmlns="http://www.w3.org/2000/svg"
   xmlns:svg="http://www.w3.org/2000/svg">
  <sodipodi:namedview
     id="namedview1"
     pagecolor="#ffffff"
     bordercolor="#000000"
     borderopacity="0.25"
     inkscape:showpageshadow="2"
     inkscape:pageopacity="0.0"
     inkscape:pagecheckerboard="0"
     inkscape:deskcolor="#d1d1d1"
     inkscape:document-units="mm"
     inkscape:zoom="0.057134617"
     inkscape:cx="840.12114"
     inkscape:cy="218.78155"
     inkscape:window-width="1104"
     inkscape:window-height="250"
     inkscape:window-x="226"
     inkscape:window-y="326"
     inkscape:window-maximized="0"
     inkscape:current-layer="svg1" />
  <defs
     id="defs1" />
  <g
     id="layer1"
     transform="translate(-1.196906e-5)">
    <g
       id="text1"
       style="font-size:35.2777px;line-height:1.2;font-family:NanumGothic;-inkscape-font-specification:NanumGothic;text-align:end;text-anchor:end;fill:#ffffff;fill-rule:evenodd;stroke:#ffffff;stroke-width:0;stroke-linecap:round;stroke-linejoin:round"
       aria-label="Code As A Canvas :코드에서 예술작품이 되기까지(@jakeseo@hackers.pub)">
      <path
         style="font-weight:bold"
         d="m 153.8462,28.433824 q -1.02306,0.282222 -2.46944,0.529166 -1.44639,0.246944 -3.35138,0.246944 -2.99861,0 -5.46805,-0.987776 -2.43416,-0.987775 -4.16277,-2.786938 -1.7286,-1.83444 -2.6811,-4.374435 -0.9525,-2.539994 -0.9525,-5.644431 0,-3.06916 0.91722,-5.6091544 0.9525,-2.5399943 2.68111,-4.3391569 1.7286,-1.8344403 4.16276,-2.8222159 2.46944,-1.0230533 5.50333,-1.0230533 1.58749,0 3.10443,0.1763885 1.51694,0.1411108 2.75166,0.5291655 0.38806,0.1058331 0.45861,0.2822216 0.0706,0.1411108 0.0353,0.4938878 l -0.0705,2.6105497 q 0,0.5644431 -0.17639,0.5644431 -0.17639,0 -0.59972,-0.1411107 -2.64583,-0.8113871 -5.50332,-0.8113871 -2.18722,0 -3.91583,0.7408317 -1.69333,0.7408316 -2.89277,2.0813842 -1.16416,1.3405525 -1.79916,3.2102702 -0.59972,1.834441 -0.59972,4.056936 0,2.187217 0.67027,4.056935 0.67028,1.83444 1.86972,3.210271 1.23472,1.340552 2.89277,2.116661 1.69333,0.77611 3.73944,0.77611 1.83444,0 3.10444,-0.141111 1.30527,-0.176388 2.39888,-0.564443 0.45861,-0.176389 0.59972,-0.105833 0.14111,0.07055 0.14111,0.317499 l 0.14111,2.504717 q 0.0353,0.388054 -0.0705,0.564443 -0.0706,0.176388 -0.45861,0.282221 z m 20.17887,-2.434161 q -1.27,1.587497 -3.03388,2.434161 -1.76389,0.811387 -3.98638,0.811387 -2.25777,0 -3.98638,-0.811387 -1.72861,-0.811387 -2.89277,-2.222495 -1.16417,-1.411108 -1.76389,-3.280826 -0.56444,-1.869718 -0.56444,-3.986379 0,-2.116662 0.56444,-3.98638 0.59972,-1.869718 1.76389,-3.245549 1.16416,-1.411108 2.85749,-2.2224947 1.72861,-0.8113871 4.02166,-0.8113871 2.25777,0 3.98638,0.8113871 1.72861,0.8113867 2.89277,2.2224947 1.16416,1.375831 1.72861,3.245549 0.59972,1.869718 0.59972,3.98638 0,2.081384 -0.56445,3.915824 -0.56444,1.799163 -1.62277,3.139715 z m -7.02026,-13.864135 q -1.37583,0 -2.39889,0.599721 -0.98777,0.59972 -1.62277,1.587496 -0.635,0.952498 -0.9525,2.187217 -0.3175,1.199442 -0.3175,2.434162 0,1.234719 0.3175,2.469438 0.3175,1.199442 0.9525,2.187218 0.635,0.987775 1.62277,1.587496 1.02306,0.599721 2.39889,0.599721 1.37583,0 2.3636,-0.599721 1.02306,-0.599721 1.65806,-1.587496 0.63499,-0.987776 0.95249,-2.187218 0.3175,-1.234719 0.3175,-2.469438 0,-1.199442 -0.3175,-2.398884 -0.3175,-1.234719 -0.95249,-2.187217 -0.635,-0.987776 -1.65806,-1.587497 -0.98777,-0.634998 -2.3636,-0.634998 z m 26.03497,16.651073 q -0.52916,0 -0.52916,-0.564443 v -1.340552 q -0.70556,0.987775 -2.08139,1.658052 -1.37583,0.670276 -2.78694,0.670276 -1.90499,0 -3.42193,-0.705554 -1.48167,-0.740832 -2.54,-2.081384 -1.02305,-1.375831 -1.58749,-3.316104 -0.52917,-1.940273 -0.52917,-4.374435 0,-2.363605 0.56444,-4.268601 0.56445,-1.940274 1.5875,-3.280826 1.05833,-1.3405527 2.53999,-2.0813844 1.51695,-0.7408316 3.38666,-0.7408316 1.41111,0 2.64583,0.5644431 1.27,0.5644432 2.2225,1.5874969 V 0.45860949 q 0,-0.28222159 0.0705,-0.35277699 Q 192.687,-5.9127808e-7 192.93395,-5.9127808e-7 h 2.89277 q 0.45861,0 0.45861,0.45861008127808 V 28.222158 q 0,0.282222 -0.17639,0.423333 -0.17639,0.14111 -0.38805,0.14111 z m -5.00943,-16.827462 q -2.18722,0 -3.35138,1.799163 -1.16417,1.763885 -1.16417,4.974155 0,3.457215 1.19944,5.185822 1.19945,1.728607 3.31611,1.728607 0.91722,0 1.72861,-0.45861 0.81138,-0.45861 1.4111,-1.340552 0.635,-0.881943 0.98778,-2.15194 0.35278,-1.305275 0.35278,-2.963327 0,-3.421936 -1.19945,-5.079988 -1.16416,-1.69333 -3.28082,-1.69333 z m 28.71608,7.866927 q 0,0.282222 -0.17639,0.423332 -0.14111,0.141111 -0.3175,0.141111 h -11.60636 q 0.17639,2.363606 1.48166,3.880547 1.30528,1.481663 3.56305,1.481663 1.16416,0 2.64583,-0.282221 1.48166,-0.3175 2.71638,-1.058331 0.24694,-0.141111 0.3175,0.03528 0.0705,0.176389 0.0705,0.458611 v 2.434161 q 0,0.317499 -0.10583,0.493888 -0.10583,0.176388 -0.42333,0.352777 -1.05833,0.564443 -2.50472,0.811387 -1.41111,0.246943 -2.89277,0.246943 -4.37443,0 -6.63221,-2.610549 -2.22249,-2.645828 -2.22249,-7.725816 0,-1.904996 0.49389,-3.739436 0.49388,-1.834441 1.48166,-3.280826 1.02305,-1.446386 2.57527,-2.3283283 1.55222,-0.8819425 3.66888,-0.8819425 2.15194,0 3.6336,0.8113871 1.51695,0.8113867 2.46944,2.1872177 0.9525,1.37583 1.37583,3.21027 0.42334,1.834441 0.42334,3.915825 0,0.246944 -0.0353,0.564443 0,0.317499 0,0.45861 z m -7.72582,-7.761094 q -0.9525,0 -1.69333,0.423333 -0.74083,0.423332 -1.26999,1.093608 -0.52917,0.670277 -0.88195,1.552219 -0.3175,0.881943 -0.45861,1.763885 h 8.0786 q 0,-0.705554 -0.24695,-1.552219 -0.21166,-0.846665 -0.67027,-1.552218 -0.45861,-0.740832 -1.16417,-1.23472 -0.70555,-0.493888 -1.69333,-0.493888 z m 40.78105,16.651074 q -0.24695,0 -0.35278,-0.03528 -0.10583,-0.07055 -0.21167,-0.317499 l -2.53999,-6.349986 h -11.50053 l -2.54,6.349986 q -0.0705,0.246944 -0.17638,0.317499 -0.10584,0.03528 -0.35278,0.03528 h -3.24555 q -0.635,0 -0.42333,-0.493888 L 238.75974,2.504716 q 0.10583,-0.2822216 0.14111,-0.3174993 0.0705,-0.070555 0.42333,-0.070555 h 3.28083 q 0.31749,0 0.38805,0.070555 0.0706,0.035278 0.17639,0.3174993 l 10.30109,25.717442 q 0.17639,0.493888 -0.42334,0.493888 z M 236.64307,18.309125 h 8.57249 L 240.94695,7.4435938 Z m 28.6102,9.666089 q -1.905,1.269997 -4.51555,1.269997 -0.70555,0 -1.48166,-0.07056 -0.77611,-0.07055 -1.51694,-0.176388 -0.70556,-0.105834 -1.27,-0.246944 -0.56444,-0.141111 -0.88194,-0.282222 -0.14111,-0.07055 -0.3175,-0.176388 -0.14111,-0.141111 -0.10583,-0.423333 l 0.21166,-2.29305 q 0.0353,-0.352777 0.10583,-0.423333 0.0706,-0.07055 0.45861,0.03528 1.16417,0.352777 2.39889,0.529166 1.27,0.14111 2.25777,0.14111 1.55222,0 2.29305,-0.776109 0.77611,-0.776109 0.77611,-1.799163 0,-0.564443 -0.38805,-1.128886 -0.38806,-0.599721 -1.30528,-1.199442 -0.9525,-0.564443 -1.97555,-1.128886 -1.02305,-0.599721 -2.01083,-1.164164 -1.12889,-0.670276 -1.90499,-1.763885 -0.74084,-1.128886 -0.74084,-2.469439 0,-1.481663 0.52917,-2.539994 0.52916,-1.093609 1.41111,-1.799163 0.88194,-0.7408315 2.01083,-1.0583308 1.16416,-0.352777 2.43416,-0.352777 0.67027,0 1.37583,0.070555 0.74083,0.070555 1.41111,0.2116662 0.70555,0.1058331 1.23471,0.2822216 0.56445,0.1411108 0.84667,0.3174993 0.17639,0.1058331 0.17639,0.2116662 0.0353,0.070555 0,0.2469441 l -0.21167,2.257772 q -0.0353,0.388055 -0.17639,0.458611 -0.14111,0.03528 -0.52916,-0.03528 -0.67028,-0.246944 -1.51694,-0.45861 -0.49389,-0.07056 -1.05833,-0.141111 -0.52917,-0.07056 -1.34056,-0.07056 -1.44638,0 -2.0461,0.670276 -0.59972,0.670276 -0.59972,1.622774 0,0.564443 0.67027,1.199442 0.67028,0.634998 1.69333,1.164164 1.09361,0.529165 2.01083,1.093608 0.9525,0.564444 1.41111,0.917221 1.27,0.91722 1.90499,2.010828 0.635,1.058331 0.635,2.575272 0,2.963327 -2.3636,4.691934 z m 35.03077,0.740832 q -0.24694,0 -0.35278,-0.03528 -0.10583,-0.07055 -0.21166,-0.317499 l -2.54,-6.349986 h -11.50053 l -2.53999,6.349986 q -0.0706,0.246944 -0.17639,0.317499 -0.10583,0.03528 -0.35278,0.03528 h -3.24555 q -0.63499,0 -0.42333,-0.493888 L 289.24212,2.504716 q 0.10583,-0.2822216 0.14111,-0.3174993 0.0706,-0.070555 0.42333,-0.070555 h 3.28083 q 0.3175,0 0.38805,0.070555 0.0706,0.035278 0.17639,0.3174993 l 10.30109,25.717442 q 0.17639,0.493888 -0.42333,0.493888 z M 287.12546,18.309125 h 8.57248 l -4.2686,-10.8655312 z m 48.29517,10.124699 q -1.02306,0.282222 -2.46944,0.529166 -1.44639,0.246944 -3.35138,0.246944 -2.99861,0 -5.46805,-0.987776 -2.43416,-0.987775 -4.16276,-2.786938 -1.72861,-1.83444 -2.68111,-4.374435 -0.9525,-2.539994 -0.9525,-5.644431 0,-3.06916 0.91722,-5.6091544 0.9525,-2.5399943 2.68111,-4.3391569 1.72861,-1.8344403 4.16277,-2.8222159 2.46944,-1.0230533 5.50332,-1.0230533 1.58749,0 3.10444,0.1763885 1.51694,0.1411108 2.75166,0.5291655 0.38805,0.1058331 0.45861,0.2822216 0.0706,0.1411108 0.0353,0.4938878 l -0.0706,2.6105497 q 0,0.5644431 -0.17639,0.5644431 -0.17639,0 -0.59972,-0.1411107 -2.64583,-0.8113871 -5.50332,-0.8113871 -2.18722,0 -3.91583,0.7408317 -1.69333,0.7408316 -2.89277,2.0813842 -1.16416,1.3405525 -1.79916,3.2102702 -0.59972,1.834441 -0.59972,4.056936 0,2.187217 0.67027,4.056935 0.67028,1.83444 1.86972,3.210271 1.23472,1.340552 2.89277,2.116661 1.69333,0.77611 3.73944,0.77611 1.83444,0 3.10444,-0.141111 1.30527,-0.176388 2.39888,-0.564443 0.45861,-0.176389 0.59972,-0.105833 0.14111,0.07055 0.14111,0.317499 l 0.14111,2.504717 q 0.0353,0.388054 -0.0706,0.564443 -0.0706,0.176388 -0.45861,0.282221 z m 15.91026,0.246944 q -0.24694,0 -0.3175,-0.03528 -0.0706,-0.07056 -0.0706,-0.282222 v -1.587496 q -0.88195,1.234719 -2.25778,1.869718 -1.34055,0.59972 -2.71638,0.59972 -1.44638,0 -2.6811,-0.388054 -1.19945,-0.388055 -2.08139,-1.164164 -0.84666,-0.77611 -1.34055,-1.904996 -0.49389,-1.164164 -0.49389,-2.681105 0,-1.799163 0.635,-3.139715 0.635,-1.37583 1.97555,-2.257773 1.37583,-0.91722 3.49249,-1.340552 2.11667,-0.458611 5.11527,-0.458611 0,-0.670276 -0.14111,-1.340552 -0.14111,-0.670276 -0.49389,-1.199442 -0.3175,-0.529165 -0.91722,-0.846665 -0.59972,-0.352777 -1.51694,-0.352777 -1.5875,0 -2.89277,0.423333 -1.27,0.423332 -2.39888,1.128886 -0.56445,0.352777 -0.77611,0.317499 -0.17639,-0.03528 -0.17639,-0.388054 v -2.681105 q 0,-0.141111 -0.0353,-0.282222 0,-0.176388 0.0706,-0.282222 0.10584,-0.14111 0.52917,-0.388054 1.19944,-0.5997211 2.43416,-0.9877758 1.27,-0.3880547 3.17499,-0.3880547 3.56305,0 5.25638,1.7286075 1.72861,1.728607 1.72861,5.432765 v 8.360815 q 0,0.987775 0,2.081384 0.0353,1.058331 0.14111,1.869718 0.0706,0.564443 -0.38806,0.564443 z m -0.635,-9.419145 q -3.91582,0 -5.60915,0.952498 -1.69333,0.952498 -1.69333,2.857493 0,1.340553 0.77611,2.010829 0.77611,0.670276 2.08138,0.670276 2.01083,0 3.21027,-1.481663 1.23472,-1.481663 1.23472,-4.621379 z m 21.44885,9.419145 q -0.17639,0 -0.3175,-0.14111 -0.10584,-0.176389 -0.10584,-0.352777 V 16.968572 q 0,-2.539994 -0.81138,-3.66888 -0.77611,-1.128887 -2.46944,-1.128887 -2.32833,0 -3.45722,1.305275 -1.0936,1.269997 -1.0936,3.704159 v 11.041919 q 0,0.45861 -0.42334,0.45861 h -2.92805 q -0.17638,0 -0.3175,-0.14111 -0.10583,-0.176389 -0.10583,-0.352777 V 14.146357 q 0,-1.340553 -0.0353,-2.575272 0,-1.23472 -0.0706,-1.9402739 -0.0706,-0.4586101 0.49389,-0.4586101 h 2.78693 q 0.38806,0 0.3175,0.2822216 l -0.0353,1.2699974 q 0.88194,-0.846665 2.11666,-1.4463859 1.23472,-0.5997209 2.85749,-0.5997209 3.38666,0 5.15055,2.0108288 1.79916,1.975551 1.79916,5.750265 v 11.782751 q 0,0.45861 -0.42333,0.45861 z m 16.79222,-0.352777 q -0.0706,0.211667 -0.14111,0.282222 -0.0705,0.03528 -0.28222,0.03528 h -3.03388 q -0.21167,0 -0.3175,-0.03528 -0.0706,-0.07056 -0.14111,-0.282222 L 378.6006,9.5955334 q -0.0706,-0.1763885 0,-0.2822216 0.0706,-0.1058331 0.45861,-0.1058331 h 3.06916 q 0.17638,0 0.28222,0.070555 0.10583,0.035278 0.17639,0.2116662 l 4.40971,13.2996927 4.37443,-13.2996927 q 0.0706,-0.1763885 0.17639,-0.2116662 0.14111,-0.070555 0.3175,-0.070555 h 3.10444 q 0.38805,0 0.45861,0.1058331 0.0705,0.1058331 0,0.2822216 z m 20.07298,0.352777 q -0.24695,0 -0.3175,-0.03528 -0.0706,-0.07056 -0.0706,-0.282222 v -1.587496 q -0.88194,1.234719 -2.25777,1.869718 -1.34055,0.59972 -2.71638,0.59972 -1.44639,0 -2.68111,-0.388054 -1.19944,-0.388055 -2.08138,-1.164164 -0.84667,-0.77611 -1.34055,-1.904996 -0.49389,-1.164164 -0.49389,-2.681105 0,-1.799163 0.635,-3.139715 0.635,-1.37583 1.97555,-2.257773 1.37583,-0.91722 3.49249,-1.340552 2.11666,-0.458611 5.11527,-0.458611 0,-0.670276 -0.14111,-1.340552 -0.14112,-0.670276 -0.49389,-1.199442 -0.3175,-0.529165 -0.91722,-0.846665 -0.59972,-0.352777 -1.51694,-0.352777 -1.5875,0 -2.89277,0.423333 -1.27,0.423332 -2.39889,1.128886 -0.56444,0.352777 -0.77611,0.317499 -0.17639,-0.03528 -0.17639,-0.388054 v -2.681105 q 0,-0.141111 -0.0353,-0.282222 0,-0.176388 0.0705,-0.282222 0.10583,-0.14111 0.52917,-0.388054 1.19944,-0.5997211 2.43416,-0.9877758 1.27,-0.3880547 3.17499,-0.3880547 3.56305,0 5.25638,1.7286075 1.72861,1.728607 1.72861,5.432765 v 8.360815 q 0,0.987775 0,2.081384 0.0353,1.058331 0.14111,1.869718 0.0705,0.564443 -0.38806,0.564443 z m -0.635,-9.419145 q -3.91583,0 -5.60915,0.952498 -1.69333,0.952498 -1.69333,2.857493 0,1.340553 0.77611,2.010829 0.7761,0.670276 2.08138,0.670276 2.01083,0 3.21027,-1.481663 1.23472,-1.481663 1.23472,-4.621379 z m 17.85052,8.713591 q -1.905,1.269997 -4.51555,1.269997 -0.70555,0 -1.48166,-0.07056 -0.77611,-0.07055 -1.51694,-0.176388 -0.70556,-0.105834 -1.27,-0.246944 -0.56444,-0.141111 -0.88194,-0.282222 -0.14111,-0.07055 -0.3175,-0.176388 -0.14111,-0.141111 -0.10583,-0.423333 l 0.21166,-2.29305 q 0.0353,-0.352777 0.10584,-0.423333 0.0706,-0.07055 0.45861,0.03528 1.16416,0.352777 2.39888,0.529166 1.27,0.14111 2.25777,0.14111 1.55222,0 2.29305,-0.776109 0.77611,-0.776109 0.77611,-1.799163 0,-0.564443 -0.38805,-1.128886 -0.38806,-0.599721 -1.30528,-1.199442 -0.9525,-0.564443 -1.97555,-1.128886 -1.02305,-0.599721 -2.01083,-1.164164 -1.12888,-0.670276 -1.90499,-1.763885 -0.74084,-1.128886 -0.74084,-2.469439 0,-1.481663 0.52917,-2.539994 0.52917,-1.093609 1.41111,-1.799163 0.88194,-0.7408315 2.01083,-1.0583308 1.16416,-0.352777 2.43416,-0.352777 0.67027,0 1.37583,0.070555 0.74083,0.070555 1.41111,0.2116662 0.70555,0.1058331 1.23472,0.2822216 0.56444,0.1411108 0.84666,0.3174993 0.17639,0.1058331 0.17639,0.2116662 0.0353,0.070555 0,0.2469441 l -0.21167,2.257772 q -0.0353,0.388055 -0.17639,0.458611 -0.14111,0.03528 -0.52916,-0.03528 -0.67028,-0.246944 -1.51694,-0.45861 -0.49389,-0.07056 -1.05833,-0.141111 -0.52917,-0.07056 -1.34056,-0.07056 -1.44638,0 -2.0461,0.670276 -0.59972,0.670276 -0.59972,1.622774 0,0.564443 0.67027,1.199442 0.67028,0.634998 1.69333,1.164164 1.09361,0.529165 2.01083,1.093608 0.9525,0.564444 1.41111,0.917221 1.27,0.91722 1.905,2.010828 0.63499,1.058331 0.63499,2.575272 0,2.963327 -2.3636,4.691934 z m 18.8383,-17.850515 q -1.12889,0 -1.94027,-0.7761095 -0.77611,-0.8113871 -0.77611,-1.869718 0,-1.0936087 0.77611,-1.869718 0.81138,-0.8113871 1.94027,-0.8113871 1.12889,0 1.905,0.8113871 0.7761,0.7761093 0.7761,1.869718 0,1.0583309 -0.7761,1.869718 -0.77611,0.7761095 -1.905,0.7761095 z m 0,16.051353 q -1.12889,0 -1.94027,-0.77611 -0.77611,-0.811387 -0.77611,-1.904995 0,-1.058331 0.77611,-1.834441 0.81138,-0.811387 1.94027,-0.811387 1.12889,0 1.905,0.811387 0.7761,0.77611 0.7761,1.834441 0,1.093608 -0.7761,1.904995 -0.77611,0.77611 -1.905,0.77611 z"
         id="path1" />
      <path
         style="font-weight:bold"
         d="m 4.7625318,52.210996 q 0,-0.493888 0.4586101,-0.493888 2.3283281,-0.03528 4.8683221,-0.03528 2.539995,-0.03528 4.938878,-0.03528 2.434161,-0.03528 4.586101,-0.07055 2.151939,-0.07055 3.739436,-0.176389 0.07056,-1.023053 0.07056,-1.975551 0.03528,-0.987775 0.03528,-1.83444 0,-0.493888 -0.246944,-0.599721 -0.211666,-0.141111 -0.705554,-0.141111 H 5.1505865 q -0.1763885,0 -0.352777,-0.105833 Q 4.621421,46.601841 4.621421,46.425453 v -2.539994 q 0,-0.211667 0.1763885,-0.3175 0.1763885,-0.105833 0.352777,-0.105833 H 25.153042 q 1.128886,0 1.728607,0.599721 0.599721,0.599721 0.599721,1.904996 0,4.762489 -0.3175,8.713591 -0.317499,3.951103 -0.846664,6.561652 -0.07056,0.282222 -0.246944,0.493888 -0.176389,0.211666 -0.45861,0.176389 l -2.751661,-0.246944 q -0.282221,-0.03528 -0.388055,-0.246944 -0.105833,-0.211666 -0.03528,-0.493888 0.246944,-1.234719 0.423332,-2.857494 0.176389,-1.622774 0.317499,-3.351381 -1.940273,0.105833 -4.162768,0.176389 -2.187217,0.07056 -4.515545,0.105833 -2.328329,0.03528 -4.6919343,0.07055 -2.3283281,0 -4.5861008,0 -0.1763885,0 -0.3174993,-0.141111 Q 4.7625318,54.75099 4.7625318,54.539324 Z M 31.749971,68.368181 q 0,0.176389 -0.176388,0.352777 -0.176389,0.176389 -0.352777,0.176389 H 0.49393027 q -0.2116662,0 -0.35277699,-0.176389 Q 4.2486638e-5,68.54457 4.2486638e-5,68.368181 v -2.328328 q 0,-0.211666 0.141110793362,-0.352777 0.14111079,-0.176388 0.35277699,-0.176388 H 12.700014 V 58.27876 q 0,-0.493888 0.529165,-0.493888 h 3.033883 q 0.493887,0 0.493887,0.493888 v 7.231928 h 14.463857 q 0.176388,0 0.352777,0.176388 0.176388,0.176389 0.176388,0.352777 z m 32.631891,-2.857493 q 0.176389,0 0.352777,0.176388 0.176389,0.176389 0.176389,0.352777 v 2.328328 q 0,0.176389 -0.176389,0.352777 -0.176388,0.176389 -0.352777,0.176389 H 33.654987 q -0.211666,0 -0.352777,-0.176389 -0.141111,-0.176388 -0.141111,-0.352777 v -2.328328 q 0,-0.211666 0.141111,-0.352777 0.141111,-0.176388 0.352777,-0.176388 z M 60.43076,58.384593 q 0,0.282221 -0.141111,0.423332 -0.105833,0.105833 -0.282221,0.105833 H 40.463583 q -1.411108,0 -2.046107,-0.705554 -0.634998,-0.705554 -0.634998,-1.940273 V 46.037398 q 0,-1.340552 0.59972,-1.799162 0.599721,-0.493888 1.940274,-0.493888 h 19.367456 q 0.493888,0 0.493888,0.45861 v 2.469439 q 0,0.45861 -0.493888,0.45861 H 42.474411 q -0.634998,0 -0.634998,0.599721 v 7.19665 q 0,0.3175 0.105833,0.493888 0.141111,0.141111 0.529165,0.141111 h 17.391906 q 0.282221,0 0.423332,0.07055 0.141111,0.07056 0.141111,0.352777 z m 18.132757,-3.598326 q 0,-1.340552 -0.211666,-2.681105 -0.211666,-1.340552 -0.670277,-2.434161 -0.45861,-1.093608 -1.199441,-1.763885 -0.705554,-0.670276 -1.69333,-0.670276 -0.91722,0 -1.587496,0.705554 -0.670277,0.670276 -1.093609,1.763885 -0.423332,1.093609 -0.634998,2.434161 -0.211667,1.340553 -0.211667,2.645827 0,1.269998 0.211667,2.61055 0.211666,1.340553 0.634998,2.469439 0.423332,1.093609 1.093609,1.799163 0.670276,0.705554 1.587496,0.705554 0.987776,0 1.69333,-0.705554 0.705554,-0.705554 1.164164,-1.799163 0.45861,-1.093609 0.670276,-2.434161 0.246944,-1.340553 0.246944,-2.645828 z m 10.865531,18.450237 q 0,0.493888 -0.45861,0.493888 h -2.892771 q -0.493888,0 -0.493888,-0.493888 V 56.655986 h -3.210271 q -0.176388,2.151939 -0.846664,3.845269 -0.634999,1.693329 -1.658052,2.892771 -0.987776,1.164164 -2.293051,1.799163 -1.305274,0.59972 -2.822216,0.59972 -1.693329,0 -3.069159,-0.740831 -1.375831,-0.77611 -2.363606,-2.187218 -0.952498,-1.446385 -1.481663,-3.492492 -0.529166,-2.046106 -0.529166,-4.621378 0,-2.786938 0.564443,-4.868323 0.564443,-2.081384 1.552219,-3.457214 0.987776,-1.37583 2.328328,-2.046107 1.37583,-0.670276 2.998604,-0.670276 1.552219,0 2.892772,0.599721 1.340552,0.564443 2.363606,1.763885 1.023053,1.164164 1.658051,2.963327 0.634999,1.799162 0.77611,4.233323 h 3.139715 V 42.439073 q 0,-0.45861 0.493888,-0.45861 h 2.892771 q 0.45861,0 0.45861,0.45861 z m 6.808596,1.199442 q 0,0.45861 -0.45861,0.45861 h -3.06916 q -0.45861,0 -0.45861,-0.45861 V 41.839352 q 0,-0.45861 0.493888,-0.45861 h 3.033882 q 0.45861,0 0.45861,0.45861 z m 32.243836,-0.03528 q 0,0.45861 -0.45861,0.45861 h -3.13972 q -0.45861,0 -0.45861,-0.45861 V 55.738765 h -7.2672 q -0.17639,0 -0.35278,-0.14111 -0.14111,-0.141111 -0.14111,-0.3175 v -2.504716 q 0,-0.176389 0.14111,-0.282222 0.17639,-0.141111 0.35278,-0.141111 h 7.2672 V 41.839352 q 0,-0.45861 0.45861,-0.45861 h 3.13972 q 0.45861,0 0.45861,0.45861 z m -25.25883,-6.984984 q -0.67028,0.529165 -1.23472,-0.03528 l -1.65805,-1.552219 q -0.493891,-0.493888 0.10583,-1.058331 2.29305,-2.116662 3.91582,-4.656656 1.62278,-2.539994 2.61055,-5.432766 0.88195,-2.575272 1.19945,-5.221099 0.35277,-2.681105 0.28222,-5.82082 0,-0.211666 0.14111,-0.352777 0.17639,-0.176389 0.35278,-0.176389 l 3.13971,0.105833 q 0.17639,0 0.3175,0.176389 0.14111,0.141111 0.14111,0.352777 0,4.339157 -0.635,7.97276 0.3175,1.693329 1.05833,3.421936 0.74083,1.69333 1.72861,3.280826 1.02305,1.552219 2.18722,2.892772 1.16416,1.340552 2.32833,2.257772 0.56444,0.423333 0.0705,1.128887 l -1.48166,1.799162 q -0.17639,0.246944 -0.49389,0.282222 -0.28222,0.03528 -0.635,-0.211666 -0.88194,-0.670276 -1.86972,-1.69333 -0.95249,-1.023053 -1.83444,-2.187217 -0.88194,-1.199442 -1.62277,-2.434161 -0.74083,-1.269997 -1.16417,-2.434161 -0.63499,1.481663 -1.44638,2.857493 -0.81139,1.37583 -1.72861,2.645828 -0.88194,1.234719 -1.86972,2.29305 -0.95249,1.023053 -1.90499,1.799163 z m 62.44157,5.82082 q 0,0.493888 -0.45861,0.493888 h -2.89278 q -0.49388,0 -0.49388,-0.493888 V 61.630141 h -4.40972 q -0.98777,2.222495 -2.61055,3.245548 -1.62277,1.023054 -3.73943,1.023054 -1.65805,0 -3.03388,-0.670277 -1.37583,-0.705554 -2.39889,-2.081384 -0.98777,-1.37583 -1.55222,-3.457214 -0.52916,-2.116662 -0.52916,-4.938878 0,-2.822216 0.52916,-4.9036 0.56445,-2.081385 1.55222,-3.457215 1.02306,-1.37583 2.39889,-2.046106 1.37583,-0.705554 3.03388,-0.705554 2.22249,0 3.91582,1.199442 1.72861,1.199441 2.68111,3.66888 h 4.16277 v -6.103042 q 0,-0.45861 0.49388,-0.45861 h 2.89278 q 0.45861,0 0.45861,0.45861 z m 6.77331,1.234719 q 0,0.45861 -0.45861,0.45861 h -3.06916 q -0.45861,0 -0.45861,-0.45861 V 41.839352 q 0,-0.45861 0.49389,-0.45861 h 3.03388 q 0.45861,0 0.45861,0.45861 z M 154.72813,54.75099 q 0,-1.305275 -0.21167,-2.645828 -0.21166,-1.340552 -0.67027,-2.434161 -0.42334,-1.093608 -1.12889,-1.799162 -0.67028,-0.705554 -1.62277,-0.705554 -0.91722,0 -1.62278,0.705554 -0.67027,0.705554 -1.12888,1.799162 -0.42334,1.093609 -0.635,2.434161 -0.21167,1.340553 -0.21167,2.645828 0,1.305275 0.21167,2.681105 0.21166,1.340552 0.635,2.434161 0.45861,1.093609 1.12888,1.799163 0.70556,0.705554 1.62278,0.705554 0.95249,0 1.62277,-0.705554 0.70555,-0.705554 1.12889,-1.799163 0.45861,-1.093609 0.67027,-2.434161 0.21167,-1.37583 0.21167,-2.681105 z m 3.88055,0 q 0,1.023053 -0.0706,1.904996 -0.0705,0.846664 -0.21167,1.658051 h 3.4925 v -6.526374 h -3.38666 q 0.0705,0.705554 0.10583,1.446386 0.0706,0.740831 0.0706,1.516941 z m 48.82435,2.892771 q 0,0.176389 -0.17639,0.352777 -0.17639,0.141111 -0.35277,0.141111 H 193.5689 v 2.892771 h 6.59692 q 1.44639,0 1.905,0.45861 0.49389,0.423333 0.49389,1.622774 v 4.127491 q 0,1.23472 -0.49389,1.658052 -0.45861,0.423332 -1.905,0.423332 h -15.06357 q -0.28222,0 -0.35278,0.105833 -0.0705,0.07056 -0.0705,0.388055 v 1.23472 q 0,0.352776 0.0705,0.388054 0.0706,0.07056 0.38806,0.07056 h 17.74468 q 0.17639,0 0.35277,0.105833 0.17639,0.14111 0.17639,0.352777 v 2.29305 q 0,0.176389 -0.17639,0.317499 -0.17638,0.176389 -0.31749,0.176389 h -19.86135 q -1.37583,0 -1.86972,-0.493888 -0.49388,-0.493888 -0.49388,-1.622774 v -4.162768 q 0,-1.128887 0.45861,-1.622775 0.49388,-0.493887 1.86971,-0.493887 H 198.155 q 0.28222,0 0.35277,-0.07056 0.10584,-0.07056 0.10584,-0.388054 v -1.164165 q 0,-0.282221 -0.0706,-0.352777 -0.0705,-0.07055 -0.38805,-0.07055 h -17.03913 q -0.17639,0 -0.35278,-0.141111 -0.14111,-0.14111 -0.14111,-0.317499 V 61.48903 q 0,-0.176388 0.14111,-0.317499 0.17639,-0.141111 0.35278,-0.141111 h 8.39609 v -2.892771 h -13.33497 q -0.49389,0 -0.49389,-0.493888 v -2.187217 q 0,-0.564443 0.49389,-0.564443 h 30.72688 q 0.17638,0 0.35277,0.176388 0.17639,0.176389 0.17639,0.388055 z m -26.98744,-4.621378 q -0.77611,0.176388 -0.9525,-0.211667 l -0.95249,-2.187217 q -0.0706,-0.176388 0,-0.388055 0.0705,-0.211666 0.3175,-0.282221 2.25777,-0.493888 4.16276,-1.199442 1.905,-0.705554 3.28083,-1.693329 1.41111,-0.987776 2.22249,-2.293051 0.84667,-1.305275 0.98778,-3.06916 0.0706,-0.564443 0.67028,-0.564443 l 2.71638,0.105833 q 0.49389,0 0.49389,0.493888 -0.0353,0.317499 -0.0353,0.634999 0,0.282221 -0.0706,0.59972 0.52917,1.340553 1.62278,2.398884 1.12888,1.058331 2.61055,1.904996 1.48166,0.811387 3.21027,1.411108 1.76388,0.599721 3.56305,0.987775 0.21166,0.07056 0.28222,0.282222 0.10583,0.211666 0.0353,0.388054 l -1.05833,2.081385 q -0.17638,0.45861 -0.81138,0.352777 -1.44639,-0.141111 -3.06916,-0.634999 -1.5875,-0.529165 -3.13972,-1.305275 -1.51694,-0.776109 -2.82221,-1.763885 -1.30528,-0.987775 -2.11667,-2.151939 -1.65805,2.328328 -4.55082,3.880547 -2.85749,1.516941 -6.59693,2.222495 z m 31.71467,7.337761 q -0.24694,0.105833 -0.59972,0.105833 -0.3175,0 -0.52916,-0.388055 l -1.09361,-1.763885 q -0.17639,-0.282221 -0.10584,-0.564443 0.10584,-0.317499 0.45861,-0.493888 3.91583,-1.799162 6.8086,-4.409712 2.92805,-2.61055 4.33916,-5.538599 0.17639,-0.317499 0.14111,-0.564443 -0.0353,-0.246944 -0.59972,-0.246944 h -8.85471 q -0.24694,0 -0.38805,-0.176388 -0.10583,-0.176389 -0.10583,-0.388055 v -2.328328 q 0,-0.493888 0.52916,-0.493888 h 11.32414 q 1.55222,0 2.29305,0.564443 0.77611,0.564444 0.59972,1.728608 -0.0705,0.388054 -0.17638,0.811387 -0.10584,0.423332 -0.24695,0.740831 -0.42333,1.128887 -1.12888,2.293051 -0.67028,1.164164 -1.55222,2.29305 0.635,0.634999 1.41111,1.269997 0.7761,0.634999 1.58749,1.199442 0.81139,0.564443 1.62278,1.058331 0.81138,0.45861 1.51694,0.811387 0.38805,0.176389 0.49388,0.388055 0.10584,0.176388 -0.14111,0.529165 l -1.16416,1.975551 q -0.35278,0.634999 -1.05833,0.282222 -0.635,-0.317499 -1.48166,-0.811387 -0.81139,-0.529166 -1.72861,-1.199442 -0.88194,-0.670276 -1.76389,-1.37583 -0.88194,-0.740832 -1.62277,-1.481663 -1.86972,1.83444 -4.12749,3.421936 -2.2225,1.587497 -4.65666,2.751661 z m 23.60078,13.934691 q 0,0.176388 -0.17639,0.317499 -0.14111,0.176389 -0.35277,0.176389 h -2.99861 q -0.21166,0 -0.38805,-0.176389 -0.17639,-0.141111 -0.17639,-0.317499 v -7.831649 q 0,-0.388055 -0.14111,-0.493888 -0.14111,-0.105833 -0.49389,-0.105833 h -15.94552 q -0.17639,0 -0.35278,-0.105833 -0.14111,-0.141111 -0.14111,-0.3175 v -2.504716 q 0,-0.211666 0.14111,-0.317499 0.17639,-0.141111 0.35278,-0.141111 h 18.30913 q 1.34055,0 1.83444,0.564443 0.52916,0.564443 0.52916,1.904996 z m 5.32694,-21.589952 q 0,0.176389 -0.17639,0.3175 -0.14111,0.14111 -0.35278,0.14111 h -4.76249 v 7.090818 q 0,0.45861 -0.45861,0.45861 H 232.198 q -0.45861,0 -0.45861,-0.493888 V 41.839352 q 0,-0.45861 0.45861,-0.45861 h 3.13971 q 0.45861,0 0.45861,0.45861 v 7.937482 h 4.76249 q 0.21167,0 0.35278,0.141111 0.17639,0.105833 0.17639,0.317499 z m 27.58718,19.155791 q 0,1.340552 -0.70556,1.904995 -0.67027,0.564443 -2.01083,0.564443 h -16.26302 q -1.58749,0 -2.15194,-0.564443 -0.52916,-0.529165 -0.52916,-1.904995 v -5.961931 q 0,-1.340553 0.67027,-1.904996 0.67028,-0.564443 2.01083,-0.564443 h 6.13832 V 60.007367 H 242.4991 q -0.49388,0 -0.49388,-0.493888 v -2.363606 q 0,-0.211666 0.14111,-0.352777 0.14111,-0.176388 0.35277,-0.176388 h 30.72688 q 0.17639,0 0.35278,0.176388 0.17638,0.176389 0.17638,0.352777 v 2.363606 q 0,0.176389 -0.17638,0.352777 -0.17639,0.141111 -0.35278,0.141111 h -13.33497 v 3.421937 h 6.06776 q 1.62278,0 2.15194,0.529165 0.56445,0.529166 0.56445,1.940274 z M 247.36743,45.261289 q -0.17639,0 -0.38806,-0.176389 -0.17639,-0.176388 -0.17639,-0.423332 v -2.046106 q 0,-0.176389 0.17639,-0.352777 0.21167,-0.176389 0.38806,-0.176389 h 20.99023 q 0.21166,0 0.35277,0.176389 0.17639,0.14111 0.17639,0.352777 v 2.116661 q 0,0.211667 -0.17639,0.388055 -0.14111,0.141111 -0.35277,0.141111 h -3.31611 v 5.644432 h 3.9511 q 0.21167,0 0.35278,0.176388 0.17639,0.141111 0.17639,0.352777 v 2.081384 q 0,0.246944 -0.17639,0.423333 -0.14111,0.141111 -0.35278,0.141111 h -22.26022 q -0.17639,0 -0.38806,-0.176389 -0.21166,-0.176388 -0.21166,-0.423332 v -2.046107 q 0,-0.176388 0.21166,-0.352777 0.21167,-0.176388 0.38806,-0.176388 h 3.9511 v -5.644432 z m 17.25079,22.119117 q 0,-0.564443 -0.49389,-0.564443 h -12.59414 q -0.28222,0 -0.38805,0.14111 -0.0706,0.105834 -0.0706,0.388055 v 3.139715 q 0,0.3175 0.0706,0.388055 0.10583,0.07055 0.38805,0.07055 h 12.59414 q 0.3175,0 0.38806,-0.07055 0.10583,-0.07056 0.10583,-0.388055 z M 254.59935,45.261289 v 5.644432 h 6.52638 v -5.644432 z m 48.96547,29.139379 q 0,0.45861 -0.45861,0.45861 h -3.13972 q -0.45861,0 -0.45861,-0.45861 V 41.839352 q 0,-0.45861 0.45861,-0.45861 h 3.13972 q 0.45861,0 0.45861,0.45861 z M 290.82957,55.103767 q 0,-1.622774 -0.3175,-3.06916 -0.3175,-1.481663 -0.91722,-2.575272 -0.59972,-1.093609 -1.48166,-1.728607 -0.84667,-0.634999 -1.97555,-0.634999 -1.12889,0 -2.01083,0.634999 -0.84667,0.634998 -1.44639,1.728607 -0.59972,1.093609 -0.91722,2.575272 -0.3175,1.446386 -0.3175,3.06916 0,1.587496 0.3175,3.06916 0.3175,1.446385 0.91722,2.575272 0.59972,1.093608 1.44639,1.763884 0.88194,0.634999 2.01083,0.634999 1.12888,0 1.97555,-0.634999 0.88194,-0.670276 1.48166,-1.763884 0.59972,-1.128887 0.91722,-2.575272 0.3175,-1.481664 0.3175,-3.06916 z m -4.69193,11.64164 q -2.01083,0 -3.63361,-0.846664 -1.62277,-0.846665 -2.75166,-2.363606 -1.09361,-1.552219 -1.69333,-3.704159 -0.59972,-2.151939 -0.59972,-4.727211 0,-2.645828 0.59972,-4.797767 0.59972,-2.15194 1.69333,-3.633603 1.12889,-1.516941 2.75166,-2.328328 1.62278,-0.846665 3.63361,-0.846665 2.0461,0 3.6336,0.846665 1.62277,0.811387 2.71638,2.328328 1.12889,1.481663 1.72861,3.633603 0.59972,2.151939 0.59972,4.797767 0,2.645827 -0.59972,4.797767 -0.59972,2.151939 -1.72861,3.66888 -1.09361,1.516941 -2.71638,2.363606 -1.5875,0.811387 -3.6336,0.811387 z m 32.56137,-1.269997 q 0,-0.493888 0.52916,-0.493888 4.16277,0.105833 8.78415,-0.105833 v -6.27943 h -4.09221 q -1.41111,0 -2.04611,-0.670276 -0.635,-0.705554 -0.635,-1.940274 v -9.066368 q 0,-1.340553 0.59972,-1.904996 0.59972,-0.564443 1.94028,-0.564443 h 13.93469 q 0.21166,0 0.35277,0.176388 0.14112,0.141111 0.14112,0.3175 v 2.398883 q 0,0.45861 -0.49389,0.45861 h -11.78275 q -0.3175,0 -0.49389,0.141111 -0.14111,0.105833 -0.14111,0.493888 v 6.208875 q 0,0.352777 0.10583,0.493887 0.14111,0.105834 0.52917,0.105834 h 11.92386 q 0.59972,0 0.59972,0.493887 v 2.293051 q 0,0.564443 -0.59972,0.564443 h -5.89138 v 6.067764 q 2.25778,-0.141111 4.37444,-0.352777 2.11666,-0.211666 3.91582,-0.45861 0.17639,-0.03528 0.38806,0.03528 0.24694,0.03528 0.28222,0.317499 l 0.21166,2.328328 q 0.0353,0.282222 -0.14111,0.423332 -0.14111,0.141111 -0.3175,0.176389 -1.97555,0.282222 -4.62137,0.564443 -2.64583,0.246944 -5.57388,0.423333 -2.89277,0.176388 -5.82082,0.282221 -2.92805,0.07056 -5.43277,0.03528 -0.52916,0 -0.52916,-0.564443 z m 27.93994,8.995813 q 0,0.45861 -0.49389,0.45861 h -3.10444 q -0.17639,0 -0.35278,-0.14111 -0.14111,-0.105834 -0.14111,-0.3175 V 41.839352 q 0,-0.176388 0.14111,-0.317499 0.17639,-0.141111 0.35278,-0.141111 h 3.10444 q 0.49389,0 0.49389,0.45861 z m 33.12576,-0.07055 q 0,0.45861 -0.45861,0.45861 h -3.13972 q -0.45861,0 -0.45861,-0.45861 V 41.839352 q 0,-0.45861 0.45861,-0.45861 h 3.13972 q 0.45861,0 0.45861,0.45861 z m -9.52498,-27.728271 q -0.28222,3.421937 -1.44639,6.455819 -1.12888,3.033882 -3.03388,5.644431 -1.86972,2.61055 -4.44499,4.833045 -2.57527,2.222495 -5.67971,4.056935 -0.28222,0.176389 -0.635,0.141111 -0.31749,-0.07055 -0.49388,-0.352777 l -1.19944,-1.869718 q -0.17639,-0.282221 -0.10584,-0.529165 0.0706,-0.282222 0.3175,-0.423333 5.25638,-3.104437 8.39609,-7.161372 3.175,-4.056936 4.12749,-8.88998 0.14112,-0.705554 -0.0705,-0.917221 -0.21167,-0.246943 -0.88194,-0.246943 h -9.94831 q -0.49389,0 -0.49389,-0.493888 v -2.469439 q 0,-0.423333 0.49389,-0.423333 h 12.62941 q 1.5875,0 2.08139,0.670277 0.49388,0.634998 0.38805,1.975551 z m 34.28996,-0.176389 q 0,2.716383 -0.56444,5.609154 -0.52917,2.857494 -1.62278,5.67971 -1.09361,2.786938 -2.71638,5.397488 -1.62278,2.610549 -3.73944,4.762489 -0.17639,0.176389 -0.52916,0.246944 -0.3175,0.07055 -0.56445,-0.141111 l -1.76388,-1.516941 q -0.24694,-0.211666 -0.17639,-0.564443 0.10583,-0.352777 0.24694,-0.493888 1.62278,-1.693329 2.96333,-3.809991 1.37583,-2.116662 2.36361,-4.374435 0.98777,-2.29305 1.51694,-4.586101 0.56444,-2.328328 0.56444,-4.339157 0,-0.705554 -0.14111,-0.91722 -0.10583,-0.246944 -0.70555,-0.246944 h -3.31611 q -0.49389,0 -0.49389,-0.493887 v -2.187218 q 0,-0.423332 0.49389,-0.423332 h 5.71499 q 1.37583,0 1.905,0.529165 0.56444,0.529166 0.56444,1.869718 z m 12.24136,10.794976 q 0,0.176389 -0.17639,0.317499 -0.14111,0.141111 -0.3175,0.141111 h -4.79776 v 16.651074 q 0,0.45861 -0.45861,0.45861 h -2.99861 q -0.45861,0 -0.45861,-0.45861 V 41.839352 q 0,-0.45861 0.45861,-0.45861 h 2.99861 q 0.45861,0 0.45861,0.45861 v 12.523583 h 4.79776 q 0.17639,0 0.3175,0.141111 0.17639,0.105833 0.17639,0.282221 z M 394.89888,46.637119 q 0,2.187217 -0.49389,4.515546 -0.49389,2.328328 -1.48166,4.621378 -0.9525,2.257773 -2.36361,4.409712 -1.41111,2.15194 -3.24555,3.98638 -0.24694,0.246944 -0.59972,0.3175 -0.35278,0.03528 -0.59972,-0.211667 l -1.55222,-1.37583 q -0.21166,-0.246944 -0.17639,-0.529165 0.0353,-0.3175 0.21167,-0.493888 1.44638,-1.37583 2.61055,-3.139715 1.19944,-1.799163 2.04611,-3.633603 0.84666,-1.869718 1.30527,-3.598325 0.49389,-1.763885 0.49389,-3.139716 0,-0.705554 -0.14111,-0.91722 -0.10584,-0.246944 -0.74083,-0.246944 h -4.16277 q -0.45861,0 -0.45861,-0.493887 v -2.187218 q 0,-0.423332 0.45861,-0.423332 h 6.38526 q 1.41111,0 1.94027,0.599721 0.56445,0.599721 0.56445,1.940273 z m 26.07022,19.720234 q -0.28222,0.176388 -0.59972,0.14111 -0.3175,-0.03528 -0.49389,-0.317499 l -1.37583,-1.83444 q -0.24694,-0.317499 -0.10583,-0.599721 0.17639,-0.282222 0.42333,-0.423332 2.2225,-1.375831 4.23333,-3.174993 2.01082,-1.799163 3.59832,-3.774714 1.62277,-1.975551 2.75166,-4.021658 1.12889,-2.081384 1.62277,-3.98638 0.14112,-0.599721 0.0353,-0.776109 -0.10583,-0.176388 -0.70555,-0.176388 h -9.10165 q -0.21166,0 -0.35277,-0.141111 -0.10584,-0.176389 -0.10584,-0.388055 v -2.363606 q 0,-0.493888 0.49389,-0.493888 h 11.50053 q 1.37583,0 2.15194,0.529166 0.77611,0.529165 0.77611,1.37583 0,0.45861 -0.0706,0.952498 -0.0705,0.45861 -0.17639,0.846665 -0.49388,1.869718 -1.34055,3.774714 -0.81138,1.869718 -2.01083,3.774713 0.67028,0.91722 1.55222,1.940274 0.88194,0.987775 1.83444,1.940273 0.9525,0.952498 1.86972,1.799163 0.91722,0.811387 1.65805,1.340552 0.24695,0.176389 0.3175,0.45861 0.10583,0.282222 -0.10583,0.564444 l -1.51694,1.728607 q -0.45861,0.493888 -1.16417,0.07055 -0.63499,-0.423332 -1.51694,-1.164164 -0.84666,-0.776109 -1.76388,-1.693329 -0.91722,-0.917221 -1.79916,-1.940274 -0.88195,-1.023053 -1.5875,-1.940273 -1.79916,2.222495 -4.02166,4.268601 -2.22249,2.010829 -4.9036,3.704159 z m 25.153,8.043315 q 0,0.45861 -0.49389,0.45861 h -3.10444 q -0.17638,0 -0.35277,-0.141111 -0.14111,-0.105833 -0.14111,-0.317499 V 41.839352 q 0,-0.176388 0.14111,-0.317499 0.17639,-0.141111 0.35277,-0.141111 h 3.10444 q 0.49389,0 0.49389,0.45861 z"
         id="path2" />
      <path
         d="m 54.292496,118.10973 q -0.246944,0 -0.317499,-0.0353 -0.03528,0 -0.176389,-0.17639 -3.21027,-4.02165 -4.762489,-8.14914 -1.552219,-4.12749 -1.552219,-8.53721 0,-4.374431 1.552219,-8.501922 1.552219,-4.127491 4.762489,-8.184426 0.141111,-0.176388 0.176389,-0.176388 0.07055,-0.03528 0.246944,-0.03528 h 0.987775 q 0.211666,0 0.211666,0.03528 0,0.03528 -0.105833,0.211666 -5.538598,8.678314 -5.538598,16.65107 0,4.05694 1.411108,8.18443 1.411108,4.12749 4.162768,8.46665 0.176388,0.24694 -0.176389,0.24694 z M 75.423868,98.213109 q 0,-1.658052 -0.952498,-2.681105 v 0.03528 q -0.881943,-0.705554 -2.081384,-0.705554 -2.010829,0 -3.84527,2.116662 -2.046106,2.434161 -2.010828,5.57388 0.03528,1.69333 0.740831,2.64582 0.740832,0.9525 1.975551,0.9525 1.23472,0 2.398884,-0.74083 1.164164,-0.74083 2.081384,-2.04611 0.811387,-1.23472 1.23472,-2.53999 0.45861,-1.340554 0.45861,-2.610551 z m 9.560256,-0.141111 q 0,4.409712 -3.104438,7.549432 -2.610549,2.75166 -5.397487,2.75166 -2.645828,0 -2.963327,-2.36361 -0.987776,1.12889 -2.187217,1.76389 -1.199442,0.59972 -2.575272,0.59972 -2.187218,0 -3.633603,-1.62278 -1.446386,-1.65805 -1.446386,-3.98638 0,-3.915822 2.434161,-6.879149 2.504717,-3.245548 6.279431,-3.245548 2.822215,0 4.162768,2.928049 0.176388,-0.529166 0.388055,-1.128887 0.246944,-0.634998 0.423332,-1.164164 h 2.398884 l -3.280826,10.159979 q -0.352777,1.05833 -0.352777,1.76388 0,0.9525 0.846664,0.9525 2.187218,0 3.774714,-2.39888 1.728607,-2.39889 1.728607,-5.679712 0,-4.092213 -3.280826,-6.667485 -3.174992,-2.363606 -7.584705,-2.363606 -4.762489,0 -8.008037,3.174993 -3.139716,3.210271 -3.139716,8.04332 0,4.97415 3.139716,8.18442 3.245548,3.17499 8.008037,3.17499 6.491097,0 9.948311,-4.16276 h 2.293051 q -1.834441,3.03388 -5.044711,4.72721 -3.174993,1.65805 -7.196651,1.65805 -3.104437,0 -5.679709,-1.09361 -2.575272,-1.12889 -4.480268,-3.17499 -1.693329,-1.905 -2.575272,-4.2686 -0.881942,-2.36361 -0.881942,-4.97416 0,-5.432765 3.457214,-9.313311 3.774714,-4.198047 10.159977,-4.198047 2.645828,0 4.938878,0.740832 2.328328,0.705554 4.198046,2.15194 2.010829,1.552218 3.104438,3.704158 1.128886,2.116662 1.128886,4.656656 z m 2.75165,22.224952 q -0.493887,-0.0353 -0.493887,-0.67028 v -0.98777 q 0,-0.42334 0.493887,-0.3175 0.141111,0.0353 0.388055,0.0353 0.282222,0.0353 0.493888,0.0353 0.846665,0 1.411108,-0.3175 0.564443,-0.28222 0.881942,-0.77611 0.388055,-0.77611 0.388055,-2.53999 V 96.343391 q 0,-0.493888 0.493888,-0.493888 h 1.411108 q 0.493888,0 0.493888,0.493888 v 18.661899 q 0,5.39749 -4.409713,5.39749 -0.493888,0 -0.846665,-0.0353 -0.317499,0 -0.705554,-0.0706 z m 3.033883,-31.114932 q 0,-0.705554 0.493887,-1.199442 0.493888,-0.529165 1.199442,-0.529165 0.705554,0 1.199442,0.529165 0.529165,0.493888 0.529165,1.199442 0,0.705554 -0.529165,1.199442 -0.493888,0.493888 -1.199442,0.493888 -0.705554,0 -1.199442,-0.493888 -0.493887,-0.493888 -0.493887,-1.199442 z m 19.790753,14.252192 h -0.67027 q -1.97555,-0.0706 -3.52777,0.17639 -1.51694,0.21166 -2.54,0.59972 -1.48166,0.52916 -2.22249,1.58749 -0.74083,1.02306 -0.74083,2.46944 0,0.88195 0.28222,1.65805 0.28222,0.74084 0.88194,1.16417 1.05833,0.84666 2.82222,0.84666 1.23472,0 2.25777,-0.49388 1.05833,-0.49389 1.83444,-1.41111 0.77611,-0.91722 1.19944,-2.25777 0.42333,-1.37583 0.42333,-3.13972 z m -10.05414,-6.173599 q -0.17639,0.105833 -0.35278,0.07056 -0.14111,-0.07056 -0.14111,-0.246944 V 95.74367 q 0,-0.493888 0.49389,-0.740832 1.23472,-0.670276 2.61055,-0.91722 1.41111,-0.282221 3.06916,-0.282221 3.52777,0 5.15054,1.693329 1.62278,1.658052 1.62278,5.044714 v 8.8547 q 0,1.05833 0.0353,1.905 0.0353,0.81138 0.10583,1.58749 0,0.49389 -0.49389,0.49389 h -1.27 q -0.49388,0 -0.49388,-0.49389 v -2.71638 q -0.74084,1.79916 -2.50472,2.78694 -1.72861,0.98777 -3.77471,0.98777 -3.56305,0 -5.221104,-2.08138 -0.564443,-0.70556 -0.846665,-1.62278 -0.282221,-0.95249 -0.282221,-1.86971 0,-2.15194 0.987775,-3.70416 1.023055,-1.55222 3.104435,-2.32833 2.54,-0.91722 7.79637,-0.91722 h 0.45861 v -1.05833 q 0,-2.222496 -1.02305,-3.38666 -0.98777,-1.164164 -3.35138,-1.164164 -1.5875,0 -2.9986,0.352777 -1.41111,0.317499 -2.68111,1.093608 z m 24.69439,5.538599 7.61999,10.08942 q 0.10583,0.17639 0.0705,0.35278 -0.0353,0.14111 -0.24694,0.14111 h -1.51694 q -0.35278,0 -0.635,-0.10583 -0.28222,-0.10584 -0.45861,-0.38806 l -6.34999,-8.39609 -2.3636,2.64583 v 5.75026 q 0,0.49389 -0.49389,0.49389 h -1.41111 q -0.49389,0 -0.49389,-0.49389 V 85.795359 q 0,-0.493888 0.49389,-0.493888 h 1.41111 q 0.49389,0 0.49389,0.493888 v 18.379681 l 8.04331,-9.383868 q 0.49389,-0.493888 1.16416,-0.493888 h 1.65806 q 0.21166,0 0.28222,0.176389 0.0705,0.141111 -0.10583,0.317499 z m 23.84774,-0.28222 q 0,-1.44639 -0.28222,-2.575274 -0.28222,-1.128886 -0.88194,-2.046106 -1.30527,-2.081384 -3.77471,-2.081384 -2.54,0 -4.12749,2.116661 -0.635,0.952498 -1.05833,2.187213 -0.42334,1.23472 -0.45861,2.39889 z m -10.5833,2.01083 q -0.0353,1.76388 0.38805,3.13971 0.45861,1.34055 1.30527,2.25777 0.84667,0.91723 2.01083,1.41111 1.19945,0.49389 2.64583,0.49389 1.41111,0 2.64583,-0.24694 1.23472,-0.28222 2.29305,-0.88195 0.45861,-0.21166 0.45861,0.24695 v 1.58749 q 0,0.3175 -0.38806,0.49389 -1.16416,0.45861 -2.43416,0.67028 -1.26999,0.24694 -2.75166,0.24694 -4.33915,0 -6.56165,-2.50471 -2.22249,-2.54 -2.22249,-7.61999 0,-4.480265 2.22249,-7.231925 2.32833,-2.786938 5.89138,-2.786938 1.97555,0 3.42193,0.705554 1.44639,0.705554 2.46944,2.116662 1.79916,2.504716 1.79916,6.702767 0,0.45861 -0.0353,0.70555 0,0.24694 -0.10584,0.35278 -0.10583,0.10583 -0.38805,0.14111 -0.24694,0 -0.74083,0 z m 17.0744,6.52637 q 2.15194,0.88194 4.44499,0.88194 1.905,0 3.13972,-0.91722 1.23472,-0.95249 1.23472,-2.53999 0,-0.91722 -0.70555,-1.76389 -0.67028,-0.88194 -1.65806,-1.44638 -1.09361,-0.59972 -2.25777,-1.12889 -1.12889,-0.56444 -2.18722,-1.16416 -1.26999,-0.70556 -1.86971,-1.72861 -0.59973,-1.05833 -0.59973,-2.187216 0,-1.305275 0.49389,-2.293051 0.49389,-0.987775 1.34055,-1.658051 0.84667,-0.670277 1.97556,-0.987776 1.12888,-0.317499 2.39888,-0.317499 1.34055,0 2.32833,0.141111 0.98777,0.14111 1.97555,0.423332 0.21166,0.07055 0.35278,0.211666 0.17638,0.141111 0.14111,0.388055 l -0.10584,1.058331 q -0.0353,0.282221 -0.21166,0.352777 -0.17639,0.07055 -0.35278,0 -0.88194,-0.3175 -1.76388,-0.423333 -0.88195,-0.14111 -2.11667,-0.14111 -4.09221,0 -4.09221,3.245548 0,0.705554 0.52917,1.340556 0.56444,0.63499 1.86971,1.26999 1.12889,0.56445 2.2225,1.09361 1.09361,0.49389 2.3636,1.19944 1.09361,0.59972 1.79917,1.83444 0.74083,1.23472 0.74083,2.68111 0,1.41111 -0.56444,2.43416 -0.56445,1.02305 -1.51695,1.69333 -0.95249,0.67028 -2.18721,0.98778 -1.23472,0.35277 -2.54,0.35277 -0.77611,0 -1.4111,-0.0353 -0.59973,-0.0353 -1.16417,-0.10583 -0.52916,-0.0706 -1.09361,-0.17639 -0.56444,-0.10583 -1.19944,-0.28222 -0.49389,-0.17639 -0.45861,-0.635 l 0.14111,-1.30527 q 0.0706,-0.56444 0.56444,-0.35278 z m 27.69299,-8.5372 q 0,-1.44639 -0.28222,-2.575274 -0.28223,-1.128886 -0.88195,-2.046106 -1.30527,-2.081384 -3.77471,-2.081384 -2.54,0 -4.12749,2.116661 -0.635,0.952498 -1.05833,2.187213 -0.42334,1.23472 -0.45861,2.39889 z m -10.58331,2.01083 q -0.0353,1.76388 0.38805,3.13971 0.45861,1.34055 1.30528,2.25777 0.84666,0.91723 2.01083,1.41111 1.19944,0.49389 2.64582,0.49389 1.41111,0 2.64583,-0.24694 1.23472,-0.28222 2.29305,-0.88195 0.45861,-0.21166 0.45861,0.24695 v 1.58749 q 0,0.3175 -0.38805,0.49389 -1.16417,0.45861 -2.43417,0.67028 -1.26999,0.24694 -2.75166,0.24694 -4.33915,0 -6.56165,-2.50471 -2.22249,-2.54 -2.22249,-7.61999 0,-4.480265 2.22249,-7.231925 2.32833,-2.786938 5.89138,-2.786938 1.97555,0 3.42193,0.705554 1.44639,0.705554 2.46944,2.116662 1.79917,2.504716 1.79917,6.702767 0,0.45861 -0.0353,0.70555 0,0.24694 -0.10583,0.35278 -0.10584,0.10583 -0.38806,0.14111 -0.24694,0 -0.74083,0 z m 31.99687,-0.67028 q 0,-1.65805 -0.45861,-3.10444 -0.42333,-1.446382 -1.19944,-2.575269 -1.83444,-2.257772 -4.76249,-2.257772 -1.48166,0 -2.6811,0.59972 -1.16417,0.564444 -2.08139,1.658052 -0.81138,1.128887 -1.26999,2.575269 -0.42334,1.44639 -0.42334,3.10444 0,1.69333 0.42334,3.13972 0.45861,1.44638 1.26999,2.53999 1.86972,2.29305 4.76249,2.29305 1.48167,0 2.64583,-0.59972 1.19944,-0.59972 2.11666,-1.69333 0.77611,-1.09361 1.19944,-2.53999 0.45861,-1.44639 0.45861,-3.13972 z m 2.61055,0 q 0,2.08139 -0.59972,3.88055 -0.59972,1.76388 -1.58749,3.10444 -1.23472,1.48166 -2.96333,2.29305 -1.69333,0.81138 -3.88055,0.81138 -2.18722,0 -3.91582,-0.81138 -1.72861,-0.81139 -2.96333,-2.29305 -0.98777,-1.34056 -1.5875,-3.10444 -0.56444,-1.79916 -0.56444,-3.88055 0,-4.268601 2.15194,-6.984984 2.46944,-3.069159 6.87915,-3.069159 2.2225,0 3.91583,0.776109 1.69333,0.740832 2.92805,2.29305 2.18721,2.786939 2.18721,6.984984 z m 20.77861,-5.644431 q 0,-1.658052 -0.9525,-2.681105 v 0.03528 q -0.88194,-0.705554 -2.08138,-0.705554 -2.01083,0 -3.84527,2.116662 -2.04611,2.434161 -2.01083,5.57388 0.0353,1.69333 0.74083,2.64582 0.74083,0.9525 1.97555,0.9525 1.23472,0 2.39888,-0.74083 1.16417,-0.74083 2.08139,-2.04611 0.81139,-1.23472 1.23472,-2.53999 0.45861,-1.340554 0.45861,-2.610551 z m 9.56025,-0.141111 q 0,4.409712 -3.10443,7.549432 -2.61055,2.75166 -5.39749,2.75166 -2.64583,0 -2.96333,-2.36361 -0.98777,1.12889 -2.18721,1.76389 -1.19945,0.59972 -2.57528,0.59972 -2.18721,0 -3.6336,-1.62278 -1.44639,-1.65805 -1.44639,-3.98638 0,-3.915822 2.43417,-6.879149 2.50471,-3.245548 6.27943,-3.245548 2.82221,0 4.16276,2.928049 0.17639,-0.529166 0.38806,-1.128887 0.24694,-0.634998 0.42333,-1.164164 h 2.39889 l -3.28083,10.159979 q -0.35278,1.05833 -0.35278,1.76388 0,0.9525 0.84667,0.9525 2.18721,0 3.77471,-2.39888 1.72861,-2.39889 1.72861,-5.679712 0,-4.092213 -3.28083,-6.667485 -3.17499,-2.363606 -7.5847,-2.363606 -4.76249,0 -8.00804,3.174993 -3.13972,3.210271 -3.13972,8.04332 0,4.97415 3.13972,8.18442 3.24555,3.17499 8.00804,3.17499 6.49109,0 9.94831,-4.16276 h 2.29305 q -1.83444,3.03388 -5.04471,4.72721 -3.175,1.65805 -7.19665,1.65805 -3.10444,0 -5.67971,-1.09361 -2.57527,-1.12889 -4.48027,-3.17499 -1.69333,-1.905 -2.57527,-4.2686 -0.88194,-2.36361 -0.88194,-4.97416 0,-5.432765 3.45721,-9.313311 3.77471,-4.198047 10.15998,-4.198047 2.64582,0 4.93887,0.740832 2.32833,0.705554 4.19805,2.15194 2.01083,1.552218 3.10444,3.704158 1.12888,2.116662 1.12888,4.656656 z m 20.31994,14.816632 q 0,0.49389 -0.49389,0.49389 h -1.41111 q -0.49389,0 -0.49389,-0.49389 V 102.0231 q 0,-1.69333 -0.3175,-2.857493 -0.28222,-1.199442 -0.84666,-1.904996 -0.56444,-0.740832 -1.37583,-1.058331 -0.81139,-0.317499 -1.79916,-0.317499 -2.89278,0 -4.44499,1.37583 -1.51695,1.37583 -1.51695,3.809989 v 11.81803 q 0,0.49389 -0.49388,0.49389 h -1.41111 q -0.49389,0 -0.49389,-0.49389 V 85.795359 q 0,-0.493888 0.49389,-0.493888 h 1.41111 q 0.49388,0 0.49388,0.493888 v 10.230533 q 0.98778,-1.128887 2.43417,-1.622774 1.48166,-0.529166 3.66888,-0.529166 3.42193,0 5.00943,2.010829 1.5875,2.010829 1.5875,6.103039 z m 17.145,-9.45442 h -0.67028 q -1.97555,-0.0706 -3.52777,0.17639 -1.51694,0.21166 -2.53999,0.59972 -1.48166,0.52916 -2.2225,1.58749 -0.74083,1.02306 -0.74083,2.46944 0,0.88195 0.28222,1.65805 0.28223,0.74084 0.88195,1.16417 1.05833,0.84666 2.82221,0.84666 1.23472,0 2.25777,-0.49388 1.05834,-0.49389 1.83444,-1.41111 0.77611,-0.91722 1.19945,-2.25777 0.42333,-1.37583 0.42333,-3.13972 z m -10.05415,-6.173599 q -0.17638,0.105833 -0.35277,0.07056 -0.14111,-0.07056 -0.14111,-0.246944 V 95.74367 q 0,-0.493888 0.49388,-0.740832 1.23472,-0.670276 2.61055,-0.91722 1.41111,-0.282221 3.06916,-0.282221 3.52777,0 5.15055,1.693329 1.62277,1.658052 1.62277,5.044714 v 8.8547 q 0,1.05833 0.0353,1.905 0.0353,0.81138 0.10583,1.58749 0,0.49389 -0.49388,0.49389 h -1.27 q -0.49389,0 -0.49389,-0.49389 v -2.71638 q -0.74083,1.79916 -2.50472,2.78694 -1.7286,0.98777 -3.77471,0.98777 -3.56305,0 -5.2211,-2.08138 -0.56444,-0.70556 -0.84666,-1.62278 -0.28223,-0.95249 -0.28223,-1.86971 0,-2.15194 0.98778,-3.70416 1.02305,-1.55222 3.10444,-2.32833 2.53999,-0.91722 7.79637,-0.91722 h 0.45861 v -1.05833 q 0,-2.222496 -1.02305,-3.38666 -0.98778,-1.164164 -3.35139,-1.164164 -1.58749,0 -2.9986,0.352777 -1.41111,0.317499 -2.68111,1.093608 z m 30.65633,16.263019 q -1.05833,0.17639 -2.04611,0.24694 -0.98777,0.0706 -2.3636,0.0706 -2.18722,0 -3.91583,-0.77611 -1.69333,-0.77611 -2.89277,-2.11666 -1.16416,-1.34055 -1.79916,-3.17499 -0.635,-1.83444 -0.635,-3.95111 0,-2.15194 0.67028,-3.951099 0.67027,-1.83444 1.90499,-3.139715 1.27,-1.340553 2.99861,-2.081385 1.76388,-0.776109 3.9511,-0.776109 1.16416,0 2.11666,0.105833 0.9525,0.07056 2.04611,0.317499 0.49388,0.141111 0.45861,0.670277 l -0.10584,1.128886 q -0.0706,0.423332 -0.52916,0.317499 -0.91722,-0.282221 -1.76389,-0.388054 -0.84666,-0.141111 -1.86972,-0.141111 -1.79916,0 -3.17499,0.599721 -1.34055,0.564443 -2.25777,1.622774 -0.91722,1.058331 -1.37583,2.539994 -0.45861,1.44639 -0.45861,3.17499 0,1.5875 0.45861,3.03389 0.49389,1.44638 1.37583,2.57527 0.91722,1.09361 2.18722,1.76388 1.30527,0.635 2.96332,0.635 1.23472,0 2.04611,-0.10583 0.81139,-0.10584 1.83444,-0.38806 0.52917,-0.14111 0.56444,0.24695 l 0.10584,1.30527 q 0.0353,0.52917 -0.49389,0.635 z m 11.11244,-10.72442 7.61998,10.08942 q 0.10583,0.17639 0.0706,0.35278 -0.0353,0.14111 -0.24695,0.14111 h -1.51694 q -0.35278,0 -0.635,-0.10583 -0.28222,-0.10584 -0.45861,-0.38806 l -6.34998,-8.39609 -2.36361,2.64583 v 5.75026 q 0,0.49389 -0.49389,0.49389 h -1.4111 q -0.49389,0 -0.49389,-0.49389 V 85.795359 q 0,-0.493888 0.49389,-0.493888 h 1.4111 q 0.49389,0 0.49389,0.493888 v 18.379681 l 8.04332,-9.383868 q 0.49388,-0.493888 1.16416,-0.493888 H 313.76 q 0.21167,0 0.28222,0.176389 0.0706,0.141111 -0.10583,0.317499 z m 23.84776,-0.28222 q 0,-1.44639 -0.28223,-2.575274 -0.28222,-1.128886 -0.88194,-2.046106 -1.30527,-2.081384 -3.77471,-2.081384 -2.54,0 -4.12749,2.116661 -0.635,0.952498 -1.05833,2.187213 -0.42334,1.23472 -0.45861,2.39889 z m -10.58331,2.01083 q -0.0353,1.76388 0.38805,3.13971 0.45861,1.34055 1.30528,2.25777 0.84666,0.91723 2.01082,1.41111 1.19945,0.49389 2.64583,0.49389 1.41111,0 2.64583,-0.24694 1.23472,-0.28222 2.29305,-0.88195 0.45861,-0.21166 0.45861,0.24695 v 1.58749 q 0,0.3175 -0.38805,0.49389 -1.16417,0.45861 -2.43417,0.67028 -1.26999,0.24694 -2.75166,0.24694 -4.33915,0 -6.56165,-2.50471 -2.22249,-2.54 -2.22249,-7.61999 0,-4.480265 2.22249,-7.231925 2.32833,-2.786938 5.89138,-2.786938 1.97555,0 3.42193,0.705554 1.44639,0.705554 2.46944,2.116662 1.79917,2.504716 1.79917,6.702767 0,0.45861 -0.0353,0.70555 0,0.24694 -0.10584,0.35278 -0.10583,0.10583 -0.38805,0.14111 -0.24694,0 -0.74083,0 z m 26.98744,-8.078596 q -0.635,-0.211666 -1.69333,-0.211666 -2.61055,0 -3.88055,2.575272 -0.98777,2.01083 -0.98777,5.15054 v 8.92526 q 0,0.49389 -0.49389,0.49389 h -1.37583 q -0.49389,0 -0.49389,-0.49389 V 98.565886 q 0,-1.269997 -0.0353,-2.046107 0,-0.811387 -0.0353,-1.728607 0,-0.493888 0.49388,-0.493888 h 1.30528 q 0.49389,0 0.49389,0.493888 v 3.457215 q 1.7286,-4.44499 5.07998,-4.44499 0.81139,0 1.62278,0.211666 0.21167,0.07055 0.35278,0.246944 0.17638,0.141111 0.17638,0.423332 v 1.481664 q 0,0.211666 -0.17638,0.282221 -0.17639,0.07055 -0.35278,0 z m 2.89278,14.604966 q 2.15194,0.88194 4.44499,0.88194 1.905,0 3.13972,-0.91722 1.23472,-0.95249 1.23472,-2.53999 0,-0.91722 -0.70556,-1.76389 -0.67027,-0.88194 -1.65805,-1.44638 -1.09361,-0.59972 -2.25777,-1.12889 -1.12889,-0.56444 -2.18722,-1.16416 -1.27,-0.70556 -1.86972,-1.72861 -0.59972,-1.05833 -0.59972,-2.187216 0,-1.305275 0.49389,-2.293051 0.49389,-0.987775 1.34055,-1.658051 0.84667,-0.670277 1.97555,-0.987776 1.12889,-0.317499 2.39889,-0.317499 1.34055,0 2.32833,0.141111 0.98777,0.14111 1.97555,0.423332 0.21166,0.07055 0.35277,0.211666 0.17639,0.141111 0.14111,0.388055 l -0.10583,1.058331 q -0.0353,0.282221 -0.21167,0.352777 -0.17638,0.07055 -0.35277,0 -0.88194,-0.3175 -1.76389,-0.423333 -0.88194,-0.14111 -2.11666,-0.14111 -4.09221,0 -4.09221,3.245548 0,0.705554 0.52916,1.340556 0.56445,0.63499 1.86972,1.26999 1.12889,0.56445 2.2225,1.09361 1.09361,0.49389 2.3636,1.19944 1.09361,0.59972 1.79917,1.83444 0.74083,1.23472 0.74083,2.68111 0,1.41111 -0.56445,2.43416 -0.56444,1.02305 -1.51694,1.69333 -0.9525,0.67028 -2.18721,0.98778 -1.23472,0.35277 -2.54,0.35277 -0.77611,0 -1.41111,-0.0353 -0.59972,-0.0353 -1.16416,-0.10583 -0.52917,-0.0706 -1.09361,-0.17639 -0.56444,-0.10583 -1.19944,-0.28222 -0.49389,-0.17639 -0.45861,-0.635 l 0.14111,-1.30527 q 0.0705,-0.56444 0.56444,-0.35278 z m 16.4394,2.2225 q 0,-0.74084 0.49389,-1.23472 0.52916,-0.52917 1.26999,-0.52917 0.74084,0 1.23472,0.52917 0.52917,0.49388 0.52917,1.23472 0,0.74083 -0.52917,1.23472 -0.49388,0.52916 -1.23472,0.52916 -0.74083,0 -1.26999,-0.52916 -0.49389,-0.49389 -0.49389,-1.23472 z m 23.35384,-9.70137 q 0,-1.44639 -0.28222,-2.78694 -0.28222,-1.375829 -0.9525,-2.43416 -0.67028,-1.058331 -1.72861,-1.69333 -1.05833,-0.670276 -2.64582,-0.670276 -1.44639,0 -2.50472,0.599721 -1.05833,0.599721 -1.76388,1.658052 -0.67028,1.023053 -1.02306,2.398883 -0.35278,1.37583 -0.35278,2.92805 0,4.09221 1.51695,6.20887 1.55221,2.08139 4.12749,2.08139 1.34055,0 2.3636,-0.56444 1.05833,-0.59973 1.76389,-1.69333 0.74083,-1.09361 1.09361,-2.61055 0.38805,-1.51695 0.38805,-3.42194 z m -13.61719,-8.784148 q 0,-0.493888 0.49389,-0.493888 h 1.34055 q 0.49389,0 0.49389,0.493888 L 378.24768,97.437 q 0.70555,-1.552219 2.3636,-2.504717 1.69333,-0.952498 3.91583,-0.952498 2.08138,0 3.52777,0.740832 1.48166,0.740832 2.39888,2.046106 0.9525,1.269998 1.37583,3.033882 0.45861,1.763885 0.45861,3.774715 0,2.18722 -0.52916,4.05693 -0.49389,1.86972 -1.48167,3.24555 -0.95249,1.37583 -2.39888,2.18722 -1.44639,0.77611 -3.35138,0.77611 -2.15194,0 -3.70416,-0.81139 -1.55222,-0.84666 -2.36361,-2.32833 v 7.58471 q 0,0.49389 -0.49388,0.49389 h -1.34056 q -0.21166,0 -0.38805,-0.14111 -0.14111,-0.14111 -0.14111,-0.35278 z m 36.97104,18.097458 q 0,0.49389 -0.49389,0.49389 h -1.27 q -0.49389,0 -0.49389,-0.49389 v -2.92805 q -0.91722,2.11666 -2.46943,3.06916 -1.51694,0.91722 -3.84527,0.91722 -6.59693,0 -6.59693,-7.37304 V 94.791172 q 0,-0.493888 0.49389,-0.493888 h 1.4111 q 0.49389,0 0.49389,0.493888 v 11.147758 q 0,5.9972 4.5861,5.9972 1.34055,0 2.39889,-0.56444 1.0936,-0.59972 1.83444,-1.5875 0.74083,-1.02305 1.12888,-2.3636 0.38806,-1.34055 0.35278,-2.82222 v -9.807198 q 0,-0.493888 0.49389,-0.493888 h 1.4111 q 0.49389,0 0.49389,0.493888 v 14.181638 q 0,1.16416 0,2.08138 0.0353,0.91722 0.0706,1.83444 z m 19.82611,-9.1722 q 0.0353,-1.48166 -0.28223,-2.89277 -0.28222,-1.411109 -0.95249,-2.539996 -0.67028,-1.128886 -1.79917,-1.799162 -1.09361,-0.705554 -2.71638,-0.705554 -1.44639,0 -2.53999,0.634998 -1.05833,0.599721 -1.76389,1.69333 -0.70555,1.093609 -1.05833,2.539994 -0.35278,1.44639 -0.35278,3.06916 0,1.5875 0.42334,3.06916 0.45861,1.44639 1.19944,2.53999 0.77611,1.09361 1.79916,1.76389 1.05833,0.635 2.29305,0.635 1.62277,0 2.71638,-0.67028 1.12889,-0.70555 1.79917,-1.83444 0.67027,-1.12889 0.95249,-2.57527 0.3175,-1.44639 0.28223,-2.92805 z M 419.06403,85.689526 q 0,-0.493888 0.49389,-0.493888 h 1.37583 q 0.49388,0 0.49388,0.493888 v 11.253586 q 0.88195,-1.446386 2.50472,-2.293051 1.62277,-0.881942 3.6336,-0.881942 7.86693,0 7.86693,9.948311 0.0353,1.97555 -0.42333,3.80999 -0.42334,1.79916 -1.41111,3.17499 -0.98778,1.37583 -2.50472,2.2225 -1.48166,0.81139 -3.52777,0.81139 -4.23332,0 -6.13832,-3.59833 v 2.75166 q 0,0.49389 -0.49388,0.49389 h -1.37583 q -0.49389,0 -0.49389,-0.49389 z m 19.96722,32.420204 q -0.3175,0 -0.14111,-0.24694 2.75166,-4.33916 4.12749,-8.46665 1.4111,-4.12749 1.4111,-8.18443 0,-4.021654 -1.37583,-8.149145 -1.37583,-4.162768 -4.12749,-8.501925 -0.10583,-0.176389 -0.10583,-0.211666 0,-0.03528 0.17639,-0.03528 h 0.98777 q 0.17639,0 0.21167,0.03528 0.0706,0 0.24694,0.176388 3.21027,4.056935 4.72722,8.184426 1.55221,4.127491 1.55221,8.501922 0,4.40972 -1.55221,8.53721 -1.51695,4.12749 -4.72722,8.14914 -0.17638,0.17639 -0.24694,0.17639 -0.0353,0.0353 -0.28222,0.0353 z"
         id="path3" />
    </g>
  </g>
</svg>
