<?xml version="1.0" encoding="UTF-8" standalone="no"?>
<!-- Created with Inkscape (http://www.inkscape.org/) -->

<svg
   width="588.36176mm"
   height="119.83834mm"
   viewBox="0 0 588.36176 119.83834"
   version="1.1"
   id="svg1"
   sodipodi:docname="1st-meetup-session2-3lines.svg"
   inkscape:version="1.4 (e7c3feb1, 2024-10-09)"
   xmlns:inkscape="http://www.inkscape.org/namespaces/inkscape"
   xmlns:sodipodi="http://sodipodi.sourceforge.net/DTD/sodipodi-0.dtd"
   xmlns="http://www.w3.org/2000/svg"
   xmlns:svg="http://www.w3.org/2000/svg">
  <sodipodi:namedview
     id="namedview1"
     pagecolor="#ffffff"
     bordercolor="#000000"
     borderopacity="0.25"
     inkscape:showpageshadow="2"
     inkscape:pageopacity="0.0"
     inkscape:pagecheckerboard="0"
     inkscape:deskcolor="#d1d1d1"
     inkscape:document-units="mm"
     inkscape:zoom="0.057403721"
     inkscape:cx="1114.9103"
     inkscape:cy="217.75592"
     inkscape:window-width="1104"
     inkscape:window-height="250"
     inkscape:window-x="226"
     inkscape:window-y="326"
     inkscape:window-maximized="0"
     inkscape:current-layer="svg1" />
  <defs
     id="defs1" />
  <g
     id="layer1"
     transform="translate(2.8723074e-5)">
    <g
       id="text4"
       style="font-size:35.2777px;line-height:1.2;font-family:NanumGothic;-inkscape-font-specification:NanumGothic;text-align:end;text-anchor:end;fill:#ffffff;fill-rule:evenodd;stroke:#ffffff;stroke-width:0;stroke-linecap:round;stroke-linejoin:round"
       aria-label="폰트는 어떻게 만들어지는가 -NeoDGM 사례로 살펴보는 개발 후일담(@dalgona@hackers.pub)">
      <path
         style="font-weight:bold"
         d="m 176.45902,12.946915 q 0,0.211666 -0.17639,0.388055 -0.14111,0.14111 -0.35277,0.14111 h -9.10165 v 3.739437 h 13.29969 q 0.17639,0 0.35278,0.176388 0.17639,0.141111 0.17639,0.317499 v 2.363606 q 0,0.176389 -0.17639,0.352777 -0.17639,0.176389 -0.35278,0.176389 h -30.69159 q -0.21167,0 -0.35278,-0.141111 -0.14111,-0.176389 -0.14111,-0.388055 v -2.363606 q 0,-0.493887 0.49389,-0.493887 h 13.33497 V 13.47608 h -9.10165 q -0.17639,0 -0.38805,-0.176388 -0.21167,-0.176388 -0.21167,-0.388055 v -2.046106 q 0,-0.176389 0.21167,-0.352777 0.21166,-0.211666 0.38805,-0.211666 h 3.9511 V 4.2686012 h -3.3161 q -0.17639,0 -0.38806,-0.1763885 -0.17638,-0.1763885 -0.17638,-0.3880547 V 1.6580515 q 0,-0.2116662 0.17638,-0.3880547 0.21167,-0.1763885 0.38806,-0.1763885 h 20.99023 q 0.21167,0 0.35278,0.1763885 0.17638,0.1411108 0.17638,0.3880547 v 2.0813842 q 0,0.2116662 -0.17638,0.3880547 -0.14111,0.1411108 -0.35278,0.1411108 h -3.3161 v 6.0324868 h 3.9511 q 0.21166,0 0.35277,0.176388 0.17639,0.141111 0.17639,0.388055 z m 0.21167,19.332179 q 0,0.211666 -0.17639,0.317499 -0.17639,0.105833 -0.35278,0.105833 h -19.40273 q -1.62277,0 -2.18722,-0.599721 -0.52916,-0.564443 -0.52916,-1.940273 v -6.738041 q 0,-0.176388 0.14111,-0.352777 0.17639,-0.176388 0.35277,-0.176388 h 3.03389 q 0.21166,0 0.35277,0.176388 0.17639,0.141111 0.17639,0.352777 v 5.326933 q 0,0.352777 0.14111,0.45861 0.14111,0.105833 0.52917,0.105833 h 17.3919 q 0.17639,0 0.35278,0.141111 0.17639,0.105833 0.17639,0.282222 z M 161.53656,4.2686012 v 6.0324868 h 6.52637 V 4.2686012 Z m 47.83658,14.2169128 q 0,0.282221 -0.14112,0.423332 -0.10583,0.105833 -0.28222,0.105833 h -19.68495 q -1.41111,0 -1.97555,-0.634998 -0.56445,-0.634999 -0.56445,-1.869718 V 4.3038789 q 0,-1.3405526 0.59972,-1.7991627 0.59972,-0.4938877 1.94028,-0.4938877 h 19.36745 q 0.49389,0 0.49389,0.45861 v 2.3636058 q 0,0.4938878 -0.49389,0.4938878 h -17.21551 q -0.635,0 -0.635,0.5997209 v 2.928049 h 17.3919 q 0.17639,0 0.3175,0.1411108 0.17639,0.1411108 0.17639,0.3174993 v 2.2930499 q 0,0.211667 -0.17639,0.352777 -0.14111,0.141111 -0.3175,0.141111 h -17.3919 v 2.998605 q 0,0.388054 0.10583,0.529165 0.14111,0.105833 0.52917,0.105833 h 17.3919 q 0.28222,0 0.42333,0.07056 0.14112,0.07056 0.14112,0.352777 z m 3.9511,5.750265 q 0.17639,0 0.35277,0.176388 0.17639,0.176389 0.17639,0.388055 v 2.222495 q 0,0.176388 -0.17639,0.352777 -0.17638,0.176388 -0.35277,0.176388 h -30.72688 q -0.21166,0 -0.35277,-0.176388 -0.14112,-0.176389 -0.14112,-0.352777 v -2.222495 q 0,-0.564443 0.49389,-0.564443 z m 29.70384,8.043315 q 0,0.211666 -0.17639,0.317499 -0.17639,0.105833 -0.35278,0.105833 h -19.40273 q -1.62277,0 -2.18722,-0.564443 -0.52916,-0.564443 -0.52916,-1.940273 v -7.655261 q 0,-0.176388 0.14111,-0.317499 0.17639,-0.176389 0.35278,-0.176389 h 3.03388 q 0.21166,0 0.35277,0.176389 0.17639,0.141111 0.17639,0.317499 v 6.208875 q 0,0.352777 0.14111,0.45861 0.14111,0.105833 0.52917,0.105833 h 17.3919 q 0.17639,0 0.35278,0.141111 0.17639,0.105833 0.17639,0.282222 z M 242.60475,12.10025 q 0,0.246944 -0.17639,0.352777 -0.14111,0.105833 -0.3175,0.105833 h -18.90885 q -1.62277,0 -2.18721,-0.564443 -0.52917,-0.599721 -0.52917,-1.975551 V 1.1641637 q 0,-0.17638849 0.14111,-0.31749928 0.17639,-0.1763885 0.35278,-0.1763885 h 3.06916 q 0.21166,0 0.35278,0.1763885 0.17638,0.14111079 0.17638,0.31749928 v 7.4435944 q 0,0.352777 0.14111,0.4586101 0.14112,0.1058331 0.52917,0.1058331 h 16.86274 q 0.17639,0 0.3175,0.1411108 0.17639,0.1058331 0.17639,0.2822215 z m 4.37443,6.914429 q 0,0.176389 -0.17639,0.388055 -0.17638,0.176388 -0.35277,0.176388 h -30.6916 q -0.21167,0 -0.35278,-0.176388 -0.14111,-0.176389 -0.14111,-0.388055 v -2.328328 q 0,-0.493888 0.49389,-0.493888 h 30.6916 q 0.17639,0 0.35277,0.176389 0.17639,0.141111 0.17639,0.317499 z m 22.01333,6.420541 q -2.01083,0 -3.63361,-0.846664 -1.58749,-0.881943 -2.71638,-2.398884 -1.09361,-1.552219 -1.69333,-3.704158 -0.59972,-2.15194 -0.59972,-4.727212 0,-2.645827 0.59972,-4.7977669 0.59972,-2.1519396 1.69333,-3.6688807 1.12889,-1.516941 2.71638,-2.3283281 1.62278,-0.8466647 3.63361,-0.8466647 1.86972,0 3.38666,0.7055539 1.51694,0.705554 2.61055,2.0108288 1.12888,1.2699972 1.79916,3.1044375 0.67028,1.8344403 0.84666,4.0922132 h 5.25638 V 0.49388743 q 0,-0.45861008 0.45861,-0.45861008 h 3.13972 q 0.45861,0 0.45861,0.45861008 V 33.055203 q 0,0.45861 -0.45861,0.45861 h -3.13972 q -0.45861,0 -0.45861,-0.45861 V 15.416354 h -5.25638 q -0.17638,2.29305 -0.84666,4.162768 -0.67028,1.834441 -1.79916,3.139715 -1.09361,1.305275 -2.61055,2.010829 -1.51694,0.705554 -3.38666,0.705554 z m 4.72721,-11.676918 q 0,-1.622774 -0.3175,-3.06916 -0.3175,-1.481663 -0.91722,-2.5752717 -0.59972,-1.0936086 -1.48166,-1.7286072 -0.88195,-0.6702763 -2.01083,-0.6702763 -1.09361,0 -1.97555,0.6702763 -0.84667,0.6349986 -1.44639,1.7286072 -0.59972,1.0936087 -0.91722,2.5752717 -0.3175,1.446386 -0.3175,3.06916 0,1.587497 0.3175,3.06916 0.3175,1.446385 0.91722,2.575272 0.59972,1.093608 1.44639,1.763885 0.88194,0.670276 1.97555,0.670276 1.12888,0 2.01083,-0.670276 0.88194,-0.670277 1.48166,-1.763885 0.59972,-1.128887 0.91722,-2.575272 0.3175,-1.481663 0.3175,-3.06916 z m 35.48938,20.672731 q -1.79916,0 -3.28082,-0.317499 -1.48167,-0.317499 -2.57527,-0.91722 -1.05834,-0.564443 -1.65806,-1.411108 -0.59972,-0.811387 -0.59972,-1.83444 0,-0.987776 0.59972,-1.799163 0.59972,-0.846665 1.65806,-1.411108 1.0936,-0.564443 2.57527,-0.881942 1.51694,-0.3175 3.28082,-0.3175 1.79917,0 3.28083,0.3175 1.51694,0.317499 2.57527,0.881942 1.05833,0.564443 1.65805,1.411108 0.59972,0.811387 0.59972,1.799163 0,1.023053 -0.59972,1.83444 -0.59972,0.846665 -1.65805,1.411108 -1.05833,0.599721 -2.57527,0.91722 -1.48166,0.317499 -3.28083,0.317499 z m 0,-6.173597 q -1.58749,0 -2.75166,0.45861 -1.16416,0.45861 -1.16416,1.23472 0,0.811387 1.16416,1.234719 1.16417,0.45861 2.75166,0.45861 0.77611,0 1.48167,-0.141111 0.70555,-0.105833 1.23472,-0.317499 0.52916,-0.211666 0.84666,-0.529165 0.3175,-0.3175 0.3175,-0.705554 0,-0.388055 -0.3175,-0.705554 -0.3175,-0.3175 -0.84666,-0.529166 -0.52917,-0.211666 -1.23472,-0.317499 -0.70556,-0.141111 -1.48167,-0.141111 z m 11.11248,-4.339157 q 0,0.211666 -0.17639,0.388055 -0.14111,0.141111 -0.35278,0.141111 h -21.30773 q -0.17639,0 -0.35277,-0.176389 -0.17639,-0.176388 -0.17639,-0.388054 v -1.763885 q 0,-0.176389 0.17639,-0.352777 0.21166,-0.211667 0.38805,-0.211667 h 21.27245 q 0.21167,0 0.35278,0.176389 0.17639,0.176388 0.17639,0.388055 z m -6.06777,-4.339157 q 0,0.211667 -0.17638,0.423333 -0.14111,0.176388 -0.38806,0.176388 h -9.38387 q -0.17638,0 -0.38805,-0.141111 -0.17639,-0.14111 -0.17639,-0.423332 v -1.869718 q 0,-0.246944 0.17639,-0.388055 0.21167,-0.14111 0.38805,-0.14111 h 9.38387 q 0.21167,0 0.38806,0.176388 0.17638,0.176389 0.17638,0.388055 z m 5.96194,-2.151939 q 0,0.45861 -0.45861,0.45861 h -2.96333 q -0.45861,0 -0.45861,-0.45861 V 9.4191452 h -5.67971 q -0.17639,0 -0.35278,-0.1411108 Q 310.1616,9.1369236 310.1616,8.9605351 V 6.8791509 q 0,-0.1763885 0.14111,-0.2822216 0.17639,-0.1411108 0.35278,-0.1411108 h 5.67971 V 0.49388743 q 0,-0.17638849 0.14111,-0.31749928 Q 316.61742,-3.4713745e-7 316.79381,-3.4713745e-7 h 2.96333 q 0.17638,0 0.31749,0.17638849713745 0.14112,0.14111079 0.14112,0.31749928 z m -6.1736,-3.386659 q 0.0706,0.317499 -0.0706,0.493887 -0.14111,0.141111 -0.3175,0.211667 -0.70555,0.176388 -1.79916,0.317499 -1.05833,0.141111 -2.22249,0.246944 -1.12889,0.07056 -2.2225,0.105833 -1.09361,0.03528 -1.86972,-0.03528 -1.09361,-0.07056 -1.7286,-0.634998 -0.635,-0.564444 -0.635,-1.799163 V 3.1044371 q 0,-1.2347194 0.49389,-1.7286072 0.52916,-0.49388778 1.86971,-0.49388778 h 6.13832 q 0.49389,0 0.49389,0.45861008 v 2.1872173 q 0,0.4938878 -0.49389,0.4938878 h -4.02166 q -0.63499,0 -0.63499,0.5997209 v 6.9497068 q 0,0.423332 0.14111,0.564443 0.14111,0.105833 0.635,0.141111 0.45861,0 1.12888,0 0.67028,-0.03528 1.37583,-0.07056 0.70556,-0.07055 1.41111,-0.14111 0.70555,-0.105834 1.27,-0.211667 0.28222,-0.07056 0.45861,0.03528 0.21166,0.07056 0.28222,0.352777 z m -11.57109,0.246944 q 0.0706,0.317499 -0.14111,0.45861 -0.21166,0.14111 -0.38805,0.211666 -0.49389,0.141111 -1.30528,0.246944 -0.81138,0.07055 -1.69333,0.141111 -0.88194,0.03528 -1.69333,0.07056 -0.81138,0 -1.30527,-0.07056 -0.9525,-0.105834 -1.69333,-0.634999 -0.70555,-0.564443 -0.70555,-1.481663 V 3.1044371 q 0,-1.2347194 0.49388,-1.7286072 0.52917,-0.49388778 1.86972,-0.49388778 h 5.71499 q 0.49389,0 0.49389,0.45861008 v 2.1872173 q 0,0.4938878 -0.49389,0.4938878 h -3.59833 q -0.635,0 -0.635,0.5997209 V 11.64164 q 0,0.317499 0.0706,0.45861 0.10583,0.141111 0.52917,0.211666 0.24694,0.03528 0.70555,0.03528 0.49389,-0.03528 0.98778,-0.03528 0.52916,-0.03528 1.02305,-0.07056 0.52916,-0.07055 0.84666,-0.141111 0.24695,-0.07056 0.42334,0.03528 0.17638,0.07055 0.21166,0.352777 z m 25.64691,11.112475 q -0.28222,0.176388 -0.56444,0.211666 -0.28222,0.03528 -0.45861,-0.211666 l -1.41111,-1.940274 q -0.21167,-0.317499 -0.10583,-0.564443 0.14111,-0.282222 0.3175,-0.423332 2.39888,-1.481664 4.30387,-3.351382 1.94028,-1.904995 3.28083,-3.915824 1.37583,-2.046107 2.11666,-4.092213 0.74083,-2.0461068 0.81139,-3.8099918 0.0353,-0.7408316 -0.14111,-0.9877755 -0.17639,-0.2822216 -0.91722,-0.2822216 h -7.79637 q -0.49389,0 -0.49389,-0.4586101 V 3.1749925 q 0,-0.1763885 0.14111,-0.3174993 0.17639,-0.1411108 0.35278,-0.1411108 h 10.26581 q 1.51694,0 2.08138,0.5997209 0.56444,0.5644432 0.52917,1.9402734 -0.0353,1.5874965 -0.28222,3.1044375 -0.24695,1.4816633 -0.70556,2.9633268 h 4.40971 V 1.0936083 q 0,-0.45861007 0.49389,-0.45861007 h 2.89277 q 0.45861,0 0.45861,0.45861007 V 31.891039 q 0,0.493888 -0.45861,0.493888 h -2.89277 q -0.49389,0 -0.49389,-0.493888 V 14.7108 h -5.78554 q -1.5875,3.174993 -4.12749,5.891376 -2.50472,2.681105 -5.82082,4.797767 z m 26.423,7.725816 q 0,0.45861 -0.45861,0.45861 h -3.06916 q -0.45861,0 -0.45861,-0.45861 V 0.49388743 q 0,-0.45861008 0.49388,-0.45861008 h 3.03389 q 0.45861,0 0.45861,0.45861008 z M 385.8676,15.839686 q 0,1.340553 -0.56444,1.869718 -0.52916,0.529166 -1.86972,0.529166 h -10.58331 q -1.23472,0 -1.83444,-0.529166 -0.59972,-0.529165 -0.59972,-1.869718 V 4.1980458 q 0,-1.3405526 0.52917,-1.8344403 0.56444,-0.5291655 1.90499,-0.5291655 h 10.58331 q 1.34056,0 1.86972,0.5291655 0.56444,0.5291654 0.56444,1.869718 z M 381.84595,5.6091537 q 0,-0.2822216 -0.10584,-0.352777 -0.0706,-0.1058331 -0.35277,-0.1058331 h -6.4911 q -0.28222,0 -0.38805,0.070555 -0.0706,0.070555 -0.0706,0.352777 v 8.88998 q 0,0.317499 0.0706,0.388055 0.10583,0.07056 0.38805,0.07056 h 6.4911 q 0.28222,0 0.35277,-0.07056 0.10584,-0.07056 0.10584,-0.388055 z M 395.95703,32.49076 q 0,0.211666 -0.17639,0.317499 -0.14111,0.105833 -0.3175,0.105833 h -18.6619 q -1.5875,0 -2.15194,-0.564443 -0.52917,-0.564443 -0.52917,-1.940273 v -7.761094 q 0,-0.176388 0.14111,-0.317499 0.17639,-0.176389 0.35278,-0.176389 h 3.03388 q 0.21167,0 0.35278,0.176389 0.17639,0.141111 0.17639,0.317499 v 6.314708 q 0,0.352777 0.14111,0.45861 0.14111,0.105833 0.49388,0.105833 h 16.65108 q 0.17639,0 0.3175,0.141111 0.17639,0.141111 0.17639,0.317499 z m 3.91582,-18.908846 q 0,0.176388 -0.17639,0.317499 -0.14111,0.141111 -0.3175,0.141111 h -4.79776 v 9.313312 q 0,0.45861 -0.45861,0.45861 h -3.13972 q -0.45861,0 -0.45861,-0.45861 V 0.49388743 q 0,-0.45861008 0.45861,-0.45861008 h 3.13972 q 0.45861,0 0.45861,0.45861008 V 10.653865 h 4.79776 q 0.17639,0 0.3175,0.14111 0.17639,0.105833 0.17639,0.282222 z m 32.66717,2.469438 q 0,0.176389 -0.17639,0.352777 -0.17639,0.176389 -0.35278,0.176389 h -30.69159 q -0.21167,0 -0.35278,-0.141111 -0.14111,-0.176388 -0.14111,-0.388055 v -2.187217 q 0,-0.529165 0.49389,-0.529165 h 30.69159 q 0.17639,0 0.35278,0.14111 0.17639,0.105834 0.17639,0.282222 z m -4.69193,-5.785542 q 0,0.282222 -0.14112,0.423332 -0.10583,0.105833 -0.28222,0.105833 H 408.3748 q -1.41111,0 -1.97556,-0.634998 -0.56444,-0.6702764 -0.56444,-1.9049959 v -5.961931 q 0,-1.34055259 0.59972,-1.79916267 Q 407.03424,-3.4713745e-7 408.3748,-3.4713745e-7 h 18.73245 q 0.49389,0 0.49389,0.45861007713745 V 2.7869378 q 0,0.4938878 -0.49389,0.4938878 h -16.61579 q -0.67028,0 -0.67028,0.5997209 v 3.0338821 q 0,0.2822216 0.14111,0.45861 0.14111,0.1411108 0.52917,0.1411108 h 16.79218 q 0.28222,0 0.42333,0.070555 0.14112,0.070555 0.14112,0.352777 z m 0.63499,22.330783 q 0,0.176389 -0.17638,0.317499 -0.17639,0.176389 -0.3175,0.176389 h -19.72024 q -1.37583,0 -1.86972,-0.493888 -0.49388,-0.493888 -0.49388,-1.622774 v -4.339157 q 0,-1.128886 0.45861,-1.622774 0.49388,-0.529166 1.86971,-0.529166 h 15.0283 q 0.28223,0 0.35278,-0.03528 0.0706,-0.07056 0.0706,-0.388055 v -1.269997 q 0,-0.388055 -0.0706,-0.45861 -0.0705,-0.07056 -0.38805,-0.07056 h -16.89802 q -0.17639,0 -0.35278,-0.105833 -0.14111,-0.14111 -0.14111,-0.317499 v -2.363606 q 0,-0.176388 0.14111,-0.317499 0.17639,-0.176389 0.35278,-0.176389 h 18.90885 q 1.44638,0 1.90499,0.458611 0.49389,0.45861 0.49389,1.658051 v 4.30388 q 0,1.234719 -0.49389,1.658051 -0.45861,0.423333 -1.90499,0.423333 h -14.92247 q -0.28222,0 -0.35278,0.105833 -0.0705,0.07055 -0.0705,0.352777 v 1.446386 q 0,0.317499 0.0705,0.352777 0.0706,0.07055 0.38806,0.07055 h 17.60357 q 0.17639,0 0.35278,0.105833 0.17638,0.141111 0.17638,0.388055 z m 16.19249,-7.161373 q -2.01083,0 -3.63361,-0.846664 -1.58749,-0.881943 -2.71638,-2.398884 -1.09361,-1.552219 -1.69333,-3.704158 -0.59972,-2.15194 -0.59972,-4.727212 0,-2.645827 0.59972,-4.7977669 0.59972,-2.1519396 1.69333,-3.6688807 1.12889,-1.516941 2.71638,-2.3283281 1.62278,-0.8466647 3.63361,-0.8466647 1.86972,0 3.38666,0.7055539 1.51694,0.705554 2.61055,2.0108288 1.12888,1.2699972 1.79916,3.1044375 0.67027,1.8344403 0.84666,4.0922132 h 5.25638 V 0.49388743 q 0,-0.45861008 0.45861,-0.45861008 h 3.13972 q 0.45861,0 0.45861,0.45861008 V 33.055203 q 0,0.45861 -0.45861,0.45861 h -3.13972 q -0.45861,0 -0.45861,-0.45861 V 15.416354 h -5.25638 q -0.17639,2.29305 -0.84666,4.162768 -0.67028,1.834441 -1.79916,3.139715 -1.09361,1.305275 -2.61055,2.010829 -1.51694,0.705554 -3.38666,0.705554 z m 4.72721,-11.676918 q 0,-1.622774 -0.3175,-3.06916 -0.3175,-1.481663 -0.91722,-2.5752717 -0.59972,-1.0936086 -1.48166,-1.7286072 -0.88195,-0.6702763 -2.01083,-0.6702763 -1.09361,0 -1.97555,0.6702763 -0.84667,0.6349986 -1.44639,1.7286072 -0.59972,1.0936087 -0.91722,2.5752717 -0.3175,1.446386 -0.3175,3.06916 0,1.587497 0.3175,3.06916 0.3175,1.446385 0.91722,2.575272 0.59972,1.093608 1.44639,1.763885 0.88194,0.670276 1.97555,0.670276 1.12888,0 2.01083,-0.670276 0.88194,-0.670277 1.48166,-1.763885 0.59972,-1.128887 0.91722,-2.575272 0.3175,-1.481663 0.3175,-3.06916 z m 21.02554,11.253586 q -0.28222,0.176388 -0.59972,0.141111 -0.3175,-0.03528 -0.49389,-0.3175 l -1.37583,-1.83444 q -0.24694,-0.317499 -0.10583,-0.599721 0.17639,-0.282221 0.42333,-0.423332 2.2225,-1.37583 4.23333,-3.174993 2.01083,-1.799163 3.59832,-3.774714 1.62278,-1.975551 2.75166,-4.021657 1.12889,-2.0813846 1.62278,-3.9863803 0.14111,-0.5997209 0.0353,-0.7761094 -0.10583,-0.1763885 -0.70555,-0.1763885 h -9.10165 q -0.21166,0 -0.35277,-0.1411108 -0.10584,-0.1763885 -0.10584,-0.3880547 V 3.1749925 q 0,-0.4938878 0.49389,-0.4938878 h 11.50053 q 1.37583,0 2.15194,0.5291655 0.77611,0.5291655 0.77611,1.3758303 0,0.45861 -0.0706,0.9524978 -0.0705,0.4586101 -0.17638,0.8466648 -0.49389,1.869718 -1.34056,3.7747139 -0.81138,1.869718 -2.01082,3.774714 0.67027,0.91722 1.55221,1.940273 0.88195,0.987776 1.83444,1.940273 0.9525,0.952498 1.86972,1.799163 0.91722,0.811387 1.65805,1.340553 0.24695,0.176388 0.3175,0.45861 0.10584,0.282221 -0.10583,0.564443 l -1.51694,1.728607 q -0.45861,0.493888 -1.16416,0.07055 -0.635,-0.423332 -1.51695,-1.164164 -0.84666,-0.776109 -1.76388,-1.693329 -0.91722,-0.91722 -1.79916,-1.940274 -0.88195,-1.023053 -1.5875,-1.940273 -1.79916,2.222495 -4.02166,4.268602 -2.22249,2.010828 -4.9036,3.704158 z m 25.153,8.043315 q 0,0.45861 -0.49389,0.45861 H 491.983 q -0.17639,0 -0.35278,-0.141111 -0.14111,-0.105833 -0.14111,-0.317499 V 0.49388743 q 0,-0.17638849 0.14111,-0.31749928 0.17639,-0.1411108 0.35278,-0.1411108 h 3.10443 q 0.49389,0 0.49389,0.45861008 z m 32.49077,-0.776109 q 0,0.211666 -0.17639,0.317499 -0.17639,0.105833 -0.35278,0.105833 h -19.40273 q -1.62278,0 -2.18722,-0.564443 -0.52917,-0.564443 -0.52917,-1.940273 v -7.655261 q 0,-0.176388 0.14111,-0.317499 0.17639,-0.176389 0.35278,-0.176389 h 3.03388 q 0.21167,0 0.35278,0.176389 0.17639,0.141111 0.17639,0.317499 v 6.208875 q 0,0.352777 0.14111,0.45861 0.14111,0.105833 0.52917,0.105833 h 17.3919 q 0.17639,0 0.35278,0.141111 0.17639,0.105833 0.17639,0.282222 z M 527.64875,12.10025 q 0,0.246944 -0.17638,0.352777 -0.14112,0.105833 -0.3175,0.105833 h -18.90885 q -1.62277,0 -2.18722,-0.564443 -0.52916,-0.599721 -0.52916,-1.975551 V 1.1641637 q 0,-0.17638849 0.14111,-0.31749928 0.17639,-0.1763885 0.35277,-0.1763885 h 3.06916 q 0.21167,0 0.35278,0.1763885 0.17639,0.14111079 0.17639,0.31749928 v 7.4435944 q 0,0.352777 0.14111,0.4586101 0.14111,0.1058331 0.52917,0.1058331 h 16.86274 q 0.17638,0 0.3175,0.1411108 0.17638,0.1058331 0.17638,0.2822215 z m 4.37444,6.914429 q 0,0.176389 -0.17639,0.388055 -0.17639,0.176388 -0.35278,0.176388 h -30.69159 q -0.21167,0 -0.35278,-0.176388 -0.14111,-0.176389 -0.14111,-0.388055 v -2.328328 q 0,-0.493888 0.49389,-0.493888 h 30.69159 q 0.17639,0 0.35278,0.176389 0.17639,0.141111 0.17639,0.317499 z M 551.42596,5.3269321 q -0.24695,3.2102706 -1.30528,6.2088749 -1.05833,2.963327 -2.92805,5.609154 -1.83444,2.645828 -4.44499,4.938878 -2.61055,2.29305 -5.89137,4.092213 -0.28222,0.141111 -0.59972,0.141111 -0.28222,-0.03528 -0.45861,-0.3175 l -1.41111,-1.975551 q -0.17639,-0.282221 -0.10583,-0.564443 0.0706,-0.282221 0.3175,-0.45861 5.25637,-2.786938 8.50192,-6.879151 3.24555,-4.092213 3.9511,-8.8899802 0.10584,-0.7055539 -0.10583,-0.9172201 -0.17639,-0.2469439 -0.81139,-0.2469439 h -9.94831 q -0.45861,0 -0.45861,-0.4938878 V 3.1044371 q 0,-0.4233324 0.45861,-0.4233324 h 12.73525 q 1.5875,0 2.08139,0.6702763 0.52916,0.6349986 0.42333,1.9755511 z m 14.28747,10.4774769 q 0,0.211666 -0.17639,0.352777 -0.14111,0.14111 -0.35278,0.14111 h -4.76249 v 16.756907 q 0,0.45861 -0.45861,0.45861 h -3.13971 q -0.45861,0 -0.45861,-0.45861 V 0.49388743 q 0,-0.45861008 0.45861,-0.45861008 h 3.13971 q 0.45861,0 0.45861,0.45861008 V 12.911637 h 4.76249 q 0.21167,0 0.35278,0.141111 0.17639,0.105833 0.17639,0.282222 z m 12.45305,1.975551 q -0.17639,0 -0.3175,-0.105833 -0.14111,-0.141111 -0.14111,-0.3175 v -2.822216 q 0,-0.176388 0.14111,-0.282221 0.14111,-0.141111 0.3175,-0.141111 h 8.5372 q 0.21167,0 0.3175,0.141111 0.14111,0.105833 0.14111,0.282221 v 2.822216 q 0,0.176389 -0.14111,0.3175 -0.10583,0.105833 -0.3175,0.105833 z"
         id="path1" />
      <path
         style="font-weight:bold"
         d="m 15.910213,72.037066 q -0.282221,0 -0.423332,-0.105833 Q 15.34577,71.8254 15.134104,71.472623 L 4.0569066,52.422666 v 19.049957 q 0,0.352777 -0.1058331,0.45861 -0.1058331,0.105833 -0.4586101,0.105833 H 0.56441445 q -0.28222158,0 -0.42333238,-0.105833 Q -2.8723074e-5,71.8254 -2.8723074e-5,71.472623 V 46.037402 q 0,-0.423332 0.141110793074,-0.529165 0.1411108,-0.141111 0.52916548,-0.141111 H 3.9157958 q 0.2822216,0 0.4233324,0.105833 0.1411108,0.07056 0.352777,0.45861 l 11.0771978,19.01468 v -19.01468 q 0,-0.352777 0.105833,-0.45861 0.105833,-0.105833 0.45861,-0.105833 h 2.928049 q 0.352777,0 0.423332,0.105833 0.105833,0.105833 0.105833,0.45861 V 71.36679 q 0,0.423332 -0.141111,0.564443 -0.105833,0.105833 -0.493887,0.105833 z m 24.553254,-8.88998 q 0,0.282222 -0.176389,0.423332 -0.141111,0.141111 -0.317499,0.141111 H 28.363216 q 0.176389,2.363606 1.481663,3.880547 1.305275,1.481663 3.563048,1.481663 1.164164,0 2.645827,-0.282221 1.481664,-0.317499 2.716383,-1.058331 0.246944,-0.141111 0.317499,0.03528 0.07056,0.176388 0.07056,0.45861 v 2.434161 q 0,0.317499 -0.105833,0.493888 -0.105833,0.176388 -0.423333,0.352777 -1.058331,0.564443 -2.504716,0.811387 -1.411108,0.246944 -2.892772,0.246944 -4.374434,0 -6.632207,-2.61055 -2.222495,-2.645827 -2.222495,-7.725816 0,-1.904996 0.493888,-3.739436 0.493888,-1.83444 1.481663,-3.280826 1.023054,-1.446386 2.575272,-2.328328 1.552219,-0.881943 3.668881,-0.881943 2.15194,0 3.633603,0.811387 1.516941,0.811388 2.469439,2.187218 0.952498,1.37583 1.37583,3.21027 0.423332,1.834441 0.423332,3.915825 0,0.246944 -0.03528,0.564443 0,0.317499 0,0.45861 z m -7.725816,-7.761094 q -0.952498,0 -1.69333,0.423333 -0.740831,0.423332 -1.269997,1.093608 -0.529165,0.670277 -0.881942,1.552219 -0.3175,0.881943 -0.458611,1.763885 h 8.078593 q 0,-0.705554 -0.246943,-1.552219 -0.211667,-0.846664 -0.670277,-1.552218 -0.45861,-0.740832 -1.164164,-1.23472 -0.705554,-0.493888 -1.693329,-0.493888 z m 26.987442,13.934691 q -1.269997,1.587497 -3.033882,2.434162 -1.763885,0.811387 -3.98638,0.811387 -2.257772,0 -3.98638,-0.811387 -1.728607,-0.811388 -2.892771,-2.222495 -1.164164,-1.411108 -1.763885,-3.280826 -0.564443,-1.869718 -0.564443,-3.98638 0,-2.116662 0.564443,-3.98638 0.599721,-1.869718 1.763885,-3.245549 1.164164,-1.411107 2.857494,-2.222495 1.728607,-0.811387 4.021657,-0.811387 2.257773,0 3.98638,0.811387 1.728607,0.811388 2.892771,2.222495 1.164165,1.375831 1.728608,3.245549 0.599721,1.869718 0.599721,3.98638 0,2.081384 -0.564444,3.915824 -0.564443,1.799163 -1.622774,3.139715 z M 52.704831,55.456548 q -1.37583,0 -2.398883,0.599721 -0.987776,0.599721 -1.622774,1.587496 -0.634999,0.952498 -0.952498,2.187217 -0.3175,1.199442 -0.3175,2.434162 0,1.234719 0.3175,2.469439 0.317499,1.199441 0.952498,2.187217 0.634998,0.987775 1.622774,1.587496 1.023053,0.599721 2.398883,0.599721 1.37583,0 2.363606,-0.599721 1.023053,-0.599721 1.658052,-1.587496 0.634998,-0.987776 0.952498,-2.187217 0.317499,-1.23472 0.317499,-2.469439 0,-1.199442 -0.317499,-2.398884 -0.3175,-1.234719 -0.952498,-2.187217 -0.634999,-0.987776 -1.658052,-1.587497 -0.987776,-0.634998 -2.363606,-0.634998 z m 29.351075,13.546636 q -0.952498,0.776109 -2.15194,1.340553 -1.199441,0.564443 -2.575272,0.952497 -1.37583,0.352777 -2.857493,0.564444 -1.481663,0.176388 -2.928049,0.176388 h -4.303879 q -0.599721,0 -0.740832,-0.141111 -0.105833,-0.14111 -0.105833,-0.670276 V 46.354902 q 0,-0.670277 0.105833,-0.77611 0.141111,-0.141111 0.811387,-0.141111 h 5.997209 q 6.879151,0 10.230532,3.880547 1.481664,1.69333 2.187218,3.951103 0.740831,2.222495 0.740831,5.397487 0,3.280826 -1.164164,5.961931 -1.128886,2.681106 -3.245548,4.374435 z M 80.503687,51.964056 q -2.257772,-2.786939 -7.267206,-2.786939 h -2.75166 v 19.085235 h 1.587496 q 2.046107,0 3.84527,-0.493887 1.799162,-0.529166 3.174992,-1.658052 1.587497,-1.199442 2.434162,-3.06916 0.881942,-1.904996 0.881942,-4.515545 0,-2.116662 -0.45861,-3.739436 -0.45861,-1.658052 -1.446386,-2.822216 z m 32.314353,19.261623 q -0.635,0.317499 -1.55222,0.564443 -0.91722,0.211666 -2.01083,0.388055 -1.05833,0.176388 -2.18722,0.246944 -1.09361,0.105833 -2.08138,0.105833 -2.92805,0 -5.432766,-0.91722 -2.469439,-0.91722 -4.268602,-2.681105 -1.799163,-1.763885 -2.822216,-4.339157 -1.023053,-2.575272 -1.023053,-5.856098 0,-2.998605 0.952498,-5.503321 0.952498,-2.539994 2.716383,-4.374435 1.763884,-1.83444 4.268601,-2.857493 2.504715,-1.023054 5.644435,-1.023054 2.11666,0 3.77471,0.246944 1.65805,0.211666 3.13972,0.670277 0.38805,0.105833 0.45861,0.246943 0.0705,0.105834 0.0353,0.246944 l -0.42333,2.998605 q -0.0353,0.246944 -0.17639,0.352777 -0.14111,0.105833 -0.52916,-0.03528 -1.65805,-0.529166 -3.13972,-0.740832 -1.48166,-0.246944 -3.17499,-0.246944 -2.11666,0 -3.84527,0.740832 -1.728607,0.705554 -2.963327,2.046107 -1.234719,1.305274 -1.940273,3.139715 -0.670276,1.83444 -0.670276,4.092213 0,2.434161 0.670276,4.339157 0.705554,1.869718 1.940273,3.174993 1.269997,1.269997 2.998607,1.940273 1.7286,0.634999 3.80999,0.634999 1.5875,0 2.75166,-0.141111 1.16416,-0.141111 1.72861,-0.423333 v -7.090817 h -5.82082 q -0.21167,0 -0.35278,-0.105833 -0.10583,-0.141111 -0.10583,-0.317499 v -2.822216 q 0,-0.211666 0.14111,-0.352777 0.17639,-0.141111 0.35277,-0.141111 h 9.0311 q 0.52916,0 0.67027,0.176388 0.14111,0.176389 0.14111,0.705554 v 11.641641 q 0,0.529165 -0.21166,0.811387 -0.21167,0.282222 -0.49389,0.45861 z m 31.25607,0.811387 q -0.28222,0 -0.35278,-0.07055 -0.0705,-0.105833 -0.0705,-0.3175 v -19.15579 l -7.65526,19.085235 q -0.0706,0.176389 -0.17639,0.211666 -0.0706,0.03528 -0.42333,0.03528 h -2.82222 q -0.35278,0 -0.45861,-0.03528 -0.0706,-0.03528 -0.14111,-0.211666 L 124.3186,52.493221 v 19.15579 q 0,0.211667 -0.0706,0.3175 -0.0705,0.07055 -0.35277,0.07055 h -3.28083 q -0.42333,0 -0.42333,-0.388055 V 46.178513 q 0,-0.493888 0.10583,-0.599721 0.10583,-0.141111 0.67028,-0.141111 h 4.19804 q 0.24695,0 0.28222,0.105834 0.0706,0.07055 0.17639,0.317499 l 8.36082,20.743287 8.36081,-20.743287 q 0.10584,-0.246944 0.14111,-0.317499 0.0706,-0.105834 0.3175,-0.105834 h 4.19805 q 0.56444,0 0.67027,0.141111 0.10584,0.105833 0.10584,0.599721 v 25.470498 q 0,0.388055 -0.42333,0.388055 z m 49.91796,-13.899413 q 0,0.211666 -0.17638,0.352777 -0.14112,0.141111 -0.3175,0.141111 h -4.79777 v 16.756906 q 0,0.458611 -0.45861,0.458611 h -3.13972 q -0.45861,0 -0.45861,-0.458611 V 42.827132 q 0,-0.45861 0.45861,-0.45861 h 3.13972 q 0.45861,0 0.45861,0.45861 v 12.41775 h 4.79777 q 0.17638,0 0.3175,0.14111 0.17638,0.105834 0.17638,0.282222 z m -28.89243,9.913033 q -0.67028,0.529166 -1.23472,-0.03528 l -1.65805,-1.552218 q -0.49389,-0.493888 0.10583,-1.093609 2.29305,-2.081384 3.91583,-4.621378 1.62277,-2.539995 2.61054,-5.432766 0.42334,-1.269997 0.70556,-2.504717 0.3175,-1.269997 0.49389,-2.539994 0.17639,-1.305275 0.24694,-2.681105 0.0706,-1.411108 0.0353,-2.963327 0,-0.211666 0.14111,-0.352777 0.17639,-0.176388 0.35278,-0.176388 l 3.13971,0.105833 q 0.17639,0 0.3175,0.176388 0.14111,0.141111 0.14111,0.352777 0,2.15194 -0.14111,4.021658 -0.14111,1.83444 -0.45861,3.563048 0.35278,1.658051 1.09361,3.316103 0.74083,1.658052 1.72861,3.210271 0.98777,1.516941 2.11666,2.822216 1.16416,1.269997 2.29305,2.187217 0.56444,0.423332 0.0705,1.093609 l -1.48166,1.799162 q -0.17639,0.246944 -0.49389,0.282222 -0.28222,0.03528 -0.635,-0.211666 -0.84666,-0.670277 -1.79916,-1.658052 -0.9525,-0.987776 -1.83444,-2.116662 -0.84666,-1.164164 -1.5875,-2.363606 -0.74083,-1.234719 -1.19944,-2.363606 -0.635,1.481664 -1.44638,2.892772 -0.81139,1.411108 -1.72861,2.681105 -0.91722,1.234719 -1.905,2.328328 -0.95249,1.058331 -1.90499,1.83444 z m 47.02519,-2.539994 q 0.0706,0.211666 -0.10583,0.388055 -0.14111,0.176388 -0.42333,0.246943 -1.19945,0.3175 -2.8575,0.599721 -1.62277,0.246944 -3.38666,0.423333 -1.7286,0.141111 -3.35138,0.246944 -1.62277,0.07055 -2.78694,0 -1.62277,-0.07056 -2.18721,-0.634999 -0.56445,-0.564443 -0.56445,-1.904996 v -8.149148 q 0,-1.269997 0.59972,-1.799163 0.635,-0.564443 1.86972,-0.564443 h 5.29166 q 0.3175,0 0.42333,-0.07055 0.10583,-0.105833 0.10583,-0.45861 v -4.868323 q 0,-0.282221 -0.0705,-0.388054 -0.0706,-0.105833 -0.45861,-0.105833 h -7.1261 q -0.17639,0 -0.35278,-0.141111 -0.14111,-0.141111 -0.14111,-0.3175 v -2.328328 q 0,-0.176388 0.14111,-0.317499 0.17639,-0.141111 0.35278,-0.141111 h 9.13693 q 1.51694,0 1.94027,0.564443 0.45861,0.564444 0.45861,1.869718 v 7.619983 q 0,1.340553 -0.56444,1.834441 -0.52917,0.45861 -1.94028,0.45861 h -5.2211 q -0.52916,0 -0.52916,0.493888 v 5.326932 q 0,0.388055 0.14111,0.529165 0.14111,0.105834 0.52916,0.105834 1.05833,0.03528 2.36361,-0.03528 1.34055,-0.07056 2.71638,-0.211666 1.37583,-0.176389 2.64583,-0.352777 1.30527,-0.211667 2.29305,-0.423333 0.56444,-0.105833 0.67028,0.493888 z m 2.11666,-22.083839 q 0,-0.45861 0.49389,-0.45861 h 2.89277 q 0.45861,0 0.45861,0.45861 v 30.79743 q 0,0.493888 -0.45861,0.493888 h -2.89277 q -0.49389,0 -0.49389,-0.493888 V 61.453757 h -3.52777 q -0.17639,0 -0.35277,-0.141111 -0.14111,-0.141111 -0.14111,-0.3175 v -2.257772 q 0,-0.176389 0.14111,-0.282222 0.17638,-0.141111 0.35277,-0.141111 h 3.52777 v -3.280826 h -3.52777 q -0.17639,0 -0.35277,-0.14111 -0.14111,-0.141111 -0.14111,-0.352777 v -2.293051 q 0,-0.176388 0.14111,-0.282221 0.17638,-0.141111 0.35277,-0.141111 h 3.52777 z m 10.58331,32.03215 q 0,0.45861 -0.45861,0.45861 h -3.06916 q -0.45861,0 -0.45861,-0.45861 V 42.827132 q 0,-0.45861 0.49389,-0.45861 h 3.03388 q 0.45861,0 0.45861,0.45861 z m 34.9955,-5.856098 q 0,0.176388 -0.17639,0.352777 -0.17639,0.176388 -0.35278,0.176388 h -30.72687 q -0.21167,0 -0.35278,-0.176388 -0.14111,-0.176389 -0.14111,-0.352777 V 67.38041 q 0,-0.211666 0.14111,-0.388055 0.14111,-0.176388 0.35278,-0.176388 h 13.37025 V 61.55959 h -6.31471 q -0.77611,0 -1.27,-0.105833 -0.49389,-0.105834 -0.77611,-0.388055 -0.28222,-0.282222 -0.38805,-0.705554 -0.10584,-0.45861 -0.10584,-1.164164 v -5.67971 q 0,-0.705554 0.10584,-1.128886 0.10583,-0.45861 0.38805,-0.705554 0.28222,-0.282222 0.77611,-0.352777 0.49389,-0.105833 1.27,-0.105833 h 14.67552 q 0.35278,0 0.42333,-0.07055 0.10584,-0.105833 0.10584,-0.493888 V 47.90712 q 0,-0.388054 -0.10584,-0.423332 -0.0705,-0.07055 -0.42333,-0.07055 h -16.6158 q -0.17638,0 -0.31749,-0.141111 -0.14112,-0.176389 -0.14112,-0.352777 v -2.363606 q 0,-0.176389 0.14112,-0.317499 0.14111,-0.141111 0.31749,-0.141111 h 18.55607 q 1.48167,0 2.01083,0.493888 0.52917,0.45861 0.52917,1.83444 v 5.714987 q 0,1.37583 -0.52917,1.869718 -0.52916,0.45861 -2.01083,0.45861 h -14.7108 q -0.35277,0 -0.42333,0.07056 -0.0705,0.07056 -0.0705,0.423332 v 2.786938 q 0,0.388055 0.0705,0.493888 0.10583,0.07056 0.45861,0.07056 h 17.49774 q 0.17639,0 0.3175,0.141111 0.14111,0.105833 0.14111,0.282222 v 2.363606 q 0,0.176388 -0.17639,0.317499 -0.14111,0.141111 -0.28222,0.141111 h -9.06637 v 5.256377 h 13.29969 q 0.17639,0 0.35278,0.211666 0.17639,0.176388 0.17639,0.352777 z m 39.12301,5.679709 q 0,0.176389 -0.17639,0.3175 -0.14111,0.176388 -0.28222,0.176388 h -18.80302 q -1.37583,0 -1.90499,-0.529165 -0.49389,-0.529166 -0.49389,-1.658052 v -4.233324 q 0,-1.128886 0.49389,-1.622774 0.49389,-0.493888 1.86972,-0.493888 h 14.04052 q 0.28222,0 0.35278,-0.105833 0.0705,-0.105833 0.0705,-0.423332 v -1.199442 q 0,-0.388055 -0.0705,-0.45861 -0.0706,-0.105833 -0.38806,-0.105833 h -15.91024 q -0.17639,0 -0.35278,-0.105833 -0.17638,-0.141111 -0.17638,-0.3175 v -2.328328 q 0,-0.176388 0.17638,-0.317499 0.17639,-0.176389 0.35278,-0.176389 h 17.92107 q 1.44639,0 1.905,0.493888 0.49389,0.493888 0.49389,1.69333 v 4.198046 q 0,1.234719 -0.49389,1.693329 -0.45861,0.458611 -1.905,0.458611 h -13.93469 q -0.28222,0 -0.35278,0.105833 -0.0705,0.07055 -0.0705,0.352777 v 1.411108 q 0,0.317499 0.0705,0.352777 0.0706,0.07055 0.38806,0.07055 h 16.68635 q 0.17639,0 0.3175,0.141111 0.17639,0.14111 0.17639,0.352777 z m -24.8355,-15.698575 q -0.77611,0.388054 -1.12889,-0.03528 l -1.41111,-1.728607 q -0.21166,-0.282222 -0.21166,-0.529166 0.0353,-0.282221 0.38805,-0.45861 2.08139,-1.164164 3.56305,-2.504717 1.51694,-1.37583 2.46944,-2.998604 0.98777,-1.658052 1.44638,-3.633603 0.45861,-2.010829 0.45861,-4.44499 0,-0.246944 0.17639,-0.388055 0.21167,-0.14111 0.38806,-0.14111 l 3.03388,0.14111 q 0.45861,0 0.45861,0.529166 0,2.61055 -0.52917,4.833045 0.56445,1.269997 1.44639,2.398883 0.91722,1.093609 1.94027,2.046107 1.02306,0.91722 2.11667,1.658051 1.0936,0.705554 2.08138,1.128887 0.59972,0.246944 0.21167,0.846665 l -1.19945,1.940273 q -0.35277,0.529165 -0.91722,0.282222 -2.15194,-0.917221 -4.05693,-2.504717 -1.86972,-1.622774 -3.21027,-3.633603 -1.23472,2.328328 -3.13972,4.127491 -1.90499,1.763885 -4.37443,3.06916 z m 29.24521,-7.126096 q 0,0.176389 -0.17639,0.352777 -0.14111,0.141111 -0.3175,0.141111 h -4.79776 v 6.667485 q 0,0.176389 -0.14111,0.352777 -0.14112,0.141111 -0.3175,0.141111 h -3.13972 q -0.17639,0 -0.3175,-0.141111 -0.14111,-0.176388 -0.14111,-0.388054 V 42.827132 q 0,-0.45861 0.45861,-0.45861 h 3.13972 q 0.45861,0 0.45861,0.45861 v 6.73804 h 4.79776 q 0.17639,0 0.3175,0.141111 0.17639,0.105833 0.17639,0.282222 z m 1.55225,11.006642 q 0,-0.493887 0.49389,-0.493887 0.88194,0.03528 1.69333,0.03528 0.84667,0 1.65805,0 V 48.401008 h -2.82221 q -0.17639,0 -0.38806,-0.176388 -0.21166,-0.176389 -0.21166,-0.388055 v -2.187217 q 0,-0.211667 0.21166,-0.388055 0.21167,-0.176389 0.38806,-0.176389 h 17.67412 q 0.21167,0 0.35278,0.176389 0.17639,0.141111 0.17639,0.388055 v 2.222495 q 0,0.211666 -0.17639,0.388054 -0.14111,0.141111 -0.35278,0.141111 h -2.75166 v 14.181635 q 1.97556,-0.141111 3.98638,-0.423332 0.17639,-0.03528 0.38806,0.07055 0.21167,0.07055 0.24694,0.246944 l 0.3175,2.222495 q 0.0706,0.282221 -0.10583,0.423332 -0.14111,0.141111 -0.3175,0.176389 -4.2686,0.634998 -9.45442,0.881942 -5.18583,0.211666 -10.51276,0.07056 -0.21166,0 -0.35277,-0.141111 -0.14112,-0.176389 -0.14112,-0.388055 z m 23.95356,-9.842477 h -4.76249 q -0.14111,0 -0.35277,-0.141111 -0.17639,-0.141111 -0.17639,-0.388055 v -2.187217 q 0,-0.246944 0.17639,-0.388055 0.21166,-0.141111 0.35277,-0.141111 h 4.76249 v -7.549427 q 0,-0.45861 0.45861,-0.45861 h 3.13972 q 0.45861,0 0.45861,0.45861 v 32.561315 q 0,0.458611 -0.45861,0.458611 h -3.13972 q -0.45861,0 -0.45861,-0.458611 V 60.183759 h -4.76249 q -0.14111,0 -0.35277,-0.14111 -0.17639,-0.176389 -0.17639,-0.423333 v -2.151939 q 0,-0.246944 0.17639,-0.388055 0.21166,-0.141111 0.35277,-0.141111 h 4.76249 z m -16.15718,9.34859 q 1.0936,-0.03528 2.15194,-0.03528 1.05833,-0.03528 2.11666,-0.105833 V 48.401008 h -4.2686 z m 56.4796,6.632207 q 0,0.176388 -0.17639,0.352777 -0.17639,0.176388 -0.35278,0.176388 h -30.72687 q -0.21167,0 -0.35278,-0.176388 -0.14111,-0.176389 -0.14111,-0.352777 v -2.29305 q 0,-0.211667 0.14111,-0.388055 0.14111,-0.176389 0.35278,-0.176389 h 13.33497 v -6.455818 h -6.45582 q -1.55222,0 -2.11667,-0.529166 -0.56444,-0.529165 -0.56444,-1.975551 V 44.308795 q 0,-0.176388 0.14111,-0.282221 0.14111,-0.141111 0.3175,-0.141111 h 3.10444 q 0.17639,0 0.3175,0.141111 0.17639,0.105833 0.17639,0.282221 v 4.974156 h 14.18163 v -5.009434 q 0,-0.176388 0.14111,-0.317499 0.14111,-0.141111 0.3175,-0.141111 h 3.13972 q 0.17639,0 0.3175,0.141111 0.14111,0.141111 0.14111,0.317499 v 13.65247 q 0,1.164164 -0.56445,1.763885 -0.56444,0.599721 -2.08138,0.599721 h -6.45582 v 6.455818 h 13.33497 q 0.17639,0 0.35278,0.211667 0.17639,0.176388 0.17639,0.352777 z m -8.81943,-17.039128 h -14.18163 v 3.809991 q 0,0.599721 0.635,0.599721 h 12.91163 q 0.635,0 0.635,-0.599721 z m 37.99412,22.048561 q 0,0.211666 -0.17639,0.317499 -0.17639,0.105834 -0.35278,0.105834 h -19.40273 q -1.62278,0 -2.18722,-0.564444 -0.52916,-0.564443 -0.52916,-1.940273 v -7.655261 q 0,-0.176388 0.14111,-0.317499 0.17638,-0.176388 0.35277,-0.176388 h 3.03389 q 0.21166,0 0.35277,0.176388 0.17639,0.141111 0.17639,0.317499 v 6.208875 q 0,0.352777 0.14111,0.45861 0.14111,0.105833 0.52917,0.105833 h 17.3919 q 0.17639,0 0.35278,0.141111 0.17639,0.105833 0.17639,0.282222 z m -0.42333,-20.178843 q 0,0.246943 -0.17639,0.352777 -0.14111,0.105833 -0.3175,0.105833 h -18.90885 q -1.62277,0 -2.18722,-0.564444 -0.52916,-0.59972 -0.52916,-1.975551 v -8.854702 q 0,-0.176388 0.14111,-0.317499 0.17639,-0.176389 0.35278,-0.176389 h 3.06916 q 0.21166,0 0.35277,0.176389 0.17639,0.141111 0.17639,0.317499 v 7.443594 q 0,0.352777 0.14111,0.45861 0.14111,0.105834 0.52917,0.105834 h 16.86274 q 0.17639,0 0.3175,0.14111 0.17639,0.105833 0.17639,0.282222 z m 4.37443,6.914428 q 0,0.176389 -0.17639,0.388055 -0.17639,0.176389 -0.35278,0.176389 h -30.69159 q -0.21167,0 -0.35278,-0.176389 -0.14111,-0.176388 -0.14111,-0.388055 v -2.328328 q 0,-0.493887 0.49389,-0.493887 h 30.69159 q 0.17639,0 0.35278,0.176388 0.17639,0.141111 0.17639,0.317499 z m 37.28855,-18.520791 q 0,-0.45861 0.49389,-0.45861 h 3.03388 q 0.45861,0 0.45861,0.45861 v 32.561315 q 0,0.458611 -0.45861,0.458611 h -3.06916 q -0.45861,0 -0.45861,-0.458611 V 58.702096 h -3.28082 v 15.345799 q 0,0.493888 -0.45861,0.493888 h -2.89277 q -0.49389,0 -0.49389,-0.493888 V 43.46213 q 0,-0.45861 0.49389,-0.45861 h 2.89277 q 0.45861,0 0.45861,0.45861 v 11.853307 h 3.28082 z M 417.1237,67.733187 q -0.28222,0.176388 -0.56444,0.211666 -0.28223,0.03528 -0.45861,-0.211666 l -1.41111,-1.940274 q -0.21167,-0.317499 -0.10583,-0.564443 0.14111,-0.282221 0.31749,-0.423332 2.39889,-1.481663 4.30388,-3.351381 1.94028,-1.869718 3.28083,-3.880547 1.37583,-2.046107 2.11666,-4.056936 0.74083,-2.046106 0.81139,-3.809991 0.0353,-0.740832 -0.14111,-0.987776 -0.17639,-0.282221 -0.91722,-0.282221 h -7.79637 q -0.49389,0 -0.49389,-0.45861 v -2.398884 q 0,-0.176388 0.14111,-0.317499 0.17639,-0.141111 0.35278,-0.141111 h 10.26581 q 1.51694,0 2.08138,0.599721 0.56444,0.564443 0.52917,1.940273 -0.0706,3.06916 -0.9525,5.926654 -0.88194,2.857493 -2.46944,5.397488 -1.5875,2.539994 -3.84527,4.762489 -2.25777,2.187217 -5.04471,3.98638 z M 479.00082,52.35211 q 0,0.176389 -0.17639,0.352777 -0.14111,0.141111 -0.3175,0.141111 h -4.79777 v 6.879151 q 0,0.493888 -0.45861,0.493888 h -3.13971 q -0.45861,0 -0.45861,-0.529165 v -16.86274 q 0,-0.45861 0.45861,-0.45861 h 3.13971 q 0.45861,0 0.45861,0.45861 v 6.632207 h 4.79777 q 0.17639,0 0.3175,0.141111 0.17639,0.105833 0.17639,0.282221 z m -4.37444,22.930504 q 0,0.176389 -0.17639,0.3175 -0.14111,0.176388 -0.28222,0.176388 h -18.83829 q -1.37583,0 -1.86972,-0.529165 -0.49388,-0.529166 -0.49388,-1.658052 v -4.198046 q 0,-1.128887 0.45861,-1.622774 0.49388,-0.493888 1.86971,-0.493888 h 14.04053 q 0.28222,0 0.35278,-0.07056 0.0706,-0.105833 0.0706,-0.45861 v -1.128886 q 0,-0.388055 -0.0706,-0.45861 -0.0706,-0.105833 -0.38806,-0.105833 h -15.91024 q -0.17639,0 -0.35278,-0.105833 -0.14111,-0.141111 -0.14111,-0.3175 v -2.328328 q 0,-0.176388 0.14111,-0.317499 0.17639,-0.141111 0.35278,-0.141111 h 17.92107 q 1.44639,0 1.905,0.493888 0.49388,0.45861 0.49388,1.658052 v 4.127491 q 0,1.234719 -0.49388,1.693329 -0.45861,0.45861 -1.905,0.45861 h -13.93469 q -0.28222,0 -0.35278,0.105833 -0.0705,0.07056 -0.0705,0.352777 v 1.375831 q 0,0.317499 0.0705,0.352777 0.0706,0.07055 0.38806,0.07055 h 16.68635 q 0.21166,0 0.35277,0.141111 0.17639,0.14111 0.17639,0.352777 z M 460.93864,51.187946 h -7.47888 v 3.421937 q 0,0.599721 0.635,0.599721 h 6.20888 q 0.635,0 0.635,-0.599721 z m 4.02165,4.938878 q 0,1.199442 -0.56444,1.799163 -0.56444,0.599721 -2.08138,0.599721 h -10.19526 q -1.55222,0 -2.11666,-0.529166 -0.56444,-0.564443 -0.56444,-1.975551 V 43.285742 q 0,-0.176389 0.14111,-0.282222 0.14111,-0.141111 0.3175,-0.141111 h 3.06916 q 0.17638,0 0.3175,0.141111 0.17638,0.105833 0.17638,0.282222 v 4.621378 h 7.47888 v -4.656656 q 0,-0.176388 0.14111,-0.317499 0.14111,-0.141111 0.3175,-0.141111 h 3.10443 q 0.17639,0 0.3175,0.141111 0.14111,0.141111 0.14111,0.317499 z m 40.71049,5.891376 q -2.11666,0 -3.88054,-0.388055 -1.72861,-0.423332 -2.99861,-1.128886 -1.23472,-0.740832 -1.94027,-1.728608 -0.70555,-1.023053 -0.70555,-2.187217 0,-1.199442 0.70555,-2.187217 0.70555,-0.987776 1.97555,-1.69333 1.27,-0.705554 2.99861,-1.093608 1.76388,-0.423333 3.84526,-0.423333 2.11667,0 3.84527,0.423333 1.76389,0.388054 3.03389,1.093608 1.26999,0.705554 1.94027,1.69333 0.70555,0.987775 0.70555,2.187217 0,1.164164 -0.70555,2.187217 -0.67028,0.987776 -1.94027,1.728608 -1.27,0.705554 -3.03389,1.128886 -1.7286,0.388055 -3.84527,0.388055 z m 0,-7.937482 q -1.12888,0 -2.11666,0.211666 -0.98777,0.176388 -1.7286,0.529165 -0.74084,0.3175 -1.16417,0.77611 -0.42333,0.45861 -0.42333,0.987775 0,0.529166 0.42333,0.987776 0.42333,0.45861 1.16417,0.776109 0.74083,0.317499 1.7286,0.529166 0.98778,0.176388 2.11666,0.176388 1.09361,0 2.08139,-0.176388 0.98777,-0.211667 1.72861,-0.529166 0.74083,-0.317499 1.16416,-0.776109 0.42333,-0.45861 0.42333,-0.987776 0,-0.529165 -0.42333,-0.987775 -0.42333,-0.45861 -1.16416,-0.77611 -0.74084,-0.352777 -1.72861,-0.529165 -0.98778,-0.211666 -2.08139,-0.211666 z m 12.9822,-4.656657 q 0,0.211667 -0.17639,0.388055 -0.14111,0.141111 -0.35278,0.141111 h -24.90605 q -0.17639,0 -0.35278,-0.176389 -0.17639,-0.176388 -0.17639,-0.388054 v -2.010829 q 0,-0.176389 0.17639,-0.352777 0.21167,-0.176389 0.38805,-0.176389 h 24.87078 q 0.21167,0 0.35278,0.176389 0.17639,0.141111 0.17639,0.352777 z m -7.23193,-4.515545 q 0,0.211666 -0.17639,0.388055 -0.14111,0.176388 -0.38805,0.176388 h -10.37165 q -0.14111,0 -0.35277,-0.141111 -0.17639,-0.14111 -0.17639,-0.388054 v -2.081385 q 0,-0.246943 0.17639,-0.388054 0.21166,-0.141111 0.35277,-0.141111 h 10.37165 q 0.21166,0 0.38805,0.176388 0.17639,0.176389 0.17639,0.388055 z m 10.15998,21.272452 q 0,0.176389 -0.17639,0.352777 -0.17639,0.176389 -0.35278,0.176389 h -13.33497 v 8.678313 q 0,0.493888 -0.49389,0.493888 h -3.06916 q -0.49388,0 -0.49388,-0.493888 v -8.678313 h -13.33497 q -0.21167,0 -0.35278,-0.176389 -0.14111,-0.176388 -0.14111,-0.352777 v -2.151939 q 0,-0.211667 0.14111,-0.388055 0.14111,-0.176389 0.35278,-0.176389 h 30.72687 q 0.17639,0 0.35278,0.211667 0.17639,0.176388 0.17639,0.352777 z m 20.35523,-15.16941 q 0,1.658052 -0.59972,3.06916 -0.59972,1.37583 -1.72861,2.398883 -1.0936,1.023053 -2.6811,1.622774 -1.55222,0.564443 -3.45721,0.564443 -1.97556,0 -3.52777,-0.564443 -1.55222,-0.599721 -2.64583,-1.622774 -1.05833,-1.023053 -1.62278,-2.398883 -0.56444,-1.411108 -0.56444,-3.06916 0,-1.658052 0.56444,-3.104438 0.56445,-1.446385 1.62278,-2.504716 1.09361,-1.058331 2.64583,-1.658052 1.55221,-0.599721 3.52777,-0.599721 1.90499,0 3.45721,0.599721 1.5875,0.599721 2.6811,1.658052 1.12889,1.058331 1.72861,2.504716 0.59972,1.446386 0.59972,3.104438 z m -3.59832,0.03528 q 0,-2.046107 -1.34055,-3.351382 -1.30528,-1.305275 -3.52777,-1.305275 -2.15194,0 -3.45722,1.305275 -1.30527,1.305275 -1.30527,3.351382 0,1.940273 1.30527,3.245548 1.30528,1.269997 3.45722,1.269997 1.0936,0 1.97555,-0.317499 0.91722,-0.352777 1.55222,-0.952498 0.63499,-0.634999 0.98777,-1.446386 0.35278,-0.846665 0.35278,-1.799162 z m 13.61719,24.235778 q 0,0.176389 -0.17639,0.3175 -0.14111,0.176388 -0.28222,0.176388 h -18.69718 q -1.37583,0 -1.905,-0.529165 -0.49388,-0.529166 -0.49388,-1.658052 v -4.303879 q 0,-1.128887 0.49388,-1.622774 0.49389,-0.529166 1.86972,-0.529166 h 13.93469 q 0.28222,0 0.35278,-0.07055 0.0706,-0.105833 0.0706,-0.423333 v -1.305275 q 0,-0.388054 -0.0706,-0.45861 -0.0706,-0.07055 -0.38806,-0.07055 h -15.8044 q -0.17639,0 -0.35278,-0.105833 -0.17639,-0.141111 -0.17639,-0.317499 v -2.328329 q 0,-0.176388 0.17639,-0.317499 0.17639,-0.176388 0.35278,-0.176388 h 17.81523 q 1.44639,0 1.905,0.493887 0.49389,0.493888 0.49389,1.69333 v 4.268601 q 0,1.23472 -0.49389,1.69333 -0.45861,0.45861 -1.905,0.45861 h -13.82885 q -0.28223,0 -0.35278,0.105833 -0.0706,0.07056 -0.0706,0.352777 v 1.481664 q 0,0.317499 0.0706,0.352777 0.0706,0.07055 0.38805,0.07055 h 16.58052 q 0.17639,0 0.3175,0.141111 0.17639,0.14111 0.17639,0.352777 z m -0.88194,-15.804409 q 0,0.458611 -0.45861,0.458611 h -3.13972 q -0.45861,0 -0.45861,-0.493888 V 42.827132 q 0,-0.45861 0.45861,-0.45861 h 3.13972 q 0.45861,0 0.45861,0.45861 z m 37.28856,-5.785542 q 0,0.176388 -0.17639,0.317499 -0.14111,0.141111 -0.3175,0.141111 h -4.79777 v 6.843873 q 0,0.458611 -0.45861,0.458611 h -3.13971 q -0.45861,0 -0.45861,-0.493888 V 42.827132 q 0,-0.45861 0.45861,-0.45861 h 3.13971 q 0.45861,0 0.45861,0.45861 v 7.97276 h 4.79777 q 0.17639,0 0.3175,0.14111 0.17639,0.105834 0.17639,0.282222 z m -9.27804,13.264415 q 0,-0.3175 -0.10583,-0.388055 -0.0706,-0.105833 -0.35278,-0.105833 h -11.78275 q -0.28222,0 -0.38805,0.07055 -0.0706,0.07056 -0.0706,0.352777 v 4.727212 q 0,0.317499 0.0706,0.388054 0.10583,0.07056 0.38805,0.07056 h 11.78275 q 0.28223,0 0.35278,-0.07056 0.10583,-0.07055 0.10583,-0.388054 z m 4.02166,5.891375 q 0,1.340553 -0.59972,1.904996 -0.56444,0.564443 -1.90499,0.564443 h -15.55747 q -1.5875,0 -2.15194,-0.564443 -0.52916,-0.564443 -0.52916,-1.940274 v -7.055539 q 0,-1.340553 0.56444,-1.940274 0.59972,-0.599721 1.94027,-0.599721 h 15.55747 q 1.58749,0 2.11666,0.599721 0.56444,0.564444 0.56444,1.975551 z m -5.8561,-15.098855 q 0.0706,0.388055 -0.14111,0.564443 -0.17639,0.141111 -0.35277,0.176389 -1.37583,0.352777 -3.31611,0.634998 -1.94027,0.246944 -4.05693,0.423333 -2.08139,0.141111 -4.16277,0.176388 -2.08139,0.03528 -3.80999,-0.03528 -1.16417,-0.07056 -1.86972,-0.599721 -0.67028,-0.529166 -0.67028,-1.763885 V 46.143235 q 0,-1.234719 0.49389,-1.728607 0.52917,-0.493888 1.86972,-0.493888 h 12.41775 q 0.49389,0 0.49389,0.45861 v 2.434162 q 0,0.176388 -0.14111,0.352777 -0.14111,0.14111 -0.35278,0.14111 h -10.08942 q -0.635,0 -0.635,0.599721 v 7.408317 q 0,0.564443 0.17639,0.776109 0.21166,0.176389 0.88194,0.211667 1.12889,0.07055 2.61055,0.03528 1.48166,-0.03528 3.10444,-0.141111 1.65805,-0.105833 3.28082,-0.317499 1.65805,-0.211666 3.10444,-0.493888 0.28222,-0.07055 0.49389,0 0.21166,0.07056 0.28222,0.352777 z"
         id="path2" />
      <path
         d="m 182.10346,119.09751 q -0.24694,0 -0.3175,-0.0353 -0.0353,0 -0.17639,-0.17639 -3.21027,-4.02166 -4.76249,-8.14915 -1.55222,-4.12749 -1.55222,-8.5372 0,-4.374438 1.55222,-8.501929 1.55222,-4.12749 4.76249,-8.184426 0.14111,-0.176388 0.17639,-0.176388 0.0706,-0.03528 0.24695,-0.03528 h 0.98777 q 0.21167,0 0.21167,0.03528 0,0.03528 -0.10584,0.211666 -5.53859,8.678314 -5.53859,16.651077 0,4.05693 1.4111,8.18442 1.41111,4.12749 4.16277,8.46665 0.17639,0.24694 -0.17639,0.24694 z m 21.13137,-19.896618 q 0,-1.658051 -0.9525,-2.681105 v 0.03528 q -0.88194,-0.705554 -2.08138,-0.705554 -2.01083,0 -3.84527,2.116662 -2.04611,2.434157 -2.01083,5.573877 0.0353,1.69333 0.74083,2.64583 0.74084,0.95249 1.97556,0.95249 1.23471,0 2.39888,-0.74083 1.16416,-0.74083 2.08138,-2.0461 0.81139,-1.23472 1.23472,-2.54 0.45861,-1.34055 0.45861,-2.610548 z m 9.56026,-0.14111 q 0,4.409708 -3.10444,7.549428 -2.61055,2.75166 -5.39749,2.75166 -2.64582,0 -2.96332,-2.36361 -0.98778,1.12889 -2.18722,1.76389 -1.19944,0.59972 -2.57527,0.59972 -2.18722,0 -3.63361,-1.62277 -1.44638,-1.65806 -1.44638,-3.98638 0,-3.915829 2.43416,-6.879156 2.50472,-3.245548 6.27943,-3.245548 2.82222,0 4.16277,2.928049 0.17639,-0.529165 0.38805,-1.128886 0.24695,-0.634999 0.42334,-1.164164 h 2.39888 l -3.28083,10.159975 q -0.35277,1.05833 -0.35277,1.76389 0,0.95249 0.84666,0.95249 2.18722,0 3.77471,-2.39888 1.72861,-2.39888 1.72861,-5.679708 0,-4.092213 -3.28082,-6.667485 -3.175,-2.363606 -7.58471,-2.363606 -4.76249,0 -8.00804,3.174993 -3.13971,3.21027 -3.13971,8.043316 0,4.97415 3.13971,8.18443 3.24555,3.17499 8.00804,3.17499 6.4911,0 9.94831,-4.16277 h 2.29305 q -1.83444,3.03388 -5.04471,4.72721 -3.17499,1.65805 -7.19665,1.65805 -3.10444,0 -5.67971,-1.09361 -2.57527,-1.12888 -4.48027,-3.17499 -1.69333,-1.90499 -2.57527,-4.2686 -0.88194,-2.36361 -0.88194,-4.97416 0,-5.432761 3.45721,-9.313308 3.77472,-4.198046 10.15998,-4.198046 2.64583,0 4.93888,0.740832 2.32833,0.705553 4.19804,2.151939 2.01083,1.552219 3.10444,3.704158 1.12889,2.116662 1.12889,4.656657 z m 6.77331,5.750268 q 0,1.65805 0.24694,3.03388 0.28222,1.34055 0.84667,2.3636 0.7761,1.27 1.86971,1.94028 1.12889,0.67027 2.68111,0.67027 1.41111,0 2.46944,-0.74083 1.09361,-0.74083 1.79916,-1.86972 0.74083,-1.16416 1.09361,-2.57527 0.35278,-1.44638 0.35278,-2.82221 0,-1.69333 -0.38806,-3.13972 -0.35278,-1.44638 -1.09361,-2.504715 -0.70555,-1.058331 -1.76388,-1.658052 -1.05833,-0.599721 -2.46944,-0.599721 -2.99861,0 -4.55082,2.575272 -0.56445,1.023056 -0.84667,2.398886 -0.24694,1.34055 -0.24694,2.92805 z m 13.72302,9.06637 q 0,0.49388 -0.49389,0.49388 h -1.37583 q -0.49388,0 -0.49388,-0.49388 v -2.64583 q -1.905,3.59832 -6.13832,3.59832 -3.77472,0 -5.89138,-2.89277 -1.94027,-2.6811 -1.94027,-7.12609 0,-9.913037 7.83165,-9.913037 2.11666,0 3.73943,0.846665 1.65805,0.846665 2.39889,2.187217 V 86.81842 q 0,-0.493887 0.49388,-0.493887 h 1.37583 q 0.49389,0 0.49389,0.493887 z m 16.96861,-9.45443 h -0.67028 q -1.97555,-0.0705 -3.52777,0.17639 -1.51694,0.21167 -2.53999,0.59972 -1.48167,0.52917 -2.2225,1.5875 -0.74083,1.02305 -0.74083,2.46944 0,0.88194 0.28222,1.65805 0.28222,0.74083 0.88194,1.16416 1.05834,0.84667 2.82222,0.84667 1.23472,0 2.25777,-0.49389 1.05833,-0.49389 1.83444,-1.41111 0.77611,-0.91722 1.19945,-2.25777 0.42333,-1.37583 0.42333,-3.13972 z m -10.05415,-6.173595 q -0.17638,0.105833 -0.35277,0.07055 -0.14111,-0.07055 -0.14111,-0.246944 v -1.340552 q 0,-0.493888 0.49388,-0.740832 1.23472,-0.670276 2.61055,-0.91722 1.41111,-0.282222 3.06916,-0.282222 3.52777,0 5.15055,1.69333 1.62277,1.658052 1.62277,5.04471 v 8.8547 q 0,1.05833 0.0353,1.905 0.0353,0.81139 0.10583,1.5875 0,0.49388 -0.49389,0.49388 h -1.26999 q -0.49389,0 -0.49389,-0.49388 v -2.71639 q -0.74083,1.79916 -2.50472,2.78694 -1.7286,0.98778 -3.77471,0.98778 -3.56305,0 -5.2211,-2.08139 -0.56444,-0.70555 -0.84666,-1.62277 -0.28223,-0.9525 -0.28223,-1.86972 0,-2.15194 0.98778,-3.70416 1.02305,-1.55222 3.10444,-2.32833 2.53999,-0.91722 7.79637,-0.91722 h 0.45861 v -1.05833 q 0,-2.222493 -1.02306,-3.386657 -0.98777,-1.164164 -3.35138,-1.164164 -1.58749,0 -2.9986,0.352777 -1.41111,0.317499 -2.68111,1.093609 z m 20.95496,15.628025 q 0,0.49388 -0.49389,0.49388 h -1.55222 q -0.49388,0 -0.49388,-0.49388 v -27.058 q 0,-0.493887 0.49388,-0.493887 h 1.55222 q 0.49389,0 0.49389,0.493887 z m 18.97942,-9.13693 q 0,-3.77471 -1.55222,-5.820819 -1.55221,-2.046107 -4.19804,-2.046107 -2.8575,0 -4.30388,1.904996 -1.44639,1.905 -1.44639,6.03249 0,1.51694 0.42334,2.78693 0.42333,1.27 1.16416,2.18722 0.74083,0.88194 1.76388,1.41111 1.02306,0.49389 2.2225,0.49389 1.23472,0 2.32833,-0.49389 1.09361,-0.52917 1.86972,-1.44639 0.81138,-0.95249 1.26999,-2.22249 0.45861,-1.27 0.45861,-2.78694 z m -12.13553,14.25219 q -0.42333,-0.10583 -0.35277,-0.52916 l 0.10583,-1.55222 q 0,-0.45861 0.45861,-0.21167 1.34055,0.59972 2.57527,0.84667 1.23472,0.28222 2.68111,0.28222 3.21027,0 4.79776,-1.97555 1.62278,-1.94028 1.83444,-5.32694 -0.81138,1.5875 -2.39888,2.39889 -1.5875,0.81138 -3.52777,0.81138 -1.72861,0 -3.21027,-0.63499 -1.48166,-0.635 -2.57527,-1.79917 -1.09361,-1.16416 -1.72861,-2.82221 -0.635,-1.65805 -0.635,-3.66888 0,-2.36361 0.42334,-4.19805 0.45861,-1.869718 1.4111,-3.139715 0.9525,-1.269997 2.46944,-1.940273 1.51694,-0.670276 3.66888,-0.670276 1.86972,0 3.28083,0.634998 1.44638,0.599721 2.92805,2.187217 l -0.0706,-1.904995 q 0,-0.493888 0.49389,-0.493888 h 1.34055 q 0.49389,0 0.49389,0.493888 v 14.111084 q 0,2.29305 -0.59972,4.16276 -0.56444,1.83444 -1.72861,3.10444 -1.12888,1.30528 -2.82221,1.97555 -1.69333,0.70556 -3.88055,0.70556 -1.5875,0 -2.78694,-0.21167 -1.19944,-0.17639 -2.64583,-0.635 z m 34.50163,-14.14636 q 0,-1.65805 -0.45861,-3.10443 -0.42334,-1.44639 -1.19944,-2.575275 -1.83445,-2.257773 -4.76249,-2.257773 -1.48167,0 -2.68111,0.599721 -1.16416,0.564443 -2.08138,1.658052 -0.81139,1.128885 -1.27,2.575275 -0.42333,1.44638 -0.42333,3.10443 0,1.69333 0.42333,3.13972 0.45861,1.44639 1.27,2.53999 1.86971,2.29305 4.76249,2.29305 1.48166,0 2.64582,-0.59972 1.19944,-0.59972 2.11667,-1.69333 0.7761,-1.0936 1.19944,-2.53999 0.45861,-1.44639 0.45861,-3.13972 z m 2.61055,0 q 0,2.08139 -0.59972,3.88055 -0.59973,1.76389 -1.5875,3.10444 -1.23472,1.48166 -2.96333,2.29305 -1.69333,0.81139 -3.88054,0.81139 -2.18722,0 -3.91583,-0.81139 -1.72861,-0.81139 -2.96333,-2.29305 -0.98777,-1.34055 -1.58749,-3.10444 -0.56445,-1.79916 -0.56445,-3.88055 0,-4.2686 2.15194,-6.98498 2.46944,-3.06916 6.87916,-3.06916 2.22249,0 3.91582,0.77611 1.69333,0.740831 2.92805,2.29305 2.18722,2.78694 2.18722,6.98498 z m 19.89665,9.0311 q 0,0.49388 -0.49389,0.49388 h -1.4111 q -0.49389,0 -0.49389,-0.49388 v -11.11248 q 0,-3.245548 -1.16417,-4.586101 -1.16416,-1.37583 -3.28082,-1.37583 -2.8575,0 -4.37444,1.587496 -1.48166,1.587497 -1.48166,4.444995 v 11.04192 q 0,0.49388 -0.49389,0.49388 h -1.41111 q -0.49388,0 -0.49388,-0.49388 V 99.765336 q 0,-1.516941 -0.0353,-2.363606 0,-0.846665 -0.0706,-1.622774 -0.0353,-0.246944 0.10584,-0.352777 0.17639,-0.141111 0.38805,-0.141111 h 1.27 q 0.49389,0 0.49389,0.493888 v 1.940273 q 0.98777,-1.516941 2.3636,-2.222495 1.41111,-0.705554 3.84527,-0.705554 3.35138,0 5.04471,1.940274 1.69333,1.940273 1.69333,5.468046 z m 17.14499,-9.45443 h -0.67028 q -1.97555,-0.0705 -3.52777,0.17639 -1.51694,0.21167 -2.53999,0.59972 -1.48166,0.52917 -2.2225,1.5875 -0.74083,1.02305 -0.74083,2.46944 0,0.88194 0.28222,1.65805 0.28223,0.74083 0.88195,1.16416 1.05833,0.84667 2.82221,0.84667 1.23472,0 2.25777,-0.49389 1.05834,-0.49389 1.83445,-1.41111 0.7761,-0.91722 1.19944,-2.25777 0.42333,-1.37583 0.42333,-3.13972 z m -10.05414,-6.173595 q -0.17639,0.105833 -0.35278,0.07055 -0.14111,-0.07055 -0.14111,-0.246944 v -1.340552 q 0,-0.493888 0.49389,-0.740832 1.23471,-0.670276 2.61055,-0.91722 1.4111,-0.282222 3.06915,-0.282222 3.52777,0 5.15055,1.69333 1.62277,1.658052 1.62277,5.04471 v 8.8547 q 0,1.05833 0.0353,1.905 0.0353,0.81139 0.10583,1.5875 0,0.49388 -0.49388,0.49388 h -1.27 q -0.49389,0 -0.49389,-0.49388 v -2.71639 q -0.74083,1.79916 -2.50472,2.78694 -1.7286,0.98778 -3.77471,0.98778 -3.56305,0 -5.2211,-2.08139 -0.56444,-0.70555 -0.84666,-1.62277 -0.28223,-0.9525 -0.28223,-1.86972 0,-2.15194 0.98778,-3.70416 1.02305,-1.55222 3.10444,-2.32833 2.53999,-0.91722 7.79637,-0.91722 h 0.45861 v -1.05833 q 0,-2.222493 -1.02305,-3.386657 -0.98778,-1.164164 -3.35139,-1.164164 -1.58749,0 -2.9986,0.352777 -1.41111,0.317499 -2.6811,1.093609 z m 34.39575,0.952497 q 0,-1.658051 -0.95249,-2.681105 v 0.03528 q -0.88195,-0.705554 -2.08139,-0.705554 -2.01083,0 -3.84527,2.116662 -2.0461,2.434157 -2.01083,5.573877 0.0353,1.69333 0.74084,2.64583 0.74083,0.95249 1.97555,0.95249 1.23472,0 2.39888,-0.74083 1.16416,-0.74083 2.08139,-2.0461 0.81138,-1.23472 1.23471,-2.54 0.45861,-1.34055 0.45861,-2.610548 z m 9.56026,-0.14111 q 0,4.409708 -3.10444,7.549428 -2.61055,2.75166 -5.39748,2.75166 -2.64583,0 -2.96333,-2.36361 -0.98778,1.12889 -2.18722,1.76389 -1.19944,0.59972 -2.57527,0.59972 -2.18722,0 -3.6336,-1.62277 -1.44639,-1.65806 -1.44639,-3.98638 0,-3.915829 2.43416,-6.879156 2.50472,-3.245548 6.27943,-3.245548 2.82222,0 4.16277,2.928049 0.17639,-0.529165 0.38806,-1.128886 0.24694,-0.634999 0.42333,-1.164164 h 2.39888 l -3.28082,10.159975 q -0.35278,1.05833 -0.35278,1.76389 0,0.95249 0.84666,0.95249 2.18722,0 3.77472,-2.39888 1.7286,-2.39888 1.7286,-5.679708 0,-4.092213 -3.28082,-6.667485 -3.17499,-2.363606 -7.58471,-2.363606 -4.76249,0 -8.00803,3.174993 -3.13972,3.21027 -3.13972,8.043316 0,4.97415 3.13972,8.18443 3.24554,3.17499 8.00803,3.17499 6.4911,0 9.94831,-4.16277 h 2.29305 q -1.83444,3.03388 -5.04471,4.72721 -3.17499,1.65805 -7.19665,1.65805 -3.10443,0 -5.67971,-1.09361 -2.57527,-1.12888 -4.48026,-3.17499 -1.69333,-1.90499 -2.57528,-4.2686 -0.88194,-2.36361 -0.88194,-4.97416 0,-5.432761 3.45722,-9.313308 3.77471,-4.198046 10.15997,-4.198046 2.64583,0 4.93888,0.740832 2.32833,0.705553 4.19805,2.151939 2.01083,1.552219 3.10443,3.704158 1.12889,2.116662 1.12889,4.656657 z m 20.31995,14.816638 q 0,0.49388 -0.49389,0.49388 h -1.41111 q -0.49389,0 -0.49389,-0.49388 v -10.86554 q 0,-1.69333 -0.31749,-2.85749 -0.28223,-1.199441 -0.84667,-1.904995 -0.56444,-0.740832 -1.37583,-1.058331 -0.81139,-0.3175 -1.79916,-0.3175 -2.89277,0 -4.44499,1.375831 -1.51694,1.37583 -1.51694,3.809995 v 11.81803 q 0,0.49388 -0.49389,0.49388 h -1.41111 q -0.49389,0 -0.49389,-0.49388 V 86.783143 q 0,-0.493888 0.49389,-0.493888 h 1.41111 q 0.49389,0 0.49389,0.493888 v 10.230532 q 0.98777,-1.128886 2.43416,-1.622774 1.48166,-0.529165 3.66888,-0.529165 3.42194,0 5.00943,2.010828 1.5875,2.010829 1.5875,6.103046 z m 17.14499,-9.45443 h -0.67028 q -1.97555,-0.0705 -3.52777,0.17639 -1.51694,0.21167 -2.53999,0.59972 -1.48167,0.52917 -2.2225,1.5875 -0.74083,1.02305 -0.74083,2.46944 0,0.88194 0.28222,1.65805 0.28222,0.74083 0.88194,1.16416 1.05833,0.84667 2.82222,0.84667 1.23472,0 2.25777,-0.49389 1.05833,-0.49389 1.83444,-1.41111 0.77611,-0.91722 1.19944,-2.25777 0.42334,-1.37583 0.42334,-3.13972 z m -10.05415,-6.173595 q -0.17639,0.105833 -0.35278,0.07055 -0.14111,-0.07055 -0.14111,-0.246944 v -1.340552 q 0,-0.493888 0.49389,-0.740832 1.23472,-0.670276 2.61055,-0.91722 1.41111,-0.282222 3.06916,-0.282222 3.52777,0 5.15054,1.69333 1.62278,1.658052 1.62278,5.04471 v 8.8547 q 0,1.05833 0.0353,1.905 0.0353,0.81139 0.10583,1.5875 0,0.49388 -0.49389,0.49388 h -1.27 q -0.49388,0 -0.49388,-0.49388 v -2.71639 q -0.74083,1.79916 -2.50472,2.78694 -1.72861,0.98778 -3.77471,0.98778 -3.56305,0 -5.2211,-2.08139 -0.56445,-0.70555 -0.84667,-1.62277 -0.28222,-0.9525 -0.28222,-1.86972 0,-2.15194 0.98778,-3.70416 1.02305,-1.55222 3.10443,-2.32833 2.54,-0.91722 7.79638,-0.91722 h 0.45861 v -1.05833 q 0,-2.222493 -1.02306,-3.386657 -0.98777,-1.164164 -3.35138,-1.164164 -1.5875,0 -2.9986,0.352777 -1.41111,0.317499 -2.68111,1.093609 z m 30.65632,16.263015 q -1.05833,0.17639 -2.0461,0.24695 -0.98778,0.0705 -2.36361,0.0705 -2.18722,0 -3.91582,-0.77611 -1.69333,-0.77611 -2.89277,-2.11666 -1.16417,-1.34055 -1.79917,-3.17499 -0.63499,-1.83444 -0.63499,-3.9511 0,-2.15194 0.67027,-3.95111 0.67028,-1.834436 1.905,-3.139711 1.26999,-1.340552 2.9986,-2.081384 1.76389,-0.776109 3.9511,-0.776109 1.16417,0 2.11667,0.105833 0.95249,0.07055 2.0461,0.317499 0.49389,0.141111 0.45861,0.670276 l -0.10583,1.128887 q -0.0706,0.423332 -0.52917,0.317499 -0.91722,-0.282222 -1.76388,-0.388055 -0.84667,-0.141111 -1.86972,-0.141111 -1.79916,0 -3.17499,0.599721 -1.34055,0.564443 -2.25777,1.622774 -0.91722,1.058331 -1.37584,2.539991 -0.45861,1.44639 -0.45861,3.175 0,1.58749 0.45861,3.03388 0.49389,1.44638 1.37584,2.57527 0.91722,1.09361 2.18721,1.76389 1.30528,0.63499 2.96333,0.63499 1.23472,0 2.04611,-0.10583 0.81138,-0.10583 1.83444,-0.38805 0.52916,-0.14111 0.56444,0.24694 l 0.10583,1.30528 q 0.0353,0.52916 -0.49389,0.63499 z m 11.11246,-10.72442 7.61998,10.08943 q 0.10584,0.17638 0.0706,0.35277 -0.0353,0.14111 -0.24695,0.14111 h -1.51694 q -0.35277,0 -0.635,-0.10583 -0.28222,-0.10583 -0.45861,-0.38805 l -6.34998,-8.3961 -2.36361,2.64583 v 5.75027 q 0,0.49388 -0.49388,0.49388 h -1.41111 q -0.49389,0 -0.49389,-0.49388 V 86.783143 q 0,-0.493888 0.49389,-0.493888 h 1.41111 q 0.49388,0 0.49388,0.493888 v 18.379677 l 8.04332,-9.383864 q 0.49389,-0.493888 1.16416,-0.493888 h 1.65805 q 0.21167,0 0.28223,0.176388 0.0705,0.141111 -0.10584,0.3175 z m 23.84774,-0.28222 q 0,-1.44638 -0.28222,-2.57527 -0.28222,-1.128887 -0.88194,-2.046107 -1.30528,-2.081384 -3.77472,-2.081384 -2.53999,0 -4.12749,2.116662 -0.63499,0.952498 -1.05833,2.187219 -0.42333,1.23472 -0.45861,2.39888 z m -10.58331,2.01083 q -0.0353,1.76389 0.38806,3.13972 0.45861,1.34055 1.30527,2.25777 0.84667,0.91722 2.01083,1.41111 1.19944,0.49388 2.64583,0.49388 1.41111,0 2.64583,-0.24694 1.23472,-0.28222 2.29305,-0.88194 0.45861,-0.21167 0.45861,0.24694 v 1.5875 q 0,0.3175 -0.38806,0.49389 -1.16416,0.45861 -2.43416,0.67027 -1.27,0.24695 -2.75166,0.24695 -4.33916,0 -6.56165,-2.50472 -2.2225,-2.53999 -2.2225,-7.61998 0,-4.48027 2.2225,-7.231932 2.32833,-2.786938 5.89137,-2.786938 1.97555,0 3.42194,0.705554 1.44639,0.705554 2.46944,2.116662 1.79916,2.504714 1.79916,6.702764 0,0.45861 -0.0353,0.70555 0,0.24695 -0.10583,0.35278 -0.10583,0.10583 -0.38805,0.14111 -0.24695,0 -0.74084,0 z m 26.98745,-8.078592 q -0.635,-0.211667 -1.69333,-0.211667 -2.61055,0 -3.88055,2.575272 -0.98778,2.010827 -0.98778,5.150547 v 8.92526 q 0,0.49388 -0.49388,0.49388 h -1.37583 q -0.49389,0 -0.49389,-0.49388 V 99.553669 q 0,-1.269997 -0.0353,-2.046106 0,-0.811387 -0.0353,-1.728607 0,-0.493888 0.49389,-0.493888 h 1.30527 q 0.49389,0 0.49389,0.493888 v 3.457214 q 1.72861,-4.44499 5.07999,-4.44499 0.81139,0 1.62278,0.211666 0.21166,0.07056 0.35277,0.246944 0.17639,0.141111 0.17639,0.423333 v 1.481663 q 0,0.211666 -0.17639,0.282222 -0.17639,0.07055 -0.35277,0 z m 2.89278,14.604962 q 2.15194,0.88195 4.44499,0.88195 1.90499,0 3.13971,-0.91722 1.23472,-0.9525 1.23472,-2.54 0,-0.91722 -0.70555,-1.76388 -0.67028,-0.88194 -1.65805,-1.44639 -1.09361,-0.59972 -2.25778,-1.12888 -1.12888,-0.56445 -2.18721,-1.16417 -1.27,-0.70555 -1.86972,-1.72861 -0.59972,-1.05833 -0.59972,-2.18721 0,-1.305278 0.49389,-2.293053 0.49388,-0.987776 1.34055,-1.658052 0.84666,-0.670276 1.97555,-0.987776 1.12889,-0.317499 2.39888,-0.317499 1.34056,0 2.32833,0.141111 0.98778,0.141111 1.97555,0.423332 0.21167,0.07056 0.35278,0.211667 0.17639,0.14111 0.14111,0.388054 l -0.10583,1.058331 q -0.0353,0.282222 -0.21167,0.352777 -0.17639,0.07056 -0.35278,0 -0.88194,-0.317499 -1.76388,-0.423332 -0.88194,-0.141111 -2.11666,-0.141111 -4.09222,0 -4.09222,3.245551 0,0.70555 0.52917,1.34055 0.56444,0.635 1.86972,1.27 1.12888,0.56444 2.22249,1.09361 1.09361,0.49388 2.36361,1.19944 1.09361,0.59972 1.79916,1.83444 0.74083,1.23472 0.74083,2.6811 0,1.41111 -0.56444,2.43416 -0.56444,1.02306 -1.51694,1.69333 -0.9525,0.67028 -2.18722,0.98778 -1.23472,0.35278 -2.53999,0.35278 -0.77611,0 -1.41111,-0.0353 -0.59972,-0.0353 -1.16416,-0.10583 -0.52917,-0.0706 -1.09361,-0.17639 -0.56445,-0.10584 -1.19945,-0.28222 -0.49388,-0.17639 -0.45861,-0.635 l 0.14112,-1.30528 q 0.0706,-0.56444 0.56444,-0.35278 z m 16.43943,2.2225 q 0,-0.74083 0.49388,-1.23472 0.52917,-0.52917 1.27,-0.52917 0.74083,0 1.23472,0.52917 0.52917,0.49389 0.52917,1.23472 0,0.74083 -0.52917,1.23472 -0.49389,0.52916 -1.23472,0.52916 -0.74083,0 -1.27,-0.52916 -0.49388,-0.49389 -0.49388,-1.23472 z m 23.35381,-9.70137 q 0,-1.44638 -0.28222,-2.78694 -0.28223,-1.37583 -0.9525,-2.434157 -0.67028,-1.058331 -1.72861,-1.693329 -1.05833,-0.670277 -2.64583,-0.670277 -1.44638,0 -2.50471,0.599721 -1.05833,0.599721 -1.76389,1.658052 -0.67027,1.02305 -1.02305,2.39888 -0.35278,1.37583 -0.35278,2.92805 0,4.09222 1.51694,6.20888 1.55222,2.08138 4.12749,2.08138 1.34056,0 2.36361,-0.56444 1.05833,-0.59972 1.76388,-1.69333 0.74084,-1.09361 1.09361,-2.61055 0.38806,-1.51694 0.38806,-3.42194 z M 514.5607,95.778956 q 0,-0.493888 0.49388,-0.493888 h 1.34056 q 0.49388,0 0.49388,0.493888 l -0.17639,2.645827 q 0.70556,-1.552219 2.36361,-2.504717 1.69333,-0.952497 3.91583,-0.952497 2.08138,0 3.52777,0.740831 1.48166,0.740832 2.39888,2.046107 0.9525,1.269997 1.37583,3.033883 0.45861,1.76388 0.45861,3.77471 0,2.18722 -0.52917,4.05694 -0.49388,1.86972 -1.48166,3.24555 -0.9525,1.37583 -2.39888,2.18721 -1.44639,0.77611 -3.35138,0.77611 -2.15194,0 -3.70416,-0.81138 -1.55222,-0.84667 -2.36361,-2.32833 v 7.5847 q 0,0.49389 -0.49389,0.49389 h -1.34055 q -0.21167,0 -0.38805,-0.14111 -0.14111,-0.14111 -0.14111,-0.35278 z m 36.97103,18.097464 q 0,0.49388 -0.49388,0.49388 h -1.27 q -0.49389,0 -0.49389,-0.49388 v -2.92805 q -0.91722,2.11666 -2.46944,3.06916 -1.51694,0.91722 -3.84527,0.91722 -6.59693,0 -6.59693,-7.37304 V 95.778956 q 0,-0.493888 0.49389,-0.493888 h 1.41111 q 0.49389,0 0.49389,0.493888 v 11.147754 q 0,5.99721 4.5861,5.99721 1.34055,0 2.39888,-0.56445 1.09361,-0.59972 1.83444,-1.58749 0.74083,-1.02306 1.12889,-2.36361 0.38805,-1.34055 0.35278,-2.82221 v -9.807204 q 0,-0.493888 0.49388,-0.493888 h 1.41111 q 0.49389,0 0.49389,0.493888 v 14.181634 q 0,1.16416 0,2.08138 0.0353,0.91722 0.0706,1.83445 z m 19.82611,-9.17221 q 0.0353,-1.48166 -0.28222,-2.89277 -0.28222,-1.41111 -0.9525,-2.539992 -0.67027,-1.128886 -1.79916,-1.799163 -1.09361,-0.705554 -2.71638,-0.705554 -1.44639,0 -2.54,0.634999 -1.05833,0.599721 -1.76388,1.693329 -0.70556,1.093611 -1.05833,2.539991 -0.35278,1.44639 -0.35278,3.06916 0,1.5875 0.42333,3.06916 0.45861,1.44639 1.19944,2.54 0.77611,1.09361 1.79917,1.76388 1.05833,0.635 2.29305,0.635 1.62277,0 2.71638,-0.67028 1.12889,-0.70555 1.79916,-1.83444 0.67028,-1.12888 0.9525,-2.57527 0.3175,-1.44638 0.28222,-2.92805 z M 557.52898,86.677309 q 0,-0.493887 0.49389,-0.493887 h 1.37583 q 0.49389,0 0.49389,0.493887 v 11.253586 q 0.88194,-1.446385 2.50472,-2.29305 1.62277,-0.881943 3.6336,-0.881943 7.86693,0 7.86693,9.948308 0.0353,1.97555 -0.42334,3.80999 -0.42333,1.79917 -1.4111,3.175 -0.98778,1.37583 -2.50472,2.22249 -1.48166,0.81139 -3.52777,0.81139 -4.23332,0 -6.13832,-3.59833 v 2.75167 q 0,0.49388 -0.49389,0.49388 h -1.37583 q -0.49389,0 -0.49389,-0.49388 z m 19.96722,32.420201 q -0.3175,0 -0.14111,-0.24694 2.75166,-4.33916 4.12749,-8.46665 1.41111,-4.12749 1.41111,-8.18442 0,-4.021661 -1.37583,-8.149152 -1.37583,-4.162768 -4.12749,-8.501925 -0.10583,-0.176388 -0.10583,-0.211666 0,-0.03528 0.17638,-0.03528 h 0.98778 q 0.17639,0 0.21167,0.03528 0.0706,0 0.24694,0.176388 3.21027,4.056936 4.72721,8.184426 1.55222,4.127491 1.55222,8.501929 0,4.40971 -1.55222,8.5372 -1.51694,4.12749 -4.72721,8.14915 -0.17639,0.17639 -0.24694,0.17639 -0.0353,0.0353 -0.28223,0.0353 z"
         id="path3" />
    </g>
  </g>
</svg>
