<?xml version="1.0" encoding="UTF-8" standalone="no"?>
<!-- Created with Inkscape (http://www.inkscape.org/) -->

<svg
   width="434.16293mm"
   height="118.39193mm"
   viewBox="0 0 434.16293 118.39193"
   version="1.1"
   id="svg1"
   xmlns="http://www.w3.org/2000/svg"
   xmlns:svg="http://www.w3.org/2000/svg">
  <defs
     id="defs1" />
  <g
     id="layer1"
     transform="translate(5.7220459e-8,-250.00009)">
    <g
       id="text3"
       style="font-size:35.2777px;font-family:NanumGothic;-inkscape-font-specification:NanumGothic;fill:#ffffff;fill-rule:evenodd;stroke:#ffffff;stroke-width:0;stroke-linecap:round;stroke-linejoin:round"
       aria-label="2025. 09. 14. 15:00 KST&#10;서울특별시 성동구 상원길 26&#10;튜링의 사과">
      <path
         d="m 2.1166619,276.77579 q -0.3880547,0 -0.5997209,-0.0353 -0.1763885,0 -0.2822216,-0.0706 -0.070555,-0.10583 -0.1058331,-0.28222 0,-0.21167 0,-0.59972 l 0.035278,-0.77611 q 0,-0.45861 0.2822216,-0.74083 l 5.8208202,-6.42054 q 6.4910959,-7.02026 6.4910959,-10.65387 0,-2.11666 -1.411108,-3.52777 -1.37583,-1.37583 -3.421936,-1.37583 -2.8574936,0 -5.9619311,1.5875 -0.4938878,0.24694 -0.5644432,-0.21167 l -0.2116661,-1.16416 q -0.1058331,-0.59972 0.3527769,-0.74083 1.7991627,-0.81139 3.2455483,-1.19944 1.4463856,-0.38806 2.9633267,-0.38806 3.3866585,0 5.3974875,1.69333 2.257773,1.83444 2.257773,5.2211 0,1.30527 -0.634999,2.85749 -0.634998,1.55222 -1.763885,3.24555 -0.705554,0.98778 -2.010829,2.57527 -1.269997,1.5875 -2.9280482,3.38666 -1.2347195,1.34056 -2.4694389,2.71639 -1.1994418,1.37583 -2.4341612,2.71638 H 16.509963 q 0.493888,0 0.493888,0.49389 v 1.19944 q 0,0.49389 -0.493888,0.49389 z M 37.218003,263.58193 q 0,-11.0772 -6.067764,-11.0772 -6.067764,0 -6.067764,11.0772 0,11.11247 6.067764,11.11247 6.067764,0 6.067764,-11.11247 z m 2.539995,0 q 0,13.33497 -8.607759,13.33497 -8.678314,0 -8.678314,-13.33497 0,-5.5386 1.69333,-8.99582 2.15194,-4.33915 6.984984,-4.33915 4.76249,0 6.949707,4.33915 0.811387,1.72861 1.234719,3.95111 0.423333,2.22249 0.423333,5.04471 z m 5.115298,13.19386 q -0.388055,0 -0.599721,-0.0353 -0.176389,0 -0.282222,-0.0706 -0.07055,-0.10583 -0.105833,-0.28222 0,-0.21167 0,-0.59972 l 0.03528,-0.77611 q 0,-0.45861 0.282221,-0.74083 l 5.820821,-6.42054 q 6.491096,-7.02026 6.491096,-10.65387 0,-2.11666 -1.411108,-3.52777 -1.37583,-1.37583 -3.421937,-1.37583 -2.857493,0 -5.961931,1.5875 -0.493887,0.24694 -0.564443,-0.21167 l -0.211666,-1.16416 q -0.105833,-0.59972 0.352777,-0.74083 1.799163,-0.81139 3.245548,-1.19944 1.446386,-0.38806 2.963327,-0.38806 3.386659,0 5.397488,1.69333 2.257773,1.83444 2.257773,5.2211 0,1.30527 -0.634999,2.85749 -0.634999,1.55222 -1.763885,3.24555 -0.705554,0.98778 -2.010829,2.57527 -1.269997,1.5875 -2.928049,3.38666 -1.234719,1.34056 -2.469439,2.71639 -1.199441,1.37583 -2.434161,2.71638 h 12.347195 q 0.493887,0 0.493887,0.49389 v 1.19944 q 0,0.49389 -0.493887,0.49389 z m 22.260257,-0.52917 q -0.493888,-0.17639 -0.493888,-0.635 v -1.48166 q 0,-0.59972 0.493888,-0.35278 1.269997,0.59972 2.469439,0.84667 1.234719,0.24694 2.681105,0.24694 3.104438,0 5.044711,-1.51694 2.116662,-1.62278 2.116662,-4.65666 0,-5.96193 -6.808596,-5.96193 -1.340553,0 -2.434161,0.14111 -1.058331,0.14111 -2.363606,0.49389 -0.388055,0.10583 -0.634999,-0.0706 -0.246943,-0.21166 -0.246943,-0.59972 l 0.211666,-11.25358 q 0,-0.74083 0.105833,-0.84667 0.141111,-0.14111 0.881942,-0.14111 h 12.064973 q 0.493888,0 0.493888,0.49389 v 1.16416 q 0,0.49389 -0.493888,0.49389 H 69.567714 q -0.03528,2.2225 -0.105833,4.33916 -0.03528,2.11666 -0.07055,4.33916 1.728607,-0.67028 4.198046,-0.67028 3.704158,0 5.997209,2.01083 2.29305,2.08138 2.29305,5.57387 0,4.26861 -2.645827,6.59693 -2.539995,2.2225 -6.949707,2.2225 -1.587496,0 -2.75166,-0.17639 -1.164165,-0.17639 -2.398884,-0.59972 z m 21.131375,0.28222 q 0,-0.74083 0.493888,-1.23472 0.529165,-0.52916 1.269997,-0.52916 0.740832,0 1.234719,0.52916 0.529166,0.49389 0.529166,1.23472 0,0.74083 -0.529166,1.23472 -0.493887,0.52917 -1.234719,0.52917 -0.740832,0 -1.269997,-0.52917 -0.493888,-0.49389 -0.493888,-1.23472 z m 33.654932,-12.94691 q 0,-11.0772 -6.06777,-11.0772 -6.06776,0 -6.06776,11.0772 0,11.11247 6.06776,11.11247 6.06777,0 6.06777,-11.11247 z m 2.53999,0 q 0,13.33497 -8.60776,13.33497 -8.67831,0 -8.67831,-13.33497 0,-5.5386 1.69333,-8.99582 2.15194,-4.33915 6.98498,-4.33915 4.76249,0 6.94971,4.33915 0.81139,1.72861 1.23472,3.95111 0.42333,2.22249 0.42333,5.04471 z m 18.45027,-4.5861 q 0,-2.75167 -1.48166,-4.62138 -1.62278,-2.01083 -4.30388,-2.01083 -2.8575,0 -4.48027,1.79916 -1.5875,1.69333 -1.5875,4.51555 0,2.9986 1.44639,4.65665 h -0.0353 q 1.51694,1.62278 4.30388,1.62278 2.89277,0 4.51555,-1.62278 1.62277,-1.69333 1.62277,-4.33915 z m -12.91164,17.53301 q -0.52916,-0.10583 -0.45861,-0.81139 l 0.10584,-1.23471 q 0.0705,-0.42334 0.56444,-0.21167 0.88194,0.35278 1.76388,0.49389 0.91722,0.14111 2.04611,0.14111 2.46944,0 4.30388,-0.9525 1.83444,-0.98778 2.9986,-2.78694 1.76389,-2.96333 1.83444,-7.51415 -2.15194,3.45722 -6.38526,3.45722 -3.24555,0 -5.43276,-1.65806 -2.78694,-2.15194 -2.78694,-6.59693 0,-3.91582 2.29305,-6.24415 2.32833,-2.43416 6.34998,-2.43416 8.46665,0 8.46665,12.48831 0,14.35802 -11.88858,14.35802 -1.62278,0 -3.77472,-0.49389 z m 21.58999,0 q 0,-0.74083 0.49389,-1.23472 0.52916,-0.52916 1.26999,-0.52916 0.74083,0 1.23472,0.52916 0.52917,0.49389 0.52917,1.23472 0,0.74083 -0.52917,1.23472 -0.49389,0.52917 -1.23472,0.52917 -0.74083,0 -1.26999,-0.52917 -0.49389,-0.49389 -0.49389,-1.23472 z m 29.77439,-0.24694 q 0,0.49389 -0.49389,0.49389 h -1.44639 q -0.49388,0 -0.49388,-0.49389 v -22.93051 q -1.09361,0.91722 -2.04611,1.72861 -0.9525,0.81139 -2.01083,1.72861 -0.38805,0.3175 -0.70555,-0.0706 l -0.70556,-0.84666 q -0.10583,-0.17639 -0.10583,-0.35278 0,-0.21167 0.17639,-0.35278 l 5.46804,-4.5861 q 0.14111,-0.14111 0.42333,-0.14111 h 0.9525 q 0.74083,0 0.84667,0.14111 0.14111,0.10584 0.14111,0.84667 z m 22.1897,-7.86693 v -15.73385 q -2.61055,3.9511 -5.18583,7.86692 -2.57527,3.91583 -5.2211,7.86693 z m 2.39888,7.86693 q 0,0.49389 -0.49389,0.49389 h -1.41111 q -0.49388,0 -0.49388,-0.49389 v -5.71499 h -11.64165 q -0.74083,0 -0.88194,-0.10583 -0.10583,-0.14111 -0.10583,-0.88195 v -1.0936 q 0,-0.3175 0.0353,-0.42334 0.0353,-0.10583 0.21166,-0.38805 l 11.25359,-16.79219 q 0.21166,-0.31749 0.28222,-0.35277 0.10583,-0.0706 0.49389,-0.0706 h 1.76388 q 0.74083,0 0.84667,0.14111 0.14111,0.10584 0.14111,0.84667 v 16.96857 h 3.49249 q 0.49389,0 0.49389,0.49389 v 1.16416 q 0,0.49389 -0.49389,0.49389 h -3.49249 z m 8.96056,0.24694 q 0,-0.74083 0.49389,-1.23472 0.52916,-0.52916 1.26999,-0.52916 0.74084,0 1.23472,0.52916 0.52917,0.49389 0.52917,1.23472 0,0.74083 -0.52917,1.23472 -0.49388,0.52917 -1.23472,0.52917 -0.74083,0 -1.26999,-0.52917 -0.49389,-0.49389 -0.49389,-1.23472 z m 29.77439,-0.24694 q 0,0.49389 -0.49389,0.49389 h -1.44638 q -0.49389,0 -0.49389,-0.49389 v -22.93051 q -1.09361,0.91722 -2.04611,1.72861 -0.9525,0.81139 -2.01083,1.72861 -0.38805,0.3175 -0.70555,-0.0706 l -0.70556,-0.84666 q -0.10583,-0.17639 -0.10583,-0.35278 0,-0.21167 0.17639,-0.35278 l 5.46804,-4.5861 q 0.14111,-0.14111 0.42334,-0.14111 h 0.95249 q 0.74083,0 0.84667,0.14111 0.14111,0.10584 0.14111,0.84667 z m 12.41777,-0.0353 q -0.49388,-0.17639 -0.49388,-0.635 v -1.48166 q 0,-0.59972 0.49388,-0.35278 1.27,0.59972 2.46944,0.84667 1.23472,0.24694 2.68111,0.24694 3.10444,0 5.04471,-1.51694 2.11666,-1.62278 2.11666,-4.65666 0,-5.96193 -6.80859,-5.96193 -1.34056,0 -2.43417,0.14111 -1.05833,0.14111 -2.3636,0.49389 -0.38806,0.10583 -0.635,-0.0706 -0.24694,-0.21166 -0.24694,-0.59972 l 0.21166,-11.25358 q 0,-0.74083 0.10584,-0.84667 0.14111,-0.14111 0.88194,-0.14111 h 12.06497 q 0.49389,0 0.49389,0.49389 v 1.16416 q 0,0.49389 -0.49389,0.49389 h -10.65386 q -0.0353,2.2225 -0.10584,4.33916 -0.0353,2.11666 -0.0705,4.33916 1.7286,-0.67028 4.19804,-0.67028 3.70416,0 5.99721,2.01083 2.29305,2.08138 2.29305,5.57387 0,4.26861 -2.64582,6.59693 -2.54,2.2225 -6.94971,2.2225 -1.5875,0 -2.75166,-0.17639 -1.16417,-0.17639 -2.39889,-0.59972 z m 20.88444,-20.5669 q 0,-0.81139 0.59972,-1.41111 0.59973,-0.59972 1.41111,-0.59972 0.81139,0 1.41111,0.59972 0.59972,0.59972 0.59972,1.41111 0,0.81139 -0.59972,1.41111 -0.59972,0.59972 -1.41111,0.59972 -0.81138,0 -1.41111,-0.59972 -0.59972,-0.59972 -0.59972,-1.41111 z m 0,15.91024 q 0,-0.81138 0.59972,-1.4111 0.59973,-0.59973 1.41111,-0.59973 0.81139,0 1.41111,0.59973 0.59972,0.59972 0.59972,1.4111 0,0.81139 -0.59972,1.41111 -0.59972,0.59972 -1.41111,0.59972 -0.81138,0 -1.41111,-0.59972 -0.59972,-0.59972 -0.59972,-1.41111 z m 24.02409,-8.00803 q 0,-11.0772 -6.06776,-11.0772 -6.06777,0 -6.06777,11.0772 0,11.11247 6.06777,11.11247 6.06776,0 6.06776,-11.11247 z m 2.54,0 q 0,13.33497 -8.60776,13.33497 -8.67832,0 -8.67832,-13.33497 0,-5.5386 1.69333,-8.99582 2.15194,-4.33915 6.98499,-4.33915 4.76249,0 6.9497,4.33915 0.81139,1.72861 1.23472,3.95111 0.42334,2.22249 0.42334,5.04471 z m 18.83833,0 q 0,-11.0772 -6.06777,-11.0772 -6.06776,0 -6.06776,11.0772 0,11.11247 6.06776,11.11247 6.06777,0 6.06777,-11.11247 z m 2.53999,0 q 0,13.33497 -8.60776,13.33497 -8.67831,0 -8.67831,-13.33497 0,-5.5386 1.69333,-8.99582 2.15194,-4.33915 6.98498,-4.33915 4.76249,0 6.94971,4.33915 0.81139,1.72861 1.23472,3.95111 0.42333,2.22249 0.42333,5.04471 z m 21.73113,0.0706 -3.45722,4.05694 v 8.43137 q 0,0.49388 -0.49389,0.49388 h -1.55221 q -0.49389,0 -0.49389,-0.49388 V 251.0231 q 0,-0.49389 0.49389,-0.49389 h 1.55221 q 0.49389,0 0.49389,0.49389 v 13.4408 l 10.90081,-13.4408 q 0.49389,-0.49389 1.19944,-0.49389 h 1.97555 q 0.21167,0 0.24695,0.17639 0.0706,0.14111 -0.10584,0.3175 l -9.10164,10.68914 9.94831,14.42858 q 0.3175,0.49388 -0.14111,0.49388 h -1.905 q -0.35277,0 -0.635,-0.10583 -0.28222,-0.10583 -0.45861,-0.38805 z m 15.73385,12.62942 q -0.56444,-0.17639 -0.45861,-0.635 l 0.14111,-1.62277 q 0.0706,-0.28223 0.21167,-0.38806 0.17639,-0.10583 0.38805,0.0353 1.23472,0.67027 2.46944,0.98777 1.27,0.28223 2.89277,0.28223 2.57528,0 4.19805,-1.41111 1.65805,-1.41111 1.65805,-3.98638 0,-1.02306 -0.81139,-2.04611 -0.7761,-1.02305 -2.18721,-1.94027 -1.23472,-0.77611 -2.78694,-1.62278 -1.55222,-0.84666 -2.96333,-1.83444 -1.41111,-1.02305 -2.3636,-2.25777 -0.9525,-1.27 -0.9525,-2.92805 0,-1.69333 0.70555,-2.96333 0.70556,-1.30527 1.86972,-2.15194 1.19944,-0.88194 2.71638,-1.34055 1.51694,-0.45861 3.10444,-0.45861 1.37583,0 2.43416,0.17639 1.05833,0.14111 2.29305,0.52917 0.52917,0.17638 0.42333,0.63499 l -0.28222,1.37584 q -0.10583,0.59972 -0.59972,0.31749 -0.98777,-0.45861 -1.94027,-0.59972 -0.91722,-0.17638 -2.36361,-0.17638 -1.16416,0 -2.22249,0.28222 -1.02306,0.28222 -1.79916,0.84666 -0.74084,0.56444 -1.19945,1.41111 -0.45861,0.84666 -0.45861,2.01083 0,0.91722 0.59972,1.72861 0.635,0.81138 1.51695,1.51694 0.91722,0.70555 1.94027,1.30527 1.05833,0.56444 1.90499,1.05833 1.16417,0.67028 2.25778,1.37583 1.09361,0.70556 1.94027,1.5875 0.84667,0.88194 1.37583,1.94027 0.52917,1.05833 0.52917,2.43416 0,1.76389 -0.74084,3.13972 -0.70555,1.37583 -1.90499,2.32833 -1.19944,0.95249 -2.78694,1.44638 -1.55222,0.52917 -3.24555,0.52917 -1.55222,0 -2.78694,-0.21167 -1.19944,-0.21166 -2.71638,-0.70555 z m 27.26967,-23.5655 v 23.42439 q 0,0.49388 -0.49389,0.49388 h -1.62278 q -0.49388,0 -0.49388,-0.49388 V 252.7164 h -7.26721 q -0.49389,0 -0.49389,-0.49389 v -1.19944 q 0,-0.49389 0.49389,-0.49389 h 17.21552 q 0.49388,0 0.49388,0.49389 v 1.19944 q 0,0.49389 -0.49388,0.49389 z"
         id="path7" />
      <path
         d="m 27.340216,323.65985 q 0,0.49388 -0.493887,0.49388 h -1.446386 q -0.493888,0 -0.493888,-0.49388 v -18.41496 h -7.725816 q -0.45861,0 -0.45861,-0.42333 v -1.27 q 0,-0.42333 0.45861,-0.42333 h 7.725816 v -11.00665 q 0,-0.49388 0.493888,-0.49388 h 1.446386 q 0.493887,0 0.493887,0.49388 z m -15.592742,-29.7391 q 0,2.32833 -0.211667,4.48026 -0.176388,2.11667 -0.599721,4.09222 0.352777,1.41111 1.093609,2.9986 0.740832,1.55222 1.728607,3.10444 1.023054,1.55222 2.257773,3.03388 1.269997,1.44639 2.681105,2.61055 0.176389,0.14111 0.176389,0.35278 0.03528,0.21166 -0.07056,0.35278 l -0.881942,1.0936 q -0.317499,0.38806 -0.740832,0 -0.987775,-0.84666 -2.046106,-2.01082 -1.023054,-1.19945 -2.010829,-2.50472 -0.952498,-1.30528 -1.799163,-2.68111 -0.846665,-1.37583 -1.4463855,-2.64582 -1.1288863,3.21027 -2.9633266,5.92665 -1.8344404,2.6811 -4.3744347,5.00943 -0.3527769,0.28222 -0.5997208,0.0353 l -1.05833099,-1.09361 q -0.1058331,-0.10583 -0.1058331,-0.28222 0.0352777,-0.17639 0.21166619,-0.35278 2.1519396,-2.0461 3.739436,-4.30388 1.5874965,-2.25777 2.575272,-4.86832 1.0230533,-2.61055 1.4816634,-5.67971 0.4938878,-3.06916 0.4938878,-6.73804 0,-0.24694 0.105833,-0.35278 0.1411108,-0.14111 0.3174993,-0.14111 l 1.658052,0.0706 q 0.388055,0 0.388055,0.49389 z m 51.928792,11.57108 q 0.176388,0 0.352777,0.14111 0.176388,0.10584 0.176388,0.3175 v 1.19944 q 0,0.17639 -0.176388,0.3175 -0.176389,0.14111 -0.352777,0.14111 H 49.847408 v 3.52777 h 6.596929 q 0.846665,0 1.375831,0.14111 0.529165,0.10584 0.846664,0.38806 0.3175,0.28222 0.423333,0.81139 0.141111,0.49388 0.141111,1.23472 v 2.25777 q 0,1.48166 -0.634999,2.01083 -0.599721,0.49389 -2.187217,0.49389 H 41.204372 q -0.493888,0 -0.634999,0.14111 -0.105833,0.14111 -0.105833,0.67027 v 1.79916 q 0,0.49389 0.141111,0.635 0.141111,0.17639 0.634998,0.17639 H 59.47822 q 0.176388,0 0.317499,0.10583 0.176388,0.10584 0.176388,0.28223 v 1.23472 q 0,0.17638 -0.176388,0.28222 -0.141111,0.14111 -0.282222,0.14111 H 40.745762 q -1.658052,0 -2.187218,-0.635 -0.493887,-0.59972 -0.493887,-2.08138 v -2.25778 q 0,-1.48166 0.59972,-1.97555 0.634999,-0.52916 2.222495,-0.52916 h 15.169411 q 0.493888,0 0.634998,-0.14111 0.141111,-0.14112 0.141111,-0.67028 v -1.69333 q 0,-0.52917 -0.141111,-0.67028 -0.105833,-0.14111 -0.599721,-0.14111 H 38.487989 q -0.176389,0 -0.352777,-0.10583 -0.141111,-0.10583 -0.141111,-0.28222 v -1.23472 q 0,-0.17639 0.141111,-0.28222 0.176388,-0.10584 0.352777,-0.10584 h 8.925258 v -3.52777 H 33.690222 q -0.211666,0 -0.388055,-0.14111 -0.141111,-0.14111 -0.141111,-0.3175 v -1.19944 q 0,-0.21166 0.141111,-0.3175 0.176389,-0.14111 0.388055,-0.14111 z m -15.0283,-2.11666 q -1.658052,0 -3.563047,-0.24694 -1.904996,-0.24695 -3.52777,-0.91722 -1.622774,-0.70556 -2.681105,-1.86972 -1.058331,-1.16417 -1.058331,-3.03388 0,-1.83444 1.058331,-2.99861 1.058331,-1.16416 2.681105,-1.83444 1.622774,-0.67027 3.52777,-0.91722 1.904995,-0.28222 3.563047,-0.28222 1.728607,0 3.633603,0.24694 1.904996,0.24695 3.492492,0.91722 1.622774,0.67028 2.645828,1.86972 1.058331,1.16417 1.058331,2.99861 0,1.86971 -1.058331,3.03388 -1.058331,1.16416 -2.681105,1.86972 -1.587497,0.67027 -3.492493,0.91722 -1.904995,0.24694 -3.598325,0.24694 z m 0,-9.94831 q -1.164164,0 -2.61055,0.14111 -1.446385,0.14111 -2.716382,0.56444 -1.269998,0.42334 -2.15194,1.19944 -0.846665,0.77611 -0.846665,2.01083 0,1.23472 0.846665,2.01083 0.881942,0.74083 2.15194,1.16417 1.269997,0.42333 2.716382,0.56444 1.446386,0.14111 2.61055,0.14111 1.128886,0 2.575272,-0.14111 1.446386,-0.14111 2.716383,-0.56444 1.269997,-0.42334 2.151939,-1.16417 0.881943,-0.77611 0.881943,-2.01083 0,-1.23472 -0.881943,-2.01083 -0.881942,-0.7761 -2.151939,-1.19944 -1.269997,-0.42333 -2.716383,-0.56444 -1.446386,-0.14111 -2.575272,-0.14111 z m 43.285756,5.92665 q 0,0.45861 -0.45861,0.45861 H 73.659874 v 2.64583 q 0,0.49389 0.176389,0.70555 0.176388,0.21167 0.670276,0.21167 h 17.674127 q 0.45861,0 0.45861,0.45861 v 1.05833 q 0,0.49389 -0.45861,0.49389 H 73.906818 q -1.552219,0 -2.116662,-0.49389 -0.564443,-0.52916 -0.564443,-2.01083 v -8.11387 q 0,-1.48166 0.564443,-1.97555 0.564443,-0.52916 2.116662,-0.52916 h 18.026904 q 0.45861,0 0.45861,0.45861 v 1.0936 q 0,0.49389 -0.45861,0.49389 H 74.506539 q -0.493888,0 -0.670276,0.21167 -0.176389,0.17639 -0.176389,0.70555 v 2.57527 h 17.77996 q 0.493888,0 0.493888,0.38806 z m -21.448841,15.16941 q 0,-0.21166 0.176389,-0.3175 0.176388,-0.10583 0.352777,-0.10583 h 18.732458 q 1.658052,0 2.151939,0.635 0.529166,0.59972 0.529166,2.04611 v 7.23192 q 0,0.49389 -0.493888,0.49389 h -1.446386 q -0.493887,0 -0.493887,-0.49389 v -7.05554 q 0,-0.49388 -0.176389,-0.59972 -0.141111,-0.14111 -0.634998,-0.14111 H 71.014047 q -0.176389,0 -0.352777,-0.10583 -0.176389,-0.14111 -0.176389,-0.3175 z m 26.352441,-5.75026 q 0.176389,0 0.352777,0.14111 0.176389,0.10583 0.176389,0.3175 v 1.19944 q 0,0.17639 -0.176389,0.3175 -0.176388,0.14111 -0.352777,0.14111 H 66.851278 q -0.211666,0 -0.388054,-0.14111 -0.141111,-0.14111 -0.141111,-0.3175 v -1.19944 q 0,-0.21167 0.141111,-0.3175 0.176388,-0.14111 0.388054,-0.14111 z m 8.149168,-1.16417 q -0.84666,0 -1.37583,-0.10583 -0.49389,-0.10583 -0.77611,-0.38805 -0.28222,-0.3175 -0.38805,-0.77611 -0.10584,-0.49389 -0.10584,-1.23472 v -12.55886 q 0,-0.17639 0.14111,-0.28222 0.14111,-0.14112 0.3175,-0.14112 h 1.51694 q 0.17639,0 0.28223,0.14112 0.14111,0.14111 0.14111,0.28222 v 5.60915 h 10.30108 v -5.57388 q 0,-0.17638 0.10584,-0.31749 0.14111,-0.14112 0.3175,-0.14112 h 1.51694 q 0.17639,0 0.3175,0.14112 0.14111,0.10583 0.14111,0.28222 v 4.05693 h 6.9497 v -4.48027 q 0,-0.49388 0.49389,-0.49388 h 1.44639 q 0.49389,0 0.49389,0.49388 v 16.08663 q 0,0.49389 -0.49389,0.49389 h -1.44639 q -0.49389,0 -0.49389,-0.49389 v -3.80999 h -6.9497 v 0.9525 q 0,1.34055 -0.56445,1.79916 -0.56444,0.45861 -2.11666,0.45861 z m 22.57773,16.22775 q 0,0.17638 -0.17639,0.28222 -0.14111,0.14111 -0.28222,0.14111 h -17.77996 q -1.65805,0 -2.18722,-0.635 -0.49389,-0.59972 -0.49389,-2.08139 v -2.64582 q 0,-1.48167 0.59972,-1.97555 0.635,-0.52917 2.2225,-0.52917 h 14.14636 q 0.49388,0 0.63499,-0.14111 0.14111,-0.14111 0.14111,-0.67028 v -2.01082 q 0,-0.52917 -0.14111,-0.67028 -0.10583,-0.14111 -0.59972,-0.14111 h -16.58052 q -0.17638,0 -0.35277,-0.10584 -0.14111,-0.10583 -0.14111,-0.28222 v -1.26999 q 0,-0.17639 0.14111,-0.28223 0.17639,-0.10583 0.35277,-0.10583 h 16.96858 q 0.84666,0 1.37583,0.14111 0.52916,0.10584 0.84666,0.38806 0.3175,0.28222 0.42334,0.81138 0.14111,0.49389 0.14111,1.23472 v 2.64583 q 0,1.48166 -0.635,2.01083 -0.59972,0.49389 -2.18722,0.49389 h -14.14636 q -0.49388,0 -0.635,0.14111 -0.10583,0.14111 -0.10583,0.67027 v 2.15194 q 0,0.49389 0.14111,0.635 0.14111,0.17639 0.635,0.17639 h 17.18024 q 0.17639,0 0.3175,0.10583 0.17639,0.10584 0.17639,0.28223 z m -22.82467,-23.60078 v 4.44499 q 0,0.52916 0.17639,0.70555 0.17638,0.14111 0.67027,0.14111 h 8.60776 q 0.49389,0 0.67028,-0.14111 0.17638,-0.17639 0.17638,-0.70555 v -4.44499 z m 12.69997,2.08138 h 6.9497 v -3.6336 h -6.9497 z m 27.41079,-8.39609 q 0,2.32833 -0.21167,4.48026 -0.17638,2.11667 -0.59972,4.09222 0.35278,1.41111 1.09361,2.9986 0.74083,1.55222 1.72861,3.10444 1.02305,1.55222 2.25777,3.03388 1.27,1.44639 2.68111,2.61055 0.17638,0.14111 0.17638,0.35278 0.0353,0.21166 -0.0706,0.35278 l -0.88194,1.0936 q -0.3175,0.38806 -0.74083,0 -0.98778,-0.84666 -2.04611,-2.01082 -1.02305,-1.19945 -2.01083,-2.50472 -0.9525,-1.30528 -1.79916,-2.68111 -0.84667,-1.37583 -1.44639,-2.64582 -1.12888,3.21027 -2.96332,5.92665 -1.83445,2.6811 -4.37444,5.00943 -0.35278,0.28222 -0.59972,0.0353 l -1.05833,-1.09361 q -0.10583,-0.10583 -0.10583,-0.28222 0.0353,-0.17639 0.21166,-0.35278 2.15194,-2.0461 3.73944,-4.30388 1.58749,-2.25777 2.57527,-4.86832 1.02305,-2.61055 1.48166,-5.67971 0.49389,-3.06916 0.49389,-6.73804 0,-0.24694 0.10583,-0.35278 0.14111,-0.14111 0.3175,-0.14111 l 1.65806,0.0706 q 0.38805,0 0.38805,0.49389 z m 15.13413,29.7391 q 0,0.49388 -0.49389,0.49388 h -1.44638 q -0.49389,0 -0.49389,-0.49388 v -31.53827 q 0,-0.49388 0.49389,-0.49388 h 1.44638 q 0.49389,0 0.49389,0.49388 z m 43.32106,-5.82082 q 0,1.51694 -0.81139,2.71638 -0.81139,1.19944 -2.22249,2.01083 -1.37583,0.84666 -3.24555,1.27 -1.83444,0.45861 -3.9511,0.45861 -2.29306,0 -4.16277,-0.45861 -1.86972,-0.42334 -3.21027,-1.27 -1.34056,-0.81139 -2.08139,-2.01083 -0.74083,-1.19944 -0.74083,-2.71638 0,-1.48167 0.74083,-2.64583 0.74083,-1.19944 2.08139,-2.01083 1.34055,-0.84666 3.21027,-1.27 1.86971,-0.45861 4.16277,-0.45861 2.11666,0 3.9511,0.45861 1.86972,0.42334 3.24555,1.23472 1.4111,0.81139 2.22249,2.01083 0.81139,1.16417 0.81139,2.68111 z m -2.50472,0.10583 q 0,-1.05833 -0.635,-1.86972 -0.635,-0.81139 -1.7286,-1.34055 -1.05834,-0.56444 -2.46944,-0.84667 -1.41111,-0.31749 -2.92805,-0.31749 -1.69333,0 -3.10444,0.31749 -1.41111,0.28223 -2.43416,0.84667 -0.98778,0.52916 -1.55222,1.34055 -0.56444,0.81139 -0.56444,1.86972 0,1.02305 0.56444,1.83444 0.56444,0.77611 1.55222,1.30527 1.02305,0.52917 2.43416,0.81139 1.41111,0.28222 3.10444,0.28222 1.51694,0 2.92805,-0.28222 1.4111,-0.28222 2.46944,-0.81139 1.0936,-0.52916 1.7286,-1.30527 0.635,-0.81139 0.635,-1.83444 z m -13.01747,-25.04717 q 0,2.57528 -0.52917,4.79777 0.42334,1.48166 1.16417,2.82222 0.77611,1.34055 1.79916,2.50471 1.02305,1.16417 2.2225,2.11667 1.23472,0.91722 2.57527,1.55221 0.21166,0.10584 0.17639,0.3175 0,0.17639 -0.0706,0.3175 l -0.74083,1.16417 q -0.10583,0.17638 -0.24694,0.24694 -0.14111,0.0706 -0.45861,-0.10583 -0.81139,-0.42334 -1.86972,-1.12889 -1.02306,-0.74083 -2.08139,-1.72861 -1.05833,-0.98777 -2.01083,-2.15194 -0.95249,-1.19944 -1.58749,-2.46943 -1.16417,2.6811 -3.13972,4.86832 -1.97555,2.18721 -4.62138,3.91582 -0.17638,0.10584 -0.38805,0.14111 -0.21167,0.0353 -0.35278,-0.14111 l -0.88194,-1.16416 q -0.10583,-0.14111 -0.0353,-0.35278 0.0706,-0.21167 0.24695,-0.3175 4.19804,-2.57527 6.3147,-6.49109 2.11667,-3.91583 2.04611,-8.74887 0,-0.56445 0.42333,-0.56445 l 1.65806,0.10584 q 0.38805,0 0.38805,0.49388 z m 12.8058,6.34999 v -7.1261 q 0,-0.49388 0.49389,-0.49388 h 1.44639 q 0.49389,0 0.49389,0.49388 v 18.62663 q 0,0.49389 -0.49389,0.49389 H 201.083 q -0.49389,0 -0.49389,-0.49389 v -9.38387 h -7.23192 q -0.45861,0 -0.45861,-0.42333 v -1.27 q 0,-0.42333 0.45861,-0.42333 z m 34.71328,19.36746 q 0,1.79916 -1.12889,2.92804 -1.12888,1.12889 -2.78693,1.76389 -1.65806,0.635 -3.59833,0.84666 -1.905,0.24695 -3.49249,0.24695 -1.05833,0 -2.29305,-0.10583 -1.19944,-0.10584 -2.43416,-0.35278 -1.19945,-0.21167 -2.32833,-0.635 -1.12889,-0.42333 -2.01083,-1.09361 -0.84667,-0.635 -1.37583,-1.51694 -0.52917,-0.88194 -0.52917,-2.08138 0,-1.76389 1.12889,-2.8575 1.12889,-1.12888 2.78694,-1.76388 1.65805,-0.635 3.56305,-0.88195 1.94027,-0.24694 3.49249,-0.24694 1.58749,0 3.49249,0.24694 1.94027,0.21167 3.59833,0.84667 1.69333,0.635 2.78693,1.76388 1.12889,1.12889 1.12889,2.89278 z m 4.05694,-10.37165 q 0.17638,0 0.35277,0.14111 0.17639,0.10584 0.17639,0.3175 v 1.19944 q 0,0.17639 -0.17639,0.3175 -0.17639,0.14111 -0.35277,0.14111 h -29.98605 q -0.21166,0 -0.38805,-0.14111 -0.14111,-0.14111 -0.14111,-0.3175 v -1.19944 q 0,-0.21166 0.14111,-0.3175 0.17639,-0.14111 0.38805,-0.14111 h 13.72303 v -4.55082 h -6.52638 q -1.55222,0 -2.11666,-0.49389 -0.56444,-0.52916 -0.56444,-2.01083 v -6.34998 q 0,-1.48167 0.56444,-1.97555 0.56444,-0.52917 2.11666,-0.52917 h 17.95635 q 0.45861,0 0.45861,0.45861 v 1.16416 q 0,0.49389 -0.45861,0.49389 h -17.35663 q -0.49388,0 -0.67027,0.21167 -0.17639,0.17639 -0.17639,0.70555 v 5.29166 q 0,0.49389 0.17639,0.70555 0.17639,0.21167 0.67027,0.21167 h 17.60357 q 0.45861,0 0.45861,0.45861 v 1.16416 q 0,0.49389 -0.45861,0.49389 h -9.24275 v 4.55082 z m -6.63221,10.40692 q 0,-1.16416 -0.9525,-1.83444 -0.9525,-0.70555 -2.29305,-1.09361 -1.34055,-0.38805 -2.78694,-0.49388 -1.41111,-0.14111 -2.39888,-0.14111 -1.02306,0 -2.46944,0.14111 -1.41111,0.10583 -2.75166,0.49388 -1.30528,0.38806 -2.25777,1.09361 -0.91722,0.67028 -0.91722,1.83444 0,1.12889 0.91722,1.83444 0.95249,0.70556 2.25777,1.05833 1.34055,0.38806 2.75166,0.49389 1.44638,0.14111 2.46944,0.14111 0.98777,0 2.43416,-0.14111 1.44638,-0.10583 2.75166,-0.49389 1.34055,-0.35277 2.29305,-1.05833 0.9525,-0.70555 0.9525,-1.83444 z m 13.54665,-25.61161 q 0,-0.21166 0.17639,-0.31749 0.17639,-0.10584 0.35278,-0.10584 h 18.6619 q 0.84667,0 1.34055,0.17639 0.52917,0.17639 0.81139,0.52917 0.28222,0.3175 0.38806,0.84666 0.14111,0.52917 0.14111,1.27 0.0705,2.75166 -0.35278,5.60915 -0.38805,2.8575 -1.09361,6.1736 h 5.82082 q 0.17639,0 0.35278,0.14111 0.17639,0.10583 0.17639,0.3175 v 1.19944 q 0,0.17639 -0.17639,0.3175 -0.17639,0.14111 -0.35278,0.14111 h -13.86413 v 14.0758 q 0,0.21167 -0.14111,0.35278 -0.10584,0.17639 -0.3175,0.17639 h -1.51694 q -0.17639,0 -0.3175,-0.17639 -0.14111,-0.14111 -0.14111,-0.35278 v -14.0758 h -13.68775 q -0.21167,0 -0.38806,-0.14111 -0.14111,-0.14111 -0.14111,-0.3175 v -1.19944 q 0,-0.21167 0.14111,-0.3175 0.17639,-0.14111 0.38806,-0.14111 h 21.76634 q 0.35278,-1.37583 0.67027,-2.99861 0.3175,-1.62277 0.49389,-3.24554 0.21167,-1.62278 0.28222,-3.06916 0.0706,-1.44639 0,-2.43416 -0.0705,-0.49389 -0.21166,-0.59973 -0.10584,-0.14111 -0.59972,-0.14111 h -18.13274 q -0.17639,0 -0.35278,-0.10583 -0.17639,-0.14111 -0.17639,-0.3175 z m 44.87328,24.80023 q 0,-1.48167 0.74083,-2.64583 0.74083,-1.19944 2.08138,-2.01083 1.34056,-0.84666 3.21027,-1.27 1.86972,-0.45861 4.16277,-0.45861 2.11666,0 3.95111,0.45861 1.86971,0.42334 3.24554,1.23472 1.41111,0.81139 2.2225,2.01083 0.81139,1.16417 0.81139,2.68111 0,1.51694 -0.81139,2.71638 -0.81139,1.19944 -2.2225,2.01083 -1.37583,0.84666 -3.24554,1.27 -1.83445,0.45861 -3.95111,0.45861 -2.29305,0 -4.16277,-0.45861 -1.86971,-0.42334 -3.21027,-1.27 -1.34055,-0.81139 -2.08138,-2.01083 -0.74083,-1.19944 -0.74083,-2.71638 z m 2.50471,0.10583 q 0,1.02305 0.56445,1.83444 0.56444,0.77611 1.55222,1.30527 1.02305,0.52917 2.43416,0.81139 1.41111,0.28222 3.10444,0.28222 1.51694,0 2.92804,-0.28222 1.41111,-0.28222 2.46944,-0.81139 1.09361,-0.52916 1.72861,-1.30527 0.635,-0.81139 0.635,-1.83444 0,-1.05833 -0.635,-1.86972 -0.635,-0.81139 -1.72861,-1.34055 -1.05833,-0.56444 -2.46944,-0.84667 -1.4111,-0.31749 -2.92804,-0.31749 -1.69333,0 -3.10444,0.31749 -1.41111,0.28223 -2.43416,0.84667 -0.98778,0.52916 -1.55222,1.34055 -0.56445,0.81139 -0.56445,1.86972 z m 3.24555,-25.04717 q 0,2.57528 -0.52916,4.79777 0.42333,1.48166 1.16416,2.82222 0.77611,1.34055 1.79916,2.50471 1.02306,1.16417 2.2225,2.11667 1.23472,0.91722 2.57527,1.55221 0.21167,0.10584 0.17639,0.3175 0,0.17639 -0.0706,0.3175 l -0.74083,1.16417 q -0.10583,0.17638 -0.24694,0.24694 -0.14111,0.0706 -0.45861,-0.10583 -0.81139,-0.42334 -1.86972,-1.12889 -1.02305,-0.74083 -2.08138,-1.72861 -1.05833,-0.98777 -2.01083,-2.15194 -0.9525,-1.19944 -1.5875,-2.46943 -1.16416,2.6811 -3.13971,4.86832 -1.97556,2.18721 -4.62138,3.91582 -0.17639,0.10584 -0.38806,0.14111 -0.21166,0.0353 -0.35277,-0.14111 l -0.88195,-1.16416 q -0.10583,-0.14111 -0.0353,-0.35278 0.0706,-0.21167 0.24694,-0.3175 4.19805,-2.57527 6.31471,-6.49109 2.11666,-3.91583 2.0461,-8.74887 0,-0.56445 0.42334,-0.56445 l 1.65805,0.10584 q 0.38805,0 0.38805,0.49388 z m 14.25219,17.8858 q 0,0.49388 -0.49388,0.49388 h -1.44639 q -0.49389,0 -0.49389,-0.49388 v -18.66191 q 0,-0.49388 0.49389,-0.49388 h 1.44639 q 0.49388,0 0.49388,0.49388 v 8.50193 h 4.86833 q 0.21166,0 0.35277,0.14111 0.17639,0.10583 0.17639,0.3175 v 1.19944 q 0,0.17639 -0.17639,0.3175 -0.14111,0.14111 -0.35277,0.14111 h -4.86833 z m 26.07026,-11.95914 q 0,1.34055 -0.59972,2.50471 -0.59972,1.16417 -1.69333,2.04611 -1.05833,0.84666 -2.54,1.37583 -1.48166,0.49389 -3.21027,0.49389 -1.69333,0 -3.13971,-0.49389 -1.44639,-0.49389 -2.50472,-1.37583 -1.05833,-0.88194 -1.65805,-2.04611 -0.59972,-1.16416 -0.59972,-2.50471 0,-1.48167 0.59972,-2.68111 0.59972,-1.19944 1.65805,-2.0461 1.05833,-0.84667 2.50472,-1.27 1.44638,-0.45861 3.13971,-0.45861 1.62278,0 3.06916,0.45861 1.44639,0.45861 2.54,1.30527 1.12888,0.81139 1.76388,2.01083 0.67028,1.19944 0.67028,2.68111 z m 5.89137,12.4883 v -19.19107 q 0,-0.49388 0.49389,-0.49388 h 1.44639 q 0.49388,0 0.49388,0.49388 v 25.22356 q 0,0.49389 -0.49388,0.49389 h -1.44639 q -0.49389,0 -0.49389,-0.49389 v -3.91583 h -7.05554 q -0.45861,0 -0.45861,-0.42333 v -1.27 q 0,-0.42333 0.45861,-0.42333 z m -8.2197,-12.52358 q 0,-1.05833 -0.45861,-1.86972 -0.45861,-0.81139 -1.23472,-1.34055 -0.77611,-0.56444 -1.83444,-0.84667 -1.02305,-0.28222 -2.18722,-0.28222 -1.19944,0 -2.22249,0.28222 -1.02306,0.28223 -1.76389,0.84667 -0.74083,0.56444 -1.16416,1.37583 -0.42333,0.77611 -0.42333,1.83444 0,2.01083 1.51694,3.21027 1.55222,1.19944 4.05693,1.19944 1.16417,0 2.18722,-0.3175 1.05833,-0.35277 1.83444,-0.91722 0.77611,-0.59972 1.23472,-1.41111 0.45861,-0.81138 0.45861,-1.76388 z m -6.42054,17.21552 q -0.17639,0 -0.3175,-0.14111 -0.14111,-0.17639 -0.14111,-0.38806 v -5.67971 q -1.09361,0.0706 -2.32833,0.10583 -1.23472,0.0353 -2.43416,0.0706 -1.16417,0.0353 -2.2225,0.0706 -1.02305,0 -1.7286,-0.0353 -0.21167,0 -0.38806,-0.14111 -0.14111,-0.14111 -0.14111,-0.3175 v -1.19944 q 0,-0.21167 0.14111,-0.3175 0.17639,-0.14111 0.38806,-0.14111 1.02305,0 2.43416,0 1.41111,-0.0353 2.89277,-0.0706 1.48166,-0.0353 2.85749,-0.0706 1.37583,-0.0705 2.32833,-0.14111 1.23472,-0.0706 2.75166,-0.21166 1.51694,-0.14111 3.03388,-0.3175 1.51694,-0.17639 2.8575,-0.35278 1.37583,-0.21166 2.29305,-0.38805 0.17639,-0.0353 0.3175,0.0705 0.17639,0.0706 0.21166,0.21167 l 0.17639,1.19944 q 0.0353,0.42333 -0.42333,0.52917 -2.25777,0.38805 -5.07999,0.77611 -2.78694,0.35277 -5.50332,0.52916 v 5.82082 q 0,0.21167 -0.14111,0.38806 -0.10583,0.14111 -0.3175,0.14111 z m 17.92107,7.09081 q 0,0.21167 -0.17639,0.3175 -0.17639,0.10584 -0.35278,0.10584 h -19.19106 q -1.65806,0 -2.18722,-0.635 -0.49389,-0.59972 -0.49389,-2.04611 v -4.44499 q 0,-0.49389 0.49389,-0.49389 h 1.44638 q 0.49389,0 0.49389,0.49389 v 4.2686 q 0,0.49389 0.14111,0.59972 0.17639,0.14111 0.67028,0.14111 h 18.62662 q 0.17639,0 0.35278,0.10584 0.17639,0.14111 0.17639,0.3175 z m 32.31438,-14.64024 q 0,0.49389 -0.49389,0.49389 h -1.44639 q -0.49389,0 -0.49389,-0.49389 v -16.33358 q 0,-0.49388 0.49389,-0.49388 h 1.44639 q 0.49389,0 0.49389,0.49388 z m -9.48971,-13.08803 q -0.42333,2.32833 -1.4111,4.30388 -0.98778,1.97555 -2.71639,3.73944 -1.69333,1.76388 -4.19804,3.35138 -2.50472,1.55222 -5.96193,3.03388 -0.56445,0.24695 -0.77611,-0.21166 l -0.52917,-1.16417 q -0.14111,-0.28222 -0.0706,-0.42333 0.0706,-0.17639 0.35277,-0.28222 11.3947,-4.69194 12.6647,-11.74748 0.21166,-0.98777 -0.84667,-0.98777 h -10.86553 q -0.42333,0 -0.42333,-0.45861 v -1.23472 q 0,-0.42333 0.42333,-0.42333 h 11.67692 q 1.69333,0 2.29305,0.59972 0.635,0.59972 0.38805,1.90499 z m 10.23054,28.46911 q 0,0.17638 -0.17639,0.28222 -0.14111,0.14111 -0.28222,0.14111 h -17.74469 q -1.65805,0 -2.18721,-0.635 -0.49389,-0.59972 -0.49389,-2.08139 v -2.64582 q 0,-1.48167 0.59972,-1.97555 0.635,-0.52917 2.2225,-0.52917 h 14.11108 q 0.49388,0 0.63499,-0.14111 0.14111,-0.14111 0.14111,-0.67028 v -2.01082 q 0,-0.52917 -0.14111,-0.67028 -0.10583,-0.14111 -0.59972,-0.14111 H 358.9861 q -0.17639,0 -0.35277,-0.10584 -0.14112,-0.10583 -0.14112,-0.28222 v -1.26999 q 0,-0.17639 0.14112,-0.28223 0.17638,-0.10583 0.35277,-0.10583 h 16.9333 q 0.84666,0 1.37583,0.14111 0.52916,0.10584 0.84666,0.38806 0.3175,0.28222 0.42333,0.81138 0.14112,0.49389 0.14112,1.23472 v 2.64583 q 0,1.48166 -0.635,2.01083 -0.59972,0.49389 -2.18722,0.49389 h -14.14636 q -0.49389,0 -0.635,0.14111 -0.10583,0.14111 -0.10583,0.67027 v 2.15194 q 0,0.49389 0.14111,0.635 0.14111,0.17639 0.635,0.17639 h 17.18024 q 0.17639,0 0.3175,0.10583 0.17639,0.10584 0.17639,0.28223 z m 17.07446,-2.96333 q -0.38805,0 -0.59972,-0.0353 -0.17639,0 -0.28222,-0.0705 -0.0706,-0.10584 -0.10584,-0.28223 0,-0.21166 0,-0.59972 l 0.0353,-0.77611 q 0,-0.45861 0.28222,-0.74083 l 5.82082,-6.42054 q 6.4911,-7.02026 6.4911,-10.65386 0,-2.11667 -1.41111,-3.52777 -1.37583,-1.37583 -3.42193,-1.37583 -2.8575,0 -5.96194,1.58749 -0.49388,0.24695 -0.56444,-0.21166 l -0.21166,-1.16417 q -0.10584,-0.59972 0.35277,-0.74083 1.79917,-0.81139 3.24555,-1.19944 1.44639,-0.38806 2.96333,-0.38806 3.38666,0 5.39749,1.69333 2.25777,1.83444 2.25777,5.2211 0,1.30528 -0.635,2.8575 -0.635,1.55222 -1.76389,3.24554 -0.70555,0.98778 -2.01082,2.57528 -1.27,1.58749 -2.92805,3.38666 -1.23472,1.34055 -2.46944,2.71638 -1.19944,1.37583 -2.43416,2.71638 h 12.34719 q 0.49389,0 0.49389,0.49389 v 1.19944 q 0,0.49389 -0.49389,0.49389 z m 35.17188,-8.29026 q 0,-2.85749 -1.48167,-4.51555 -1.48166,-1.69333 -4.23332,-1.69333 -1.41111,0 -2.54,0.45861 -1.12888,0.42334 -1.94027,1.19945 -0.77611,0.77611 -1.23472,1.86971 -0.42333,1.09361 -0.42333,2.39889 0,2.6811 1.48166,4.51554 1.62278,2.15194 4.33916,2.15194 2.78694,0 4.48027,-1.86972 1.55222,-1.76388 1.55222,-4.51554 z m 0.91722,-15.48691 q -0.81139,-0.28222 -1.86972,-0.45861 -1.02305,-0.17639 -2.04611,-0.17639 -4.79777,0 -7.09082,3.45722 -1.94027,2.89277 -2.01082,7.93748 0.7761,-1.41111 2.25777,-2.39889 1.83444,-1.30527 4.12749,-1.30527 3.21027,0 5.39749,1.69333 2.78694,2.15194 2.78694,6.56165 0,3.73944 -2.29306,6.20888 -2.32832,2.50471 -6.27943,2.50471 -8.46664,0 -8.46664,-12.4883 0,-6.52638 2.61055,-10.19526 3.06916,-4.16277 9.24275,-4.16277 0.91722,0 1.905,0.14111 1.02305,0.14112 1.86972,0.38806 0.52916,0.10583 0.45861,0.635 l -0.0706,1.30527 q 0,0.24695 -0.17639,0.35278 -0.17639,0.0706 -0.35277,0 z"
         id="path8" />
      <path
         d="m 26.66994,351.1059 q 0,0.49388 -0.45861,0.49388 H 7.1613727 q -1.5522187,0 -2.1166619,-0.49388 -0.5644431,-0.52917 -0.5644431,-2.01083 v -10.05415 q 0,-1.48166 0.5644431,-1.97555 0.5644432,-0.52916 2.1166619,-0.52916 H 25.964386 q 0.45861,0 0.45861,0.45861 v 1.16416 q 0,0.49389 -0.45861,0.49389 H 7.7610936 q -0.4938878,0 -0.6702763,0.21166 -0.1763884,0.17639 -0.1763884,0.70556 v 3.45721 H 25.470498 q 0.493888,0 0.493888,0.38806 v 1.19944 q 0,0.45861 -0.45861,0.45861 H 6.9144289 v 3.49249 q 0,0.49389 0.1763884,0.70556 0.1763885,0.21166 0.6702763,0.21166 H 26.21133 q 0.45861,0 0.45861,0.45861 z M 9.1369239,368.03919 q -0.1763885,0 -0.3174993,-0.17639 -0.1411108,-0.14111 -0.1411108,-0.35277 v -9.8072 H 0.52916542 q -0.21166619,0 -0.38805468,-0.14111 Q -5.7220459e-8,357.4206 -5.7220459e-8,357.24422 v -1.19945 q 0,-0.21166 0.141110797220459,-0.3175 0.17638849,-0.14111 0.38805468,-0.14111 H 30.515209 q 0.176389,0 0.352777,0.14111 0.176389,0.10584 0.176389,0.3175 v 1.19945 q 0,0.17638 -0.176389,0.3175 -0.176388,0.14111 -0.352777,0.14111 h -8.466647 v 9.8072 q 0,0.21166 -0.141111,0.35277 -0.105833,0.17639 -0.3175,0.17639 H 20.07301 q -0.176388,0 -0.317499,-0.17639 -0.141111,-0.14111 -0.141111,-0.35277 v -9.8072 h -8.501925 v 9.8072 q 0,0.21166 -0.141111,0.35277 -0.105833,0.17639 -0.317499,0.17639 z M 60.501273,355.30394 q 0,0.49389 -0.493888,0.49389 h -1.446386 q -0.493887,0 -0.493887,-0.49389 v -19.08523 q 0,-0.49389 0.493887,-0.49389 h 1.446386 q 0.493888,0 0.493888,0.49389 z m 0.317499,7.16138 q 0,1.44638 -0.811387,2.53999 -0.811387,1.12889 -2.222495,1.86972 -1.411108,0.74083 -3.280826,1.12888 -1.83444,0.38806 -3.951102,0.38806 -2.293051,0 -4.198046,-0.38806 -1.869718,-0.38805 -3.210271,-1.12888 -1.340552,-0.74083 -2.081384,-1.86972 -0.740832,-1.09361 -0.740832,-2.53999 0,-1.44639 0.740832,-2.54 0.740832,-1.09361 2.081384,-1.83444 1.340553,-0.74083 3.210271,-1.09361 1.904995,-0.38805 4.198046,-0.38805 2.116662,0 3.951102,0.38805 1.869718,0.35278 3.280826,1.09361 1.411108,0.74083 2.222495,1.83444 0.811387,1.09361 0.811387,2.54 z m -2.504716,0.10583 q 0,-1.02305 -0.634999,-1.76389 -0.634999,-0.74083 -1.728607,-1.19944 -1.093609,-0.45861 -2.504717,-0.67027 -1.411108,-0.21167 -2.928049,-0.21167 -1.693329,0 -3.139715,0.21167 -1.411108,0.21166 -2.434161,0.67027 -0.987776,0.45861 -1.552219,1.19944 -0.564443,0.74084 -0.564443,1.76389 0,0.9525 0.564443,1.65805 0.564443,0.70555 1.552219,1.16416 1.023053,0.45861 2.434161,0.67028 1.446386,0.21167 3.139715,0.21167 1.516941,0 2.928049,-0.21167 1.411108,-0.21167 2.504717,-0.67028 1.093608,-0.45861 1.728607,-1.16416 0.634999,-0.70555 0.634999,-1.65805 z m -19.614401,-9.20748 q -1.587496,0 -2.151939,-0.59972 -0.529166,-0.635 -0.529166,-2.11666 v -4.16277 q 0,-1.48167 0.599721,-1.97555 0.634998,-0.52917 2.222495,-0.52917 h 8.501925 q 0.493888,0 0.634999,-0.14111 0.141111,-0.14111 0.141111,-0.67028 v -3.17499 q 0,-0.52916 -0.141111,-0.67028 -0.105833,-0.14111 -0.599721,-0.14111 H 36.582993 q -0.423332,0 -0.423332,-0.45861 v -1.23472 q 0,-0.42333 0.423332,-0.42333 h 11.183031 q 0.846664,0 1.37583,0.14111 0.529165,0.10584 0.846665,0.38806 0.317499,0.28222 0.423332,0.81138 0.141111,0.49389 0.141111,1.23472 v 3.95111 q 0,1.48166 -0.634999,2.01083 -0.599721,0.49388 -2.187217,0.49388 h -8.537203 q -0.493888,0 -0.634999,0.14111 -0.105833,0.14111 -0.105833,0.67028 v 3.56305 q 0,0.81138 0.77611,0.81138 2.081384,0 3.98638,-0.0706 1.904995,-0.0706 3.704158,-0.21167 1.83444,-0.17639 3.598325,-0.38805 1.763885,-0.24695 3.598325,-0.56444 0.352777,-0.0706 0.45861,0 0.141111,0.0705 0.211667,0.35277 l 0.211666,1.12889 q 0.07055,0.3175 -0.07056,0.42333 -0.105833,0.10583 -0.423332,0.17639 -3.316104,0.59972 -7.408317,0.9525 -4.092213,0.3175 -8.396092,0.28222 z m 54.962674,14.3933 q 0,0.49389 -0.493887,0.49389 h -1.446386 q -0.493888,0 -0.493888,-0.49389 v -31.53826 q 0,-0.49389 0.493888,-0.49389 h 1.446386 q 0.493887,0 0.493887,0.49389 z m -8.043315,-22.01328 q 0,1.76388 -0.634999,3.24554 -0.634998,1.44639 -1.763884,2.50472 -1.128887,1.05833 -2.681106,1.65805 -1.552218,0.56445 -3.386659,0.56445 -1.799162,0 -3.316103,-0.56445 -1.516941,-0.59972 -2.645828,-1.65805 -1.093608,-1.05833 -1.728607,-2.50472 -0.634998,-1.48166 -0.634998,-3.24554 0,-1.86972 0.634998,-3.35139 0.634999,-1.48166 1.728607,-2.50471 1.128887,-1.05833 2.645828,-1.5875 1.516941,-0.56444 3.316103,-0.56444 1.69333,0 3.210271,0.56444 1.552219,0.52917 2.716383,1.5875 1.164164,1.02305 1.83444,2.50471 0.705554,1.48167 0.705554,3.35139 z m -2.469439,-0.0353 q 0,-1.44639 -0.493888,-2.54 -0.45861,-1.0936 -1.305274,-1.79916 -0.811388,-0.74083 -1.904996,-1.09361 -1.093609,-0.35277 -2.293051,-0.35277 -1.269997,0 -2.328328,0.38805 -1.058331,0.35278 -1.869718,1.09361 -0.776109,0.70555 -1.234719,1.79916 -0.423333,1.05833 -0.423333,2.50472 0,2.71638 1.587497,4.30388 1.622774,1.55222 4.268601,1.55222 1.199442,0 2.293051,-0.38806 1.093608,-0.42333 1.904996,-1.16416 0.846664,-0.74083 1.305274,-1.83444 0.493888,-1.09361 0.493888,-2.46944 z m 5.785543,11.71219 q 0.176388,-0.0353 0.317499,0.0706 0.176389,0.0706 0.211666,0.21167 l 0.176389,1.19944 q 0.03528,0.42333 -0.423333,0.52916 -1.164164,0.21167 -2.539994,0.42334 -1.37583,0.17638 -2.857494,0.35277 -1.446385,0.17639 -2.928049,0.3175 -1.481663,0.14111 -2.892771,0.24695 -1.093608,0.0705 -2.575272,0.14111 -1.446385,0.0706 -2.963326,0.14111 -1.516942,0.0353 -2.892772,0.0705 -1.37583,0 -2.257772,-0.0353 -0.211667,0 -0.388055,-0.14111 -0.141111,-0.14111 -0.141111,-0.3175 v -1.19944 q 0,-0.21166 0.141111,-0.3175 0.176388,-0.14111 0.388055,-0.14111 1.023053,0 2.434161,0 1.446385,-0.0353 2.928049,-0.0706 1.516941,-0.0353 2.892771,-0.0706 1.411108,-0.0705 2.363606,-0.14111 1.234719,-0.0706 2.75166,-0.21166 1.552219,-0.14112 3.06916,-0.3175 1.516941,-0.17639 2.892771,-0.35278 1.375831,-0.21167 2.293051,-0.38806 z m 31.961632,-19.40273 q 0,2.32833 -0.21166,4.48027 -0.17639,2.11666 -0.59972,4.09221 0.35277,1.41111 1.09361,2.99861 0.74083,1.55221 1.7286,3.10443 1.02306,1.55222 2.25778,3.03388 1.26999,1.44639 2.6811,2.61055 0.17639,0.14112 0.17639,0.35278 0.0353,0.21167 -0.0706,0.35278 l -0.88194,1.09361 q -0.3175,0.38805 -0.74083,0 -0.98778,-0.84667 -2.04611,-2.01083 -1.02305,-1.19944 -2.01083,-2.50472 -0.95249,-1.30527 -1.79916,-2.6811 -0.84666,-1.37583 -1.44638,-2.64583 -1.12889,3.21027 -2.96333,5.92665 -1.83444,2.68111 -4.37444,5.00944 -0.35277,0.28222 -0.59972,0.0353 l -1.05833,-1.09361 q -0.10583,-0.10583 -0.10583,-0.28222 0.0353,-0.17639 0.21167,-0.35277 2.15194,-2.04611 3.73943,-4.30388 1.5875,-2.25778 2.57527,-4.86833 1.02306,-2.61055 1.48167,-5.6797 0.49389,-3.06916 0.49389,-6.73805 0,-0.24694 0.10583,-0.35277 0.14111,-0.14111 0.3175,-0.14111 l 1.65805,0.0705 q 0.38805,0 0.38805,0.49389 z m 14.56969,29.7391 q 0,0.49389 -0.49388,0.49389 h -1.44639 q -0.49389,0 -0.49389,-0.49389 v -31.53826 q 0,-0.49389 0.49389,-0.49389 h 1.44639 q 0.49388,0 0.49388,0.49389 v 12.84108 h 4.86833 q 0.21166,0 0.35277,0.14111 0.17639,0.10583 0.17639,0.3175 v 1.19944 q 0,0.17639 -0.17639,0.3175 -0.14111,0.14111 -0.35277,0.14111 h -4.86833 z m 33.16106,0 q 0,0.49389 -0.49389,0.49389 h -1.44638 q -0.49389,0 -0.49389,-0.49389 v -31.53826 q 0,-0.49389 0.49389,-0.49389 h 1.44638 q 0.49389,0 0.49389,0.49389 v 13.79358 h 4.86832 q 0.21167,0 0.35278,0.14111 0.17639,0.10583 0.17639,0.3175 v 1.19944 q 0,0.17639 -0.17639,0.3175 -0.14111,0.14111 -0.35278,0.14111 h -4.86832 z m -4.62138,-9.8072 q 0.56444,-0.10583 0.59972,0.24694 l 0.21167,1.23472 q 0.0705,0.42334 -0.45861,0.49389 -2.36361,0.38806 -5.18582,0.70555 -2.82222,0.3175 -5.67971,0.49389 -1.02306,0.0706 -2.39889,0.10584 -1.37583,0.0353 -2.82221,0.0706 -1.41111,0 -2.78694,0 -1.34055,0 -2.32833,-0.0353 -0.21166,0 -0.38805,-0.14111 -0.14111,-0.14111 -0.14111,-0.3175 v -1.19944 q 0,-0.21166 0.14111,-0.3175 0.17639,-0.14111 0.38805,-0.14111 0.67028,0 1.55222,0.0353 0.88194,0 1.83444,0 0.98778,0 2.01083,0 1.05833,-0.0353 2.04611,-0.0353 v -9.73664 q 0,-0.21167 0.10583,-0.35278 0.14111,-0.17639 0.35278,-0.17639 h 1.51694 q 0.17639,0 0.3175,0.17639 0.14111,0.14111 0.14111,0.35278 v 9.66609 q 0.0705,0 0.17639,0 0.10583,-0.0353 0.21166,-0.0353 1.23472,-0.0706 2.64583,-0.14111 1.41111,-0.10584 2.82222,-0.21167 1.4111,-0.14111 2.71638,-0.3175 1.34055,-0.17639 2.39888,-0.42333 z m -19.19107,-18.94412 q 0,-0.21167 0.17639,-0.3175 0.17639,-0.10584 0.35278,-0.10584 h 13.22914 q 0.84666,0 1.34055,0.17639 0.52916,0.17639 0.81139,0.52917 0.28222,0.3175 0.38805,0.84666 0.10583,0.52917 0.14111,1.27 0.0353,1.44638 -0.0353,2.96333 -0.0353,1.51694 -0.17639,3.06916 -0.10583,1.51694 -0.31749,2.9986 -0.21167,1.48166 -0.49389,2.78694 -0.0706,0.21166 -0.21167,0.38805 -0.10583,0.17639 -0.3175,0.14111 l -1.41111,-0.10583 q -0.59972,-0.0353 -0.42333,-0.635 0.3175,-1.30527 0.52917,-2.82221 0.24694,-1.51694 0.35277,-3.03389 0.14112,-1.55221 0.17639,-2.9986 0.0353,-1.48166 -0.0705,-2.71638 -0.0706,-0.49389 -0.21167,-0.59972 -0.10583,-0.14111 -0.59972,-0.14111 h -12.69997 q -0.24694,0 -0.38806,-0.10584 -0.14111,-0.14111 -0.14111,-0.3175 z"
         id="path9" />
    </g>
  </g>
</svg>
