<?xml version="1.0" encoding="UTF-8" standalone="no"?>
<!-- Created with Inkscape (http://www.inkscape.org/) -->

<svg
   width="772.69006mm"
   height="81.033157mm"
   viewBox="0 0 772.69006 81.033157"
   version="1.1"
   id="svg1"
   xmlns="http://www.w3.org/2000/svg"
   xmlns:svg="http://www.w3.org/2000/svg">
  <defs
     id="defs1" />
  <g
     id="layer1"
     transform="translate(-1.8328879e-5,-75.375009)">
    <g
       id="text6"
       style="font-size:35.2778px;font-family:NanumGothic;-inkscape-font-specification:NanumGothic;text-align:end;text-anchor:end;display:inline;fill:#ffffff;fill-rule:evenodd;stroke:#ffffff;stroke-width:0;stroke-linecap:round;stroke-linejoin:round"
       aria-label="Code As A Canvas : 코드에서 예술작품이 되기까지&#10;(@jakeseo@hackers.pub)&#10;">
      <path
         style="font-weight:bold;-inkscape-font-specification:'NanumGothic Bold'"
         d="m 19.085309,105.00835 q -1.023056,0.28222 -2.469446,0.52917 -1.44639,0.24694 -3.351391,0.24694 -2.998613,0 -5.4680595,-0.98778 Q 5.3622442,103.80891 3.6336319,102.00974 1.9050196,100.17529 0.95251897,97.635291 1.832888e-5,95.095289 1.832888e-5,91.990842 q 0,-3.069168 0.91722284112,-5.60917 0.95250063,-2.540002 2.68111293,-4.33917 1.7286123,-1.834445 4.1627806,-2.822224 2.4694463,-1.023056 5.5033373,-1.023056 1.587501,0 3.104446,0.176389 1.516946,0.141111 2.751669,0.529167 0.388056,0.105834 0.458611,0.282223 0.07056,0.141111 0.03528,0.493889 l -0.07056,2.610557 q 0,0.564445 -0.176389,0.564445 -0.176389,0 -0.599722,-0.141111 -2.645835,-0.81139 -5.503337,-0.81139 -2.187224,0 -3.9158363,0.740834 -1.6933344,0.740834 -2.8927797,2.08139 -1.1641674,1.340557 -1.7991679,3.21028 -0.5997226,1.834446 -0.5997226,4.056947 0,2.187224 0.6702782,4.056948 0.6702783,1.834445 1.8697235,3.21028 1.2347231,1.34056 2.8927797,2.11667 1.6933341,0.77611 3.7394471,0.77611 1.834446,0 3.104446,-0.14111 1.305279,-0.17639 2.398891,-0.56445 0.458611,-0.17639 0.599723,-0.10583 0.141111,0.0706 0.141111,0.3175 l 0.141111,2.50472 q 0.03528,0.38806 -0.07056,0.56445 -0.07055,0.17639 -0.458611,0.28222 z m 20.178934,-2.43417 q -1.27,1.5875 -3.033891,2.43417 -1.76389,0.81139 -3.986391,0.81139 -2.257779,0 -3.986392,-0.81139 -1.728612,-0.81139 -2.892779,-2.2225 -1.164168,-1.41111 -1.76389,-3.280836 -0.564445,-1.869723 -0.564445,-3.986391 0,-2.116668 0.564445,-3.986392 0.599722,-1.869723 1.76389,-3.245558 1.164167,-1.411112 2.857502,-2.222501 1.728612,-0.81139 4.021669,-0.81139 2.257779,0 3.986391,0.81139 1.728613,0.811389 2.89278,2.222501 1.164168,1.375835 1.728612,3.245558 0.599723,1.869724 0.599723,3.986392 0,2.08139 -0.564445,3.915836 -0.564445,1.799171 -1.622779,3.139721 z M 32.243961,88.710007 q -1.375834,0 -2.398891,0.599723 -0.987778,0.599722 -1.622778,1.587501 -0.635001,0.9525 -0.952501,2.187223 -0.3175,1.199446 -0.3175,2.434169 0,1.234723 0.3175,2.469446 0.3175,1.199445 0.952501,2.187221 0.635,0.98778 1.622778,1.5875 1.023057,0.59973 2.398891,0.59973 1.375834,0 2.363613,-0.59973 1.023056,-0.59972 1.658056,-1.5875 0.635001,-0.987776 0.952501,-2.187221 0.3175,-1.234723 0.3175,-2.469446 0,-1.199446 -0.3175,-2.398891 -0.3175,-1.234723 -0.952501,-2.187224 -0.635,-0.987778 -1.658056,-1.587501 -0.987779,-0.635 -2.363613,-0.635 z m 26.03505,16.651123 q -0.529167,0 -0.529167,-0.56445 v -1.34055 q -0.705557,0.98778 -2.081391,1.65805 -1.375834,0.67028 -2.786946,0.67028 -1.905001,0 -3.421947,-0.70555 -1.481667,-0.74084 -2.540002,-2.08139 -1.023056,-1.37584 -1.587501,-3.316117 -0.529167,-1.940279 -0.529167,-4.374447 0,-2.363613 0.564445,-4.268614 0.564445,-1.940279 1.587501,-3.280836 1.058334,-1.340556 2.540002,-2.08139 1.516945,-0.740834 3.386669,-0.740834 1.411112,0 2.645835,0.564445 1.270001,0.564445 2.222502,1.587501 V 77.033055 q 0,-0.282223 0.07055,-0.352778 0.105834,-0.105834 0.352778,-0.105834 h 2.89278 q 0.458611,0 0.458611,0.458612 v 27.763625 q 0,0.28223 -0.176389,0.42334 -0.176389,0.14111 -0.388056,0.14111 z M 53.269563,88.533618 q -2.187224,0 -3.351391,1.799168 -1.164168,1.76389 -1.164168,4.97417 0,3.457224 1.199445,5.185834 1.199446,1.72861 3.316114,1.72861 0.917223,0 1.728612,-0.45861 0.811389,-0.45861 1.411112,-1.34055 0.635,-0.881948 0.987779,-2.151949 0.352778,-1.305279 0.352778,-2.963335 0,-3.421947 -1.199446,-5.080004 -1.164167,-1.693334 -3.280835,-1.693334 z m 28.716158,7.86695 q 0,0.282222 -0.176389,0.423333 -0.141111,0.141111 -0.3175,0.141111 H 69.885436 q 0.176389,2.363613 1.481667,3.880558 1.305279,1.48167 3.563058,1.48167 1.164168,0 2.645835,-0.28222 1.481668,-0.3175 2.716391,-1.05834 0.246945,-0.14111 0.3175,0.0353 0.07056,0.17639 0.07056,0.45861 v 2.43417 q 0,0.3175 -0.105834,0.49389 -0.105833,0.17639 -0.423333,0.35278 -1.058334,0.56444 -2.504724,0.81139 -1.411112,0.24694 -2.89278,0.24694 -4.374447,0 -6.632227,-2.61056 -2.222501,-2.64583 -2.222501,-7.725835 0,-1.905001 0.493889,-3.739447 0.493889,-1.834446 1.481668,-3.280836 1.023056,-1.44639 2.575279,-2.328335 1.552224,-0.881945 3.668892,-0.881945 2.151946,0 3.633613,0.81139 1.516946,0.811389 2.469446,2.187224 0.952501,1.375834 1.375835,3.210279 0.423333,1.834446 0.423333,3.915836 0,0.246945 -0.03528,0.564445 0,0.3175 0,0.458612 z m -7.725838,-7.761117 q -0.952501,0 -1.693335,0.423334 -0.740833,0.423334 -1.27,1.093612 -0.529167,0.670278 -0.881945,1.552223 -0.317501,0.881945 -0.458612,1.76389 h 8.078617 q 0,-0.705556 -0.246945,-1.552223 -0.211667,-0.846667 -0.670278,-1.552223 -0.458612,-0.740834 -1.164168,-1.234723 -0.705556,-0.49389 -1.693334,-0.49389 z m 40.781167,16.651119 q -0.24694,0 -0.35278,-0.0353 -0.10583,-0.0706 -0.21166,-0.3175 l -2.54,-6.350009 h -11.50057 l -2.539999,6.350009 q -0.07055,0.24694 -0.176389,0.3175 -0.105833,0.0353 -0.352778,0.0353 h -3.245558 q -0.635,0 -0.423333,-0.49389 L 103.9991,79.079167 q 0.10583,-0.282222 0.14111,-0.3175 0.0706,-0.07056 0.42334,-0.07056 h 3.28083 q 0.3175,0 0.38806,0.07056 0.0705,0.03528 0.17639,0.3175 l 10.30111,25.717513 q 0.17639,0.49389 -0.42333,0.49389 z M 101.88243,94.883622 h 8.57251 l -4.26862,-10.865563 z m 28.61027,9.666118 q -1.905,1.27 -4.51556,1.27 -0.70555,0 -1.48166,-0.0705 -0.77612,-0.0706 -1.51695,-0.17639 -0.70556,-0.10584 -1.27,-0.24695 -0.56444,-0.14111 -0.88194,-0.28222 -0.14112,-0.0706 -0.31751,-0.17639 -0.14111,-0.14111 -0.10583,-0.42333 l 0.21167,-2.29306 q 0.0353,-0.35278 0.10583,-0.42333 0.0706,-0.0706 0.45861,0.0353 1.16417,0.35278 2.39889,0.52917 1.27,0.14111 2.25778,0.14111 1.55223,0 2.29306,-0.77611 0.77611,-0.77611 0.77611,-1.799168 0,-0.564445 -0.38805,-1.128889 -0.38806,-0.599723 -1.30528,-1.199446 -0.9525,-0.564445 -1.97556,-1.128889 -1.02306,-0.599723 -2.01083,-1.164168 -1.12889,-0.670278 -1.90501,-1.76389 -0.74083,-1.12889 -0.74083,-2.469446 0,-1.481668 0.52917,-2.540002 0.52916,-1.093612 1.41111,-1.799168 0.88194,-0.740833 2.01083,-1.058334 1.16417,-0.352778 2.43417,-0.352778 0.67028,0 1.37584,0.07056 0.74083,0.07056 1.41111,0.211667 0.70555,0.105833 1.23472,0.282222 0.56445,0.141111 0.84667,0.3175 0.17639,0.105834 0.17639,0.211667 0.0353,0.07056 0,0.246945 l -0.21167,2.257779 q -0.0353,0.388056 -0.17639,0.458612 -0.14111,0.03528 -0.52916,-0.03528 -0.67028,-0.246945 -1.51695,-0.458612 -0.49389,-0.07055 -1.05833,-0.141111 -0.52917,-0.07055 -1.34056,-0.07055 -1.44639,0 -2.04611,0.670278 -0.59973,0.670278 -0.59973,1.622779 0,0.564444 0.67028,1.199445 0.67028,0.635 1.69334,1.164167 1.09361,0.529167 2.01083,1.093612 0.9525,0.564445 1.41111,0.917223 1.27,0.917223 1.905,2.010835 0.63501,1.058334 0.63501,2.575279 0,2.963341 -2.36362,4.691951 z m 35.03088,0.74083 q -0.24694,0 -0.35278,-0.0353 -0.10583,-0.0706 -0.21166,-0.3175 l -2.54001,-6.350009 h -11.50056 l -2.54,6.350009 q -0.0706,0.24694 -0.17639,0.3175 -0.10583,0.0353 -0.35278,0.0353 h -3.24555 q -0.63501,0 -0.42334,-0.49389 l 10.30112,-25.717513 q 0.10583,-0.282222 0.14111,-0.3175 0.0706,-0.07056 0.42333,-0.07056 h 3.28084 q 0.3175,0 0.38806,0.07056 0.0705,0.03528 0.17638,0.3175 l 10.30112,25.717513 q 0.17639,0.49389 -0.42333,0.49389 z M 152.36496,94.883622 h 8.57251 l -4.26862,-10.865563 z m 48.2953,10.124728 q -1.02306,0.28222 -2.46945,0.52917 -1.44639,0.24694 -3.35139,0.24694 -2.99861,0 -5.46806,-0.98778 -2.43416,-0.98777 -4.16278,-2.78694 -1.72861,-1.83445 -2.68111,-4.374449 -0.9525,-2.540002 -0.9525,-5.644449 0,-3.069168 0.91722,-5.60917 0.9525,-2.540002 2.68112,-4.33917 1.72861,-1.834445 4.16278,-2.822224 2.46944,-1.023056 5.50333,-1.023056 1.5875,0 3.10445,0.176389 1.51694,0.141111 2.75167,0.529167 0.38805,0.105834 0.45861,0.282223 0.0706,0.141111 0.0353,0.493889 l -0.0706,2.610557 q 0,0.564445 -0.17639,0.564445 -0.17639,0 -0.59972,-0.141111 -2.64584,-0.81139 -5.50334,-0.81139 -2.18722,0 -3.91583,0.740834 -1.69334,0.740834 -2.89278,2.08139 -1.16417,1.340557 -1.79917,3.21028 -0.59972,1.834446 -0.59972,4.056947 0,2.187224 0.67027,4.056948 0.67028,1.834445 1.86973,3.21028 1.23472,1.34056 2.89278,2.11667 1.69333,0.77611 3.73945,0.77611 1.83444,0 3.10444,-0.14111 1.30528,-0.17639 2.39889,-0.56445 0.45861,-0.17639 0.59972,-0.10583 0.14112,0.0706 0.14112,0.3175 l 0.14111,2.50472 q 0.0353,0.38806 -0.0706,0.56445 -0.0705,0.17639 -0.45861,0.28222 z m 15.91033,0.24695 q -0.24694,0 -0.3175,-0.0353 -0.0705,-0.0706 -0.0705,-0.28222 v -1.58751 q -0.88195,1.23473 -2.25778,1.86973 -1.34056,0.59972 -2.71639,0.59972 -1.44639,0 -2.68112,-0.38806 -1.19944,-0.38805 -2.08139,-1.16416 -0.84666,-0.77611 -1.34055,-1.905 -0.49389,-1.16417 -0.49389,-2.681117 0,-1.799168 0.635,-3.139724 0.635,-1.375834 1.97555,-2.257779 1.37584,-0.917223 3.49251,-1.340557 2.11667,-0.458611 5.11528,-0.458611 0,-0.670279 -0.14111,-1.340557 -0.14111,-0.670278 -0.49389,-1.199445 -0.3175,-0.529167 -0.91723,-0.846667 -0.59972,-0.352778 -1.51694,-0.352778 -1.5875,0 -2.89278,0.423333 -1.27,0.423334 -2.39889,1.12889 -0.56445,0.352778 -0.77611,0.3175 -0.17639,-0.03528 -0.17639,-0.388056 v -2.681113 q 0,-0.141111 -0.0353,-0.282222 0,-0.176389 0.0706,-0.282222 0.10583,-0.141112 0.52916,-0.388056 1.19945,-0.599723 2.43417,-0.987779 1.27,-0.388055 3.175,-0.388055 3.56306,0 5.2564,1.728612 1.72861,1.728612 1.72861,5.432781 v 8.360842 q 0,0.98778 0,2.08139 0.0353,1.05833 0.14111,1.86972 0.0706,0.56445 -0.38806,0.56445 z m -0.635,-9.419177 q -3.91583,0 -5.60917,0.9525 -1.69333,0.952501 -1.69333,2.857502 0,1.340555 0.77611,2.010835 0.77611,0.67028 2.08139,0.67028 2.01083,0 3.21028,-1.48167 1.23472,-1.481667 1.23472,-4.621391 z m 21.4489,9.419177 q -0.17639,0 -0.3175,-0.14112 -0.10584,-0.17638 -0.10584,-0.35277 V 93.543066 q 0,-2.540002 -0.81139,-3.668892 -0.77611,-1.128889 -2.46944,-1.128889 -2.32834,0 -3.45723,1.305278 -1.09361,1.270001 -1.09361,3.70417 v 11.041947 q 0,0.45862 -0.42333,0.45862 h -2.92806 q -0.17639,0 -0.3175,-0.14112 -0.10583,-0.17638 -0.10583,-0.35277 V 90.720842 q 0,-1.340557 -0.0353,-2.57528 0,-1.234723 -0.0706,-1.940279 -0.0705,-0.458611 0.49389,-0.458611 h 2.78695 q 0.38806,0 0.3175,0.282222 l -0.0353,1.270001 q 0.88195,-0.846667 2.11667,-1.44639 1.23472,-0.599723 2.8575,-0.599723 3.38667,0 5.15056,2.010835 1.79917,1.975557 1.79917,5.750282 v 11.782781 q 0,0.45862 -0.42333,0.45862 z m 16.79227,-0.35278 q -0.0705,0.21166 -0.14111,0.28222 -0.0706,0.0353 -0.28222,0.0353 h -3.03389 q -0.21167,0 -0.3175,-0.0353 -0.0706,-0.0706 -0.14111,-0.28222 l -6.42056,-18.732515 q -0.0706,-0.176389 0,-0.282222 0.0705,-0.105834 0.45861,-0.105834 h 3.06917 q 0.17638,0 0.28222,0.07056 0.10583,0.03528 0.17639,0.211667 l 4.40972,13.299731 4.37445,-13.299731 q 0.0706,-0.176389 0.17639,-0.211667 0.14111,-0.07056 0.3175,-0.07056 h 3.10445 q 0.38805,0 0.45861,0.105834 0.0705,0.105833 0,0.282222 z m 20.07303,0.35278 q -0.24694,0 -0.3175,-0.0353 -0.0706,-0.0706 -0.0706,-0.28222 v -1.58751 q -0.88195,1.23473 -2.25778,1.86973 -1.34056,0.59972 -2.71639,0.59972 -1.44639,0 -2.68112,-0.38806 -1.19944,-0.38805 -2.08139,-1.16416 -0.84666,-0.77611 -1.34055,-1.905 -0.49389,-1.16417 -0.49389,-2.681117 0,-1.799168 0.635,-3.139724 0.635,-1.375834 1.97555,-2.257779 1.37584,-0.917223 3.49251,-1.340557 2.11666,-0.458611 5.11528,-0.458611 0,-0.670279 -0.14111,-1.340557 -0.14111,-0.670278 -0.49389,-1.199445 -0.3175,-0.529167 -0.91723,-0.846667 -0.59972,-0.352778 -1.51694,-0.352778 -1.5875,0 -2.89278,0.423333 -1.27,0.423334 -2.39889,1.12889 -0.56445,0.352778 -0.77611,0.3175 -0.17639,-0.03528 -0.17639,-0.388056 v -2.681113 q 0,-0.141111 -0.0353,-0.282222 0,-0.176389 0.0706,-0.282222 0.10583,-0.141112 0.52916,-0.388056 1.19945,-0.599723 2.43417,-0.987779 1.27,-0.388055 3.175,-0.388055 3.56306,0 5.2564,1.728612 1.72861,1.728612 1.72861,5.432781 v 8.360842 q 0,0.98778 0,2.08139 0.0353,1.05833 0.14111,1.86972 0.0706,0.56445 -0.38806,0.56445 z m -0.635,-9.419177 q -3.91584,0 -5.60917,0.9525 -1.69333,0.952501 -1.69333,2.857502 0,1.340555 0.77611,2.010835 0.77611,0.67028 2.08139,0.67028 2.01083,0 3.21028,-1.48167 1.23472,-1.481667 1.23472,-4.621391 z m 17.85058,8.713617 q -1.905,1.27 -4.51556,1.27 -0.70556,0 -1.48167,-0.0705 -0.77611,-0.0706 -1.51695,-0.17639 -0.70555,-0.10584 -1.27,-0.24695 -0.56444,-0.14111 -0.88194,-0.28222 -0.14111,-0.0706 -0.3175,-0.17639 -0.14111,-0.14111 -0.10583,-0.42333 l 0.21166,-2.29306 q 0.0353,-0.35278 0.10584,-0.42333 0.0705,-0.0706 0.45861,0.0353 1.16416,0.35278 2.39889,0.52917 1.27,0.14111 2.25778,0.14111 1.55222,0 2.29305,-0.77611 0.77612,-0.77611 0.77612,-1.799168 0,-0.564445 -0.38806,-1.128889 -0.38806,-0.599723 -1.30528,-1.199446 -0.9525,-0.564445 -1.97556,-1.128889 -1.02305,-0.599723 -2.01083,-1.164168 -1.12889,-0.670278 -1.905,-1.76389 -0.74084,-1.12889 -0.74084,-2.469446 0,-1.481668 0.52917,-2.540002 0.52917,-1.093612 1.41111,-1.799168 0.88195,-0.740833 2.01084,-1.058334 1.16417,-0.352778 2.43417,-0.352778 0.67027,0 1.37583,0.07056 0.74083,0.07056 1.41111,0.211667 0.70556,0.105833 1.23473,0.282222 0.56444,0.141111 0.84666,0.3175 0.17639,0.105834 0.17639,0.211667 0.0353,0.07056 0,0.246945 l -0.21166,2.257779 q -0.0353,0.388056 -0.17639,0.458612 -0.14112,0.03528 -0.52917,-0.03528 -0.67028,-0.246945 -1.51695,-0.458612 -0.49389,-0.07055 -1.05833,-0.141111 -0.52917,-0.07055 -1.34056,-0.07055 -1.44639,0 -2.04611,0.670278 -0.59972,0.670278 -0.59972,1.622779 0,0.564444 0.67028,1.199445 0.67027,0.635 1.69333,1.164167 1.09361,0.529167 2.01084,1.093612 0.9525,0.564445 1.41111,0.917223 1.27,0.917223 1.905,2.010835 0.635,1.058334 0.635,2.575279 0,2.963341 -2.36361,4.691951 z m 18.83837,-17.850568 q -1.12889,0 -1.94028,-0.776111 -0.77611,-0.81139 -0.77611,-1.869724 0,-1.093612 0.77611,-1.869723 0.81139,-0.81139 1.94028,-0.81139 1.12889,0 1.905,0.81139 0.77611,0.776111 0.77611,1.869723 0,1.058334 -0.77611,1.869724 -0.77611,0.776111 -1.905,0.776111 z m 0,16.051398 q -1.12889,0 -1.94028,-0.77611 -0.77611,-0.81139 -0.77611,-1.905 0,-1.058335 0.77611,-1.834447 0.81139,-0.811389 1.94028,-0.811389 1.12889,0 1.905,0.811389 0.77611,0.776112 0.77611,1.834447 0,1.09361 -0.77611,1.905 -0.77611,0.77611 -1.905,0.77611 z m 20.42585,-16.298342 q 0,-0.49389 0.45861,-0.49389 2.32833,-0.03528 4.86833,-0.03528 2.54001,-0.03528 4.9389,-0.03528 2.43416,-0.03528 4.58611,-0.07056 2.15195,-0.07055 3.73945,-0.176389 0.0706,-1.023056 0.0706,-1.975557 0.0353,-0.987778 0.0353,-1.834445 0,-0.49389 -0.24694,-0.599723 -0.21167,-0.141111 -0.70556,-0.141111 h -17.35668 q -0.17639,0 -0.35278,-0.105834 -0.17638,-0.141111 -0.17638,-0.3175 v -2.540002 q 0,-0.211666 0.17638,-0.3175 0.17639,-0.105833 0.35278,-0.105833 h 20.00252 q 1.12889,0 1.72861,0.599722 0.59972,0.599723 0.59972,1.905002 0,4.762503 -0.3175,8.713617 -0.3175,3.951114 -0.84667,6.561671 -0.0705,0.282222 -0.24694,0.493889 -0.17639,0.211667 -0.45861,0.176389 l -2.75167,-0.246945 q -0.28222,-0.03528 -0.38806,-0.246944 -0.10583,-0.211667 -0.0353,-0.493889 0.24695,-1.234723 0.42334,-2.857502 0.17639,-1.622779 0.3175,-3.351391 -1.94028,0.105833 -4.16278,0.176389 -2.18723,0.07055 -4.51556,0.105833 -2.32834,0.03528 -4.69195,0.07056 -2.32833,0 -4.58611,0 -0.17639,0 -0.3175,-0.141112 -0.14111,-0.176389 -0.14111,-0.388055 z m 26.98751,16.157232 q 0,0.17639 -0.17638,0.35278 -0.17639,0.17639 -0.35278,0.17639 h -30.72697 q -0.21166,0 -0.35278,-0.17639 -0.14111,-0.17639 -0.14111,-0.35278 v -2.32833 q 0,-0.21167 0.14111,-0.352782 0.14112,-0.176389 0.35278,-0.176389 h 12.20612 v -7.23195 q 0,-0.493889 0.52917,-0.493889 h 3.03389 q 0.49389,0 0.49389,0.493889 v 7.23195 h 14.4639 q 0.17639,0 0.35278,0.176389 0.17638,0.176392 0.17638,0.352782 z m 32.632,-2.857501 q 0.17639,0 0.35278,0.176389 0.17639,0.176392 0.17639,0.352782 v 2.32833 q 0,0.17639 -0.17639,0.35278 -0.17639,0.17639 -0.35278,0.17639 h -30.72696 q -0.21167,0 -0.35278,-0.17639 -0.14111,-0.17639 -0.14111,-0.35278 v -2.32833 q 0,-0.21167 0.14111,-0.352782 0.14111,-0.176389 0.35278,-0.176389 z m -3.95111,-7.126116 q 0,0.282222 -0.14111,0.423334 -0.10584,0.105833 -0.28223,0.105833 h -19.5439 q -1.41111,0 -2.04611,-0.705556 -0.635,-0.705556 -0.635,-1.940279 V 80.278612 q 0,-1.340556 0.59972,-1.799168 0.59972,-0.493889 1.94028,-0.493889 h 19.36751 q 0.49389,0 0.49389,0.458612 v 2.469446 q 0,0.458611 -0.49389,0.458611 h -17.21556 q -0.635,0 -0.635,0.599723 v 7.196671 q 0,0.317501 0.10583,0.49389 0.14111,0.141111 0.52917,0.141111 h 17.39195 q 0.28222,0 0.42334,0.07055 0.14111,0.07056 0.14111,0.352778 z m 18.13279,-3.598336 q 0,-1.340556 -0.21167,-2.681113 -0.21167,-1.340556 -0.67028,-2.434168 -0.45861,-1.093612 -1.19944,-1.76389 -0.70556,-0.670278 -1.69334,-0.670278 -0.91722,0 -1.5875,0.705556 -0.67028,0.670278 -1.09361,1.76389 -0.42333,1.093612 -0.635,2.434168 -0.21167,1.340556 -0.21167,2.645835 0,1.270001 0.21167,2.610557 0.21167,1.340557 0.635,2.469447 0.42333,1.093611 1.09361,1.799167 0.67028,0.705556 1.5875,0.705556 0.98778,0 1.69334,-0.705556 0.70555,-0.705556 1.16416,-1.799167 0.45862,-1.093612 0.67028,-2.434169 0.24695,-1.340556 0.24695,-2.645835 z m 10.86556,18.450293 q 0,0.49389 -0.45861,0.49389 h -2.89278 q -0.49389,0 -0.49389,-0.49389 V 90.897231 h -3.21028 q -0.17639,2.151946 -0.84667,3.84528 -0.635,1.693334 -1.65805,2.89278 -0.98778,1.164167 -2.29306,1.799168 -1.30528,0.599721 -2.82223,0.599721 -1.69333,0 -3.06916,-0.740833 -1.37584,-0.776111 -2.36362,-2.187223 -0.9525,-1.44639 -1.48167,-3.492503 -0.52916,-2.046112 -0.52916,-4.621392 0,-2.786946 0.56444,-4.868336 0.56445,-2.081391 1.55223,-3.457225 0.98777,-1.375834 2.32833,-2.046112 1.37584,-0.670279 2.99861,-0.670279 1.55223,0 2.89278,0.599723 1.34056,0.564445 2.36362,1.76389 1.02305,1.164168 1.65805,2.963335 0.635,1.799168 0.77611,4.233337 h 3.13973 V 76.680277 q 0,-0.458612 0.49389,-0.458612 h 2.89278 q 0.45861,0 0.45861,0.458612 z m 6.80862,1.19944 q 0,0.45861 -0.45862,0.45861 h -3.06917 q -0.45861,0 -0.45861,-0.45861 V 76.080554 q 0,-0.458611 0.49389,-0.458611 h 3.03389 q 0.45862,0 0.45862,0.458611 z m 32.24394,-0.0353 q 0,0.45862 -0.45862,0.45862 h -3.13972 q -0.45861,0 -0.45861,-0.45862 V 89.980008 h -7.26723 q -0.17639,0 -0.35278,-0.141111 -0.14111,-0.141112 -0.14111,-0.317501 v -2.504724 q 0,-0.176389 0.14111,-0.282222 0.17639,-0.141111 0.35278,-0.141111 h 7.26723 V 76.080554 q 0,-0.458611 0.45861,-0.458611 h 3.13972 q 0.45862,0 0.45862,0.458611 z m -25.25891,-6.985 q -0.67028,0.52917 -1.23472,-0.0353 l -1.65806,-1.55222 q -0.49389,-0.49389 0.10583,-1.058335 2.29306,-2.116668 3.91584,-4.65667 1.62278,-2.540002 2.61056,-5.432781 0.88194,-2.57528 1.19944,-5.221115 0.35278,-2.681113 0.28222,-5.820837 0,-0.211667 0.14112,-0.352778 0.17638,-0.176389 0.35277,-0.176389 l 3.13973,0.105833 q 0.17639,0 0.3175,0.176389 0.14111,0.141111 0.14111,0.352778 0,4.33917 -0.635,7.972783 0.3175,1.693335 1.05833,3.421947 0.74084,1.693335 1.72862,3.280836 1.02305,1.552223 2.18722,2.892779 1.16417,1.340557 2.32833,2.25778 0.56445,0.423333 0.0706,1.128889 l -1.48167,1.799171 q -0.17639,0.24694 -0.49389,0.28222 -0.28222,0.0353 -0.635,-0.21167 -0.88194,-0.67028 -1.86972,-1.693332 -0.9525,-1.023056 -1.83445,-2.187223 -0.88194,-1.199446 -1.62278,-2.434169 -0.74083,-1.27 -1.16416,-2.434168 -0.635,1.481668 -1.44639,2.857502 -0.81139,1.375834 -1.72862,2.645835 -0.88194,1.234723 -1.86972,2.293057 -0.9525,1.023058 -1.905,1.799168 z m 62.44176,5.82084 q 0,0.49389 -0.45861,0.49389 h -2.89278 q -0.49389,0 -0.49389,-0.49389 V 95.871401 h -4.40972 q -0.98778,2.222501 -2.61056,3.245557 -1.62278,1.023052 -3.73945,1.023052 -1.65806,0 -3.03389,-0.670274 -1.37583,-0.705556 -2.39889,-2.08139 -0.98778,-1.375834 -1.55222,-3.457224 -0.52917,-2.116669 -0.52917,-4.938893 0,-2.822224 0.52917,-4.903614 0.56444,-2.08139 1.55222,-3.457225 1.02306,-1.375834 2.39889,-2.046112 1.37583,-0.705556 3.03389,-0.705556 2.2225,0 3.91584,1.199445 1.72861,1.199445 2.68111,3.668891 h 4.16278 v -6.103059 q 0,-0.458612 0.49389,-0.458612 h 2.89278 q 0.45861,0 0.45861,0.458612 z m 6.77334,1.23472 q 0,0.45861 -0.45861,0.45861 h -3.06917 q -0.45861,0 -0.45861,-0.45861 V 76.080554 q 0,-0.458611 0.49389,-0.458611 h 3.03389 q 0.45861,0 0.45861,0.458611 z M 480.69563,88.992229 q 0,-1.305278 -0.21166,-2.645835 -0.21167,-1.340556 -0.67028,-2.434168 -0.42334,-1.093612 -1.12889,-1.799168 -0.67028,-0.705556 -1.62278,-0.705556 -0.91722,0 -1.62278,0.705556 -0.67028,0.705556 -1.12889,1.799168 -0.42333,1.093612 -0.635,2.434168 -0.21167,1.340557 -0.21167,2.645835 0,1.305279 0.21167,2.681113 0.21167,1.340557 0.635,2.434169 0.45861,1.093611 1.12889,1.799167 0.70556,0.705556 1.62278,0.705556 0.9525,0 1.62278,-0.705556 0.70555,-0.705556 1.12889,-1.799167 0.45861,-1.093612 0.67028,-2.434169 0.21166,-1.375834 0.21166,-2.681113 z m 3.88056,0 q 0,1.023057 -0.0705,1.905002 -0.0706,0.846667 -0.21167,1.658056 h 3.4925 v -6.526393 h -3.38667 q 0.0706,0.705556 0.10584,1.44639 0.0705,0.740834 0.0705,1.516945 z m 48.82448,2.89278 q 0,0.176389 -0.17639,0.352778 -0.17639,0.141111 -0.35278,0.141111 h -13.33501 v 2.89278 h 6.59695 q 1.44639,0 1.905,0.458611 0.49389,0.423334 0.49389,1.622779 v 4.127502 q 0,1.23472 -0.49389,1.65806 -0.45861,0.42333 -1.905,0.42333 h -15.06362 q -0.28222,0 -0.35278,0.10583 -0.0706,0.0706 -0.0706,0.38806 v 1.23472 q 0,0.35278 0.0706,0.38806 0.0706,0.0706 0.38806,0.0706 h 17.74473 q 0.17639,0 0.35278,0.10583 0.17639,0.14111 0.17639,0.35278 v 2.29305 q 0,0.17639 -0.17639,0.3175 -0.17639,0.17639 -0.3175,0.17639 h -19.8614 q -1.37584,0 -1.86973,-0.49389 -0.49389,-0.49389 -0.49389,-1.62278 v -4.16278 q 0,-1.12889 0.45862,-1.62277 0.49388,-0.49389 1.86972,-0.49389 h 15.13418 q 0.28222,0 0.35277,-0.0706 0.10584,-0.0706 0.10584,-0.38806 v -1.164163 q 0,-0.282222 -0.0706,-0.352778 -0.0706,-0.07055 -0.38805,-0.07055 h -17.03918 q -0.17639,0 -0.35278,-0.141112 -0.14111,-0.141111 -0.14111,-0.3175 v -2.363613 q 0,-0.176389 0.14111,-0.3175 0.17639,-0.141111 0.35278,-0.141111 h 8.39611 v -2.89278 h -13.335 q -0.49389,0 -0.49389,-0.493889 V 89.69779 q 0,-0.564444 0.49389,-0.564444 h 30.72696 q 0.17639,0 0.35278,0.176389 0.17639,0.176389 0.17639,0.388055 z m -26.98752,-4.621392 q -0.77611,0.176389 -0.9525,-0.211667 l -0.9525,-2.187223 q -0.0706,-0.176389 0,-0.388056 0.0706,-0.211667 0.3175,-0.282223 2.25778,-0.493889 4.16278,-1.199445 1.905,-0.705556 3.28083,-1.693334 1.41112,-0.987779 2.22251,-2.293057 0.84666,-1.305279 0.98777,-3.069169 0.0706,-0.564445 0.67028,-0.564445 l 2.71639,0.105833 q 0.49389,0 0.49389,0.49389 -0.0353,0.3175 -0.0353,0.635 0,0.282222 -0.0706,0.599723 0.52917,1.340556 1.62278,2.39889 1.12889,1.058334 2.61056,1.905001 1.48166,0.81139 3.21028,1.411112 1.76389,0.599723 3.56305,0.987779 0.21167,0.07056 0.28223,0.282222 0.10583,0.211667 0.0353,0.388056 l -1.05833,2.08139 q -0.17639,0.458612 -0.81139,0.352778 -1.44639,-0.141111 -3.06917,-0.635 -1.5875,-0.529167 -3.13972,-1.305279 -1.51695,-0.776111 -2.82223,-1.76389 -1.30528,-0.987778 -2.11667,-2.151946 -1.65805,2.328335 -4.55083,3.880559 -2.8575,1.516945 -6.59695,2.222501 z m 31.71477,7.337783 q -0.24694,0.105833 -0.59972,0.105833 -0.3175,0 -0.52917,-0.388056 l -1.09361,-1.76389 q -0.17639,-0.282222 -0.10583,-0.564445 0.10583,-0.3175 0.45861,-0.493889 3.91584,-1.799168 6.80862,-4.409725 2.92805,-2.610557 4.33916,-5.538615 0.17639,-0.3175 0.14112,-0.564445 -0.0353,-0.246944 -0.59973,-0.246944 h -8.85472 q -0.24695,0 -0.38806,-0.176389 -0.10583,-0.176389 -0.10583,-0.388056 v -2.328335 q 0,-0.493889 0.52916,-0.493889 h 11.32418 q 1.55222,0 2.29305,0.564445 0.77612,0.564444 0.59973,1.728612 -0.0706,0.388056 -0.17639,0.811389 -0.10584,0.423334 -0.24695,0.740834 -0.42333,1.12889 -1.12889,2.293057 -0.67027,1.164168 -1.55222,2.293057 0.635,0.635001 1.41111,1.270001 0.77611,0.635001 1.5875,1.199446 0.81139,0.564444 1.62278,1.058334 0.81139,0.458611 1.51695,0.811389 0.38805,0.176389 0.49389,0.388056 0.10583,0.176389 -0.14111,0.529167 l -1.16417,1.975557 q -0.35278,0.635 -1.05834,0.282222 -0.635,-0.3175 -1.48166,-0.811389 -0.81139,-0.529167 -1.72862,-1.199446 -0.88194,-0.670278 -1.76389,-1.375834 -0.88194,-0.740834 -1.62277,-1.481667 -1.86973,1.834445 -4.12751,3.421946 -2.2225,1.587501 -4.65667,2.751669 z m 23.60085,13.93473 q 0,0.17639 -0.17639,0.3175 -0.14111,0.17639 -0.35277,0.17639 h -2.99862 q -0.21166,0 -0.38805,-0.17639 -0.17639,-0.14111 -0.17639,-0.3175 v -7.83167 q 0,-0.38806 -0.14111,-0.49389 -0.14112,-0.10583 -0.49389,-0.10583 h -15.94557 q -0.17639,0 -0.35278,-0.105837 -0.14111,-0.141111 -0.14111,-0.3175 v -2.504724 q 0,-0.211667 0.14111,-0.3175 0.17639,-0.141111 0.35278,-0.141111 h 18.30918 q 1.34056,0 1.83445,0.564445 0.52916,0.564445 0.52916,1.905001 z m 5.32695,-21.590013 q 0,0.176389 -0.17639,0.3175 -0.14111,0.141111 -0.35278,0.141111 h -4.7625 v 7.090838 q 0,0.458612 -0.45861,0.458612 h -3.13973 q -0.45861,0 -0.45861,-0.493889 V 76.080554 q 0,-0.458611 0.45861,-0.458611 h 3.13973 q 0.45861,0 0.45861,0.458611 v 7.937505 h 4.7625 q 0.21167,0 0.35278,0.141112 0.17639,0.105833 0.17639,0.3175 z m 27.58724,19.155843 q 0,1.34056 -0.70556,1.905 -0.67027,0.56445 -2.01083,0.56445 H 575.6635 q -1.5875,0 -2.15194,-0.56445 -0.52917,-0.52916 -0.52917,-1.905 v -5.96195 q 0,-1.340552 0.67028,-1.904997 0.67028,-0.564444 2.01083,-0.564444 h 6.13834 v -3.421947 h -13.33501 q -0.49389,0 -0.49389,-0.493889 V 91.39112 q 0,-0.211667 0.14111,-0.352778 0.14111,-0.176389 0.35278,-0.176389 h 30.72697 q 0.17639,0 0.35277,0.176389 0.17639,0.176389 0.17639,0.352778 v 2.363613 q 0,0.176389 -0.17639,0.352778 -0.17638,0.141111 -0.35277,0.141111 h -13.33501 v 3.421947 h 6.06778 q 1.62278,0 2.15195,0.529167 0.56444,0.529167 0.56444,1.940274 z M 573.33517,79.502501 q -0.17639,0 -0.38806,-0.176389 -0.17639,-0.176389 -0.17639,-0.423334 v -2.046112 q 0,-0.176389 0.17639,-0.352778 0.21167,-0.176389 0.38806,-0.176389 h 20.99029 q 0.21167,0 0.35278,0.176389 0.17639,0.141111 0.17639,0.352778 v 2.116668 q 0,0.211667 -0.17639,0.388056 -0.14111,0.141111 -0.35278,0.141111 h -3.31611 v 5.644448 h 3.95111 q 0.21167,0 0.35278,0.176389 0.17639,0.141111 0.17639,0.352778 v 2.08139 q 0,0.246945 -0.17639,0.423334 -0.14111,0.141111 -0.35278,0.141111 h -22.26029 q -0.17639,0 -0.38806,-0.176389 -0.21166,-0.176389 -0.21166,-0.423334 v -2.046112 q 0,-0.176389 0.21166,-0.352778 0.21167,-0.176389 0.38806,-0.176389 h 3.95111 v -5.644448 z m 17.25084,22.119179 q 0,-0.56444 -0.49389,-0.56444 h -12.59417 q -0.28222,0 -0.38806,0.14111 -0.0705,0.10583 -0.0705,0.38805 v 3.13973 q 0,0.3175 0.0705,0.38805 0.10584,0.0706 0.38806,0.0706 h 12.59417 q 0.3175,0 0.38806,-0.0706 0.10583,-0.0706 0.10583,-0.38805 z M 580.56712,79.502501 v 5.644448 h 6.52639 v -5.644448 z m 48.96565,29.139459 q 0,0.45862 -0.45861,0.45862 h -3.13973 q -0.45861,0 -0.45861,-0.45862 V 76.080554 q 0,-0.458611 0.45861,-0.458611 h 3.13973 q 0.45861,0 0.45861,0.458611 z M 616.79748,89.345007 q 0,-1.622779 -0.3175,-3.069168 -0.3175,-1.481668 -0.91722,-2.57528 -0.59973,-1.093612 -1.48167,-1.728612 -0.84667,-0.635001 -1.97556,-0.635001 -1.12889,0 -2.01083,0.635001 -0.84667,0.635 -1.44639,1.728612 -0.59972,1.093612 -0.91722,2.57528 -0.3175,1.446389 -0.3175,3.069168 0,1.587501 0.3175,3.069169 0.3175,1.44639 0.91722,2.57528 0.59972,1.093611 1.44639,1.76389 0.88194,0.635 2.01083,0.635 1.12889,0 1.97556,-0.635 0.88194,-0.670279 1.48167,-1.76389 0.59972,-1.12889 0.91722,-2.57528 0.3175,-1.481668 0.3175,-3.069169 z m -4.69195,11.641673 q -2.01083,0 -3.63361,-0.84667 -1.62278,-0.846663 -2.75167,-2.363608 -1.09361,-1.552223 -1.69333,-3.704169 -0.59973,-2.151946 -0.59973,-4.727226 0,-2.645835 0.59973,-4.797781 0.59972,-2.151946 1.69333,-3.633613 1.12889,-1.516946 2.75167,-2.328335 1.62278,-0.846667 3.63361,-0.846667 2.04612,0 3.63362,0.846667 1.62278,0.811389 2.71639,2.328335 1.12889,1.481667 1.72861,3.633613 0.59972,2.151946 0.59972,4.797781 0,2.645835 -0.59972,4.797781 -0.59972,2.151946 -1.72861,3.668892 -1.09361,1.516945 -2.71639,2.36361 -1.5875,0.81139 -3.63362,0.81139 z m 32.56144,-1.269999 q 0,-0.493889 0.52916,-0.493889 4.16278,0.105833 8.78418,-0.105834 V 92.83751 h -4.09223 q -1.41111,0 -2.04611,-0.670279 -0.635,-0.705556 -0.635,-1.940279 v -9.066395 q 0,-1.340556 0.59972,-1.905001 0.59972,-0.564445 1.94028,-0.564445 h 13.93473 q 0.21167,0 0.35278,0.176389 0.14111,0.141112 0.14111,0.317501 v 2.39889 q 0,0.458611 -0.49389,0.458611 h -11.78278 q -0.3175,0 -0.49389,0.141112 -0.14112,0.105833 -0.14112,0.493889 v 6.208893 q 0,0.352778 0.10584,0.493889 0.14111,0.105834 0.52917,0.105834 h 11.92389 q 0.59972,0 0.59972,0.493889 v 2.293057 q 0,0.564445 -0.59972,0.564445 h -5.89139 v 6.067782 q 2.25778,-0.141112 4.37445,-0.352778 2.11666,-0.211667 3.91583,-0.458612 0.17639,-0.03528 0.38806,0.03528 0.24694,0.03528 0.28222,0.3175 l 0.21167,2.328338 q 0.0353,0.28222 -0.14111,0.42333 -0.14111,0.14111 -0.3175,0.17639 -1.97556,0.28222 -4.6214,0.56444 -2.64583,0.24695 -5.57389,0.42334 -2.89278,0.17639 -5.82084,0.28222 -2.92805,0.0705 -5.43278,0.0353 -0.52916,0 -0.52916,-0.56445 z m 27.94001,8.995839 q 0,0.45861 -0.49388,0.45861 h -3.10445 q -0.17639,0 -0.35278,-0.14111 -0.14111,-0.10583 -0.14111,-0.3175 V 76.080554 q 0,-0.176389 0.14111,-0.3175 0.17639,-0.141111 0.35278,-0.141111 h 3.10445 q 0.49388,0 0.49388,0.458611 z m 33.12586,-0.0706 q 0,0.45862 -0.45861,0.45862 h -3.13973 q -0.45861,0 -0.45861,-0.45862 V 76.080554 q 0,-0.458611 0.45861,-0.458611 h 3.13973 q 0.45861,0 0.45861,0.458611 z m -9.52501,-27.728347 q -0.28222,3.421947 -1.44639,6.455837 -1.12889,3.033891 -3.03389,5.644449 -1.86972,2.610557 -4.445,4.833059 -2.57528,2.222502 -5.67973,4.056942 -0.28222,0.17639 -0.635,0.14112 -0.3175,-0.0706 -0.49389,-0.35278 l -1.19944,-1.869726 q -0.17639,-0.282222 -0.10583,-0.529167 0.0705,-0.282222 0.3175,-0.423333 5.25639,-3.104447 8.39611,-7.161394 3.175,-4.056947 4.12751,-8.890006 0.14111,-0.705556 -0.0706,-0.917223 -0.21167,-0.246944 -0.88195,-0.246944 h -9.94834 q -0.49388,0 -0.49388,-0.49389 v -2.469446 q 0,-0.423333 0.49388,-0.423333 h 12.62946 q 1.5875,0 2.08139,0.670278 0.49389,0.635 0.38805,1.975557 z m 34.29003,-0.176389 q 0,2.716391 -0.56445,5.60917 -0.52917,2.857502 -1.62278,5.679726 -1.09361,2.786947 -2.71639,5.397504 -1.62278,2.610556 -3.73945,4.762506 -0.17638,0.17639 -0.52916,0.24694 -0.3175,0.0706 -0.56445,-0.14111 l -1.76389,-1.51694 q -0.24694,-0.21167 -0.17639,-0.56445 0.10584,-0.352778 0.24695,-0.493889 1.62278,-1.693334 2.96333,-3.810003 1.37584,-2.116668 2.36362,-4.374447 0.98777,-2.293057 1.51694,-4.586114 0.56445,-2.328335 0.56445,-4.33917 0,-0.705556 -0.14111,-0.917223 -0.10584,-0.246944 -0.70556,-0.246944 h -3.31611 q -0.49389,0 -0.49389,-0.493889 v -2.187224 q 0,-0.423334 0.49389,-0.423334 h 5.715 q 1.37583,0 1.905,0.529167 0.56445,0.529167 0.56445,1.869724 z m 12.24139,10.795007 q 0,0.176389 -0.17639,0.3175 -0.14111,0.141111 -0.3175,0.141111 h -4.79778 v 16.651118 q 0,0.45862 -0.45861,0.45862 h -2.99861 q -0.45861,0 -0.45861,-0.45862 V 76.080554 q 0,-0.458611 0.45861,-0.458611 h 2.99861 q 0.45861,0 0.45861,0.458611 v 12.52362 h 4.79778 q 0.17639,0 0.3175,0.141111 0.17639,0.105833 0.17639,0.282222 z M 720.86702,80.878335 q 0,2.187224 -0.49389,4.515559 -0.49389,2.328334 -1.48167,4.621392 -0.9525,2.257779 -2.36361,4.409725 -1.41112,2.151946 -3.24556,3.986391 -0.24695,0.246945 -0.59972,0.317501 -0.35278,0.03528 -0.59973,-0.211667 l -1.55222,-1.375835 q -0.21167,-0.246944 -0.17639,-0.529167 0.0353,-0.3175 0.21167,-0.493889 1.44639,-1.375834 2.61056,-3.139724 1.19944,-1.799168 2.04611,-3.633614 0.84667,-1.869723 1.30528,-3.598335 0.49389,-1.76389 0.49389,-3.139725 0,-0.705556 -0.14112,-0.917223 -0.10583,-0.246944 -0.74083,-0.246944 h -4.16278 q -0.45861,0 -0.45861,-0.493889 v -2.187224 q 0,-0.423334 0.45861,-0.423334 h 6.38528 q 1.41111,0 1.94028,0.599723 0.56445,0.599723 0.56445,1.940279 z m 26.07035,19.720295 q -0.28222,0.17639 -0.59972,0.14111 -0.3175,-0.0353 -0.49389,-0.3175 l -1.37583,-1.834449 q -0.24695,-0.3175 -0.10584,-0.599722 0.17639,-0.282223 0.42334,-0.423334 2.2225,-1.375834 4.23333,-3.175002 2.01084,-1.799168 3.59834,-3.774725 1.62278,-1.975557 2.75167,-4.021669 1.12889,-2.08139 1.62278,-3.986392 0.14111,-0.599722 0.0353,-0.776111 -0.10583,-0.176389 -0.70555,-0.176389 h -9.10168 q -0.21166,0 -0.35277,-0.141112 -0.10584,-0.176389 -0.10584,-0.388055 v -2.363613 q 0,-0.493889 0.49389,-0.493889 h 11.50057 q 1.37583,0 2.15194,0.529167 0.77611,0.529167 0.77611,1.375834 0,0.458611 -0.0706,0.952501 -0.0706,0.458611 -0.17639,0.846667 -0.49389,1.869723 -1.34056,3.774725 -0.81139,1.869723 -2.01083,3.774724 0.67028,0.917223 1.55222,1.940279 0.88195,0.987779 1.83445,1.94028 0.9525,0.9525 1.86972,1.799167 0.91722,0.81139 1.65806,1.340557 0.24694,0.176389 0.3175,0.458611 0.10583,0.282223 -0.10584,0.564445 l -1.51694,1.728612 q -0.45861,0.49389 -1.16417,0.07056 -0.635,-0.423334 -1.51695,-1.164167 -0.84666,-0.776112 -1.76389,-1.693335 -0.91722,-0.917223 -1.79916,-1.940279 -0.88195,-1.023056 -1.5875,-1.940279 -1.79917,2.222501 -4.02167,4.268614 -2.22251,2.010835 -4.90362,3.704169 z m 25.15307,8.04333 q 0,0.45862 -0.49388,0.45862 h -3.10445 q -0.17639,0 -0.35278,-0.14112 -0.14111,-0.10583 -0.14111,-0.3175 V 76.080554 q 0,-0.176389 0.14111,-0.3175 0.17639,-0.141111 0.35278,-0.141111 h 3.10445 q 0.49388,0 0.49388,0.458611 z"
         id="path3" />
      <path
         d="m 380.25972,154.11505 q -0.24694,0 -0.3175,-0.0353 -0.0353,0 -0.17639,-0.17639 -3.21028,-4.02167 -4.7625,-8.14917 -1.55222,-4.1275 -1.55222,-8.53723 0,-4.37444 1.55222,-8.50195 1.55222,-4.1275 4.7625,-8.18445 0.14112,-0.17639 0.17639,-0.17639 0.0706,-0.0353 0.24695,-0.0353 h 0.98778 q 0.21166,0 0.21166,0.0353 0,0.0353 -0.10583,0.21167 -5.53861,8.67834 -5.53861,16.65112 0,4.05695 1.41111,8.18445 1.41111,4.12751 4.16278,8.46668 0.17639,0.24694 -0.17639,0.24694 z m 21.13144,-19.89668 q 0,-1.65806 -0.9525,-2.68111 v 0.0353 q -0.88195,-0.70556 -2.08139,-0.70556 -2.01084,0 -3.84528,2.11667 -2.04612,2.43417 -2.01084,5.57389 0.0353,1.69333 0.74084,2.64584 0.74083,0.9525 1.97555,0.9525 1.23473,0 2.39889,-0.74084 1.16417,-0.74083 2.08139,-2.04611 0.81139,-1.23472 1.23473,-2.54 0.45861,-1.34056 0.45861,-2.61056 z m 9.56028,-0.14111 q 0,4.40972 -3.10444,7.54945 -2.61056,2.75167 -5.39751,2.75167 -2.64583,0 -2.96333,-2.36361 -0.98778,1.12888 -2.18723,1.76389 -1.19944,0.59972 -2.57528,0.59972 -2.18722,0 -3.63361,-1.62278 -1.44639,-1.65806 -1.44639,-3.98639 0,-3.91584 2.43417,-6.87917 2.50472,-3.24556 6.27945,-3.24556 2.82222,0 4.16278,2.92806 0.17639,-0.52917 0.38805,-1.12889 0.24695,-0.635 0.42334,-1.16417 h 2.39889 l -3.28084,10.16001 q -0.35278,1.05833 -0.35278,1.76389 0,0.9525 0.84667,0.9525 2.18723,0 3.77473,-2.39889 1.72861,-2.39889 1.72861,-5.67973 0,-4.09223 -3.28084,-6.6675 -3.175,-2.36362 -7.58472,-2.36362 -4.76251,0 -8.00807,3.175 -3.13972,3.21028 -3.13972,8.04334 0,4.97417 3.13972,8.18445 3.24556,3.17501 8.00807,3.17501 6.49111,0 9.94834,-4.16279 h 2.29305 q -1.83444,3.0339 -5.04472,4.72723 -3.17501,1.65806 -7.19667,1.65806 -3.10445,0 -5.67973,-1.09361 -2.57528,-1.12889 -4.48028,-3.17501 -1.69334,-1.905 -2.57528,-4.26861 -0.88195,-2.36361 -0.88195,-4.97417 0,-5.43278 3.45723,-9.31334 3.77472,-4.19806 10.16001,-4.19806 2.64583,0 4.93889,0.74083 2.32833,0.70556 4.19806,2.15195 2.01083,1.55222 3.10444,3.70417 1.12889,2.11667 1.12889,4.65667 z m 2.75166,22.22501 q -0.49389,-0.0353 -0.49389,-0.67027 v -0.98778 q 0,-0.42334 0.49389,-0.3175 0.14111,0.0353 0.38806,0.0353 0.28222,0.0353 0.49389,0.0353 0.84666,0 1.41111,-0.3175 0.56444,-0.28222 0.88194,-0.77611 0.38806,-0.77611 0.38806,-2.54 V 132.3487 q 0,-0.49389 0.49389,-0.49389 h 1.41111 q 0.49389,0 0.49389,0.49389 v 18.66195 q 0,5.39751 -4.40972,5.39751 -0.49389,0 -0.84667,-0.0353 -0.3175,0 -0.70556,-0.0706 z m 3.03389,-31.11502 q 0,-0.70555 0.49389,-1.19944 0.49389,-0.52917 1.19945,-0.52917 0.70555,0 1.19944,0.52917 0.52917,0.49389 0.52917,1.19944 0,0.70556 -0.52917,1.19945 -0.49389,0.49389 -1.19944,0.49389 -0.70556,0 -1.19945,-0.49389 -0.49389,-0.49389 -0.49389,-1.19945 z m 19.79082,14.25224 h -0.67028 q -1.97556,-0.0706 -3.52778,0.17638 -1.51695,0.21167 -2.54,0.59973 -1.48167,0.52916 -2.2225,1.5875 -0.74084,1.02305 -0.74084,2.46944 0,0.88195 0.28223,1.65806 0.28222,0.74083 0.88194,1.16417 1.05833,0.84667 2.82222,0.84667 1.23473,0 2.25778,-0.49389 1.05834,-0.49389 1.83445,-1.41112 0.77611,-0.91722 1.19944,-2.25777 0.42334,-1.37584 0.42334,-3.13973 z m -10.05418,-6.17362 q -0.17638,0.10583 -0.35277,0.0706 -0.14111,-0.0706 -0.14111,-0.24695 v -1.34056 q 0,-0.49388 0.49388,-0.74083 1.23473,-0.67028 2.61056,-0.91722 1.41111,-0.28222 3.06917,-0.28222 3.52778,0 5.15056,1.69333 1.62278,1.65806 1.62278,5.04473 v 8.85472 q 0,1.05834 0.0353,1.90501 0.0353,0.81138 0.10583,1.5875 0,0.49389 -0.49389,0.49389 h -1.27 q -0.49389,0 -0.49389,-0.49389 v -2.71639 q -0.74083,1.79916 -2.50472,2.78694 -1.72862,0.98778 -3.77473,0.98778 -3.56306,0 -5.22111,-2.08139 -0.56445,-0.70556 -0.84667,-1.62278 -0.28222,-0.9525 -0.28222,-1.86972 0,-2.15195 0.98778,-3.70417 1.02305,-1.55222 3.10444,-2.32834 2.54,-0.91722 7.7964,-0.91722 h 0.45861 v -1.05833 q 0,-2.2225 -1.02306,-3.38667 -0.98778,-1.16417 -3.35139,-1.16417 -1.5875,0 -2.99861,0.35278 -1.41111,0.3175 -2.68112,1.09361 z m 24.69447,5.53862 7.62001,10.08945 q 0.10583,0.17639 0.0705,0.35277 -0.0353,0.14112 -0.24694,0.14112 h -1.51695 q -0.35278,0 -0.635,-0.10584 -0.28222,-0.10583 -0.45861,-0.38805 l -6.35001,-8.39612 -2.36361,2.64583 v 5.75029 q 0,0.49389 -0.49389,0.49389 h -1.41111 q -0.49389,0 -0.49389,-0.49389 v -27.09336 q 0,-0.49388 0.49389,-0.49388 h 1.41111 q 0.49389,0 0.49389,0.49388 v 18.37974 l 8.04334,-9.3839 q 0.49389,-0.49389 1.16417,-0.49389 h 1.65805 q 0.21167,0 0.28223,0.17639 0.0705,0.14112 -0.10584,0.3175 z m 23.8478,-0.28223 q 0,-1.44639 -0.28222,-2.57528 -0.28222,-1.12889 -0.88194,-2.04611 -1.30528,-2.08139 -3.77473,-2.08139 -2.54,0 -4.1275,2.11667 -0.635,0.9525 -1.05833,2.18722 -0.42334,1.23473 -0.45862,2.39889 z m -10.58334,2.01084 q -0.0353,1.76389 0.38806,3.13972 0.45861,1.34056 1.30528,2.25778 0.84667,0.91722 2.01083,1.41111 1.19945,0.49389 2.64584,0.49389 1.41111,0 2.64583,-0.24694 1.23473,-0.28222 2.29306,-0.88195 0.45861,-0.21166 0.45861,0.24695 v 1.5875 q 0,0.3175 -0.38805,0.49389 -1.16417,0.45861 -2.43417,0.67028 -1.27,0.24694 -2.75167,0.24694 -4.33917,0 -6.56167,-2.50472 -2.2225,-2.54001 -2.2225,-7.62001 0,-4.48028 2.2225,-7.23195 2.32833,-2.78694 5.89139,-2.78694 1.97556,0 3.42195,0.70555 1.44639,0.70556 2.46944,2.11667 1.79917,2.50472 1.79917,6.70278 0,0.45861 -0.0353,0.70556 0,0.24694 -0.10583,0.35278 -0.10583,0.10583 -0.38806,0.14111 -0.24694,0 -0.74083,0 z m 17.07447,6.52639 q 2.15194,0.88195 4.445,0.88195 1.905,0 3.13973,-0.91723 1.23472,-0.9525 1.23472,-2.54 0,-0.91722 -0.70556,-1.76389 -0.67028,-0.88194 -1.65805,-1.44639 -1.09362,-0.59972 -2.25778,-1.12889 -1.12889,-0.56444 -2.18723,-1.16417 -1.27,-0.70555 -1.86972,-1.72861 -0.59972,-1.05833 -0.59972,-2.18722 0,-1.30528 0.49389,-2.29306 0.49388,-0.98778 1.34055,-1.65806 0.84667,-0.67027 1.97556,-0.98777 1.12889,-0.3175 2.39889,-0.3175 1.34056,0 2.32833,0.14111 0.98778,0.14111 1.97556,0.42333 0.21167,0.0706 0.35278,0.21167 0.17639,0.14111 0.14111,0.38805 l -0.10583,1.05834 q -0.0353,0.28222 -0.21167,0.35278 -0.17639,0.0705 -0.35278,0 -0.88194,-0.31751 -1.76389,-0.42334 -0.88194,-0.14111 -2.11667,-0.14111 -4.09222,0 -4.09222,3.24556 0,0.70555 0.52917,1.34055 0.56444,0.63501 1.86972,1.27001 1.12889,0.56444 2.2225,1.09361 1.09361,0.49389 2.36361,1.19944 1.09362,0.59973 1.79917,1.83445 0.74084,1.23472 0.74084,2.68111 0,1.41111 -0.56445,2.43417 -0.56444,1.02306 -1.51694,1.69333 -0.95251,0.67028 -2.18723,0.98778 -1.23472,0.35278 -2.54,0.35278 -0.77611,0 -1.41111,-0.0353 -0.59972,-0.0353 -1.16417,-0.10583 -0.52917,-0.0706 -1.09361,-0.17639 -0.56445,-0.10583 -1.19945,-0.28222 -0.49389,-0.17639 -0.45861,-0.635 l 0.14111,-1.30528 q 0.0706,-0.56445 0.56445,-0.35278 z m 27.69306,-8.53723 q 0,-1.44639 -0.28222,-2.57528 -0.28222,-1.12889 -0.88194,-2.04611 -1.30528,-2.08139 -3.77473,-2.08139 -2.54,0 -4.1275,2.11667 -0.635,0.9525 -1.05834,2.18722 -0.42333,1.23473 -0.45861,2.39889 z m -10.58334,2.01084 q -0.0353,1.76389 0.38806,3.13972 0.45861,1.34056 1.30528,2.25778 0.84666,0.91722 2.01083,1.41111 1.19945,0.49389 2.64584,0.49389 1.41111,0 2.64583,-0.24694 1.23472,-0.28222 2.29306,-0.88195 0.45861,-0.21166 0.45861,0.24695 v 1.5875 q 0,0.3175 -0.38806,0.49389 -1.16416,0.45861 -2.43416,0.67028 -1.27,0.24694 -2.75167,0.24694 -4.33917,0 -6.56167,-2.50472 -2.2225,-2.54001 -2.2225,-7.62001 0,-4.48028 2.2225,-7.23195 2.32833,-2.78694 5.89139,-2.78694 1.97556,0 3.42195,0.70555 1.44639,0.70556 2.46944,2.11667 1.79917,2.50472 1.79917,6.70278 0,0.45861 -0.0353,0.70556 0,0.24694 -0.10583,0.35278 -0.10583,0.10583 -0.38806,0.14111 -0.24694,0 -0.74083,0 z m 31.99698,-0.67028 q 0,-1.65806 -0.45861,-3.10445 -0.42334,-1.44639 -1.19945,-2.57528 -1.83445,-2.25778 -4.7625,-2.25778 -1.48167,0 -2.68112,0.59973 -1.16416,0.56444 -2.08139,1.65805 -0.81139,1.12889 -1.27,2.57528 -0.42333,1.44639 -0.42333,3.10445 0,1.69333 0.42333,3.13972 0.45861,1.44639 1.27,2.54001 1.86973,2.29305 4.76251,2.29305 1.48166,0 2.64583,-0.59972 1.19945,-0.59972 2.11667,-1.69333 0.77611,-1.09362 1.19945,-2.54001 0.45861,-1.44639 0.45861,-3.13972 z m 2.61055,0 q 0,2.08139 -0.59972,3.88056 -0.59972,1.76389 -1.5875,3.10444 -1.23472,1.48167 -2.96334,2.29306 -1.69333,0.81139 -3.88055,0.81139 -2.18723,0 -3.91584,-0.81139 -1.72861,-0.81139 -2.96333,-2.29306 -0.98778,-1.34055 -1.58751,-3.10444 -0.56444,-1.79917 -0.56444,-3.88056 0,-4.26861 2.15195,-6.98501 2.46944,-3.06916 6.87917,-3.06916 2.2225,0 3.91583,0.77611 1.69334,0.74083 2.92806,2.29305 2.18722,2.78695 2.18722,6.98501 z m 20.77865,-5.64445 q 0,-1.65806 -0.9525,-2.68111 v 0.0353 q -0.88194,-0.70556 -2.08139,-0.70556 -2.01083,0 -3.84528,2.11667 -2.04611,2.43417 -2.01083,5.57389 0.0353,1.69333 0.74083,2.64584 0.74084,0.9525 1.97556,0.9525 1.23472,0 2.39889,-0.74084 1.16417,-0.74083 2.08139,-2.04611 0.81139,-1.23472 1.23472,-2.54 0.45861,-1.34056 0.45861,-2.61056 z m 9.56029,-0.14111 q 0,4.40972 -3.10445,7.54945 -2.61056,2.75167 -5.3975,2.75167 -2.64584,0 -2.96334,-2.36361 -0.98778,1.12888 -2.18722,1.76389 -1.19945,0.59972 -2.57528,0.59972 -2.18722,0 -3.63361,-1.62278 -1.44639,-1.65806 -1.44639,-3.98639 0,-3.91584 2.43416,-6.87917 2.50473,-3.24556 6.27945,-3.24556 2.82223,0 4.16278,2.92806 0.17639,-0.52917 0.38806,-1.12889 0.24694,-0.635 0.42333,-1.16417 h 2.39889 l -3.28083,10.16001 q -0.35278,1.05833 -0.35278,1.76389 0,0.9525 0.84667,0.9525 2.18722,0 3.77472,-2.39889 1.72861,-2.39889 1.72861,-5.67973 0,-4.09223 -3.28083,-6.6675 -3.175,-2.36362 -7.58473,-2.36362 -4.7625,0 -8.00806,3.175 -3.13972,3.21028 -3.13972,8.04334 0,4.97417 3.13972,8.18445 3.24556,3.17501 8.00806,3.17501 6.49112,0 9.94834,-4.16279 h 2.29306 q -1.83445,3.0339 -5.04473,4.72723 -3.175,1.65806 -7.19667,1.65806 -3.10445,0 -5.67973,-1.09361 -2.57527,-1.12889 -4.48028,-3.17501 -1.69333,-1.905 -2.57528,-4.26861 -0.88194,-2.36361 -0.88194,-4.97417 0,-5.43278 3.45722,-9.31334 3.77473,-4.19806 10.16001,-4.19806 2.64584,0 4.93889,0.74083 2.32834,0.70556 4.19806,2.15195 2.01084,1.55222 3.10445,3.70417 1.12889,2.11667 1.12889,4.65667 z m 20.32001,14.81668 q 0,0.49389 -0.49389,0.49389 h -1.41112 q -0.49388,0 -0.49388,-0.49389 v -10.86557 q 0,-1.69333 -0.3175,-2.8575 -0.28223,-1.19944 -0.84667,-1.905 -0.56445,-0.74083 -1.37584,-1.05833 -0.81139,-0.3175 -1.79916,-0.3175 -2.89278,0 -4.44501,1.37583 -1.51694,1.37583 -1.51694,3.81 v 11.81807 q 0,0.49389 -0.49389,0.49389 h -1.41111 q -0.49389,0 -0.49389,-0.49389 v -27.09336 q 0,-0.49388 0.49389,-0.49388 h 1.41111 q 0.49389,0 0.49389,0.49388 v 10.23057 q 0.98778,-1.12889 2.43417,-1.62278 1.48166,-0.52917 3.66889,-0.52917 3.42194,0 5.00944,2.01084 1.58751,2.01083 1.58751,6.10306 z m 17.14503,-9.45445 h -0.67028 q -1.97555,-0.0706 -3.52778,0.17638 -1.51694,0.21167 -2.54,0.59973 -1.48167,0.52916 -2.2225,1.5875 -0.74083,1.02305 -0.74083,2.46944 0,0.88195 0.28222,1.65806 0.28222,0.74083 0.88194,1.16417 1.05834,0.84667 2.82223,0.84667 1.23472,0 2.25778,-0.49389 1.05833,-0.49389 1.83444,-1.41112 0.77611,-0.91722 1.19945,-2.25777 0.42333,-1.37584 0.42333,-3.13973 z m -10.05417,-6.17362 q -0.17639,0.10583 -0.35278,0.0706 -0.14111,-0.0706 -0.14111,-0.24695 v -1.34056 q 0,-0.49388 0.49389,-0.74083 1.23472,-0.67028 2.61056,-0.91722 1.41111,-0.28222 3.06916,-0.28222 3.52778,0 5.15056,1.69333 1.62278,1.65806 1.62278,5.04473 v 8.85472 q 0,1.05834 0.0353,1.90501 0.0353,0.81138 0.10583,1.5875 0,0.49389 -0.49389,0.49389 h -1.27 q -0.49389,0 -0.49389,-0.49389 v -2.71639 q -0.74083,1.79916 -2.50472,2.78694 -1.72861,0.98778 -3.77472,0.98778 -3.56306,0 -5.22112,-2.08139 -0.56444,-0.70556 -0.84667,-1.62278 -0.28222,-0.9525 -0.28222,-1.86972 0,-2.15195 0.98778,-3.70417 1.02306,-1.55222 3.10445,-2.32834 2.54,-0.91722 7.79639,-0.91722 h 0.45861 v -1.05833 q 0,-2.2225 -1.02305,-3.38667 -0.98778,-1.16417 -3.3514,-1.16417 -1.5875,0 -2.99861,0.35278 -1.41111,0.3175 -2.68111,1.09361 z m 30.65642,16.26307 q -1.05834,0.17639 -2.04612,0.24694 -0.98777,0.0706 -2.36361,0.0706 -2.18722,0 -3.91584,-0.77611 -1.69333,-0.77612 -2.89277,-2.11667 -1.16417,-1.34056 -1.79917,-3.175 -0.635,-1.83445 -0.635,-3.95112 0,-2.15194 0.67028,-3.95111 0.67027,-1.83445 1.905,-3.13973 1.27,-1.34055 2.99861,-2.08139 1.76389,-0.77611 3.95111,-0.77611 1.16417,0 2.11667,0.10583 0.9525,0.0706 2.04611,0.3175 0.49389,0.14112 0.45862,0.67028 l -0.10584,1.12889 q -0.0706,0.42334 -0.52917,0.3175 -0.91722,-0.28222 -1.76389,-0.38805 -0.84666,-0.14111 -1.86972,-0.14111 -1.79917,0 -3.175,0.59972 -1.34056,0.56444 -2.25778,1.62278 -0.91722,1.05833 -1.37583,2.54 -0.45862,1.44639 -0.45862,3.175 0,1.5875 0.45862,3.03389 0.49388,1.44639 1.37583,2.57528 0.91722,1.09361 2.18722,1.76389 1.30528,0.635 2.96334,0.635 1.23472,0 2.04611,-0.10583 0.81139,-0.10583 1.83445,-0.38806 0.52916,-0.14111 0.56444,0.24695 l 0.10584,1.30528 q 0.0353,0.52916 -0.49389,0.635 z m 11.11248,-10.72445 7.62001,10.08945 q 0.10583,0.17639 0.0705,0.35277 -0.0353,0.14112 -0.24694,0.14112 h -1.51695 q -0.35278,0 -0.635,-0.10584 -0.28222,-0.10583 -0.45861,-0.38805 l -6.35001,-8.39612 -2.36361,2.64583 v 5.75029 q 0,0.49389 -0.49389,0.49389 h -1.41111 q -0.49389,0 -0.49389,-0.49389 v -27.09336 q 0,-0.49388 0.49389,-0.49388 h 1.41111 q 0.49389,0 0.49389,0.49388 v 18.37974 l 8.04334,-9.3839 q 0.49389,-0.49389 1.16417,-0.49389 h 1.65805 q 0.21167,0 0.28223,0.17639 0.0706,0.14112 -0.10584,0.3175 z m 23.84782,-0.28223 q 0,-1.44639 -0.28222,-2.57528 -0.28223,-1.12889 -0.88195,-2.04611 -1.30528,-2.08139 -3.77472,-2.08139 -2.54,0 -4.12751,2.11667 -0.635,0.9525 -1.05833,2.18722 -0.42333,1.23473 -0.45861,2.39889 z m -10.58334,2.01084 q -0.0353,1.76389 0.38805,3.13972 0.45862,1.34056 1.30528,2.25778 0.84667,0.91722 2.01084,1.41111 1.19944,0.49389 2.64583,0.49389 1.41112,0 2.64584,-0.24694 1.23472,-0.28222 2.29306,-0.88195 0.45861,-0.21166 0.45861,0.24695 v 1.5875 q 0,0.3175 -0.38806,0.49389 -1.16417,0.45861 -2.43417,0.67028 -1.27,0.24694 -2.75167,0.24694 -4.33917,0 -6.56167,-2.50472 -2.2225,-2.54001 -2.2225,-7.62001 0,-4.48028 2.2225,-7.23195 2.32834,-2.78694 5.8914,-2.78694 1.97555,0 3.42194,0.70555 1.44639,0.70556 2.46945,2.11667 1.79917,2.50472 1.79917,6.70278 0,0.45861 -0.0353,0.70556 0,0.24694 -0.10583,0.35278 -0.10584,0.10583 -0.38806,0.14111 -0.24694,0 -0.74083,0 z m 26.98749,-8.07862 q -0.635,-0.21167 -1.69333,-0.21167 -2.61056,0 -3.88056,2.57528 -0.98778,2.01084 -0.98778,5.15056 v 8.92529 q 0,0.49389 -0.49389,0.49389 h -1.37583 q -0.49389,0 -0.49389,-0.49389 v -14.32279 q 0,-1.27 -0.0353,-2.04611 0,-0.81139 -0.0353,-1.72862 0,-0.49389 0.49388,-0.49389 h 1.30528 q 0.49389,0 0.49389,0.49389 v 3.45723 q 1.72861,-4.445 5.08001,-4.445 0.81139,0 1.62277,0.21166 0.21167,0.0706 0.35278,0.24695 0.17639,0.14111 0.17639,0.42333 v 1.48167 q 0,0.21167 -0.17639,0.28222 -0.17639,0.0706 -0.35278,0 z m 2.89282,14.60501 q 2.15195,0.88195 4.445,0.88195 1.905,0 3.13973,-0.91723 1.23472,-0.9525 1.23472,-2.54 0,-0.91722 -0.70556,-1.76389 -0.67027,-0.88194 -1.65805,-1.44639 -1.09361,-0.59972 -2.25778,-1.12889 -1.12889,-0.56444 -2.18723,-1.16417 -1.27,-0.70555 -1.86972,-1.72861 -0.59972,-1.05833 -0.59972,-2.18722 0,-1.30528 0.49389,-2.29306 0.49389,-0.98778 1.34055,-1.65806 0.84667,-0.67027 1.97556,-0.98777 1.12889,-0.3175 2.39889,-0.3175 1.34056,0 2.32834,0.14111 0.98778,0.14111 1.97555,0.42333 0.21167,0.0706 0.35278,0.21167 0.17639,0.14111 0.14111,0.38805 l -0.10583,1.05834 q -0.0353,0.28222 -0.21167,0.35278 -0.17639,0.0705 -0.35278,0 -0.88194,-0.31751 -1.76389,-0.42334 -0.88194,-0.14111 -2.11666,-0.14111 -4.09223,0 -4.09223,3.24556 0,0.70555 0.52917,1.34055 0.56444,0.63501 1.86972,1.27001 1.12889,0.56444 2.2225,1.09361 1.09362,0.49389 2.36362,1.19944 1.09361,0.59973 1.79916,1.83445 0.74084,1.23472 0.74084,2.68111 0,1.41111 -0.56445,2.43417 -0.56444,1.02306 -1.51694,1.69333 -0.9525,0.67028 -2.18723,0.98778 -1.23472,0.35278 -2.54,0.35278 -0.77611,0 -1.41111,-0.0353 -0.59972,-0.0353 -1.16417,-0.10583 -0.52916,-0.0706 -1.09361,-0.17639 -0.56444,-0.10583 -1.19944,-0.28222 -0.49389,-0.17639 -0.45862,-0.635 l 0.14112,-1.30528 q 0.0706,-0.56445 0.56444,-0.35278 z m 16.43946,2.2225 q 0,-0.74083 0.49389,-1.23472 0.52917,-0.52917 1.27,-0.52917 0.74084,0 1.23473,0.52917 0.52916,0.49389 0.52916,1.23472 0,0.74084 -0.52916,1.23473 -0.49389,0.52916 -1.23473,0.52916 -0.74083,0 -1.27,-0.52916 -0.49389,-0.49389 -0.49389,-1.23473 z m 23.35388,-9.70139 q 0,-1.44639 -0.28222,-2.78695 -0.28222,-1.37583 -0.9525,-2.43417 -0.67028,-1.05833 -1.72861,-1.69333 -1.05834,-0.67028 -2.64584,-0.67028 -1.44639,0 -2.50472,0.59972 -1.05834,0.59972 -1.76389,1.65806 -0.67028,1.02305 -1.02306,2.39889 -0.35278,1.37583 -0.35278,2.92806 0,4.09222 1.51695,6.20889 1.55222,2.08139 4.1275,2.08139 1.34056,0 2.36361,-0.56444 1.05834,-0.59973 1.76389,-1.69334 0.74084,-1.09361 1.09361,-2.61056 0.38806,-1.51694 0.38806,-3.42194 z m -13.61723,-8.78418 q 0,-0.49389 0.49389,-0.49389 h 1.34056 q 0.49388,0 0.49388,0.49389 l -0.17638,2.64584 q 0.70555,-1.55222 2.36361,-2.50472 1.69333,-0.95251 3.91583,-0.95251 2.08139,0 3.52778,0.74084 1.48167,0.74083 2.39889,2.04611 0.95251,1.27 1.37584,3.03389 0.45861,1.76389 0.45861,3.77473 0,2.18722 -0.52917,4.05694 -0.49389,1.86973 -1.48166,3.24556 -0.95251,1.37584 -2.39889,2.18723 -1.44639,0.77611 -3.3514,0.77611 -2.15194,0 -3.70417,-0.81139 -1.55222,-0.84667 -2.36361,-2.32834 v 7.58473 q 0,0.49389 -0.49389,0.49389 h -1.34055 q -0.21167,0 -0.38806,-0.14111 -0.14111,-0.14111 -0.14111,-0.35278 z m 36.97118,18.09752 q 0,0.49389 -0.49389,0.49389 h -1.27 q -0.49389,0 -0.49389,-0.49389 v -2.92806 q -0.91723,2.11667 -2.46945,3.06917 -1.51695,0.91722 -3.84528,0.91722 -6.59695,0 -6.59695,-7.37306 v -11.78279 q 0,-0.49389 0.49389,-0.49389 h 1.41111 q 0.49389,0 0.49389,0.49389 v 11.14779 q 0,5.99723 4.58612,5.99723 1.34055,0 2.39889,-0.56445 1.09361,-0.59972 1.83444,-1.5875 0.74084,-1.02306 1.12889,-2.36361 0.38806,-1.34056 0.35278,-2.82223 v -9.80723 q 0,-0.49389 0.49389,-0.49389 h 1.41111 q 0.49389,0 0.49389,0.49389 v 14.18168 q 0,1.16417 0,2.08139 0.0353,0.91722 0.0706,1.83445 z m 19.82616,-9.17223 q 0.0353,-1.48167 -0.28222,-2.89278 -0.28223,-1.41111 -0.9525,-2.54 -0.67028,-1.12889 -1.79917,-1.79917 -1.09361,-0.70556 -2.71639,-0.70556 -1.44639,0 -2.54,0.635 -1.05834,0.59973 -1.76389,1.69334 -0.70556,1.09361 -1.05834,2.54 -0.35278,1.44639 -0.35278,3.06917 0,1.5875 0.42334,3.06917 0.45861,1.44639 1.19944,2.54 0.77611,1.09361 1.79917,1.76389 1.05833,0.635 2.29306,0.635 1.62278,0 2.71639,-0.67028 1.12889,-0.70556 1.79917,-1.83445 0.67027,-1.12888 0.9525,-2.57527 0.3175,-1.44639 0.28222,-2.92806 z m -13.8289,-18.02696 q 0,-0.49389 0.49389,-0.49389 h 1.37583 q 0.49389,0 0.49389,0.49389 v 11.25362 q 0.88195,-1.44639 2.50473,-2.29306 1.62278,-0.88194 3.63361,-0.88194 7.86695,0 7.86695,9.94834 0.0353,1.97555 -0.42333,3.81 -0.42334,1.79917 -1.41111,3.175 -0.98778,1.37584 -2.50473,2.2225 -1.48167,0.81139 -3.52778,0.81139 -4.23333,0 -6.13834,-3.59833 v 2.75167 q 0,0.49389 -0.49389,0.49389 h -1.37583 q -0.49389,0 -0.49389,-0.49389 z m 19.96725,32.4203 q -0.3175,0 -0.14112,-0.24694 2.75167,-4.33917 4.12751,-8.46668 1.41111,-4.1275 1.41111,-8.18445 0,-4.02167 -1.37583,-8.14917 -1.37584,-4.16278 -4.12751,-8.50195 -0.10583,-0.17639 -0.10583,-0.21167 0,-0.0353 0.17639,-0.0353 h 0.98778 q 0.17639,0 0.21166,0.0353 0.0706,0 0.24695,0.17639 3.21028,4.05695 4.72722,8.18445 1.55223,4.12751 1.55223,8.50195 0,4.40973 -1.55223,8.53723 -1.51694,4.1275 -4.72722,8.14917 -0.17639,0.17639 -0.24695,0.17639 -0.0353,0.0353 -0.28222,0.0353 z"
         id="path4" />
    </g>
  </g>
</svg>
