<svg
   viewBox="0 0 7128.987 1995.3224"
   xmlns="http://www.w3.org/2000/svg"
>
   <polygon
      fill="#ffffff"
      points="832.0,1773.62006 704.0,1995.32257 576.0,1995.32257 512.0,1884.47131 704.0,1551.91756 528.0,1247.07662 656.0,1025.374113 1216.0,1995.32257 960.0,1995.32257"
   />
   <polygon
      fill="#ffffff"
      points="320.0,1108.51255 64.0,1108.51255 0.0,997.6613 64.0,886.81005 448.0,886.81005 624.0,581.96911 880.0,581.96911 320.0,1551.91756 192.0,1330.21506"
   />
   <polygon
      fill="#ffffff"
      points="640.0,332.55379 512.0,110.85129 576.0,3e-05 704.0,3e-05 896.0,332.55379 1248.0,332.55379 1376.0,554.25629 256.0,554.25629 384.0,332.55379"
   />
   <polygon
      fill="#ffffff"
      points="1472.0,221.70254 1600.0,3e-05 1728.0,3e-05 1792.0,110.85129 1600.0,443.40504 1776.0,748.24598 1648.0,969.948487 1088.0,3e-05 1344.0,3e-05"
   />
   <polygon
      fill="#ffffff"
      points="1984.0,886.81005 2240.0,886.81005 2304.0,997.6613 2240.0,1108.51255 1856.0,1108.51255 1680.0,1413.35349 1424.0,1413.35349 1984.0,443.40504 2112.0,665.10754"
   />
   <polygon
      fill="#ffffff"
      points="1664.0,1662.76881 1792.0,1884.47131 1728.0,1995.32257 1600.0,1995.32257 1408.0,1662.76881 1056.0,1662.76881 928.0,1441.06631 2048.0,1441.06631 1920.0,1662.76881"
   />
   <path
      d="M 3555.51754,331.7688 h 155 V 1662.7688 h -148 L 2818.51752,607.7688 V 1662.7688 h -155 v -1331 h 148 l 744.00002,1056"
      fill="#ffffff"
   />
   <path
      d="M 4030.30074,518.7688 v -145 c -40,-11 -118,-11 -158,0 v 145 c 40,11 118,11 158,0 m 0,1144 v -935 l -158,-18 V 1662.7688"
      fill="#ffffff"
   />
   <path
      d="M 4992.13174,727.7688 l -337,455 l 335,480 h -193 l -230,-370 l -228,370 h -183 l 334,-467 l -318,-468 h 194 l 208,361 l 227,-361"
      fill="#ffffff"
   />
   <path
      d="M 5693.01064,306.7688 c 333,0 611,243 611,691 c 0,448 -278,690 -611,690 c -333,0 -611,-242 -611,-690 c 0,-448 278,-691 611,-691 m 0,1245 c 266,0 435,-221 435,-554 c 0,-333 -169,-554 -435,-554 c -266,0 -435,221 -435,554 c 0,333 169,554 435,554"
      fill="#ffffff"
   />
   <path
      d="M 6675.98724,1687.7688 c -131,0 -273,-34 -354,-113 l 72,-115 c 85,56 187,84 288,84 c 153,0 271,-66 271,-206 c 0,-122 -88,-194 -291,-313 c -155,-90 -275,-185 -275,-374 c 0,-216 174,-344 424,-344 c 104,0 196,20 279,69 l -54,120 c -65,-34 -160,-45 -237,-45 c -156,0 -243,65 -243,178 c 0,111 79,194 208,270 c 239,140 365,233 365,424 c 0,241 -203,365 -453,365"
      fill="#ffffff"
   />
</svg>