<?xml version="1.0" encoding="UTF-8" standalone="no"?>
<!-- Created with Inkscape (http://www.inkscape.org/) -->

<svg
   width="171.24661mm"
   height="88.512054mm"
   viewBox="0 0 171.24661 88.512054"
   version="1.1"
   id="svg1"
   xmlns="http://www.w3.org/2000/svg"
   xmlns:svg="http://www.w3.org/2000/svg">
  <defs
     id="defs1">
    <clipPath
       clipPathUnits="userSpaceOnUse"
       id="clipPath513">
      <path
         d="M 0,982 H 1512 V 0 H 0 Z"
         transform="translate(-569.47651,-510.75891)"
         id="path513" />
    </clipPath>
    <clipPath
       clipPathUnits="userSpaceOnUse"
       id="clipPath515">
      <path
         d="M 0,982 H 1512 V 0 H 0 Z"
         transform="translate(-671.53127,-468.44161)"
         id="path515" />
    </clipPath>
    <clipPath
       clipPathUnits="userSpaceOnUse"
       id="clipPath517">
      <path
         d="M 0,982 H 1512 V 0 H 0 Z"
         transform="translate(-748.71977,-516.82971)"
         id="path517" />
    </clipPath>
    <clipPath
       clipPathUnits="userSpaceOnUse"
       id="clipPath519">
      <path
         d="M 0,982 H 1512 V 0 H 0 Z"
         transform="translate(-762.54077,-506.15121)"
         id="path519" />
    </clipPath>
    <clipPath
       clipPathUnits="userSpaceOnUse"
       id="clipPath521">
      <path
         d="M 0,982 H 1512 V 0 H 0 Z"
         transform="translate(-835.28702,-512.34051)"
         id="path521" />
    </clipPath>
    <clipPath
       clipPathUnits="userSpaceOnUse"
       id="clipPath523">
      <path
         d="M 0,982 H 1512 V 0 H 0 Z"
         transform="translate(-1008.0863,-518.05802)"
         id="path523" />
    </clipPath>
    <clipPath
       clipPathUnits="userSpaceOnUse"
       id="clipPath525">
      <path
         d="M 0,982 H 1512 V 0 H 0 Z"
         transform="translate(-1150.4325,-526.87991)"
         id="path525" />
    </clipPath>
    <clipPath
       clipPathUnits="userSpaceOnUse"
       id="clipPath527">
      <path
         d="M 0,982 H 1512 V 0 H 0 Z"
         transform="translate(-916.82702,-483.93881)"
         id="path527" />
    </clipPath>
    <clipPath
       clipPathUnits="userSpaceOnUse"
       id="clipPath529">
      <path
         d="M 0,982 H 1512 V 0 H 0 Z"
         transform="translate(-1035.8288,-500.77772)"
         id="path529" />
    </clipPath>
    <clipPath
       clipPathUnits="userSpaceOnUse"
       id="clipPath531">
      <path
         d="M 0,982 H 1512 V 0 H 0 Z"
         transform="translate(-1105.0628,-502.55852)"
         id="path531" />
    </clipPath>
    <clipPath
       clipPathUnits="userSpaceOnUse"
       id="clipPath533">
      <path
         d="M 0,982 H 1512 V 0 H 0 Z"
         transform="translate(-1236.3458,-490.24271)"
         id="path533" />
    </clipPath>
    <clipPath
       clipPathUnits="userSpaceOnUse"
       id="clipPath521-1">
      <path
         d="M 0,982 H 1512 V 0 H 0 Z"
         transform="translate(-835.28702,-512.34051)"
         id="path521-0" />
    </clipPath>
  </defs>
  <g
     id="g11"
     transform="translate(-120.51264,-21.336248)"
     style="display:inline">
    <path
       id="path1-2"
       d="m 0,0 2.794,-85.772 c 0.105,-3.205 3.033,-5.568 6.188,-4.995 l 8.597,1.575 c 2.59,0.471 4.432,2.788 4.306,5.417 l 2.27,23.174 c 0.467,2.429 1.449,4.618 3.783,5.294 l 1.013,0.294 c 3.359,0.973 6.713,-1.547 6.713,-5.044 v -19.864 c 0,-3.74 3.799,-6.281 7.256,-4.853 l 3.811,1.576 c 1.695,0.7 2.902,2.233 3.183,4.045 l 14.138,90.856 c 0.547,3.51 -2.478,6.539 -5.99,5.996 L 42.118,15.236 C 39.783,14.876 37.976,13 37.703,10.653 l -4.291,-36.932 c -0.276,-2.38 -2.129,-4.271 -4.503,-4.596 -3.133,-0.43 -5.932,1.988 -5.963,5.15 L 22.661,3.209 C 22.628,6.594 19.446,9.064 16.158,8.257 L 3.996,5.27 C 1.586,4.679 -0.081,2.48 0,0"
       style="display:inline;fill:#ffffff;fill-opacity:1;fill-rule:nonzero;stroke:none"
       transform="matrix(0.35277776,0,0,-0.35277776,120.51364,32.920726)"
       clip-path="url(#clipPath513)" />
    <path
       id="path2"
       d="m 0,0 c 0.03,-0.568 -0.313,-1.09 -0.846,-1.288 l -8.491,-3.147 c -0.988,-0.366 -1.979,0.534 -1.708,1.553 0,0 2.954,21.87 8.631,27.433 0.899,0.88 2.416,0.229 2.416,-1.029 z m 11.753,42.795 c -0.268,4.146 12.155,18.901 -14.595,16.065 -26.75,-2.836 -34.373,-101.363 -34.373,-101.363 -0.685,-4.343 3.364,-7.932 7.593,-6.732 l 9.409,2.67 c 2.363,0.671 4.082,2.709 4.344,5.152 l 1.453,13.542 c 0.217,2.029 1.447,3.809 3.267,4.731 v 0 c 4.161,2.107 9.034,-1.111 8.731,-5.764 l -0.464,-7.136 c -0.286,-4.391 4.082,-7.597 8.185,-6.007 l 7.52,2.913 c 2.452,0.949 4.005,3.38 3.835,6.004 z"
       style="fill:#ffffff;fill-opacity:1;fill-rule:nonzero;stroke:none"
       transform="matrix(0.35277776,0,0,-0.35277776,156.51629,47.849326)"
       clip-path="url(#clipPath515)" />
    <path
       id="path3"
       d="m 0,0 -3.232,-14.596 c -0.694,-3.133 -2.917,-5.746 -5.948,-6.801 -5.355,-1.865 -14.802,-5.545 -15.23,-23.415 -0.342,-14.235 6.233,-20.52 16.172,-20.38 5.809,0.082 10.339,-4.998 9.525,-10.751 l -0.493,-3.479 c -0.532,-3.762 -3.265,-6.827 -6.936,-7.804 -5.947,-1.583 -15.313,-3.021 -23.901,0.16 -10.884,4.032 -20.231,17.523 -21.649,34.336 -2.749,32.576 12.745,54.94 39.475,63.722 C -5.245,13.283 1.587,7.165 0,0"
       style="fill:#ffffff;fill-opacity:1;fill-rule:nonzero;stroke:none"
       transform="matrix(0.35277776,0,0,-0.35277776,183.74668,30.779086)"
       clip-path="url(#clipPath517)" />
    <path
       id="path4"
       d="m 0,0 v -75.817 c 0,-6.119 5.607,-10.703 11.604,-9.487 l 2.73,0.554 c 4.541,0.921 7.792,4.93 7.756,9.562 l -0.176,22.676 c -0.022,2.872 3.893,3.738 5.084,1.123 l 10.937,-24.028 c 2.403,-5.28 8.879,-7.275 13.837,-4.263 l 2.62,1.592 c 4.28,2.6 5.869,8.036 3.665,12.533 l -8.166,16.664 c -6.31,12.874 -6.182,27.969 0.344,40.735 l 7.412,14.497 c 3.243,6.344 -1.246,13.899 -8.368,14.084 -3.489,0.09 -6.756,-1.704 -8.551,-4.696 L 25.951,-8.894 c -1.094,-1.823 -3.901,-0.851 -3.634,1.258 l 2.112,16.684 c 0.848,6.7 -5.251,12.187 -11.824,10.638 L 7.46,18.474 C 0,16.493 0,4.491 0,0"
       style="fill:#ffffff;fill-opacity:1;fill-rule:nonzero;stroke:none"
       transform="matrix(0.35277776,0,0,-0.35277776,188.62242,34.546226)"
       clip-path="url(#clipPath519)" />
    <path
       id="path5"
       d="m 0,0 -5.36,-78.772 c -0.337,-4.959 4.409,-8.712 9.157,-7.24 l 33.512,10.393 c 3.161,0.98 5.22,4.019 4.959,7.318 l -0.436,5.498 c -0.385,4.86 -5.456,7.884 -9.915,5.913 l -4.57,-2.02 c -5.215,-2.305 -10.876,2.188 -9.814,7.79 l 0.388,2.047 c 0.415,2.193 1.841,4.061 3.846,5.041 l 16.978,8.295 c 2.429,1.187 3.97,3.655 3.97,6.358 v 3.498 c 0,4.935 -4.924,8.354 -9.548,6.631 l -5.615,-2.093 c -4.998,-1.863 -10.182,2.262 -9.489,7.55 0.322,2.453 1.9,4.559 4.164,5.557 l 17.272,7.609 c 2.566,1.131 4.223,3.671 4.223,6.476 v 4.638 c 0,4.929 -4.914,8.349 -9.536,6.635 L 4.601,6.155 C 1.99,5.187 0.189,2.778 0,0"
       style="fill:#ffffff;fill-opacity:1;fill-rule:nonzero;stroke:none"
       transform="matrix(0.35277776,0,0,-0.35277776,214.28568,32.362776)"
       clip-path="url(#clipPath521)" />
    <path
       id="path6"
       d="m 0,0 v 0 c -1.071,-4.698 -4.846,-8.256 -9.577,-9.171 -3.752,-0.725 -8.132,-2.762 -11.176,-7.896 -2.823,-4.76 -0.423,-11.201 10.593,-19.642 12.107,-9.277 12.667,-20.212 11.267,-27.438 -1.834,-9.456 -10.568,-18.739 -19.135,-23.753 -5.276,-3.088 -12.038,-1.663 -15.69,3.239 l -1.308,1.755 c -3.736,5.014 -2.885,11.979 1.778,16.143 2.737,2.444 5.093,5.555 5.432,9.174 1.009,10.774 -13.68,16.183 -18.173,25.974 -5.457,11.888 -3.238,25.324 13.054,37.347 6.634,4.896 13.083,7.461 18.659,8.728 C -5.685,16.412 1.958,8.59 0,0"
       style="fill:#ffffff;fill-opacity:1;fill-rule:nonzero;stroke:none"
       transform="matrix(0.35277776,0,0,-0.35277776,275.24541,30.345766)"
       clip-path="url(#clipPath523)" />
    <path
       id="path8"
       d="m 0,0 c -3.063,-1.926 -7.046,0.261 -7.046,3.88 v 13.167 c 0,1.762 1.008,3.363 2.592,4.133 5.911,2.874 18.778,8.496 18.778,-1.332 C 14.324,12.187 5.921,3.723 0,0 m 17.781,-14.57 c -1.739,3.837 -0.682,8.314 2.488,11.087 5.232,4.578 14.632,12.786 12.534,29.787 -2.725,22.07 -26.268,27.091 -53.193,10.904 -2.837,-1.706 -4.569,-4.785 -4.569,-8.096 v -76.704 c 0,-6.008 5.535,-10.488 11.411,-9.238 4.126,0.879 7.169,4.386 7.456,8.595 l 0.975,14.287 c 0.322,4.723 6.528,6.23 8.981,2.182 l 9.396,-15.509 c 3.245,-5.355 10.707,-6.128 14.98,-1.552 l 0.676,0.723 c 2.603,2.788 3.274,6.869 1.7,10.344 z"
       style="fill:#ffffff;fill-opacity:1;fill-rule:nonzero;stroke:none"
       transform="matrix(0.35277776,0,0,-0.35277776,243.05118,42.382266)"
       clip-path="url(#clipPath527)" />
    <path
       id="path9"
       d="m 0,0 -0.994,0.032 c -2.738,0.087 -4.767,2.574 -4.303,5.274 l 0.412,2.395 c 0.462,2.687 4.92,9.847 -2.224,9.125 v 0 c -2.907,0.113 -4.968,2.91 -4.176,5.708 1.564,5.524 4.497,12.449 7.035,16.927 0.766,1.353 2.16,2.219 3.713,2.295 4.222,0.205 10.104,0.542 14.579,1.035 3.013,0.332 5.521,-2.328 4.943,-5.303 C 17.024,27.41 9.874,10.406 3.806,1.867 2.937,0.643 1.501,-0.048 0,0"
       style="fill:#ffffff;fill-opacity:1;fill-rule:nonzero;stroke:none"
       transform="matrix(0.35277776,0,0,-0.35277776,285.03235,36.441876)"
       clip-path="url(#clipPath529)" />
    <path
       id="path10"
       d="m 0,0 c -0.786,-7.485 -7.904,-13.561 -13.667,-17.312 -3.349,-2.178 -7.81,0.054 -8.124,4.037 l -1.033,13.084 c -0.201,2.546 1.44,4.874 3.909,5.527 C -11.964,7.174 0.986,9.385 0,0 m -36.026,20.435 c -3.647,-1.853 -5.795,-5.749 -5.56,-9.833 l 4.597,-79.83 c 0.387,-6.727 6.958,-11.326 13.411,-9.386 4.396,1.321 7.41,5.362 7.425,9.952 l 0.051,16.15 c 0.012,3.695 1.99,7.093 5.177,8.964 10.324,6.059 32.524,21.645 32.218,43.487 -0.366,26.15 -33.854,32.419 -57.319,20.496"
       style="fill:#ffffff;fill-opacity:1;fill-rule:nonzero;stroke:none"
       transform="matrix(0.35277776,0,0,-0.35277776,135.18943,81.957243)"
       clip-path="url(#clipPath531)" />
    <path
       id="path7"
       d="m 0,0 c -5.526,0.786 -10.688,-2.954 -11.637,-8.454 -4.204,-24.359 -11.239,-85.898 23.821,-90.982 34.917,-5.062 35.251,62.659 33.95,90.338 -0.289,6.153 -5.85,10.691 -11.935,9.731 -5.173,-0.815 -8.917,-5.365 -8.719,-10.597 0.702,-18.572 0.984,-58.991 -9.827,-59.572 -10.717,-0.577 -8.385,39.403 -6.679,58.37 0.492,5.475 -3.399,10.373 -8.841,11.147 z"
       style="fill:#ffffff;fill-opacity:1;fill-rule:nonzero;stroke:none"
       transform="matrix(0.35277777,0,0,-0.35277777,151.19487,73.376243)"
       clip-path="url(#clipPath525)" />
    <path
       id="path11"
       d="m 0,0 c -3.115,-1.97 -7.179,0.29 -7.179,3.976 v 8.665 c 0,1.602 0.814,3.088 2.163,3.952 5.08,3.252 17.53,10.165 19.999,1.595 C 16.784,11.938 7.137,4.514 0,0 m -2.821,-39.473 c -3.465,-2.407 -8.21,0.124 -8.21,4.343 v 7.268 c 0,1.85 0.971,3.555 2.556,4.51 4.391,2.645 13.117,6.679 15.423,-1.325 1.579,-5.479 -4.314,-11.009 -9.769,-14.796 m 34.54,70.385 C 20.05,50.171 -3.796,41.073 -17.407,33.62 -23.674,30.189 -27.584,23.628 -27.704,16.484 l -1.004,-59.621 c -0.246,-14.59 14.71,-24.465 28.068,-18.591 6.025,2.649 12.097,6.36 17.197,11.557 10.111,10.306 9.25,22.369 6.798,30.599 -1.832,6.149 -0.624,12.791 3.281,17.882 6.061,7.902 12.447,20.447 5.083,32.602"
       style="fill:#ffffff;fill-opacity:1;fill-rule:nonzero;stroke:none"
       transform="matrix(0.35277776,0,0,-0.35277776,181.50315,86.301243)"
       clip-path="url(#clipPath533)" />
    <path
       id="path5-3"
       d="M 1.5075188,8.6143932 -5.36,-78.772 c -0.337,-4.959 4.409,-8.712 9.157,-7.24 l 33.512,10.393 c 3.161,0.98 5.22,4.019 4.959,7.318 l -0.436,5.498 c -0.385,4.86 -5.456,7.884 -9.915,5.913 l -4.57,-2.02 c -5.215,-2.305 -9.512765,2.096187 -9.814,7.79 0,0 3.040756,57.9069329 2.825396,58.1907613 v 4.6379997 c 0,4.929 -4.769264,6.484985 -9.405668,4.810338 L 6.1085188,14.769393 c -2.6190547,-0.94599 -4.412,-3.377 -4.601,-6.1549998"
       style="fill:#ffffff;fill-opacity:1;fill-rule:nonzero;stroke:none"
       transform="matrix(0.35277777,0,0,-0.35277777,196.40951,77.392631)"
       clip-path="url(#clipPath521-1)" />
    <path
       id="path12"
       d="m 0,0 v -75.817 c 0,-6.119 5.607,-10.703 11.604,-9.487 l 2.73,0.554 c 4.541,0.921 7.792,4.93 7.756,9.562 l -0.176,22.676 c -0.022,2.872 0.58317,30.209543 0.403,44.876 l 2.112,16.684 c 0.848,6.7 -5.251,12.187 -11.824,10.638 L 7.46,18.474 C 0,16.493 0,4.491 0,0"
       style="fill:#ffffff;fill-opacity:1;fill-rule:nonzero;stroke:none"
       transform="matrix(0.35277776,0,0,-0.35277776,213.7929,78.374205)"
       clip-path="url(#clipPath519)" />
    <path
       id="path13"
       d="m 0,0 -3.232,-14.596 c -0.694,-3.133 -2.917,-5.746 -5.948,-6.801 -5.355,-1.865 -14.802,-5.545 -15.23,-23.415 -0.342,-14.235 6.233,-20.52 16.172,-20.38 5.809,0.082 10.339,-4.998 9.525,-10.751 l -0.493,-3.479 c -0.532,-3.762 -3.265,-6.827 -6.936,-7.804 -5.947,-1.583 -15.313,-3.021 -23.901,0.16 -10.884,4.032 -20.231,17.523 -21.649,34.336 -2.749,32.576 12.745,54.94 39.475,63.722 C -5.245,13.283 1.587,7.165 0,0"
       style="fill:#ffffff;fill-opacity:1;fill-rule:nonzero;stroke:none"
       transform="matrix(0.35277776,0,0,-0.35277776,243.24924,75.386361)"
       clip-path="url(#clipPath517)" />
  </g>
</svg>
